<?xml version="1.0" encoding="UTF-8" standalone="no"?>
<!-- Created with Inkscape (http://www.inkscape.org/) -->

<svg
   width="399.95245"
   height="363.66"
   viewBox="0 0 399.95245 363.66001"
   version="1.1"
   id="alohomora-1"
   xml:space="preserve"
   xmlns="http://www.w3.org/2000/svg"
   xmlns:svg="http://www.w3.org/2000/svg"><defs
     id="defs1" /><g
     id="layer1"
     transform="matrix(1.0240291,0,0,1.0240291,-65.644981,-50.168948)"
     style="stroke-width:1.95307;stroke-dasharray:none"><path
       style="fill:none;stroke:#ffffff;stroke-width:1.95307;stroke-linecap:round;stroke-linejoin:round;stroke-dasharray:none;stroke-opacity:1"
       d="m 184.20015,111.54719 c -0.67536,1.43141 -2.35602,4.3502 -4.25756,6.06628 -1.88382,1.70008 -3.662,2.53835 -5.40207,2.65134"
       id="path40" /><path
       style="fill:none;stroke:#ffffff;stroke-width:1.95307;stroke-linecap:round;stroke-linejoin:round;stroke-dasharray:none;stroke-opacity:1"
       d="m 138.43701,213.41432 c -2.8098,3.86469 -5.12915,8.33619 -7.27576,12.62939 -2.49917,4.99834 -4.57182,10.14329 -5.96978,15.70933 -5.38965,21.45915 -9.30481,42.59534 -18.31948,62.83734 -6.64967,14.93149 -15.39235,29.2288 -25.06353,42.54611 -4.87367,6.71112 -13.197896,14.07127 -16.452776,21.60034 -2.178353,5.03893 8.319697,7.8291 11.315836,9.16378"
       id="path39" /><path
       style="fill:none;stroke:#ffffff;stroke-width:1.95307;stroke-linecap:round;stroke-linejoin:round;stroke-dasharray:none;stroke-opacity:1"
       d="m 147.36352,203.78882 c 7.51209,-0.94935 16.67121,-0.11282 23.564,1.30911"
       id="path38" /><path
       style="fill:none;stroke:#ffffff;stroke-width:1.95307;stroke-linecap:round;stroke-linejoin:round;stroke-dasharray:none;stroke-opacity:1"
       d="m 171.58208,196.58871 c 0,3.23023 -0.79776,6.02284 0.44495,10.47289 3.29107,11.785 8.02971,25.21581 11.09209,37.30967 5.46079,21.56565 9.80093,43.24661 11.91584,65.45556 1.38757,14.57109 1.1354,29.36655 2.91571,43.85522 1.08319,8.81533 2.58417,18.08126 4.39754,26.83678 0.74013,3.57353 3.31465,8.82332 2.57226,12.40068 -0.63205,3.0457 -5.2288,3.7617 -7.81072,4.33947 -8.30078,1.85744 -16.17153,0.14957 -24.21856,1.1384 -4.31336,0.53003 -8.72688,2.65545 -13.09111,3.444 -5.19875,0.93933 -11.36582,1.64698 -16.36389,1.11668 -4.01181,-0.42564 -8.15574,-0.52536 -12.43656,-1.36517 -9.72593,-1.90806 -16.64514,-8.17352 -25.52767,-11.01786 -6.26328,-2.00561 -13.68711,-1.08055 -19.63666,-4.39348 -3.46984,-1.93211 -6.03236,-5.16242 -8.50923,-8.28094 14.51031,-14.63138 26.25158,-33.67174 35.68237,-51.70989 4.66697,-8.92647 9.49863,-22.25114 12.10019,-31.41867"
       id="path37" /><path
       style="fill:none;stroke:#ffffff;stroke-width:1.95307;stroke-linecap:round;stroke-linejoin:round;stroke-dasharray:none;stroke-opacity:1"
       d="m 145.39985,296.73571 c -3.19491,9.43481 -4.72191,21.05717 -8.07991,30.76412 -4.41527,12.76319 -9.70845,26.04823 -15.9952,37.96422 -4.04199,7.66127 -9.59072,18.0606 -14.54367,24.87311"
       id="path36" /><path
       style="fill:none;stroke:#ffffff;stroke-width:1.95307;stroke-linecap:round;stroke-linejoin:round;stroke-dasharray:none;stroke-opacity:1"
       d="m 176.16397,278.40816 c 3.30044,26.11535 0.38221,56.09802 -2.995,81.81945 -1.38039,10.51332 -0.27778,27.54934 -0.27778,37.30967"
       id="path35" /><path
       style="fill:none;stroke:#ffffff;stroke-width:1.95307;stroke-linecap:round;stroke-linejoin:round;stroke-dasharray:none;stroke-opacity:1"
       d="m 423.58598,189.3886 30.10956,5.891"
       id="path34" /><path
       style="fill:none;stroke:#ffffff;stroke-width:1.95307;stroke-linecap:round;stroke-linejoin:round;stroke-dasharray:none;stroke-opacity:1"
       d="m 289.35361,163.98424 c -0.69301,0.95253 -41.67544,26.79515 -45.08447,29.90692"
       id="path33" /><path
       style="fill:none;stroke:#ffffff;stroke-width:1.95307;stroke-linecap:round;stroke-linejoin:round;stroke-dasharray:none;stroke-opacity:1"
       d="m 289.29593,164.07099 c 0.3664,-0.6977 -1.06333,-0.47396 -1.21034,-0.42453 -5.78728,1.94503 -42.53966,25.49372 -47.12062,29.01492 0,0 6.8318,1.85031 5.77859,3.65625 -0.26107,0.44764 -5.4806,0.34735 -5.4806,0.34735 0,0 -3.28305,3.87752 -5.53493,4.85103 -0.99571,0.43046 -3.2392,0.31338 -3.2392,0.31338 0,0 -4.87337,4.97106 -7.88775,4.57765 -0.30596,-0.0399 -0.64271,-0.34622 -0.65455,-0.65455 -0.0772,-2.01009 3.92733,-4.58189 3.92733,-4.58189 -5.4868,-2.89125 -10.19379,-2.12439 -16.36389,-1.97326 -10.41384,0.25509 -21.79036,2.20297 -32.07322,0.25908 -10.37246,-1.96083 -19.00685,-15.32856 -26.18223,-22.50438 -5.3899,-5.39025 -18.52042,-15.25277 -14.02496,-24.18979 2.3945,-4.76031 8.27233,-4.01814 12.06129,-1.08027 6.11245,4.73941 18.27461,21.05134 21.84638,25.86965"
       id="path32" /><path
       style="fill:none;stroke:#ffffff;stroke-width:1.95307;stroke-linecap:round;stroke-linejoin:round;stroke-dasharray:none;stroke-opacity:1"
       d="m 227.87386,201.1706 4.53564,0.60661"
       id="path31" /><path
       style="fill:none;stroke:#ffffff;stroke-width:1.95307;stroke-linecap:round;stroke-linejoin:round;stroke-dasharray:none;stroke-opacity:1"
       d="m 141.47252,144.22426 c 6.9824,0.35832 16.82497,7.77417 20.94578,8.50922"
       id="path30" /><path
       style="fill:none;stroke:#ffffff;stroke-width:1.95307;stroke-linecap:round;stroke-linejoin:round;stroke-dasharray:none;stroke-opacity:1"
       d="m 138.8543,140.95148 c -4.9823,7.28992 -5.14384,16.65957 -3.34905,24.87312 0.40399,1.84876 0.51311,3.32755 1.02882,5.04955 0.49705,1.65968 1.30664,3.11873 1.88133,4.7713 1.4824,4.26272 3.6094,9.96923 4.82786,14.3977 0.8332,3.02828 0.74171,4.76023 0.87325,7.85467 0.1146,2.69589 0.6827,4.1163 -0.27324,6.54556 -1.19825,3.04494 -3.63947,6.53732 -5.64353,9.16377 -4.77455,-7.68191 -5.57824,-16.38238 -4.48037,-25.52766 0.66069,-5.50344 2.47074,-14.52109 2.54006,-17.87865"
       id="path29" /><path
       style="fill:none;stroke:#ffffff;stroke-width:1.95307;stroke-linecap:round;stroke-linejoin:round;stroke-dasharray:none;stroke-opacity:1"
       d="m 235.07397,131.13315 28.80045,9.81833"
       id="path28" /><path
       style="fill:none;stroke:#ffffff;stroke-width:1.95307;stroke-linecap:round;stroke-linejoin:round;stroke-dasharray:none;stroke-opacity:1"
       d="m 419.00409,140.29693 29.455,-9.81834"
       id="path27" /><path
       style="fill:none;stroke:#ffffff;stroke-width:1.95307;stroke-linecap:round;stroke-linejoin:round;stroke-dasharray:none;stroke-opacity:1"
       d="m 156.69678,127.8581 -0.75625,8.31866"
       id="path26" /><path
       style="fill:none;stroke:#ffffff;stroke-width:1.95307;stroke-linecap:round;stroke-linejoin:round;stroke-dasharray:none;stroke-opacity:1"
       d="m 151.94541,126.55126 c 3.85342,1.50567 13.39349,3.14003 14.16226,-0.6092"
       id="path25" /><path
       style="fill:none;stroke:#ffffff;stroke-width:1.95307;stroke-linecap:round;stroke-linejoin:round;stroke-dasharray:none;stroke-opacity:1"
       d="m 168.58729,119.55225 c 0,0 -1.25194,0.12018 -2.53177,0.44338 -1.39726,0.35286 -2.82777,0.9477 -2.69877,1.89234 0.14191,1.03917 3.64344,1.39051 3.64344,1.39051"
       id="path24" /><path
       style="fill:none;stroke:#ffffff;stroke-width:1.95307;stroke-linecap:round;stroke-linejoin:round;stroke-dasharray:none;stroke-opacity:1"
       d="m 167.00019,99.05993 c 0.60806,2.94494 0.90601,3.93872 1.30911,5.891"
       id="path23" /><path
       style="fill:none;stroke:#ffffff;stroke-width:1.95307;stroke-linecap:round;stroke-linejoin:round;stroke-dasharray:none;stroke-opacity:1"
       d="m 272.46078,168.67242 c 0.0583,-0.73827 0.0115,-16.18585 0.0913,-17.35731 0.32517,-4.76988 1.49641,-10.4523 2.93812,-14.94552 6.75466,-21.0516 24.23993,-37.75244 45.33049,-44.038036 13.57559,-4.045907 28.5782,-3.814272 41.89156,0.619196 16.64802,5.54391 31.69872,17.97691 39.7587,33.60051 4.03719,7.82578 6.44699,17.36997 7.64656,26.18222 2.14907,15.78744 0.37733,33.08774 0.37733,49.09167 v 121.74734 38.61878 c 0,5.73108 0.46594,12.73315 -0.0384,18.31693 -0.19204,2.12607 -1.06873,3.09276 -3.24701,3.50765 -8.33994,1.58849 -17.24668,0.43031 -26.16963,0.43031 h -81.1649 -19.63666 c -1.98972,0 -5.80343,0.69099 -7.18194,-1.0495 -2.1144,-2.66965 -0.67273,-10.6466 -0.67273,-14.00528 v -37.30966 l 0.0386,-153.53167"
       id="path22" /><path
       style="fill:none;stroke:#ffffff;stroke-width:1.95307;stroke-linecap:round;stroke-linejoin:round;stroke-dasharray:none;stroke-opacity:1"
       d="m 282.00894,163.46541 c 0.005,-0.25451 0.0515,-12.51136 0.0616,-12.76563 0.67531,-17.0096 12.2769,-33.46923 26.31357,-42.56445 7.37046,-4.77577 15.66798,-7.73869 24.21855,-8.89055 3.0298,-0.40814 4.82052,-0.78907 7.85467,-0.8273 3.5484,-0.0447 5.62685,0.39851 9.16378,0.92226 18.90121,2.79892 35.76093,14.70169 44.84413,31.79341 3.16886,5.96279 6.03814,15.58089 6.20162,22.25489 0.0546,2.22834 0.01,3.60865 0.01,5.891 0,8.84893 -0.54597,23.24547 0.0586,32.07322 0.66104,31.53356 -0.0663,62.70411 0.59561,94.25601 0.081,16.79368 5.2e-4,34.65757 5.2e-4,51.70989 0,9.14137 0.0112,18.35748 0,27.49134 -0.003,2.30465 0.14214,4.36607 -0.24042,6.53293 -0.64896,3.6756 -3.95043,3.28404 -6.95969,3.2854 -6.4432,0.003 -13.1667,0 -19.63667,0 -8.3908,0 -17.90775,-0.14343 -26.18222,0.0162 -2.0132,0.0388 -3.31832,0.0876 -5.23645,0.0363 -2.30632,-0.0615 -4.59571,-0.0525 -7.20011,-0.0525 H 305.76611 288.0931 c -1.74753,-6.5e-4 -4.65827,0.48396 -5.87282,-1.04951 -1.96731,-2.48375 -0.67286,-9.5867 -0.67286,-12.69616 V 324.8816 l 0.5403,-152.00473"
       id="path21" /><path
       style="fill:none;stroke:#ffffff;stroke-width:1.95307;stroke-linecap:round;stroke-linejoin:round;stroke-dasharray:none;stroke-opacity:1"
       d="m 166.34563,96.4417 c -1.24107,3.3898 -6.51269,9.58706 -11.12744,12.25019 -2.26466,1.30691 -8.65898,1.14391 -9.79764,2.5551 -2.08067,2.57863 1.52483,5.84857 2.18691,8.10416 1.23796,4.21746 -1.22203,8.27859 -0.40203,13.09111 0.32335,1.89767 2.15434,5.08467 0.93286,6.86377 -2.44997,3.56841 -11.13587,1.34366 -14.52044,0.31057 -2.62109,-0.80005 -4.98463,-1.80913 -7.17384,-3.39147 -3.30869,-2.3915 -5.37126,-5.62672 -5.19352,-9.67387 0.25587,-5.82608 4.57875,-9.7821 6.41021,-15.05478 1.89844,-5.46552 1.64234,-11.47126 5.0728,-16.36389 4.89768,-6.985213 13.66029,-9.623931 21.83013,-7.700135 6.42742,1.5135 17.02324,6.240775 15.98712,14.245695 -0.22802,1.76167 -1.06212,2.89312 -1.66316,4.58189 -1.43771,4.03959 0.85397,5.03197 0.70254,9.16378 -0.11722,3.19795 -2.55001,7.26834 -3.4344,10.47289 -0.75518,2.73627 1.03319,7.44153 0.0348,9.63599 -1.81517,3.9899 -9.87652,0.34418 -10.15218,4.80514 -0.47822,7.73881 12.34187,17.09679 16.04923,23.52309 2.84421,4.9301 -0.54904,7.29919 0.40101,11.782 0.66309,3.12871 4.41911,6.78342 6.58094,9.12539 3.15478,3.41768 7.1238,3.06287 11.49461,3.69046 10.36724,1.48857 22.95691,5.15439 33.38233,4.08846 3.93507,-0.40235 6.86619,-1.68517 10.47289,-1.34144 3.5193,0.33543 3.58593,0.84533 6.61615,1.46777"
       id="path20" /><path
       style="fill:none;stroke:#ffffff;stroke-width:1.95307;stroke-linecap:round;stroke-linejoin:round;stroke-dasharray:none;stroke-opacity:1"
       d="M 407.84622,73.934587 393.50685,98.003042"
       id="path19" /><path
       style="fill:none;stroke:#ffffff;stroke-width:1.95307;stroke-linecap:round;stroke-linejoin:round;stroke-dasharray:none;stroke-opacity:1"
       d="m 271.15384,86.648228 7.54773,11.068453"
       id="path19-0" /><path
       style="fill:none;stroke:#ffffff;stroke-width:1.95307;stroke-linecap:round;stroke-linejoin:round;stroke-dasharray:none;stroke-opacity:1"
       d="M 341.11198,49.968256 V 78.114147"
       id="path1" /><g
       id="g451"
       transform="translate(5.5574018,9.8798255)"
       style="stroke-width:1.95307;stroke-dasharray:none"><path
         d="m 286.75876,164.64428 0.93333,16.96269 0.34667,-0.0853 7.38667,-16.79736 h 0.34667 l 1.41334,16.88269 h 0.34666 l 6.80001,-16.96269"
         style="fill:none;stroke:#ffffff;stroke-width:1.95307;stroke-linecap:round;stroke-linejoin:round;stroke-dasharray:none;stroke-opacity:1"
         id="path407" /><path
         d="m 306.59882,175.04429 h 9.25335 l 0.24,-1.49333 -0.08,-1.94667 -0.93334,-1.49333 -1.17333,-0.85334 -1.76,-0.08 -1.84001,0.50667 -1.68,1.25333 -0.93333,1.25334 -0.90667,1.6 -0.42667,1.68 v 2.02667 l 0.42667,1.84 1.25333,1.51467 1.33334,0.66934 1.76,0.168 1.52,-0.41867 1.68,-0.75734"
         style="fill:none;stroke:#ffffff;stroke-width:1.95307;stroke-linecap:round;stroke-linejoin:round;stroke-dasharray:none;stroke-opacity:1"
         id="path408" /><path
         d="m 323.23883,163.04428 -3.01334,17.38669 v 0.58933 l 0.16,0.33334 0.42667,0.25333 h 0.48"
         style="fill:none;stroke:#ffffff;stroke-width:1.95307;stroke-linecap:round;stroke-linejoin:round;stroke-dasharray:none;stroke-opacity:1"
         id="path409" /><path
         d="m 334.83886,180.1803 -1.6,1.008 -2,0.41867 -1.78667,-0.25333 -1.68,-1.25867 -0.82667,-1.77067 -0.08,-2.08 0.42667,-2.18667 0.98667,-2.02667 1.6,-1.6 1.76,-0.90667 1.86667,-0.26667 1.41333,0.26667 1.01334,0.48 0.24,0.50667"
         style="fill:none;stroke:#ffffff;stroke-width:1.95307;stroke-linecap:round;stroke-linejoin:round;stroke-dasharray:none;stroke-opacity:1"
         id="path410" /><path
         d="m 343.82546,181.60697 h 0.08 l 1.76,-0.41867 1.76,-1.09333 1.25334,-1.69067 0.85333,-1.84 0.32,-1.76001 v -1.6 l -0.24,-1.41333 -0.58666,-1.09334 -1.09334,-1.01333 -1.17333,-0.42667 -1.09334,-0.08 -1.44,0.24 -1.41333,0.77334 -1.28001,1.25333 -0.82666,1.17333 -0.82667,1.76001 -0.18667,1.36 -0.16,1.57333 0.16,1.44001 0.77334,1.344 0.98666,0.92533 1.17334,0.50134 1.2,0.0853"
         style="fill:none;stroke:#ffffff;stroke-width:1.95307;stroke-linecap:round;stroke-linejoin:round;stroke-dasharray:none;stroke-opacity:1"
         id="path411" /><path
         d="m 354.41222,181.68964 2.18667,-12.35202 -0.50667,2.77334 1.33334,-1.01334 1.25333,-0.90666 1.17334,-0.66667 1.28,-0.34667 1.09333,0.16 0.66667,0.34667 0.74667,0.82667 0.26667,1.44 -0.18667,1.76 -1.41334,7.97868 1.68001,-9.31202 0.50666,-0.69333 2.00001,-1.57333 1.52,-0.69334 1.09333,-0.32 1.09334,0.32 0.74667,0.42667 0.69333,1.09333 v 2.18667 l -1.52,8.48268"
         style="fill:none;stroke:#ffffff;stroke-width:1.95307;stroke-linecap:round;stroke-linejoin:round;stroke-dasharray:none;stroke-opacity:1"
         id="path412" /><path
         d="m 376.91882,175.04429 h 9.25335 l 0.24,-1.49333 -0.08,-1.94667 -0.93334,-1.49333 -1.17333,-0.85334 -1.76,-0.08 -1.84001,0.50667 -1.68,1.25333 -0.93333,1.25334 -0.90667,1.6 -0.42667,1.68 v 2.02667 l 0.42667,1.84 1.25333,1.51467 1.33334,0.66934 1.76,0.168 1.52,-0.41867 1.68,-0.75734"
         style="fill:none;stroke:#ffffff;stroke-width:1.95307;stroke-linecap:round;stroke-linejoin:round;stroke-dasharray:none;stroke-opacity:1"
         id="path413" /></g><g
       id="g452"
       transform="translate(46.311682,8.644847)"
       style="stroke-width:1.95307;stroke-dasharray:none"><path
         d="m 290.03876,214.43597 -0.98667,0.41867 h -1.2 l -1.09333,-0.33334 -0.66667,-1.09333 0.18667,-1.85067 1.57333,-8.64001 h -2.50667 6.45334 -3.94667 l 0.69334,-3.78667"
         style="fill:none;stroke:#ffffff;stroke-width:1.95307;stroke-linecap:round;stroke-linejoin:round;stroke-dasharray:none;stroke-opacity:1"
         id="path414" /><path
         d="m 298.54544,214.93997 h 0.08 l 1.76,-0.41867 1.76,-1.09333 1.25334,-1.69067 0.85333,-1.84 0.32,-1.76001 v -1.6 l -0.24,-1.41333 -0.58666,-1.09334 -1.09334,-1.01333 -1.17333,-0.42667 -1.09334,-0.08 -1.44,0.24 -1.41333,0.77334 -1.28001,1.25333 -0.82666,1.17333 -0.82667,1.76001 -0.18667,1.36 -0.16,1.57333 0.16,1.44001 0.77334,1.344 0.98666,0.92533 1.17334,0.50134 1.2,0.0853"
         style="fill:none;stroke:#ffffff;stroke-width:1.95307;stroke-linecap:round;stroke-linejoin:round;stroke-dasharray:none;stroke-opacity:1"
         id="path415" /></g><g
       id="g453"
       transform="matrix(0.89412262,0,0,1.0995102,35.100614,-14.832714)"
       style="stroke-width:1.96979;stroke-dasharray:none"><path
         d="m 287.02542,237.36462 1.92001,-1.01333 1.6,-0.42667 1.6,-0.16 1.09333,0.42667 0.82667,0.90667 0.34667,1.36 -0.24,1.84 -1.01334,5.62667 -0.34666,2.26401 0.34666,-2.26401 -1.25333,0.752 -1.36,0.84267 -1.41334,0.58667 -1.52,0.25067 -1.25333,-0.41867 -0.85334,-0.672 -0.58667,-1.09067 0.26667,-1.61067 0.90667,-1.25333 1.52,-1.09334 1.44,-0.50667 1.65334,-0.50666 1.52,-0.24 1.01333,-0.08 h 0.74667"
         style="fill:none;stroke:#ffffff;stroke-width:1.96979;stroke-linecap:round;stroke-linejoin:round;stroke-dasharray:none;stroke-opacity:1"
         id="path416" /><path
         d="m 310.89214,229.71128 -3.36001,18.47736 0.50667,-2.53067 -1.44,1.18933 -1.76,1.09067 -1.68001,0.41867 -1.33333,-0.25067 -1.2,-0.58667 -1.17334,-1.43467 -0.4,-1.92 0.24,-2.34667 1.09334,-2.77334 1.68,-2.10666 2.26667,-1.01334 1.68,-0.16 1.52,0.58667 1.01334,0.66667 0.82666,1.01333"
         style="fill:none;stroke:#ffffff;stroke-width:1.96979;stroke-linecap:round;stroke-linejoin:round;stroke-dasharray:none;stroke-opacity:1"
         id="path417" /><path
         d="m 324.49213,236.08462 -2.18667,12.18935 0.58667,-3.20267 -1.17333,1.104 -1.25334,1.09067 -1.68,0.84 -1.44,0.25067 -1.41334,-0.41867 -0.93333,-0.84 -0.32,-1.09334 0.24,-2.10667 1.33333,-7.81334"
         style="fill:none;stroke:#ffffff;stroke-width:1.96979;stroke-linecap:round;stroke-linejoin:round;stroke-dasharray:none;stroke-opacity:1"
         id="path418" /><path
         d="m 332.46553,229.71128 -3.01334,17.38669 v 0.58933 l 0.16,0.33334 0.42667,0.25333 h 0.48"
         style="fill:none;stroke:#ffffff;stroke-width:1.96979;stroke-linecap:round;stroke-linejoin:round;stroke-dasharray:none;stroke-opacity:1"
         id="path419" /><path
         d="m 340.86546,247.76997 -0.98667,0.41867 h -1.2 l -1.09333,-0.33334 -0.66667,-1.09333 0.18667,-1.85067 1.57333,-8.64001 h -2.50667 6.45334 -3.94667 l 0.69334,-3.78667"
         style="fill:none;stroke:#ffffff;stroke-width:1.96979;stroke-linecap:round;stroke-linejoin:round;stroke-dasharray:none;stroke-opacity:1"
         id="path420" /><path
         d="m 345.07882,248.18864 3.36001,-18.47736 -1.68001,9.33334 1.41334,-1.36 1.28,-1.01333 1.76,-0.66667 1.6,-0.16 1.68001,1.01334 0.50666,1.17333 -0.10666,1.92 -1.41334,8.32268"
         style="fill:none;stroke:#ffffff;stroke-width:1.96979;stroke-linecap:round;stroke-linejoin:round;stroke-dasharray:none;stroke-opacity:1"
         id="path421" /><path
         d="m 364.14556,248.27397 h 0.08 l 1.76,-0.41867 1.76,-1.09333 1.25334,-1.69067 0.85333,-1.84 0.32,-1.76001 v -1.6 l -0.24,-1.41333 -0.58666,-1.09334 -1.09334,-1.01333 -1.17333,-0.42667 -1.09334,-0.08 -1.44,0.24 -1.41333,0.77334 -1.28001,1.25333 -0.82666,1.17333 -0.82667,1.76001 -0.18667,1.36 -0.16,1.57333 0.16,1.44001 0.77334,1.344 0.98666,0.92533 1.17334,0.50134 1.2,0.0853"
         style="fill:none;stroke:#ffffff;stroke-width:1.96979;stroke-linecap:round;stroke-linejoin:round;stroke-dasharray:none;stroke-opacity:1"
         id="path422" /><path
         d="m 379.10556,248.27397 h 0.08 l 1.76,-0.41867 1.76,-1.09333 1.25334,-1.69067 0.85333,-1.84 0.32,-1.76001 v -1.6 l -0.24,-1.41333 -0.58666,-1.09334 -1.09334,-1.01333 -1.17333,-0.42667 -1.09334,-0.08 -1.44,0.24 -1.41333,0.77334 -1.28001,1.25333 -0.82666,1.17333 -0.82667,1.76001 -0.18667,1.36 -0.16,1.57333 0.16,1.44001 0.77334,1.344 0.98666,0.92533 1.17334,0.50134 1.2,0.0853"
         style="fill:none;stroke:#ffffff;stroke-width:1.96979;stroke-linecap:round;stroke-linejoin:round;stroke-dasharray:none;stroke-opacity:1"
         id="path423" /><path
         d="m 401.45244,229.71128 -3.36001,18.47736 0.50667,-2.53067 -1.44,1.18933 -1.76,1.09067 -1.68001,0.41867 -1.33333,-0.25067 -1.2,-0.58667 -1.17334,-1.43467 -0.4,-1.92 0.24,-2.34667 1.09334,-2.77334 1.68,-2.10666 2.26667,-1.01334 1.68,-0.16 1.52,0.58667 1.01334,0.66667 0.82666,1.01333"
         style="fill:none;stroke:#ffffff;stroke-width:1.96979;stroke-linecap:round;stroke-linejoin:round;stroke-dasharray:none;stroke-opacity:1"
         id="path424" /></g></g><path
     style="fill:none;stroke:#ffffff;stroke-width:2;stroke-linecap:round;stroke-linejoin:round;stroke-dasharray:none;stroke-opacity:1"
     d="m 139.6742,57.398495 c -0.74524,-3.341777 -3.07666,-6.592897 -6.21809,-7.606184 -1.49649,-0.727038 -4.45924,0.06816 -3.62897,2.28057 0.54705,2.530899 2.45778,4.255306 4.59874,5.281067 2.27862,1.103189 5.03033,0.319884 7.2261,-0.665194 0.43668,-0.414225 0.87338,-0.828448 1.31007,-1.242673"
     id="path450" /><path
     style="fill:none;stroke:#ffffff;stroke-width:2;stroke-linecap:round;stroke-linejoin:round;stroke-dasharray:none;stroke-opacity:1"
     d="m 138.23716,36.58358 c 0.77734,6.852798 1.55467,13.705598 2.332,20.558397"
     id="path449" /><path
     style="fill:none;stroke:#ffffff;stroke-width:2;stroke-linecap:round;stroke-linejoin:round;stroke-dasharray:none;stroke-opacity:1"
     d="m 138.23716,36.58358 c 0.0634,6.956557 0.61784,13.915437 1.43704,20.814915"
     id="path448" /><path
     style="fill:none;stroke:#ffffff;stroke-width:2;stroke-linecap:round;stroke-linejoin:round;stroke-dasharray:none;stroke-opacity:1"
     d="m 138.23716,36.58358 c -2.94461,5.150396 -3.29742,11.420042 -5.72444,16.835636 -1.08454,2.665269 -2.09985,5.853626 -4.56984,7.341761 -1.6277,1.184684 -3.42,-0.635744 -2.92824,-2.416689 0.4124,-1.839081 2.40909,-0.144501 0.9728,0.957091"
     id="path381" /><path
     style="fill:none;stroke:#ffffff;stroke-width:2;stroke-linecap:round;stroke-linejoin:round;stroke-dasharray:none;stroke-opacity:1"
     d="m 148.80888,33.553467 c -0.29236,6.261519 -0.83391,12.549962 -0.9724,18.794858 0.17836,1.1391 0.39855,1.889373 1.51448,2.276574"
     id="path447" /><path
     style="fill:none;stroke:#ffffff;stroke-width:2;stroke-linecap:round;stroke-linejoin:round;stroke-dasharray:none;stroke-opacity:1"
     d="m 147.91392,33.809984 c -0.28776,6.260176 -0.82415,12.547323 -0.95843,18.79085 -0.18872,2.065039 2.57888,2.661204 3.4746,1.000453 1.3239,-1.220134 1.4968,-3.329245 2.1557,-4.969787"
     id="path446" /><path
     style="fill:none;stroke:#ffffff;stroke-width:2;stroke-linecap:round;stroke-linejoin:round;stroke-dasharray:none;stroke-opacity:1"
     d="m 145.524,50.655583 c 0.91066,-2.458411 1.43471,-5.003879 1.88924,-7.595728"
     id="path382" /><path
     style="fill:none;stroke:#ffffff;stroke-width:2;stroke-linecap:round;stroke-linejoin:round;stroke-dasharray:none;stroke-opacity:1"
     d="m 156.03246,43.603456 c -1.35505,2.01506 -2.17595,4.54385 -1.10144,6.911429 0.23453,0.990412 1.67647,1.196603 2.3627,1.833425"
     id="path445" /><path
     style="fill:none;stroke:#ffffff;stroke-width:2;stroke-linecap:round;stroke-linejoin:round;stroke-dasharray:none;stroke-opacity:1"
     d="m 157.7944,43.098437 c -3.60685,0.222156 -5.83216,5.738781 -2.90884,8.338616 1.51283,1.501513 4.2021,0.901536 5.44428,-0.80537 1.82797,-1.986386 1.56554,-5.837354 -0.81591,-7.144701 -1.95717,-1.287095 -2.86913,1.045201 -1.90256,2.710063 0.99335,1.933955 3.21985,2.472946 5.03686,1.586424 0.90526,-0.727333 1.81999,-1.498947 2.24326,-2.679079"
     id="path383" /><path
     style="fill:none;stroke:#ffffff;stroke-width:2;stroke-linecap:round;stroke-linejoin:round;stroke-dasharray:none;stroke-opacity:1"
     d="m 171.02301,39.306796 c 2.64873,1.146918 0.86377,4.671325 1.71872,6.861417 0.60045,1.849654 3.1633,0.982831 3.83962,-0.585927 0.7797,-1.293411 1.02359,-2.848165 1.53874,-4.269538"
     id="path444" /><path
     style="fill:none;stroke:#ffffff;stroke-width:2;stroke-linecap:round;stroke-linejoin:round;stroke-dasharray:none;stroke-opacity:1"
     d="m 167.31607,43.41544 c 0.95268,-2.012817 2.60732,-5.017195 5.11613,-3.779989 1.55625,0.626189 0.93909,6.272948 0.89353,4.789273 0.11026,1.215795 0.2856,2.515164 1.55953,2.881422"
     id="path443" /><path
     style="fill:none;stroke:#ffffff;stroke-width:2;stroke-linecap:round;stroke-linejoin:round;stroke-dasharray:none;stroke-opacity:1"
     d="m 168.19033,27.99827 c -0.40662,7.19215 -0.81325,14.384301 -1.21987,21.576451"
     id="path442" /><path
     style="fill:none;stroke:#ffffff;stroke-width:2;stroke-linecap:round;stroke-linejoin:round;stroke-dasharray:none;stroke-opacity:1"
     d="m 167.29537,28.254788 c -0.40196,7.190813 -0.80392,14.381628 -1.20589,21.572442"
     id="path441" /><path
     style="fill:none;stroke:#ffffff;stroke-width:2;stroke-linecap:round;stroke-linejoin:round;stroke-dasharray:none;stroke-opacity:1"
     d="m 164.90545,45.100387 c 0.91066,-2.45841 1.43471,-5.003878 1.88924,-7.595728"
     id="path384" /><path
     style="fill:none;stroke:#ffffff;stroke-width:2;stroke-linecap:round;stroke-linejoin:round;stroke-dasharray:none;stroke-opacity:1"
     d="m 181.56678,36.284695 c -1.35504,2.01506 -2.17594,4.543851 -1.10143,6.91143 0.23451,0.990413 1.67647,1.196602 2.3627,1.833424"
     id="path440" /><path
     style="fill:none;stroke:#ffffff;stroke-width:2;stroke-linecap:round;stroke-linejoin:round;stroke-dasharray:none;stroke-opacity:1"
     d="m 183.32873,35.779677 c -3.60686,0.222156 -5.83217,5.738781 -2.90885,8.338617 1.51284,1.501512 4.20211,0.901534 5.44427,-0.805372 1.82799,-1.986386 1.56556,-5.837353 -0.81589,-7.144701 -1.95718,-1.287095 -2.86914,1.045201 -1.90257,2.710064 0.99335,1.933954 3.21986,2.472946 5.03686,1.586423 0.90527,-0.727333 1.82,-1.498947 2.24326,-2.679079"
     id="path385" /><path
     style="fill:none;stroke:#ffffff;stroke-width:2;stroke-linecap:round;stroke-linejoin:round;stroke-dasharray:none;stroke-opacity:1"
     d="m 205.33914,29.47096 c 2.61472,1.035707 0.97113,4.432747 1.64406,6.563368 0.2565,2.01788 3.03107,1.555875 3.77204,-0.01943 0.89778,-1.356192 1.16752,-3.015828 1.70894,-4.546002"
     id="path439" /><path
     style="fill:none;stroke:#ffffff;stroke-width:2;stroke-linecap:round;stroke-linejoin:round;stroke-dasharray:none;stroke-opacity:1"
     d="m 201.66016,33.571587 c 0.9527,-2.004905 2.58565,-4.992892 5.09199,-3.791323 1.62715,0.55838 0.94568,6.28047 0.92096,4.791008 0.0867,1.242771 0.28497,2.516828 1.5842,2.883006"
     id="path438" /><path
     style="fill:none;stroke:#ffffff;stroke-width:2;stroke-linecap:round;stroke-linejoin:round;stroke-dasharray:none;stroke-opacity:1"
     d="m 199.18629,31.234516 c 2.45059,1.04326 1.31335,4.406136 1.3644,6.588498 -0.0437,0.721458 -0.0873,1.442915 -0.13111,2.164372"
     id="path437" /><path
     style="fill:none;stroke:#ffffff;stroke-width:2;stroke-linecap:round;stroke-linejoin:round;stroke-dasharray:none;stroke-opacity:1"
     d="m 195.47934,35.34316 c 0.96916,-1.997361 2.60081,-5.018414 5.11809,-3.78978 1.59184,0.592293 0.94249,6.27674 0.90718,4.790286 -0.0634,1.129068 -0.12671,2.258135 -0.19007,3.387203"
     id="path436" /><path
     style="fill:none;stroke:#ffffff;stroke-width:2;stroke-linecap:round;stroke-linejoin:round;stroke-dasharray:none;stroke-opacity:1"
     d="m 193.03343,32.998072 c 2.48496,1.167248 1.23902,4.632555 1.33696,6.905712 -0.0345,0.615719 -0.0691,1.231439 -0.10366,1.847158"
     id="path435" /><path
     style="fill:none;stroke:#ffffff;stroke-width:2;stroke-linecap:round;stroke-linejoin:round;stroke-dasharray:none;stroke-opacity:1"
     d="m 190.43977,37.781626 c 0.56076,-1.809961 0.91242,-3.768202 2.59366,-4.783554 2.07507,-0.253328 2.6864,1.719617 2.38227,3.577462 -0.0847,1.63963 -0.16934,3.279261 -0.25401,4.918891"
     id="path386" /><path
     style="fill:none;stroke:#ffffff;stroke-width:2;stroke-linecap:round;stroke-linejoin:round;stroke-dasharray:none;stroke-opacity:1"
     d="m 215.93885,26.43282 c -1.35503,2.01506 -2.17593,4.54385 -1.10142,6.911429 0.23451,0.990412 1.67647,1.196602 2.36269,1.833425"
     id="path434" /><path
     style="fill:none;stroke:#ffffff;stroke-width:2;stroke-linecap:round;stroke-linejoin:round;stroke-dasharray:none;stroke-opacity:1"
     d="m 217.70081,25.927802 c -3.60686,0.222156 -5.83217,5.73878 -2.90885,8.338615 1.51284,1.501513 4.20211,0.901536 5.44427,-0.80537 1.82799,-1.986386 1.56556,-5.837354 -0.81589,-7.144701 -1.95718,-1.287095 -2.86914,1.045201 -1.90258,2.710063 0.99336,1.933955 3.21987,2.472946 5.03687,1.586424 0.90527,-0.727333 1.82,-1.498947 2.24325,-2.679079"
     id="path387" /><path
     style="fill:none;stroke:#ffffff;stroke-width:2;stroke-linecap:round;stroke-linejoin:round;stroke-dasharray:none;stroke-opacity:1"
     d="m 232.66341,21.639157 c 0.35993,1.602468 0.76532,3.938082 2.35761,4.390466 0.92475,-0.09672 1.40572,-1.097011 2.11052,-1.630993"
     id="path433" /><path
     style="fill:none;stroke:#ffffff;stroke-width:2;stroke-linecap:round;stroke-linejoin:round;stroke-dasharray:none;stroke-opacity:1"
     d="m 229.85142,25.491286 c 0.8835,-1.628228 1.80535,-3.729325 3.70694,-4.108645 -0.061,1.032868 -0.12202,2.065738 -0.18303,3.098606"
     id="path432" /><path
     style="fill:none;stroke:#ffffff;stroke-width:2;stroke-linecap:round;stroke-linejoin:round;stroke-dasharray:none;stroke-opacity:1"
     d="m 227.40551,23.146197 c 2.48496,1.167247 1.23902,4.632555 1.33695,6.905712 -0.0345,0.615719 -0.0691,1.231439 -0.10365,1.847158"
     id="path431" /><path
     style="fill:none;stroke:#ffffff;stroke-width:2;stroke-linecap:round;stroke-linejoin:round;stroke-dasharray:none;stroke-opacity:1"
     d="m 224.81185,27.929751 c 0.56076,-1.809962 0.91242,-3.768203 2.59366,-4.783554 2.07506,-0.253329 2.6864,1.719617 2.38227,3.577461 -0.0847,1.63963 -0.16934,3.279261 -0.25401,4.918891"
     id="path388" /><path
     style="fill:none;stroke:#ffffff;stroke-width:2;stroke-linecap:round;stroke-linejoin:round;stroke-dasharray:none;stroke-opacity:1"
     d="m 246.78719,17.590937 c 0.0282,2.689637 -0.81867,5.472183 0.1023,8.067011 0.377,0.228622 0.75401,0.45724 1.13101,0.685861"
     id="path430" /><path
     style="fill:none;stroke:#ffffff;stroke-width:2;stroke-linecap:round;stroke-linejoin:round;stroke-dasharray:none;stroke-opacity:1"
     d="m 245.89223,17.847456 c 0.0377,2.686953 -0.7873,5.467728 0.13024,8.058995 1.68081,0.975614 3.20924,-0.143767 3.95058,-1.815386 0.56223,-1.175736 0.83506,-2.508036 1.28226,-3.740654"
     id="path429" /><path
     style="fill:none;stroke:#ffffff;stroke-width:2;stroke-linecap:round;stroke-linejoin:round;stroke-dasharray:none;stroke-opacity:1"
     d="m 240.60637,19.362511 c -1.35504,2.01506 -2.17595,4.543852 -1.10144,6.91143 0.23449,0.990421 1.67648,1.196601 2.36271,1.833424"
     id="path428" /><path
     style="fill:none;stroke:#ffffff;stroke-width:2;stroke-linecap:round;stroke-linejoin:round;stroke-dasharray:none;stroke-opacity:1"
     d="m 245.70918,20.946062 c -0.96548,-1.951895 -3.20026,-2.495222 -5.01263,-1.609399 -2.66945,1.535787 -3.64672,5.969442 -1.0457,8.090313 1.78142,1.286259 4.59462,0.462316 5.56066,-1.574712 0.11295,-0.61019 0.22589,-1.220377 0.33886,-1.830569"
     id="path389" /><path
     style="fill:none;stroke:#ffffff;stroke-width:2;stroke-linecap:round;stroke-linejoin:round;stroke-dasharray:none;stroke-opacity:1"
     d="m 256.52592,21.885869 c -2.00418,2.584056 2.90223,1.389227 0.12725,0.07717 z"
     id="path427" /><path
     style="fill:none;stroke:#ffffff;stroke-width:2;stroke-linecap:round;stroke-linejoin:round;stroke-dasharray:none;stroke-opacity:1"
     d="m 256.45596,2.6991898 c 2.05135,0.6781287 0.60058,3.3337401 0.86483,5.0209578 -0.14975,2.6688124 -0.29951,5.3376284 -0.44926,8.0064404"
     id="path426" /><path
     style="fill:none;stroke:#ffffff;stroke-width:2;stroke-linecap:round;stroke-linejoin:round;stroke-dasharray:none;stroke-opacity:1"
     d="m 256.69576,3.6565249 c 0.0586,4.023355 0.11717,8.0467101 0.17577,12.0700631"
     id="path425" /><path
     style="fill:none;stroke:#ffffff;stroke-width:2;stroke-linecap:round;stroke-linejoin:round;stroke-dasharray:none;stroke-opacity:1"
     d="m 256.45596,2.6991898 c -1.32427,1.9521915 -0.0466,4.5077322 -0.15411,6.7420701 0.1899,2.0951081 0.37978,4.1902201 0.56968,6.2853281"
     id="path390" /></svg>
