<?xml version="1.0" encoding="UTF-8" standalone="no"?>
<!-- Created with Inkscape (http://www.inkscape.org/) -->

<svg
   width="389.62439"
   height="354.17261"
   viewBox="0 0 389.62439 354.17261"
   version="1.1"
   id="alohomora-1"
   xml:space="preserve"
   sodipodi:docname="1.svg"
   inkscape:version="1.4.3 (0d15f75042, 2025-12-25)"
   xmlns:inkscape="http://www.inkscape.org/namespaces/inkscape"
   xmlns:sodipodi="http://sodipodi.sourceforge.net/DTD/sodipodi-0.dtd"
   xmlns="http://www.w3.org/2000/svg"
   xmlns:svg="http://www.w3.org/2000/svg"><sodipodi:namedview
     id="namedview1"
     pagecolor="#505050"
     bordercolor="#eeeeee"
     borderopacity="1"
     inkscape:showpageshadow="0"
     inkscape:pageopacity="0"
     inkscape:pagecheckerboard="0"
     inkscape:deskcolor="#505050"
     inkscape:zoom="11.313708"
     inkscape:cx="116.49584"
     inkscape:cy="119.67782"
     inkscape:window-width="1536"
     inkscape:window-height="836"
     inkscape:window-x="0"
     inkscape:window-y="0"
     inkscape:window-maximized="1"
     inkscape:current-layer="layer1" /><defs
     id="defs1" /><g
     id="layer1"
     transform="translate(-64.571149,-49.468256)"
     style="stroke-width:2;stroke-dasharray:none"><path
       style="fill:none;stroke:#ffffff;stroke-width:2;stroke-linecap:round;stroke-linejoin:round;stroke-dasharray:none;stroke-opacity:1"
       d="m 184.20015,111.54719 c -0.67536,1.43141 -2.35602,4.3502 -4.25756,6.06628 -1.88382,1.70008 -3.662,2.53835 -5.40207,2.65134"
       id="path40" /><path
       style="fill:none;stroke:#ffffff;stroke-width:2;stroke-linecap:round;stroke-linejoin:round;stroke-dasharray:none;stroke-opacity:1"
       d="m 138.43701,213.41432 c -2.8098,3.86469 -5.12915,8.33619 -7.27576,12.62939 -2.49917,4.99834 -4.57182,10.14329 -5.96978,15.70933 -5.38965,21.45915 -9.30481,42.59534 -18.31948,62.83734 -6.64967,14.93149 -15.39235,29.2288 -25.06353,42.54611 -4.87367,6.71112 -13.197896,14.07127 -16.452776,21.60034 -2.178353,5.03893 8.319697,7.8291 11.315836,9.16378"
       id="path39" /><path
       style="fill:none;stroke:#ffffff;stroke-width:2;stroke-linecap:round;stroke-linejoin:round;stroke-dasharray:none;stroke-opacity:1"
       d="m 147.36352,203.78882 c 7.51209,-0.94935 16.67121,-0.11282 23.564,1.30911"
       id="path38" /><path
       style="fill:none;stroke:#ffffff;stroke-width:2;stroke-linecap:round;stroke-linejoin:round;stroke-dasharray:none;stroke-opacity:1"
       d="m 171.58208,196.58871 c 0,3.23023 -0.79776,6.02284 0.44495,10.47289 3.29107,11.785 8.02971,25.21581 11.09209,37.30967 5.46079,21.56565 9.80093,43.24661 11.91584,65.45556 1.38757,14.57109 1.1354,29.36655 2.91571,43.85522 1.08319,8.81533 2.58417,18.08126 4.39754,26.83678 0.74013,3.57353 3.31465,8.82332 2.57226,12.40068 -0.63205,3.0457 -5.2288,3.7617 -7.81072,4.33947 -8.30078,1.85744 -16.17153,0.14957 -24.21856,1.1384 -4.31336,0.53003 -8.72688,2.65545 -13.09111,3.444 -5.19875,0.93933 -11.36582,1.64698 -16.36389,1.11668 -4.01181,-0.42564 -8.15574,-0.52536 -12.43656,-1.36517 -9.72593,-1.90806 -16.64514,-8.17352 -25.52767,-11.01786 -6.26328,-2.00561 -13.68711,-1.08055 -19.63666,-4.39348 -3.46984,-1.93211 -6.03236,-5.16242 -8.50923,-8.28094 14.51031,-14.63138 26.25158,-33.67174 35.68237,-51.70989 4.66697,-8.92647 9.49863,-22.25114 12.10019,-31.41867"
       id="path37" /><path
       style="fill:none;stroke:#ffffff;stroke-width:2;stroke-linecap:round;stroke-linejoin:round;stroke-dasharray:none;stroke-opacity:1"
       d="m 145.39985,296.73571 c -3.19491,9.43481 -4.72191,21.05717 -8.07991,30.76412 -4.41527,12.76319 -9.70845,26.04823 -15.9952,37.96422 -4.04199,7.66127 -9.59072,18.0606 -14.54367,24.87311"
       id="path36" /><path
       style="fill:none;stroke:#ffffff;stroke-width:2;stroke-linecap:round;stroke-linejoin:round;stroke-dasharray:none;stroke-opacity:1"
       d="m 176.16397,278.40816 c 3.30044,26.11535 0.38221,56.09802 -2.995,81.81945 -1.38039,10.51332 -0.27778,27.54934 -0.27778,37.30967"
       id="path35" /><path
       style="fill:none;stroke:#ffffff;stroke-width:2;stroke-linecap:round;stroke-linejoin:round;stroke-dasharray:none;stroke-opacity:1"
       d="m 423.58598,189.3886 30.10956,5.891"
       id="path34" /><path
       style="fill:none;stroke:#ffffff;stroke-width:2;stroke-linecap:round;stroke-linejoin:round;stroke-dasharray:none;stroke-opacity:1"
       d="m 289.35361,163.98424 c -0.69301,0.95253 -41.67544,26.79515 -45.08447,29.90692"
       id="path33" /><path
       style="fill:none;stroke:#ffffff;stroke-width:2;stroke-linecap:round;stroke-linejoin:round;stroke-dasharray:none;stroke-opacity:1"
       d="m 289.29593,164.07099 c 0.3664,-0.6977 -1.06333,-0.47396 -1.21034,-0.42453 -5.78728,1.94503 -42.53966,25.49372 -47.12062,29.01492 0,0 6.8318,1.85031 5.77859,3.65625 -0.26107,0.44764 -5.4806,0.34735 -5.4806,0.34735 0,0 -3.28305,3.87752 -5.53493,4.85103 -0.99571,0.43046 -3.2392,0.31338 -3.2392,0.31338 0,0 -4.87337,4.97106 -7.88775,4.57765 -0.30596,-0.0399 -0.64271,-0.34622 -0.65455,-0.65455 -0.0772,-2.01009 3.92733,-4.58189 3.92733,-4.58189 -5.4868,-2.89125 -10.19379,-2.12439 -16.36389,-1.97326 -10.41384,0.25509 -21.79036,2.20297 -32.07322,0.25908 -10.37246,-1.96083 -19.00685,-15.32856 -26.18223,-22.50438 -5.3899,-5.39025 -18.52042,-15.25277 -14.02496,-24.18979 2.3945,-4.76031 8.27233,-4.01814 12.06129,-1.08027 6.11245,4.73941 18.27461,21.05134 21.84638,25.86965"
       id="path32"
       sodipodi:nodetypes="cccscscsscsssscc" /><path
       style="fill:none;stroke:#ffffff;stroke-width:2;stroke-linecap:round;stroke-linejoin:round;stroke-dasharray:none;stroke-opacity:1"
       d="m 227.87386,201.1706 4.53564,0.60661"
       id="path31" /><path
       style="fill:none;stroke:#ffffff;stroke-width:2;stroke-linecap:round;stroke-linejoin:round;stroke-dasharray:none;stroke-opacity:1"
       d="m 141.47252,144.22426 c 6.9824,0.35832 16.82497,7.77417 20.94578,8.50922"
       id="path30" /><path
       style="fill:none;stroke:#ffffff;stroke-width:2;stroke-linecap:round;stroke-linejoin:round;stroke-dasharray:none;stroke-opacity:1"
       d="m 138.8543,140.95148 c -4.9823,7.28992 -5.14384,16.65957 -3.34905,24.87312 0.40399,1.84876 0.51311,3.32755 1.02882,5.04955 0.49705,1.65968 1.30664,3.11873 1.88133,4.7713 1.4824,4.26272 3.6094,9.96923 4.82786,14.3977 0.8332,3.02828 0.74171,4.76023 0.87325,7.85467 0.1146,2.69589 0.6827,4.1163 -0.27324,6.54556 -1.19825,3.04494 -3.63947,6.53732 -5.64353,9.16377 -4.77455,-7.68191 -5.57824,-16.38238 -4.48037,-25.52766 0.66069,-5.50344 2.47074,-14.52109 2.54006,-17.87865"
       id="path29" /><path
       style="fill:none;stroke:#ffffff;stroke-width:2;stroke-linecap:round;stroke-linejoin:round;stroke-dasharray:none;stroke-opacity:1"
       d="m 235.07397,131.13315 28.80045,9.81833"
       id="path28" /><path
       style="fill:none;stroke:#ffffff;stroke-width:2;stroke-linecap:round;stroke-linejoin:round;stroke-dasharray:none;stroke-opacity:1"
       d="m 419.00409,140.29693 29.455,-9.81834"
       id="path27" /><path
       style="fill:none;stroke:#ffffff;stroke-width:2;stroke-linecap:round;stroke-linejoin:round;stroke-dasharray:none;stroke-opacity:1"
       d="m 156.69678,127.8581 -0.75625,8.31866"
       id="path26" /><path
       style="fill:none;stroke:#ffffff;stroke-width:2;stroke-linecap:round;stroke-linejoin:round;stroke-dasharray:none;stroke-opacity:1"
       d="m 151.94541,126.55126 c 3.85342,1.50567 13.39349,3.14003 14.16226,-0.6092"
       id="path25" /><path
       style="fill:none;stroke:#ffffff;stroke-width:2;stroke-linecap:round;stroke-linejoin:round;stroke-dasharray:none;stroke-opacity:1"
       d="m 168.58729,119.55225 c 0,0 -1.25194,0.12018 -2.53177,0.44338 -1.39726,0.35286 -2.82777,0.9477 -2.69877,1.89234 0.14191,1.03917 3.64344,1.39051 3.64344,1.39051"
       id="path24" /><path
       style="fill:none;stroke:#ffffff;stroke-width:2;stroke-linecap:round;stroke-linejoin:round;stroke-dasharray:none;stroke-opacity:1"
       d="m 167.00019,99.05993 c 0.60806,2.94494 0.90601,3.93872 1.30911,5.891"
       id="path23" /><path
       style="fill:none;stroke:#ffffff;stroke-width:2;stroke-linecap:round;stroke-linejoin:round;stroke-dasharray:none;stroke-opacity:1"
       d="m 272.46078,168.67242 c 0.0583,-0.73827 0.0115,-16.18585 0.0913,-17.35731 0.32517,-4.76988 1.49641,-10.4523 2.93812,-14.94552 6.75466,-21.0516 24.23993,-37.75244 45.33049,-44.038036 13.57559,-4.045907 28.5782,-3.814272 41.89156,0.619196 16.64802,5.54391 31.69872,17.97691 39.7587,33.60051 4.03719,7.82578 6.44699,17.36997 7.64656,26.18222 2.14907,15.78744 0.37733,33.08774 0.37733,49.09167 v 121.74734 38.61878 c 0,5.73108 0.46594,12.73315 -0.0384,18.31693 -0.19204,2.12607 -1.06873,3.09276 -3.24701,3.50765 -8.33994,1.58849 -17.24668,0.43031 -26.16963,0.43031 h -81.1649 -19.63666 c -1.98972,0 -5.80343,0.69099 -7.18194,-1.0495 -2.1144,-2.66965 -0.67273,-10.6466 -0.67273,-14.00528 v -37.30966 l 0.0386,-153.53167"
       id="path22"
       sodipodi:nodetypes="cssssssscsssscssscc" /><path
       style="fill:none;stroke:#ffffff;stroke-width:2;stroke-linecap:round;stroke-linejoin:round;stroke-dasharray:none;stroke-opacity:1"
       d="m 282.00894,163.46541 c 0.005,-0.25451 0.0515,-12.51136 0.0616,-12.76563 0.67531,-17.0096 12.2769,-33.46923 26.31357,-42.56445 7.37046,-4.77577 15.66798,-7.73869 24.21855,-8.89055 3.0298,-0.40814 4.82052,-0.78907 7.85467,-0.8273 3.5484,-0.0447 5.62685,0.39851 9.16378,0.92226 18.90121,2.79892 35.76093,14.70169 44.84413,31.79341 3.16886,5.96279 6.03814,15.58089 6.20162,22.25489 0.0546,2.22834 0.01,3.60865 0.01,5.891 0,8.84893 -0.54597,23.24547 0.0586,32.07322 0.66104,31.53356 -0.0663,62.70411 0.59561,94.25601 0.081,16.79368 5.2e-4,34.65757 5.2e-4,51.70989 0,9.14137 0.0112,18.35748 0,27.49134 -0.003,2.30465 0.14214,4.36607 -0.24042,6.53293 -0.64896,3.6756 -3.95043,3.28404 -6.95969,3.2854 -6.4432,0.003 -13.1667,0 -19.63667,0 -8.3908,0 -17.90775,-0.14343 -26.18222,0.0162 -2.0132,0.0388 -3.31832,0.0876 -5.23645,0.0363 -2.30632,-0.0615 -4.59571,-0.0525 -7.20011,-0.0525 H 305.76611 288.0931 c -1.74753,-6.5e-4 -4.65827,0.48396 -5.87282,-1.04951 -1.96731,-2.48375 -0.67286,-9.5867 -0.67286,-12.69616 V 324.8816 l 0.5403,-152.00473"
       id="path21"
       sodipodi:nodetypes="cssssssssccscsssscscccscc" /><path
       style="fill:none;stroke:#ffffff;stroke-width:2;stroke-linecap:round;stroke-linejoin:round;stroke-dasharray:none;stroke-opacity:1"
       d="m 166.34563,96.4417 c -1.24107,3.3898 -6.51269,9.58706 -11.12744,12.25019 -2.26466,1.30691 -8.65898,1.14391 -9.79764,2.5551 -2.08067,2.57863 1.52483,5.84857 2.18691,8.10416 1.23796,4.21746 -1.22203,8.27859 -0.40203,13.09111 0.32335,1.89767 2.15434,5.08467 0.93286,6.86377 -2.44997,3.56841 -11.13587,1.34366 -14.52044,0.31057 -2.62109,-0.80005 -4.98463,-1.80913 -7.17384,-3.39147 -3.30869,-2.3915 -5.37126,-5.62672 -5.19352,-9.67387 0.25587,-5.82608 4.57875,-9.7821 6.41021,-15.05478 1.89844,-5.46552 1.64234,-11.47126 5.0728,-16.36389 4.89768,-6.985213 13.66029,-9.623931 21.83013,-7.700135 6.42742,1.5135 17.02324,6.240775 15.98712,14.245695 -0.22802,1.76167 -1.06212,2.89312 -1.66316,4.58189 -1.43771,4.03959 0.85397,5.03197 0.70254,9.16378 -0.11722,3.19795 -2.55001,7.26834 -3.4344,10.47289 -0.75518,2.73627 1.03319,7.44153 0.0348,9.63599 -1.81517,3.9899 -9.87652,0.34418 -10.15218,4.80514 -0.47822,7.73881 12.34187,17.09679 16.04923,23.52309 2.84421,4.9301 -0.54904,7.29919 0.40101,11.782 0.66309,3.12871 4.41911,6.78342 6.58094,9.12539 3.15478,3.41768 7.1238,3.06287 11.49461,3.69046 10.36724,1.48857 22.95691,5.15439 33.38233,4.08846 3.93507,-0.40235 6.86619,-1.68517 10.47289,-1.34144 3.5193,0.33543 3.58593,0.84533 6.61615,1.46777"
       id="path20" /><path
       style="fill:none;stroke:#ffffff;stroke-width:2;stroke-linecap:round;stroke-linejoin:round;stroke-dasharray:none;stroke-opacity:1"
       d="M 407.84622,73.934587 393.50685,98.003042"
       id="path19" /><path
       style="fill:none;stroke:#ffffff;stroke-width:2;stroke-linecap:round;stroke-linejoin:round;stroke-dasharray:none;stroke-opacity:1"
       d="m 271.15384,86.648228 7.54773,11.068453"
       id="path19-0"
       sodipodi:nodetypes="cc" /><path
       style="fill:none;stroke:#ffffff;stroke-width:2;stroke-linecap:round;stroke-linejoin:round;stroke-dasharray:none;stroke-opacity:1"
       d="M 341.11198,49.968256 V 78.114147"
       id="path1" /><g
       id="g451"
       transform="translate(5.5574018,9.8798255)"
       style="stroke-width:2;stroke-dasharray:none"><path
         d="m 286.75876,164.64428 0.93333,16.96269 0.34667,-0.0853 7.38667,-16.79736 h 0.34667 l 1.41334,16.88269 h 0.34666 l 6.80001,-16.96269"
         style="fill:none;stroke:#ffffff;stroke-width:2;stroke-linecap:round;stroke-linejoin:round;stroke-dasharray:none;stroke-opacity:1"
         id="path407" /><path
         d="m 306.59882,175.04429 h 9.25335 l 0.24,-1.49333 -0.08,-1.94667 -0.93334,-1.49333 -1.17333,-0.85334 -1.76,-0.08 -1.84001,0.50667 -1.68,1.25333 -0.93333,1.25334 -0.90667,1.6 -0.42667,1.68 v 2.02667 l 0.42667,1.84 1.25333,1.51467 1.33334,0.66934 1.76,0.168 1.52,-0.41867 1.68,-0.75734"
         style="fill:none;stroke:#ffffff;stroke-width:2;stroke-linecap:round;stroke-linejoin:round;stroke-dasharray:none;stroke-opacity:1"
         id="path408" /><path
         d="m 323.23883,163.04428 -3.01334,17.38669 v 0.58933 l 0.16,0.33334 0.42667,0.25333 h 0.48"
         style="fill:none;stroke:#ffffff;stroke-width:2;stroke-linecap:round;stroke-linejoin:round;stroke-dasharray:none;stroke-opacity:1"
         id="path409" /><path
         d="m 334.83886,180.1803 -1.6,1.008 -2,0.41867 -1.78667,-0.25333 -1.68,-1.25867 -0.82667,-1.77067 -0.08,-2.08 0.42667,-2.18667 0.98667,-2.02667 1.6,-1.6 1.76,-0.90667 1.86667,-0.26667 1.41333,0.26667 1.01334,0.48 0.24,0.50667"
         style="fill:none;stroke:#ffffff;stroke-width:2;stroke-linecap:round;stroke-linejoin:round;stroke-dasharray:none;stroke-opacity:1"
         id="path410" /><path
         d="m 343.82546,181.60697 h 0.08 l 1.76,-0.41867 1.76,-1.09333 1.25334,-1.69067 0.85333,-1.84 0.32,-1.76001 v -1.6 l -0.24,-1.41333 -0.58666,-1.09334 -1.09334,-1.01333 -1.17333,-0.42667 -1.09334,-0.08 -1.44,0.24 -1.41333,0.77334 -1.28001,1.25333 -0.82666,1.17333 -0.82667,1.76001 -0.18667,1.36 -0.16,1.57333 0.16,1.44001 0.77334,1.344 0.98666,0.92533 1.17334,0.50134 1.2,0.0853"
         style="fill:none;stroke:#ffffff;stroke-width:2;stroke-linecap:round;stroke-linejoin:round;stroke-dasharray:none;stroke-opacity:1"
         id="path411" /><path
         d="m 354.41222,181.68964 2.18667,-12.35202 -0.50667,2.77334 1.33334,-1.01334 1.25333,-0.90666 1.17334,-0.66667 1.28,-0.34667 1.09333,0.16 0.66667,0.34667 0.74667,0.82667 0.26667,1.44 -0.18667,1.76 -1.41334,7.97868 1.68001,-9.31202 0.50666,-0.69333 2.00001,-1.57333 1.52,-0.69334 1.09333,-0.32 1.09334,0.32 0.74667,0.42667 0.69333,1.09333 v 2.18667 l -1.52,8.48268"
         style="fill:none;stroke:#ffffff;stroke-width:2;stroke-linecap:round;stroke-linejoin:round;stroke-dasharray:none;stroke-opacity:1"
         id="path412" /><path
         d="m 376.91882,175.04429 h 9.25335 l 0.24,-1.49333 -0.08,-1.94667 -0.93334,-1.49333 -1.17333,-0.85334 -1.76,-0.08 -1.84001,0.50667 -1.68,1.25333 -0.93333,1.25334 -0.90667,1.6 -0.42667,1.68 v 2.02667 l 0.42667,1.84 1.25333,1.51467 1.33334,0.66934 1.76,0.168 1.52,-0.41867 1.68,-0.75734"
         style="fill:none;stroke:#ffffff;stroke-width:2;stroke-linecap:round;stroke-linejoin:round;stroke-dasharray:none;stroke-opacity:1"
         id="path413" /></g><g
       id="g452"
       transform="translate(46.311682,8.644847)"
       style="stroke-width:2;stroke-dasharray:none"><path
         d="m 290.03876,214.43597 -0.98667,0.41867 h -1.2 l -1.09333,-0.33334 -0.66667,-1.09333 0.18667,-1.85067 1.57333,-8.64001 h -2.50667 6.45334 -3.94667 l 0.69334,-3.78667"
         style="fill:none;stroke:#ffffff;stroke-width:2;stroke-linecap:round;stroke-linejoin:round;stroke-dasharray:none;stroke-opacity:1"
         id="path414" /><path
         d="m 298.54544,214.93997 h 0.08 l 1.76,-0.41867 1.76,-1.09333 1.25334,-1.69067 0.85333,-1.84 0.32,-1.76001 v -1.6 l -0.24,-1.41333 -0.58666,-1.09334 -1.09334,-1.01333 -1.17333,-0.42667 -1.09334,-0.08 -1.44,0.24 -1.41333,0.77334 -1.28001,1.25333 -0.82666,1.17333 -0.82667,1.76001 -0.18667,1.36 -0.16,1.57333 0.16,1.44001 0.77334,1.344 0.98666,0.92533 1.17334,0.50134 1.2,0.0853"
         style="fill:none;stroke:#ffffff;stroke-width:2;stroke-linecap:round;stroke-linejoin:round;stroke-dasharray:none;stroke-opacity:1"
         id="path415" /></g><g
       id="g453"
       transform="matrix(0.89412262,0,0,1.0995102,35.100614,-14.832714)"
       style="stroke-width:2.01712041;stroke-dasharray:none"><path
         d="m 287.02542,237.36462 1.92001,-1.01333 1.6,-0.42667 1.6,-0.16 1.09333,0.42667 0.82667,0.90667 0.34667,1.36 -0.24,1.84 -1.01334,5.62667 -0.34666,2.26401 0.34666,-2.26401 -1.25333,0.752 -1.36,0.84267 -1.41334,0.58667 -1.52,0.25067 -1.25333,-0.41867 -0.85334,-0.672 -0.58667,-1.09067 0.26667,-1.61067 0.90667,-1.25333 1.52,-1.09334 1.44,-0.50667 1.65334,-0.50666 1.52,-0.24 1.01333,-0.08 h 0.74667"
         style="fill:none;stroke:#ffffff;stroke-width:2.01712041;stroke-linecap:round;stroke-linejoin:round;stroke-dasharray:none;stroke-opacity:1"
         id="path416" /><path
         d="m 310.89214,229.71128 -3.36001,18.47736 0.50667,-2.53067 -1.44,1.18933 -1.76,1.09067 -1.68001,0.41867 -1.33333,-0.25067 -1.2,-0.58667 -1.17334,-1.43467 -0.4,-1.92 0.24,-2.34667 1.09334,-2.77334 1.68,-2.10666 2.26667,-1.01334 1.68,-0.16 1.52,0.58667 1.01334,0.66667 0.82666,1.01333"
         style="fill:none;stroke:#ffffff;stroke-width:2.01712041;stroke-linecap:round;stroke-linejoin:round;stroke-dasharray:none;stroke-opacity:1"
         id="path417" /><path
         d="m 324.49213,236.08462 -2.18667,12.18935 0.58667,-3.20267 -1.17333,1.104 -1.25334,1.09067 -1.68,0.84 -1.44,0.25067 -1.41334,-0.41867 -0.93333,-0.84 -0.32,-1.09334 0.24,-2.10667 1.33333,-7.81334"
         style="fill:none;stroke:#ffffff;stroke-width:2.01712041;stroke-linecap:round;stroke-linejoin:round;stroke-dasharray:none;stroke-opacity:1"
         id="path418" /><path
         d="m 332.46553,229.71128 -3.01334,17.38669 v 0.58933 l 0.16,0.33334 0.42667,0.25333 h 0.48"
         style="fill:none;stroke:#ffffff;stroke-width:2.01712041;stroke-linecap:round;stroke-linejoin:round;stroke-dasharray:none;stroke-opacity:1"
         id="path419" /><path
         d="m 340.86546,247.76997 -0.98667,0.41867 h -1.2 l -1.09333,-0.33334 -0.66667,-1.09333 0.18667,-1.85067 1.57333,-8.64001 h -2.50667 6.45334 -3.94667 l 0.69334,-3.78667"
         style="fill:none;stroke:#ffffff;stroke-width:2.01712041;stroke-linecap:round;stroke-linejoin:round;stroke-dasharray:none;stroke-opacity:1"
         id="path420" /><path
         d="m 345.07882,248.18864 3.36001,-18.47736 -1.68001,9.33334 1.41334,-1.36 1.28,-1.01333 1.76,-0.66667 1.6,-0.16 1.68001,1.01334 0.50666,1.17333 -0.10666,1.92 -1.41334,8.32268"
         style="fill:none;stroke:#ffffff;stroke-width:2.01712041;stroke-linecap:round;stroke-linejoin:round;stroke-dasharray:none;stroke-opacity:1"
         id="path421" /><path
         d="m 364.14556,248.27397 h 0.08 l 1.76,-0.41867 1.76,-1.09333 1.25334,-1.69067 0.85333,-1.84 0.32,-1.76001 v -1.6 l -0.24,-1.41333 -0.58666,-1.09334 -1.09334,-1.01333 -1.17333,-0.42667 -1.09334,-0.08 -1.44,0.24 -1.41333,0.77334 -1.28001,1.25333 -0.82666,1.17333 -0.82667,1.76001 -0.18667,1.36 -0.16,1.57333 0.16,1.44001 0.77334,1.344 0.98666,0.92533 1.17334,0.50134 1.2,0.0853"
         style="fill:none;stroke:#ffffff;stroke-width:2.01712041;stroke-linecap:round;stroke-linejoin:round;stroke-dasharray:none;stroke-opacity:1"
         id="path422" /><path
         d="m 379.10556,248.27397 h 0.08 l 1.76,-0.41867 1.76,-1.09333 1.25334,-1.69067 0.85333,-1.84 0.32,-1.76001 v -1.6 l -0.24,-1.41333 -0.58666,-1.09334 -1.09334,-1.01333 -1.17333,-0.42667 -1.09334,-0.08 -1.44,0.24 -1.41333,0.77334 -1.28001,1.25333 -0.82666,1.17333 -0.82667,1.76001 -0.18667,1.36 -0.16,1.57333 0.16,1.44001 0.77334,1.344 0.98666,0.92533 1.17334,0.50134 1.2,0.0853"
         style="fill:none;stroke:#ffffff;stroke-width:2.01712041;stroke-linecap:round;stroke-linejoin:round;stroke-dasharray:none;stroke-opacity:1"
         id="path423" /><path
         d="m 401.45244,229.71128 -3.36001,18.47736 0.50667,-2.53067 -1.44,1.18933 -1.76,1.09067 -1.68001,0.41867 -1.33333,-0.25067 -1.2,-0.58667 -1.17334,-1.43467 -0.4,-1.92 0.24,-2.34667 1.09334,-2.77334 1.68,-2.10666 2.26667,-1.01334 1.68,-0.16 1.52,0.58667 1.01334,0.66667 0.82666,1.01333"
         style="fill:none;stroke:#ffffff;stroke-width:2.01712041;stroke-linecap:round;stroke-linejoin:round;stroke-dasharray:none;stroke-opacity:1"
         id="path424" /></g></g><path
     style="fill:none;stroke:#ffffff;stroke-width:2;stroke-linecap:round;stroke-linejoin:round;stroke-opacity:1;stroke-dasharray:none"
     d="m 135.93017,55.575092 c -0.72775,-3.263361 -3.00446,-6.438193 -6.07218,-7.427703 -1.46137,-0.709978 -4.3546,0.06656 -3.54381,2.227056 0.53421,2.471511 2.4001,4.155454 4.49083,5.157146 2.22515,1.077302 4.91229,0.312378 7.05653,-0.649585 0.42644,-0.404505 0.85289,-0.809009 1.27933,-1.213514"
     id="path450" /><path
     style="fill:none;stroke:#ffffff;stroke-width:2;stroke-linecap:round;stroke-linejoin:round;stroke-opacity:1;stroke-dasharray:none"
     d="m 134.52685,35.248604 c 0.7591,6.691996 1.51819,13.383993 2.27728,20.07599"
     id="path449" /><path
     style="fill:none;stroke:#ffffff;stroke-width:2;stroke-linecap:round;stroke-linejoin:round;stroke-opacity:1;stroke-dasharray:none"
     d="m 134.52685,35.248604 c 0.0619,6.79332 0.60335,13.588908 1.40332,20.326488"
     id="path448" /><path
     style="fill:none;stroke:#ffffff;stroke-width:2;stroke-linecap:round;stroke-linejoin:round;stroke-opacity:1;stroke-dasharray:none"
     d="m 134.52685,35.248604 c -2.87551,5.029541 -3.22004,11.152068 -5.59011,16.440584 -1.05909,2.602728 -2.05058,5.716269 -4.46261,7.169485 -1.5895,1.156885 -3.33975,-0.620826 -2.85953,-2.359981 0.40273,-1.795926 2.35256,-0.14111 0.94998,0.934633"
     id="path381" /><path
     style="fill:none;stroke:#ffffff;stroke-width:2;stroke-linecap:round;stroke-linejoin:round;stroke-opacity:1;stroke-dasharray:none"
     d="m 144.85051,32.289593 c -0.2855,6.114591 -0.81435,12.255475 -0.94959,18.353833 0.17418,1.112371 0.3892,1.845038 1.47895,2.223153"
     id="path447" /><path
     style="fill:none;stroke:#ffffff;stroke-width:2;stroke-linecap:round;stroke-linejoin:round;stroke-opacity:1;stroke-dasharray:none"
     d="m 143.97655,32.540091 c -0.28101,6.11328 -0.80482,12.252897 -0.93594,18.349919 -0.1843,2.016582 2.51836,2.598758 3.39306,0.976977 1.29284,-1.191504 1.46168,-3.251124 2.10512,-4.85317"
     id="path446" /><path
     style="fill:none;stroke:#ffffff;stroke-width:2;stroke-linecap:round;stroke-linejoin:round;stroke-opacity:1;stroke-dasharray:none"
     d="m 141.64271,48.990404 c 0.88929,-2.400723 1.40104,-4.886461 1.8449,-7.417492"
     id="path382" /><path
     style="fill:none;stroke:#ffffff;stroke-width:2;stroke-linecap:round;stroke-linejoin:round;stroke-opacity:1;stroke-dasharray:none"
     d="m 151.90458,42.103757 c -1.32325,1.967776 -2.12489,4.437228 -1.07559,6.749251 0.22902,0.967172 1.63713,1.168524 2.30726,1.790403"
     id="path445" /><path
     style="fill:none;stroke:#ffffff;stroke-width:2;stroke-linecap:round;stroke-linejoin:round;stroke-opacity:1;stroke-dasharray:none"
     d="m 153.62518,41.610589 c -3.52222,0.216943 -5.69531,5.604119 -2.84059,8.142948 1.47734,1.46628 4.1035,0.880381 5.31653,-0.786472 1.78508,-1.939775 1.52881,-5.700379 -0.79676,-6.977049 -1.91125,-1.256893 -2.80181,1.020675 -1.85792,2.646471 0.97004,1.888574 3.1443,2.414918 4.91867,1.549198 0.88402,-0.710266 1.77729,-1.463774 2.19062,-2.616214"
     id="path383" /><path
     style="fill:none;stroke:#ffffff;stroke-width:2;stroke-linecap:round;stroke-linejoin:round;stroke-opacity:1;stroke-dasharray:none"
     d="m 166.54338,37.907919 c 2.58657,1.120006 0.8435,4.561712 1.67839,6.700413 0.58636,1.806251 3.08907,0.959768 3.74952,-0.572179 0.7614,-1.26306 0.99957,-2.781332 1.50263,-4.169352"
     id="path444" /><path
     style="fill:none;stroke:#ffffff;stroke-width:2;stroke-linecap:round;stroke-linejoin:round;stroke-opacity:1;stroke-dasharray:none"
     d="m 162.92342,41.920153 c 0.93033,-1.965586 2.54614,-4.899465 4.99608,-3.691291 1.51973,0.611496 0.91705,6.125752 0.87256,4.676892 0.10767,1.187266 0.2789,2.456145 1.52294,2.813809"
     id="path443" /><path
     style="fill:none;stroke:#ffffff;stroke-width:2;stroke-linecap:round;stroke-linejoin:round;stroke-opacity:1;stroke-dasharray:none"
     d="m 163.77717,26.86475 c -0.39708,7.023385 -0.79417,14.04677 -1.19125,21.070155"
     id="path442" /><path
     style="fill:none;stroke:#ffffff;stroke-width:2;stroke-linecap:round;stroke-linejoin:round;stroke-opacity:1;stroke-dasharray:none"
     d="m 162.90321,27.115249 c -0.39253,7.022079 -0.78506,14.04416 -1.1776,21.06624"
     id="path441" /><path
     style="fill:none;stroke:#ffffff;stroke-width:2;stroke-linecap:round;stroke-linejoin:round;stroke-opacity:1;stroke-dasharray:none"
     d="m 160.56937,43.565562 c 0.88929,-2.400723 1.40104,-4.886461 1.8449,-7.417492"
     id="path384" /><path
     style="fill:none;stroke:#ffffff;stroke-width:2;stroke-linecap:round;stroke-linejoin:round;stroke-opacity:1;stroke-dasharray:none"
     d="m 176.83973,34.956733 c -1.32324,1.967776 -2.12488,4.437228 -1.07558,6.749251 0.22901,0.967173 1.63713,1.168524 2.30726,1.790403"
     id="path440" /><path
     style="fill:none;stroke:#ffffff;stroke-width:2;stroke-linecap:round;stroke-linejoin:round;stroke-opacity:1;stroke-dasharray:none"
     d="m 178.56034,34.463565 c -3.52222,0.216943 -5.69532,5.604119 -2.84059,8.142949 1.47734,1.466279 4.1035,0.88038 5.31652,-0.786473 1.78509,-1.939775 1.52882,-5.700379 -0.79675,-6.977049 -1.91125,-1.256893 -2.80181,1.020675 -1.85793,2.646471 0.97005,1.888574 3.14431,2.414918 4.91867,1.549198 0.88403,-0.710266 1.7773,-1.463774 2.19062,-2.616214"
     id="path385" /><path
     style="fill:none;stroke:#ffffff;stroke-width:2;stroke-linecap:round;stroke-linejoin:round;stroke-opacity:1;stroke-dasharray:none"
     d="m 200.05427,28.302883 c 2.55337,1.011404 0.94834,4.328732 1.60548,6.409357 0.25048,1.97053 2.95995,1.519366 3.68353,-0.01897 0.87671,-1.324368 1.14012,-2.945061 1.66884,-4.439329"
     id="path439" /><path
     style="fill:none;stroke:#ffffff;stroke-width:2;stroke-linecap:round;stroke-linejoin:round;stroke-opacity:1;stroke-dasharray:none"
     d="m 196.46162,32.307288 c 0.93034,-1.957859 2.52498,-4.875732 4.9725,-3.702359 1.58897,0.545278 0.92349,6.133098 0.89935,4.678586 0.0847,1.213609 0.27829,2.45777 1.54703,2.815356"
     id="path438" /><path
     style="fill:none;stroke:#ffffff;stroke-width:2;stroke-linecap:round;stroke-linejoin:round;stroke-opacity:1;stroke-dasharray:none"
     d="m 194.0458,30.025057 c 2.39308,1.01878 1.28253,4.302745 1.33238,6.433898 -0.0427,0.704528 -0.0853,1.409056 -0.12803,2.113584"
     id="path437" /><path
     style="fill:none;stroke:#ffffff;stroke-width:2;stroke-linecap:round;stroke-linejoin:round;stroke-opacity:1;stroke-dasharray:none"
     d="m 190.42583,34.037291 c 0.94642,-1.950493 2.53978,-4.900656 4.998,-3.700852 1.55448,0.578395 0.92037,6.129455 0.88589,4.677881 -0.0619,1.102574 -0.12374,2.205147 -0.18561,3.307721"
     id="path436" /><path
     style="fill:none;stroke:#ffffff;stroke-width:2;stroke-linecap:round;stroke-linejoin:round;stroke-opacity:1;stroke-dasharray:none"
     d="m 188.03732,31.747231 c 2.42665,1.139858 1.20994,4.523851 1.30558,6.743668 -0.0337,0.601271 -0.0675,1.202543 -0.10122,1.803814"
     id="path435" /><path
     style="fill:none;stroke:#ffffff;stroke-width:2;stroke-linecap:round;stroke-linejoin:round;stroke-opacity:1;stroke-dasharray:none"
     d="m 185.50452,36.418538 c 0.5476,-1.76749 0.89101,-3.679781 2.5328,-4.671307 2.02637,-0.247384 2.62336,1.679266 2.32637,3.493516 -0.0827,1.601156 -0.16537,3.202312 -0.24805,4.803468"
     id="path386" /><path
     style="fill:none;stroke:#ffffff;stroke-width:2;stroke-linecap:round;stroke-linejoin:round;stroke-opacity:1;stroke-dasharray:none"
     d="m 210.40526,25.336034 c -1.32324,1.967776 -2.12488,4.437228 -1.07558,6.749251 0.22901,0.967172 1.63713,1.168523 2.30725,1.790403"
     id="path434" /><path
     style="fill:none;stroke:#ffffff;stroke-width:2;stroke-linecap:round;stroke-linejoin:round;stroke-opacity:1;stroke-dasharray:none"
     d="m 212.12587,24.842866 c -3.52222,0.216943 -5.69532,5.604119 -2.84059,8.142948 1.47734,1.46628 4.1035,0.880381 5.31652,-0.786472 1.78509,-1.939775 1.52882,-5.700379 -0.79675,-6.977049 -1.91125,-1.256893 -2.80181,1.020675 -1.85793,2.646471 0.97005,1.888574 3.14431,2.414918 4.91867,1.549198 0.88403,-0.710266 1.7773,-1.463774 2.19062,-2.616214"
     id="path387" /><path
     style="fill:none;stroke:#ffffff;stroke-width:2;stroke-linecap:round;stroke-linejoin:round;stroke-opacity:1;stroke-dasharray:none"
     d="m 226.73737,20.654855 c 0.35148,1.564866 0.74736,3.845674 2.30229,4.287443 0.90305,-0.09445 1.37273,-1.071269 2.06099,-1.592721"
     id="path433" /><path
     style="fill:none;stroke:#ffffff;stroke-width:2;stroke-linecap:round;stroke-linejoin:round;stroke-opacity:1;stroke-dasharray:none"
     d="m 223.99136,24.416593 c 0.86277,-1.590021 1.76299,-3.641815 3.61996,-4.012234 -0.0596,1.008631 -0.11916,2.017265 -0.17874,3.025896"
     id="path432" /><path
     style="fill:none;stroke:#ffffff;stroke-width:2;stroke-linecap:round;stroke-linejoin:round;stroke-opacity:1;stroke-dasharray:none"
     d="m 221.60285,22.126532 c 2.42665,1.139858 1.20994,4.523851 1.30558,6.743668 -0.0337,0.601271 -0.0675,1.202543 -0.10122,1.803814"
     id="path431" /><path
     style="fill:none;stroke:#ffffff;stroke-width:2;stroke-linecap:round;stroke-linejoin:round;stroke-opacity:1;stroke-dasharray:none"
     d="m 219.07005,26.797839 c 0.5476,-1.767491 0.89101,-3.679781 2.5328,-4.671307 2.02637,-0.247384 2.62336,1.679266 2.32637,3.493515 -0.0827,1.601156 -0.16537,3.202313 -0.24805,4.803469"
     id="path388" /><path
     style="fill:none;stroke:#ffffff;stroke-width:2;stroke-linecap:round;stroke-linejoin:round;stroke-opacity:1;stroke-dasharray:none"
     d="m 240.52973,16.701628 c 0.0275,2.626524 -0.79946,5.343777 0.0999,7.877717 0.36816,0.223257 0.73632,0.44651 1.10447,0.669767"
     id="path430" /><path
     style="fill:none;stroke:#ffffff;stroke-width:2;stroke-linecap:round;stroke-linejoin:round;stroke-opacity:1;stroke-dasharray:none"
     d="m 239.65577,16.952128 c 0.0368,2.623903 -0.76882,5.339426 0.12719,7.869888 1.64137,0.952721 3.13393,-0.140393 3.85788,-1.772787 0.54903,-1.148147 0.81546,-2.449185 1.25217,-3.652879"
     id="path429" /><path
     style="fill:none;stroke:#ffffff;stroke-width:2;stroke-linecap:round;stroke-linejoin:round;stroke-opacity:1;stroke-dasharray:none"
     d="m 234.49395,18.431631 c -1.32325,1.967777 -2.12489,4.43723 -1.0756,6.749252 0.22899,0.967181 1.63714,1.168523 2.30727,1.790402"
     id="path428" /><path
     style="fill:none;stroke:#ffffff;stroke-width:2;stroke-linecap:round;stroke-linejoin:round;stroke-opacity:1;stroke-dasharray:none"
     d="m 239.47702,19.978024 c -0.94283,-1.906093 -3.12517,-2.436671 -4.89501,-1.571634 -2.60681,1.499749 -3.56115,5.829368 -1.02116,7.900472 1.73962,1.256077 4.4868,0.451468 5.43018,-1.537761 0.1103,-0.595872 0.22059,-1.191741 0.3309,-1.787614"
     id="path389" /><path
     style="fill:none;stroke:#ffffff;stroke-width:2;stroke-linecap:round;stroke-linejoin:round;stroke-opacity:1;stroke-dasharray:none"
     d="m 250.03994,20.895778 c -1.95715,2.523421 2.83413,1.356629 0.12426,0.07536 z"
     id="path427" /><path
     style="fill:none;stroke:#ffffff;stroke-width:2;stroke-linecap:round;stroke-linejoin:round;stroke-opacity:1;stroke-dasharray:none"
     d="m 249.97162,2.159319 c 2.00322,0.6622163 0.58649,3.2555132 0.84454,4.9031399 -0.14624,2.6061879 -0.29248,5.2123791 -0.43872,7.8185671"
     id="path426" /><path
     style="fill:none;stroke:#ffffff;stroke-width:2;stroke-linecap:round;stroke-linejoin:round;stroke-opacity:1;stroke-dasharray:none"
     d="m 250.2058,3.09419 c 0.0572,3.9289461 0.11442,7.857892 0.17164,11.786836"
     id="path425" /><path
     style="fill:none;stroke:#ffffff;stroke-width:2;stroke-linecap:round;stroke-linejoin:round;stroke-opacity:1;stroke-dasharray:none"
     d="m 249.97162,2.159319 c -1.29319,1.9063829 -0.0455,4.4019573 -0.15049,6.5838659 0.18544,2.0459461 0.37087,4.0918951 0.55631,6.1378411"
     id="path390" /></svg>
