<?xml version="1.0" encoding="UTF-8" standalone="no"?>
<!-- Created with Inkscape (http://www.inkscape.org/) -->

<svg
   width="764.83282"
   height="588.71655"
   viewBox="0 0 764.83282 588.71655"
   version="1.1"
   id="svg1"
   xml:space="preserve"
   sodipodi:docname="0.svg"
   inkscape:version="1.4.3 (0d15f75042, 2025-12-25)"
   xmlns:inkscape="http://www.inkscape.org/namespaces/inkscape"
   xmlns:sodipodi="http://sodipodi.sourceforge.net/DTD/sodipodi-0.dtd"
   xmlns="http://www.w3.org/2000/svg"
   xmlns:svg="http://www.w3.org/2000/svg"><sodipodi:namedview
     id="namedview1"
     pagecolor="#505050"
     bordercolor="#eeeeee"
     borderopacity="1"
     inkscape:showpageshadow="0"
     inkscape:pageopacity="0"
     inkscape:pagecheckerboard="0"
     inkscape:deskcolor="#505050"
     inkscape:zoom="0.8237094"
     inkscape:cx="344.78179"
     inkscape:cy="292.57891"
     inkscape:window-width="1536"
     inkscape:window-height="836"
     inkscape:window-x="0"
     inkscape:window-y="0"
     inkscape:window-maximized="1"
     inkscape:current-layer="layer1" /><defs
     id="defs1" /><g
     id="layer1"
     transform="translate(-577.16718,-247.54636)"><path
       style="fill:none;stroke:#ffffff;stroke-width:2;stroke-linecap:round;stroke-linejoin:round;stroke-dasharray:none;stroke-opacity:1"
       d="m 1040,566 c 2.0677,5.29172 1.7986,17.54483 4.7222,21.38889 2.2887,3.00909 6.271,2.38125 9.2778,2.69445 7.6373,0.79557 13.3058,1.93286 20,3.25 2.4901,0.48996 5.4102,3.98505 8,5.24997 9.6063,4.69199 19.549,8.5911 29,13.66669 21.6851,11.64572 43.0196,23.1438 66,28.88889 5.0538,1.26345 12.013,2.40188 17,2.94445 2.1325,0.232 2.8862,0.6229 5,0.83332 1.8984,0.18896 3.3074,0.0833 5,0.0833 3.6806,0 15.2421,-0.29071 19,0.0833 11.7328,1.16788 22.9163,4.40168 34,7.91666 3.3835,1.07303 5.6647,2.15982 9,3.33334 14.9613,5.26416 29.8242,11.82572 44,17.66666 9.4719,3.90271 20.8606,8.43182 30,14"
       id="path1153" /><path
       style="fill:none;stroke:#ffffff;stroke-width:2;stroke-linecap:round;stroke-linejoin:round;stroke-dasharray:none;stroke-opacity:1"
       d="m 939.2381,507.43651 c -3.71631,3.26349 -15.56275,7.52537 -22.15479,13.20238 -1.65893,1.42865 -2.39453,2.44284 -4.16662,4.36111 -2.12531,2.3006 -3.78821,3.65411 -5.44446,6 -1.84619,2.6149 -2.59467,5.22409 -3.63892,8 -1.12365,2.98685 -1.61969,8.80106 -8.04858,9.74304 -6.23471,0.91353 -11.05805,-6.49663 -11.82441,-12.57637"
       id="path1152" /><path
       style="fill:none;stroke:#ffffff;stroke-width:2;stroke-linecap:round;stroke-linejoin:round;stroke-dasharray:none;stroke-opacity:1"
       d="m 1265,667 c -52.4178,38.32263 -101.7051,82.29144 -152,123.38892 -12.9597,10.58972 -26.2015,20.88269 -39,31.66662 -4.3655,3.67835 -11.3499,11.91773 -17,13.05554 -6.9009,1.38977 -21.5743,-8.02008 -28,-10.86108 -23.1494,-10.23505 -45.28851,-19.56 -69,-29.05554 -91.70697,-36.72528 -178.9931,-77.15467 -271,-114 -27.71039,-11.09699 -55.16031,-22.63574 -83,-34.94446 -6.70572,-2.96478 -24.22696,-6.51382 -26.66669,-13.27777 -2.24176,-6.21512 -1.0303,-13.6832 1.7778,-16.94446 10.04773,-11.66919 31.44404,-19.74017 44.88889,-28.36111 43.16693,-27.67896 87.65259,-53.30124 131,-80.69443 12.90265,-8.15378 26.09753,-15.84638 39,-24 5.09131,-3.21744 12.30334,-9.82468 18,-10.44446 5.42035,-0.58972 13.21667,4.25638 18,6.08334 17.5094,6.68763 36.59338,16.39338 56,20.38889"
       id="path1151" /><path
       style="fill:none;stroke:#ffffff;stroke-width:2;stroke-linecap:round;stroke-linejoin:round;stroke-dasharray:none;stroke-opacity:1"
       d="m 581,617 c 7.48193,5.15564 23.99463,10.87741 34,15 27.47479,11.32065 54.52652,23.67987 82,35 60.03217,24.73553 118.27106,49.45001 178,75.16669 30.21893,13.01092 64.23816,27.45703 94,39.44439 3.88336,1.56415 10.53906,4.58179 15,6.38892 14.91376,6.04144 29.9121,12.45367 44,18.38892 8.2032,3.45593 19.6135,11.27777 28,11.27777 3.8375,0 8.7685,-5.19599 12,-7.88892 11.2792,-9.39929 22.7081,-18.61627 34,-28 37.8794,-31.47845 76.1635,-62.46954 114,-94 10.1639,-8.46991 30.6036,-21.90926 38.1438,-27.61831"
       id="path1150" /><path
       style="fill:none;stroke:#ffffff;stroke-width:2;stroke-linecap:round;stroke-linejoin:round;stroke-dasharray:none;stroke-opacity:1"
       d="m 916.35462,606.25254 c 2.57692,6.56225 9.49261,13.7015 17.64538,10.71969 6.40784,-2.34363 9.94103,-7.5991 13.1292,-13.66944"
       id="path1149" /><path
       style="fill:none;stroke:#ffffff;stroke-width:2;stroke-linecap:round;stroke-linejoin:round;stroke-dasharray:none;stroke-opacity:1"
       d="m 1008,592.99992 c 6.8798,4.68289 11.2117,10.16521 15.8979,16.06627"
       id="path1148" /><path
       style="fill:none;stroke:#ffffff;stroke-width:2;stroke-linecap:round;stroke-linejoin:round;stroke-dasharray:none;stroke-opacity:1"
       d="m 1044,587.99992 c -4.4212,4.1983 -12.121,7.99548 -17,9"
       id="path1147" /><path
       style="fill:none;stroke:#ffffff;stroke-width:2;stroke-linecap:round;stroke-linejoin:round;stroke-dasharray:none;stroke-opacity:1"
       d="m 1019,576.99992 c 6.4858,7.28125 9.0284,15.81476 6.5833,25 -0.5871,2.20557 -1.9066,3.70184 -1.8055,6 0.2856,6.49286 3.2068,7.35504 3.2222,14 0.01,3.05594 0.1456,5.20825 -0.6945,8 -1.8328,6.0907 -7.1242,12.47392 -13.3055,12.88889 -5.5767,0.37438 -11.6106,-6.77133 -16.12638,-13.66481 -2.47527,-3.77857 -5.18521,-10.74315 -5.42075,-12.948"
       id="path1146" /><path
       style="fill:none;stroke:#ffffff;stroke-width:2;stroke-linecap:round;stroke-linejoin:round;stroke-dasharray:none;stroke-opacity:1"
       d="m 992.93651,620.98413 c 3.29388,-3.81744 12.60699,-4.25217 13.63499,1.73016 C 1007.6714,629.11578 1005,633.90955 1005,639"
       id="path1145" /><path
       style="fill:none;stroke:#ffffff;stroke-width:2;stroke-linecap:round;stroke-linejoin:round;stroke-dasharray:none;stroke-opacity:1"
       d="m 876.01587,569.6031 c -3.69031,4.20242 -13.62549,23.42566 -15.76587,28.39682 -1.73871,4.0383 -2.97082,9.34472 -2.125,9.90674"
       id="path1144" /><path
       style="fill:none;stroke:#ffffff;stroke-width:2;stroke-linecap:round;stroke-linejoin:round;stroke-dasharray:none;stroke-opacity:1"
       d="m 909.99541,567.30159 1.06071,15.75445 C 917.05417,581.6135 920,588.77909 920,594.99992 c 0,6.11465 -0.41692,6.32987 -3.65941,11.30866 -2.07533,-4.83235 -4.52863,-15.18675 -5.28447,-23.04209"
       id="path1143" /><path
       style="fill:none;stroke:#ffffff;stroke-width:2;stroke-linecap:round;stroke-linejoin:round;stroke-dasharray:none;stroke-opacity:1"
       d="m 995.5612,559.75522 c -4.07336,4.16077 -7.80533,24.52007 -11.01016,30.25493"
       id="path1142" /><path
       style="fill:none;stroke:#ffffff;stroke-width:2;stroke-linecap:round;stroke-linejoin:round;stroke-dasharray:none;stroke-opacity:1"
       d="m 950.28571,568.43651 c 5.17909,-0.63492 11.60058,-1.21224 20.71429,-3.04762 10.29858,-2.07401 15.88824,-2.95246 25,-5.69443 4.2751,-1.2865 10.9554,-2.36585 15,-2.7778 3.8054,-0.38761 8.6022,-1.20127 14,-0.88889 6.9444,0.40189 17.3454,2.21518 25,4.11112 2.2491,0.55706 3.6794,0.79275 6,1.55557 10.5387,3.46411 19.6404,11.49206 30,17.05554 17.1014,9.18411 37.3151,16.90768 55,21.86111 11.9147,3.33722 28.9328,4.86356 37,6.38889"
       id="path1141" /><path
       style="fill:none;stroke:#ffffff;stroke-width:2;stroke-linecap:round;stroke-linejoin:round;stroke-dasharray:none;stroke-opacity:1"
       d="m 1074,576.99992 c -0.6882,4.96304 -0.1514,3.08203 0,9 0.052,2.01605 0,4.53317 0,6"
       id="path1140" /><path
       style="fill:none;stroke:#ffffff;stroke-width:2;stroke-linecap:round;stroke-linejoin:round;stroke-dasharray:none;stroke-opacity:1"
       d="m 894.25,548.68651 c -3.77051,3.78642 -12.96152,13.0724 -17.67957,20.02947 -1.24627,1.83769 -5.0558,6.15688 -3.94346,7.34751 0.4664,0.49923 2.50261,0.13328 4.54765,1.77257 1.06484,0.85356 0.50228,2.99112 2.75092,5.36286 0.84407,0.89028 3.19239,0.32224 4.64794,1.41762 2.22162,1.67187 3.62975,5.00286 4.3789,5.90727"
       id="path1139" /><path
       style="fill:none;stroke:#ffffff;stroke-width:2;stroke-linecap:round;stroke-linejoin:round;stroke-dasharray:none;stroke-opacity:1"
       d="M 903.36508,539.39683 C 902.43557,549.00428 910.18225,559.16614 914,563 c -6.19794,6.30386 -17.45618,22.07022 -27,29.13889 -5.0882,3.76855 -13.40395,9.01516 -18.9504,12.37896 -3.69049,2.23822 -8.70766,4.30567 -9.95238,3.34526"
       id="path1138" /><path
       style="fill:none;stroke:#ffffff;stroke-width:2;stroke-linecap:round;stroke-linejoin:round;stroke-dasharray:none;stroke-opacity:1"
       d="m 911.8254,526.11111 c 3.4165,-0.35889 18.68632,-7.21521 23.84123,-3.38888 3.85882,2.86429 5.8637,20.85156 7.47229,25.27777 0.63757,1.75439 1.06414,3.13281 0.75,5 -1.09894,6.53204 -12.1048,8.47424 -16.88892,9.08334 -2.12701,0.27082 -2.8866,0.51767 -5,0.86112 -1.8504,0.30069 -6.39597,0.87903 -7.88889,0.18252 4.15497,3.07257 9.62638,4.15903 15.88889,4.95636 4.07709,0.51908 4.85059,1.0597 10,0.91666 3.03052,-0.0842 8.53286,-0.50051 10.30155,-0.61907 0.7869,1.70198 1.90164,11.66307 0.84044,20.82588 -0.73739,6.36688 -3.45414,12.46443 -4.19361,14.6543 0.41278,2.4426 4.08612,6.12653 5.36114,8 2.14899,3.15768 3.28734,5.6384 5.52379,9.13889 1.90644,2.98398 3.16638,4.57602 5.22223,7 1.7099,2.01608 2.87256,3.63745 5.02777,5.13889 2.9549,2.05856 5.67029,3.08978 8.91669,2.63888 8.38964,-1.16523 12.55934,-8.01016 14.12928,-17.52439 0.42968,-2.60404 0.95303,-4.02602 0.87073,-7.25338 -0.0735,-2.8873 -0.33032,-3.78555 -1,-7 -2.35315,-11.29492 -9.98761,-20.18488 -20,-27"
       id="path1137" /><path
       style="fill:none;stroke:#ffffff;stroke-width:2;stroke-linecap:round;stroke-linejoin:round;stroke-dasharray:none;stroke-opacity:1"
       d="m 952.32656,611.29067 c 0.96918,-5.49185 11.5203,-11.13835 14.14567,-2.29075 1.33392,4.49553 -3.20178,13.69901 -3.20178,18.95411"
       id="path1136" /><path
       style="fill:none;stroke:#ffffff;stroke-width:2;stroke-linecap:round;stroke-linejoin:round;stroke-dasharray:none;stroke-opacity:1"
       d="m 892.98985,509.6991 c -0.019,4.52515 1.6708,6.46056 0.68416,12.63762 -1.26666,7.93021 -4.1524,9.53727 -9.66607,13.78233 -1.79462,-10.41797 5.57275,-16.60782 8.68652,-26.34128 1.18512,-3.70465 1.46838,-7.89075 2.61108,-11.77777 0.73981,-2.51666 1.16382,-4.40823 2.02777,-7 1.03174,-3.09521 1.89167,-5.09357 3.05561,-8 1.52587,-3.81036 3.30896,-7.89404 4.61108,-12 3.33984,-10.53168 5.95569,-20.32962 9,-30 1.18976,-3.77924 2.01593,-7.85373 3.13892,-12 2.73541,-10.09976 9.34393,-17.375 19.86108,-21.61108 7.55969,-3.04486 19.37292,-6.51325 28,-9.38892 13.6474,-4.54913 30.52289,-7.75726 44,-12 4.3721,-1.3764 9.5521,-3.15314 14,-4.66669 3.9754,-1.35278 6.6321,-2.27612 11,-3.94439 7.0695,-2.70014 11.2908,-4.89523 18.0832,-5.90152 3.2489,-0.48139 11.9571,-2.50504 14.0309,-1.30917 7.6411,-8.39414 17.5218,-19.4128 25.8859,-28.17823 19.326,-19.87811 38.8352,-40.72803 56.6111,-62 6.8978,-8.25452 14.5898,-15.84619 21.6111,-24 2.1732,-2.52368 5.6817,-7.01532 8.7778,-7.41669 5.1389,-0.66613 16.0944,8.53986 14.6389,14.41669 -1.7739,7.16193 -13.0899,15.45929 -17.8611,21 -19.9611,23.1806 -41.3868,45.26245 -61.8611,68 -8.0627,8.95398 -19.4465,21.52979 -26.9167,29 10.5006,9.97119 35.4289,26.93414 49,36.86111 40.457,29.59354 81.5999,65.33472 129,80.80555 17.7764,5.802 36.036,8.77511 55,13.47223 6.5173,1.61425 17.7365,3.96981 21,4.86111"
       id="path1135" /><path
       style="fill:none;stroke:#ffffff;stroke-width:2;stroke-linecap:round;stroke-linejoin:round;stroke-dasharray:none;stroke-opacity:1"
       d="m 937.42064,508.76985 c 6.1167,-2.60158 17.14479,-6.99898 25.57936,-9.38096 7.30524,-2.06308 15.98294,-3.19069 22.25298,-4.32639"
       id="path1134" /><path
       style="fill:none;stroke:#ffffff;stroke-width:2;stroke-linecap:round;stroke-linejoin:round;stroke-dasharray:none;stroke-opacity:1"
       d="m 1048.8125,481.29166 c -2.5596,1.1662 -9.9774,3.7633 -12.8125,4.70834 -6.7,2.23334 -18.7479,5.20853 -25.6875,5.9375"
       id="path1133" /><path
       style="fill:none;stroke:#ffffff;stroke-width:2;stroke-linecap:round;stroke-linejoin:round;stroke-dasharray:none;stroke-opacity:1"
       d="m 925,477 c 6.41443,4.36612 13.01666,11.97836 15,17"
       id="path1132" /><path
       style="fill:none;stroke:#ffffff;stroke-width:2;stroke-linecap:round;stroke-linejoin:round;stroke-dasharray:none;stroke-opacity:1"
       d="m 1010,469 c 2.0397,8.17912 2.5486,15.19866 0.3889,23.04169 l -25.37303,3.03768"
       id="path1131" /><path
       style="fill:none;stroke:#ffffff;stroke-width:2;stroke-linecap:round;stroke-linejoin:round;stroke-dasharray:none;stroke-opacity:1"
       d="m 1007.2816,434.80714 c -4.6678,5.75681 -14.17486,15.08218 -19.21122,21.32696"
       id="path1130" /><path
       style="fill:none;stroke:#ffffff;stroke-width:2;stroke-linecap:round;stroke-linejoin:round;stroke-dasharray:none;stroke-opacity:1"
       d="m 947,430 c 5.7049,9.1741 13.46631,20.936 12.08337,32 -1.73748,13.90042 -10.24676,22.35565 -17.38891,33.61111 -1.17206,1.84708 -0.69196,3.53504 -1.11115,5.38889 -0.60186,2.66183 -1.04541,4.98039 -1.34521,6.43651 3.57153,-2.04293 9.30456,-8.00215 13.98413,-13.43651 9.91089,-11.50946 26.02962,-25.75412 34.99831,-38.02167 C 983.59585,458.76585 967.51001,461 960,461"
       id="path1129" /><path
       style="fill:none;stroke:#ffffff;stroke-width:2;stroke-linecap:round;stroke-linejoin:round;stroke-dasharray:none;stroke-opacity:1"
       d="m 1054,425 c 0,5.88931 -0.985,7.50522 -1,14 -0.01,2.56317 0.065,3.66254 0,6 -0.075,2.68665 -0.645,4.27039 -0.9167,7 -0.2784,2.79648 0.024,3.66232 -0.1111,6 -0.121,2.09174 -0.4664,3.08569 -0.75,5 -0.9531,6.43381 -2.4983,12.42413 -2.5972,18.3125 5.6777,-2.71915 13.338,-6.72427 20.375,-12.3125"
       id="path1128" /><path
       style="fill:none;stroke:#ffffff;stroke-width:2;stroke-linecap:round;stroke-linejoin:round;stroke-dasharray:none;stroke-opacity:1"
       d="m 1087.221,380.76256 c -6.7161,6.71606 -16.9077,17.95119 -23.8321,26.23744 -17.3553,20.76877 -37.0186,40.48877 -54.7847,60.21875 -7.277,8.08139 -11.7477,13.61428 -25.27608,28.11719"
       id="path1127" /><path
       style="fill:none;stroke:#ffffff;stroke-width:2;stroke-linecap:round;stroke-linejoin:round;stroke-dasharray:none;stroke-opacity:1"
       d="m 1066.1818,370.13226 c -3.9938,4.01068 -11.2016,12.61109 -16.154,17.86774 -10.1897,10.81561 -19.5764,22.42627 -30.0278,33 -5.5905,5.65598 -10.2366,11.0387 -12.7813,13.85937 C 1007.8064,429.03149 1007,422.10825 1007,415"
       id="path1" /><g
       style="fill:none;stroke:#000000;stroke-linecap:round;stroke-linejoin:round"
       id="g1079"><path
         id="path1078"
         style="stroke:#ffffff;stroke-width:2;stroke-linecap:round;stroke-linejoin:round;stroke-dasharray:none;stroke-opacity:1"
         d="m 824.64855,631.23364 0.006,-1.21078 -0.70598,-1.12426 -1.24929,-1.60389 -0.72112,-1.89583 1.75765,-2.97106 0.91337,-0.81473 1.58916,-0.63021 1.13127,0.39912 0.80297,0.63814 0.10659,0.5019 m -4.24507,5.86206 1.746,0.373 3.8045,-0.58367 2.42249,0.2021 1.35993,0.81824 0.51735,1.58197 -0.5957,1.82119 -0.53439,1.1158 -0.78425,0.73144 -1.15822,0.73748 -0.97697,0.53353 c 0,0 3.45934,-1.98242 4.33741,-2.70985 1.93614,-1.60399 6.65921,-5.60505 11.5692,-10.97059 6.62753,-7.24242 12.50351,-13.8864 12.50351,-13.8864 m -43.05862,28.95137 -1.49803,-2.76312 -2.34182,-4.7959 -0.5281,2.88328 0.79825,0.42808 0.60199,-0.0537 5.17195,-3.09984 1.36996,4.08496 1.85127,2.86361 2.82807,1.05112 2.07033,-1.51069 -0.36003,-3.45442 -0.51445,-1.49148 m -15.42026,10.0212 0.84136,-1.97703 0.60268,-1.72256 -0.85252,-1.49488 -1.68426,-0.51778 -1.69714,0.83915 -0.88176,2.99603 -0.13577,1.32661 0.54973,1.78909 0.81946,1.37339 1.39812,0.93655 1.91811,0.37635 3.16397,-0.73148 2.48771,-2.77227 -0.0323,-1.32184 -0.0148,-1.87579 -0.49927,-1.39439 m -25.51064,10.02906 1.5534,3.26127 2.15428,2.46278 1.39505,0.93491 1.48364,0.42206 1.59847,-0.54369 0.85928,-1.31367 -0.59043,-2.1934 -1.57683,-3.06925 -0.88288,-1.68906 0.83575,-0.41162 1.86937,2.7814 2.5344,1.65561 2.38927,0.42148 1.91803,-0.63175 0.81694,-2.8529 -0.95872,-3.77549 -2.00298,-2.55657 -1.75002,-0.93848 -2.19136,-0.52289 -1.7582,0.62852 m -14.2235,12.29665 -2.21873,0.38154 -0.41119,2.02983 0.66103,2.50105 1.32331,1.7355 2.21681,1.65725 3.80799,-0.0126 1.30125,-1.92312 -0.0188,-2.44128 -1.8036,-2.3607 -0.93589,-0.76872 -1.16668,-0.62566 -0.48722,0.30205 m 2.5094,2.91709 2.16031,0.68413 1.67301,-0.0219 0.95311,-0.70447 -0.005,-1.21817 -0.62575,-2.20344 m -16.32966,10.37215 0.25747,-3.31896 -1.21956,-5.03016 -2.19926,-4.3518 -1.0104,-1.96498 -1.77636,-0.56718 -2.04567,0.94873 -0.41847,1.82135 1.92363,3.84821 3.15103,4.8622 2.58009,3.44124 2.90213,2.20859 2.56731,0.53475 1.88842,-0.94708 0.88093,-1.77792 -0.48383,-2.48311 -0.66831,-1.3961 m -0.45786,19.73692 -0.0662,-1.52089 -5.1757,-4.8317 -5.20495,-5.59454 -4.19053,-5.03422 -2.51813,-3.69264 -1.76243,-2.45722 -0.092,-2.74735 0.52977,-1.10939 2.13709,-0.54392 2.59852,1.86788 2.1382,4.14117 0.80179,3.86922 0.0471,2.10068 0.0536,1.42222 -0.57634,1.35125 -2.07769,1.60755 -0.6855,-0.46249 4.69757,-2.80574 2.14457,-1.75551 m 40.00017,-77.60898 -1.49803,-2.76312 -2.34182,-4.7959 -0.5281,2.88328 0.79825,0.42808 0.60199,-0.0537 5.17195,-3.09984 1.36996,4.08496 1.85127,2.86361 2.82807,1.05112 2.07033,-1.51069 -0.36003,-3.45442 -0.51445,-1.49148 m -15.42026,10.02121 0.84136,-1.97703 0.60268,-1.72256 -0.85252,-1.49488 -1.68426,-0.51778 -1.69714,0.83915 -0.88176,2.99603 -0.13577,1.32661 0.54973,1.78909 0.81946,1.37339 1.39812,0.93655 1.91811,0.37635 3.16397,-0.73148 2.48771,-2.77227 -0.0323,-1.32184 -0.0148,-1.87579 -0.49927,-1.39439 m -26.50181,16.42975 -0.19246,-2.43656 -1.29809,-1.53814 6.15761,6.56941 -0.46454,-2.39568 -1.23086,-4.49068 -0.0576,-1.9877 0.34555,-1.20818 0.47204,-0.39913 1.03916,0.34973 0.83332,0.83232 2.87069,4.14854 0.11892,-3.19758 0.1533,-2.43793 1.27411,-1.92582 0.80595,1.73675 2.95492,2.97812 2.07417,0.72688 2.0932,-0.62676 0.73483,-2.24467 -1.08041,-3.36636 m -35.22043,21.83482 -0.19246,-2.43656 -1.29809,-1.53814 6.15761,6.56941 -0.46454,-2.39568 -1.23086,-4.49068 -0.0576,-1.9877 0.34555,-1.20818 0.47204,-0.39913 1.03916,0.34973 0.83332,0.83232 2.87069,4.14854 0.11892,-3.19758 0.1533,-2.43793 1.27411,-1.92582 0.80595,1.73675 2.95492,2.97812 2.07417,0.72688 2.0932,-0.62676 0.73483,-2.24467 -1.08041,-3.36636 m -32.14739,15.45691 1.12961,2.56555 1.99619,2.09931 1.95606,1.14088 2.08049,-0.2852 1.48929,-1.81783 -0.9244,-2.45847 -0.9675,-2.95004 -1.80762,-2.92618 1.10195,-0.32816 2.67497,4.69585 1.80784,1.23633 1.27396,0.77213 2.32926,-0.32227 1.11216,-1.3604 -0.0694,-2.76489 -0.65209,-1.83213 m -20.42421,12.66192 0.006,-1.21078 -0.70598,-1.12426 -1.24929,-1.60389 -0.72112,-1.89583 1.75765,-2.97106 0.91337,-0.81473 1.58916,-0.63021 1.13127,0.39912 0.80297,0.63814 0.10659,0.5019 m -4.24507,5.86206 1.746,0.373 3.8045,-0.58367 2.42249,0.2021 1.35993,0.81824 0.51735,1.58197 -0.5957,1.82119 -0.53439,1.1158 -1.35877,0.95241 -0.62789,-0.058 -1.06537,-0.57132 -0.0951,-0.6084 m -20.62245,7.97847 0.84136,-1.97703 0.60268,-1.72256 -0.85252,-1.49488 -1.68426,-0.51778 -1.69714,0.83915 -0.88176,2.99603 -0.13577,1.32661 0.54973,1.78909 0.81946,1.37339 1.39812,0.93655 1.91811,0.37635 3.16397,-0.73148 2.48771,-2.77227 -0.0322,-1.32184 -0.0148,-1.87579 -0.49927,-1.39439 m -18.01382,11.16758 -0.50295,-2.13758 -0.91469,-2.4503 m -1.22697,0.0862 2.19246,-1.35921 0.68709,-2.98184 -0.67933,-3.62566 -1.14804,-2.30563 -1.81073,-1.32682 -2.11076,0.17261 -1.2741,1.92582 0.65611,2.39761 1.96113,3.0085 1.73138,2.61846 5.08269,5.90106 2.91145,2.68204 -0.12793,-1.37611 -1.4144,-3.36165 -0.81801,-3.43319 0.13744,-2.1796 1.19003,-0.84425 m -2.17611,4.7924 7.49609,2.62643 5.80993,0.98098 4.60109,-0.61604 1.69243,-1.04922 -0.11602,-0.92203 -0.50641,-0.36052 -1.14843,-0.52692 m -26.5595,7.62287 0.14984,-1.9743 -2.25789,-1.86607 4.95224,5.55241 2.42195,0.73846 2.33857,-0.89247 0.0787,-2.2852 -0.52513,-1.79369 -0.78606,-1.4296 m -11.40616,-3.32978 0.43586,1.07872 m -1.71824,10.36579 0.25747,-3.31896 -1.21956,-5.03016 -2.19926,-4.3518 -1.0104,-1.96498 -1.77636,-0.56718 -2.04567,0.94873 -0.41847,1.82135 1.92363,3.84821 3.15103,4.8622 2.58009,3.44124 2.90213,2.20859 2.56731,0.53475 1.88842,-0.94708 0.88093,-1.77792 -0.48383,-2.48311 -0.66831,-1.3961 m 121.9026,-132.95077 0.23897,-3.16016 -1.13194,-4.78949 -2.04125,-4.14358 -0.9378,-1.87096 -1.64874,-0.54004 -1.89869,0.90333 -0.3884,1.73421 1.78542,3.66409 2.92463,4.62956 2.39472,3.27658 2.69362,2.10292 2.38285,0.50916 1.75274,-0.90176 0.81764,-1.69285 -0.44907,-2.36431 -0.62029,-1.3293 m -19.72248,8.2843 1.04845,2.4428 1.85277,1.99886 1.81552,1.08629 1.93101,-0.27155 1.38229,-1.73085 -0.85799,-2.34084 -0.89799,-2.80889 -1.67774,-2.78618 1.02278,-0.31245 2.48277,4.47117 1.67796,1.17717 1.18242,0.73519 2.16191,-0.30685 1.03226,-1.29531 -0.0644,-2.6326 -0.60524,-1.74447 m -5.97138,22.31996 -0.0614,-1.44812 -4.80384,-4.60052 -4.83098,-5.32686 -3.88945,-4.79335 -2.33721,-3.51596 -1.6358,-2.33965 -0.0854,-2.6159 0.4917,-1.05631 1.98355,-0.51789 2.41182,1.7785 1.98457,3.94303 0.74419,3.68409 0.0437,2.00017 0.0498,1.35418 -0.53493,1.28659 -1.92841,1.53064 -0.63625,-0.44036 4.36006,-2.6715 1.99049,-1.67151 m -12.99013,9.41061 0.13908,-1.87983 -2.09567,-1.77679 4.59643,5.28675 2.24794,0.70313 2.17055,-0.84977 0.0731,-2.17586 -0.4874,-1.70787 -0.72959,-1.3612 m -10.5867,-3.17046 0.40454,1.02711 m -2.63411,10.29421 0.0312,-1.40563 -0.23087,-1.10377 -0.82099,-2.04665 -1.68211,-2.98619 -0.70109,-1.34552 -1.00869,0.40491 6.29906,8.36467 2.04447,1.56936 1.85646,0.30991 1.69072,-1.29158 -0.0785,-2.70813 -0.50939,-2.14342 m -9.51212,0.54011 4.58224,-3.2522 m -15.45905,11.42021 1.04845,2.4428 1.85277,1.99886 1.81552,1.0863 1.93101,-0.27156 1.38229,-1.73085 -0.85798,-2.34084 -0.89799,-2.80889 -1.67775,-2.78617 1.02278,-0.31246 2.48278,4.47117 1.67795,1.17717 1.18243,0.73519 2.16191,-0.30685 1.03225,-1.29531 -0.0644,-2.6326 -0.60524,-1.74447 m -11.75773,7.47766 0.54889,1.3747 0.30218,1.60598 -0.43716,1.87676 -1.06898,1.10572 -1.9231,-0.26752 -1.96559,-1.42011 -2.78569,-2.68994 0.43117,0.77357 0.38879,3.06513 -0.0233,2.99934 -1.02204,1.92763 -2.39463,-0.0725 -2.35488,-1.47335 -0.87612,-3.05939 0.70424,-2.81387 1.23924,-1.63312 1.95163,-1.24121 0.65606,0.0222 m -9.44353,11.8533 0.78091,-1.88243 0.55938,-1.64015 -0.79127,-1.42335 -1.56325,-0.49301 -1.57521,0.799 -0.8184,2.85268 -0.12602,1.26314 0.51023,1.70349 0.76059,1.30768 1.29767,0.89173 1.78029,0.35835 2.93665,-0.69648 2.30897,-2.63963 -0.03,-1.25859 -0.0137,-1.78604 -0.4634,-1.32768 m -18.14751,11.54145 -0.0931,-2.27295 -0.14743,-2.47502 0.18114,-2.75159 -0.11451,-2.29316 -1.09745,-2.91862 -2.06955,-1.7596 -2.38655,-0.0708 -0.92609,1.97478 1.18732,3.16566 3.52356,4.68805 3.05065,3.36643 3.46939,2.174 0.75946,0.15244 -2.30468,-1.62358 -0.85051,-2.77148 0.73293,-2.8997 1.48161,-1.58447 1.82067,0.12648 1.34904,0.62923 0.99042,1.7023 0.81944,1.60825 -0.0784,2.72341 -0.6583,1.16227 -2.70508,2.6786 m -20.47234,6.95455 0.78092,-1.88244 0.55937,-1.64014 -0.79126,-1.42335 -1.56325,-0.49301 -1.57521,0.799 -0.81841,2.85268 -0.12601,1.26314 0.51023,1.70349 0.76059,1.30767 1.29766,0.89174 1.7803,0.35835 2.93665,-0.69649 2.30897,-2.63962 -0.03,-1.2586 -0.0137,-1.78604 -0.4634,-1.32767 m -18.14777,11.54162 -0.0932,-2.27295 -0.14743,-2.47502 0.18114,-2.75159 -0.11451,-2.29316 -1.09746,-2.91862 -2.06954,-1.7596 -2.38655,-0.0708 -0.92609,1.97478 1.18732,3.16566 3.52356,4.68805 3.05065,3.36643 3.46939,2.174 0.75946,0.15244 -2.30468,-1.62358 -0.85051,-2.77148 0.73292,-2.8997 1.48161,-1.58447 1.82068,0.12648 1.34904,0.62923 0.99042,1.7023 0.81944,1.60825 -0.0784,2.72341 -0.6583,1.16227 -2.70508,2.6786 m -21.02248,7.24398 0.84136,-1.97703 0.60268,-1.72256 -0.85252,-1.49488 -1.68426,-0.51778 -1.69714,0.83915 -0.88176,2.99603 -0.13577,1.32661 0.54973,1.78909 0.81946,1.37339 1.39812,0.93655 1.91811,0.37635 3.16397,-0.73148 2.48771,-2.77227 -0.0323,-1.32184 -0.0148,-1.87579 -0.49927,-1.39439 m -2.63812,21.0886 -0.0662,-1.52089 -5.1757,-4.8317 -5.20495,-5.59454 -4.19053,-5.03422 -2.51813,-3.69264 -1.76243,-2.45722 -0.092,-2.74735 0.52977,-1.10939 2.13709,-0.54392 2.59852,1.86788 2.1382,4.14117 0.80179,3.86922 0.0471,2.10068 0.0536,1.42222 -0.57634,1.35125 -2.07769,1.60755 -0.6855,-0.46249 4.69757,-2.80574 2.14457,-1.75551 m -13.99561,9.88351 0.14984,-1.9743 -2.25789,-1.86607 4.95224,5.55241 2.42195,0.73846 2.33857,-0.89247 0.0787,-2.2852 -0.52513,-1.79369 -0.78606,-1.4296 m -11.40616,-3.32978 0.43586,1.07872 m -1.71824,10.36579 0.25747,-3.31896 -1.21956,-5.03016 -2.19926,-4.3518 -1.0104,-1.96498 -1.77636,-0.56718 -2.04567,0.94873 -0.41847,1.82135 1.92363,3.84821 3.15103,4.8622 2.58009,3.44124 2.90213,2.20859 2.56731,0.53475 1.88842,-0.94708 0.88093,-1.77792 -0.48383,-2.48311 -0.66831,-1.3961 m -23.83509,14.77649 0.0336,-1.47627 -0.24874,-1.15923 -0.88454,-2.1495 -1.81232,-3.13625 -0.75536,-1.41313 -1.08677,0.42526 6.78666,8.785 2.20274,1.64822 2.00016,0.32548 1.8216,-1.35648 -0.0846,-2.84421 -0.54882,-2.25113 m -10.24842,0.56725 4.93695,-3.41563 m -8.08262,11.61349 0.84136,-1.97703 0.60268,-1.72256 -0.85252,-1.49488 -1.68426,-0.51778 -1.69714,0.83915 -0.88176,2.99603 -0.13577,1.32661 0.54973,1.78909 0.81946,1.37339 1.39812,0.93655 1.91811,0.37635 3.16397,-0.73148 2.48771,-2.77227 -0.0323,-1.32184 -0.0148,-1.87579 -0.49927,-1.39439 m -16.25125,12.09835 0.23078,-0.14307 2.43621,-4.2082 0.0606,-4.82986 -2.79847,-4.4063 -3.1154,-2.11542 m 0.1795,-0.11128 -3.36919,-0.68015 -2.27577,0.73639 -1.485,2.37605 1.21277,3.25946 4.43788,4.27741 6.1338,6.16529 2.00386,2.1123 0.9598,1.64137 0.36254,1.11352 -0.0881,0.51609 m -6.27569,-3.27651 -2.02541,2.37384 -0.64401,-0.71894 4.23592,-1.17062 7.85916,-0.73671 5.72544,-0.8729 5.63727,-1.36491 4.00604,-2.80302 0.20355,-1.9366 -0.46456,-0.81245 -1.86651,-1.0899" /></g></g></svg>
