<?xml version="1.0" encoding="UTF-8" standalone="no"?>
<!-- Created with Inkscape (http://www.inkscape.org/) -->

<svg
   width="400.95453"
   height="308.85486"
   viewBox="0 0 400.95453 308.85486"
   version="1.1"
   id="svg1"
   xml:space="preserve"
   xmlns="http://www.w3.org/2000/svg"
   xmlns:svg="http://www.w3.org/2000/svg"><defs
     id="defs1" /><g
     id="layer1"
     transform="translate(-576.68968,-247.06797)"><path
       style="fill:none;stroke:#ffffff;stroke-width:2;stroke-linecap:round;stroke-linejoin:round;stroke-dasharray:none;stroke-opacity:1"
       d="m 936.89694,466.91646 c -27.41399,20.04236 -53.19076,43.03761 -79.4945,64.53118 -6.77779,5.53832 -13.70312,10.92144 -20.39661,16.56133 -2.28312,1.92374 -5.93589,6.23286 -8.89083,6.82792 -3.60911,0.72684 -11.28315,-4.19442 -14.64373,-5.68024 -12.1069,-5.35283 -23.68544,-10.22968 -36.08631,-15.19576 -47.96184,-19.20695 -93.61162,-40.35113 -141.73032,-59.62087 -14.49226,-5.80361 -28.8483,-11.83827 -43.40818,-18.27561 -3.50703,-1.55055 -12.67046,-3.40666 -13.94642,-6.94414 -1.17242,-3.25044 -0.53883,-7.15618 0.92977,-8.86178 5.25487,-6.10287 16.44493,-10.32392 23.47645,-14.83258 22.57588,-14.47582 45.84144,-27.87602 68.5117,-42.20239 6.74796,-4.26435 13.64875,-8.2875 20.39662,-12.55176 2.6627,-1.68269 6.43452,-5.13821 9.41382,-5.46235 2.83479,-0.30842 6.91219,2.22604 9.41382,3.18152 9.15725,3.49757 19.13798,8.57358 29.28745,10.66319"
       id="path1151" /><path
       style="fill:none;stroke:#ffffff;stroke-width:2;stroke-linecap:round;stroke-linejoin:round;stroke-dasharray:none;stroke-opacity:1"
       d="m 579.17171,440.76695 c 3.91297,2.69635 12.54895,5.68878 17.78166,7.84486 14.36904,5.92058 28.51683,12.38433 42.88519,18.30465 31.39623,12.93644 61.85459,25.86187 93.09224,39.31143 15.8042,6.80459 33.59592,14.35976 49.16107,20.62903 2.03096,0.81804 5.51182,2.39623 7.84485,3.34134 7.79975,3.15962 15.64373,6.51315 23.01156,9.61723 4.2902,1.80741 10.25767,5.89816 14.64373,5.89816 2.00697,0 4.58583,-2.71745 6.27588,-4.12583 5.89891,-4.91574 11.87611,-9.73612 17.78166,-14.64372 19.81055,-16.46292 39.83276,-32.67095 59.62087,-49.16107 5.31562,-4.42968 16.00538,-11.45833 19.94883,-14.44411"
       id="path1150" /><path
       id="path1"
       style="fill:none;stroke:#ffffff;stroke-width:2;stroke-linecap:round;stroke-linejoin:round;stroke-dasharray:none;stroke-opacity:1"
       d="m 832.91699,311.65757 c -2.08872,2.09754 -5.85833,6.59547 -8.44839,9.34465 -5.32911,5.65646 -10.23826,11.72872 -15.70424,17.25867 -2.92377,2.95802 -5.35364,5.77313 -6.68449,7.24832 0.30736,-3.04793 -0.11438,-6.66871 -0.11438,-10.38626 m 41.95479,-17.90584 c -3.51245,3.51243 -8.84256,9.38829 -12.46395,13.72192 -9.07665,10.86186 -19.36036,21.17523 -28.65186,31.49381 -3.8058,4.22649 -6.14393,7.12014 -13.21914,14.70501 m 36.9607,-36.785 c 0,3.08005 -0.51515,3.92516 -0.52299,7.32187 -0.005,1.34051 0.034,1.91547 0,3.13794 -0.0392,1.40509 -0.33733,2.23337 -0.47943,3.66093 -0.1456,1.46253 0.0126,1.91535 -0.0581,3.13794 -0.0633,1.09396 -0.24393,1.61378 -0.39225,2.61495 -0.49846,3.36482 -1.30658,6.49769 -1.35831,9.57725 2.96938,-1.42208 6.97565,-3.51672 10.65593,-6.43931 m -63.8048,-20.39662 c 2.98361,4.79797 7.04275,10.94932 6.31949,16.73569 -0.90869,7.26978 -5.35896,11.69178 -9.09423,17.57828 -0.61298,0.966 -0.36189,1.84879 -0.58112,2.81833 -0.31477,1.39211 -0.54674,2.6047 -0.70353,3.36623 1.86787,-1.06843 4.86619,-4.18504 7.31356,-7.02716 5.1833,-6.01933 13.61323,-13.46915 18.30377,-19.88496 -2.41867,1.45785 -10.8314,2.62629 -14.75906,2.62629 m 24.7278,-13.69861 c -2.44121,3.01076 -7.41331,7.88783 -10.04727,11.15379 m 11.46897,6.72874 c 1.06674,4.2776 1.33289,7.94875 0.20339,12.05057 l -13.26984,1.58868 m -31.38771,-9.45533 c 3.35469,2.28344 6.80759,6.26456 7.84485,8.89083 m 56.90786,-6.64634 c -1.33864,0.60992 -5.21808,1.96817 -6.70081,2.46242 -3.50403,1.16801 -9.80496,2.72401 -13.4343,3.10525 m -38.12173,8.80316 c 3.19898,-1.3606 8.96656,-3.6604 13.37776,-4.90615 3.82056,-1.07897 8.35892,-1.6687 11.63808,-2.26266 m -48.2527,7.65479 c -0.01,2.36661 0.87381,3.37881 0.35781,6.60936 -0.66245,4.14742 -2.17167,4.98789 -5.05526,7.20802 -0.93857,-5.4485 2.91449,-8.68573 4.54296,-13.77623 0.61981,-1.9375 0.76795,-4.12679 1.36557,-6.15966 0.38692,-1.31619 0.60867,-2.30546 1.06051,-3.66093 0.53959,-1.61876 0.98932,-2.66389 1.59805,-4.18392 0.79802,-1.99278 1.73055,-4.12851 2.41155,-6.27588 1.7467,-5.50797 3.11477,-10.63219 4.70691,-15.6897 0.62223,-1.97651 1.05431,-4.10743 1.64162,-6.27589 1.4306,-5.28207 4.88679,-9.08695 10.38715,-11.30238 3.95365,-1.59243 10.13185,-3.40636 14.64373,-4.91031 7.13745,-2.37915 15.96317,-4.05697 23.01156,-6.27588 2.28657,-0.71984 4.99565,-1.64906 7.32186,-2.44063 2.0791,-0.70749 3.46853,-1.19039 5.75289,-2.06288 3.69728,-1.41215 5.90498,-2.56016 9.45734,-3.08644 1.69914,-0.25176 6.25344,-1.31011 7.33802,-0.68468 3.99622,-4.39005 9.16373,-10.1527 13.53807,-14.73694 10.10731,-10.39605 20.31043,-21.30035 29.60704,-32.42538 3.60749,-4.31703 7.63033,-8.2874 11.3024,-12.55176 1.13656,-1.31986 2.97147,-3.66895 4.5907,-3.87886 2.68759,-0.34838 8.41721,4.46626 7.656,7.53979 -0.92773,3.74561 -6.84589,8.08505 -9.34118,10.98279 -10.43946,12.12322 -21.64489,23.67181 -32.35274,35.56333 -4.21672,4.68284 -10.17033,11.25986 -14.07717,15.16671 5.49171,5.21483 18.52896,14.08629 25.62651,19.27799 21.15862,15.47713 42.67594,34.16942 67.46573,42.26051 9.29688,3.03439 18.84647,4.58929 28.76445,7.04584 3.40849,0.84424 9.27602,2.07617 10.9828,2.54231 m -203.27237,49.31309 c 0.50687,-2.87218 6.02501,-5.82525 7.39805,-1.19804 0.69762,2.35112 -1.6745,7.16445 -1.6745,9.91281 m -26.90525,-53.26284 c 1.78679,-0.18769 9.77276,-3.77348 12.46872,-1.77235 2.01813,1.498 3.06666,10.90516 3.90794,13.22003 0.33344,0.91753 0.55653,1.63843 0.39224,2.61495 -0.57473,3.41619 -6.33069,4.43194 -8.83274,4.75049 -1.1124,0.14164 -1.50966,0.27074 -2.61495,0.45036 -0.96774,0.15726 -3.34503,0.45973 -4.12581,0.0955 2.17301,1.60692 5.0345,2.17513 8.30973,2.59212 2.13228,0.27148 2.53681,0.55422 5.2299,0.47941 1.58494,-0.044 4.4626,-0.26176 5.38761,-0.32377 0.41154,0.89012 0.99454,6.09967 0.43954,10.89173 -0.38564,3.32982 -1.80648,6.51877 -2.19321,7.66405 0.21588,1.27746 2.137,3.20412 2.80382,4.18393 1.1239,1.65143 1.71925,2.94882 2.88889,4.77954 0.99705,1.5606 1.65598,2.39322 2.73117,3.66094 0.89426,1.05439 1.50232,1.90235 2.62948,2.68758 1.54538,1.07661 2.9655,1.61593 4.66334,1.38011 4.3877,-0.6094 6.56841,-4.18923 7.38947,-9.16508 0.22472,-1.36189 0.49843,-2.10557 0.45538,-3.79345 -0.0384,-1.51003 -0.17275,-1.9798 -0.52299,-3.66093 -1.23067,-5.90713 -5.22342,-10.55649 -10.4598,-14.12073 m -35.3724,-19.66609 c -0.48612,5.02461 3.56532,10.33916 5.56196,12.34423 -3.24146,3.29685 -9.12941,11.54251 -14.12073,15.23935 -2.66108,1.97091 -7.01014,4.71484 -9.91087,6.47407 -1.93009,1.17057 -4.55402,2.25183 -5.205,1.74954 m 18.90755,-30.94878 c -1.97194,1.98026 -6.77875,6.83674 -9.24624,10.47522 -0.65179,0.96109 -2.64414,3.21999 -2.06239,3.84267 0.24392,0.2611 1.30884,0.0697 2.37837,0.92704 0.5569,0.4464 0.26269,1.56433 1.43871,2.80472 0.44144,0.46561 1.66958,0.16853 2.43082,0.7414 1.16189,0.87438 1.89833,2.61645 2.29012,3.08945 m 96.77808,-7.07286 c -0.35992,2.59562 -0.0792,1.61187 0,4.70691 0.0272,1.05437 0,2.3708 0,3.13794 m -64.70135,-12.32343 c 2.70861,-0.33206 6.06699,-0.63399 10.83337,-1.59388 5.38605,-1.08468 8.30939,-1.5441 13.07475,-2.97813 2.23583,-0.67282 5.72957,-1.23731 7.84485,-1.45276 1.99019,-0.20271 4.49887,-0.62825 7.32186,-0.46488 3.63186,0.21019 9.07148,1.15852 13.07476,2.15008 1.17625,0.29133 1.92429,0.4146 3.13794,0.81354 5.51163,1.8117 10.27173,6.01024 15.6897,8.91988 8.94386,4.8032 19.51543,8.84255 28.76445,11.43315 6.23128,1.74533 15.13157,2.54359 19.35064,3.34132 M 795.98311,410.8285 c -2.13033,2.17604 -4.08211,12.82375 -5.7582,15.82303 m -38.99186,-11.87635 0.55474,8.23942 c 3.13692,-0.75444 4.67756,2.9931 4.67756,6.24653 0,3.1979 -0.21804,3.31046 -1.91383,5.91432 -1.08538,-2.52727 -2.36843,-7.94252 -2.76373,-12.05079 m -18.3257,-7.14582 c -1.93,2.19783 -7.126,12.25139 -8.2454,14.85126 -0.90933,2.11199 -1.55371,4.8872 -1.11135,5.18113 m 70.50508,6.83938 c 1.72267,-1.99648 6.59334,-2.22384 7.13097,0.90486 0.57524,3.34792 -0.82188,5.85501 -0.82188,8.51727 m 7.32186,-32.42543 c 3.39201,3.80802 4.72177,8.27096 3.443,13.07475 -0.30704,1.15349 -0.99713,1.93603 -0.94426,3.13794 0.14937,3.3957 1.67713,3.84661 1.68518,7.32186 0.005,1.59823 0.0761,2.72387 -0.36321,4.18392 -0.95854,3.18538 -3.72589,6.52374 -6.95865,6.74077 -2.91656,0.19579 -6.07223,-3.54134 -8.43394,-7.14656 -1.29454,-1.97616 -2.71181,-5.61857 -2.83499,-6.77168 m 27.48162,-14.78811 c -2.31224,2.19567 -6.33916,4.18156 -8.89083,4.70691 m -9.93681,-2.09196 c 3.59807,2.4491 5.86361,5.3163 8.31445,8.4025 m -56.24408,-1.47151 c 1.34771,3.43199 4.96454,7.16575 9.22836,5.60629 3.35124,-1.22569 5.19906,-3.97425 6.86644,-7.14898 m -4.12696,-50.13712 c -1.9436,1.70678 -8.13917,3.9357 -11.58674,6.90472 -0.8676,0.74717 -1.25231,1.27758 -2.1791,2.28081 -1.11152,1.2032 -1.9812,1.91107 -2.8474,3.13794 -0.96554,1.36757 -1.35699,2.73215 -1.90312,4.18393 -0.58766,1.56209 -0.84708,4.60286 -4.20933,5.09551 -3.26069,0.47777 -5.78325,-3.39767 -6.18404,-6.57732 m 81.6072,15.60254 c 1.08139,2.76752 0.94065,9.17577 2.46967,11.18618 1.19697,1.57372 3.27967,1.24537 4.8522,1.40917 3.99423,0.41607 6.9588,1.01086 10.4598,1.69972 1.3023,0.25624 2.82948,2.08414 4.18392,2.74568 5.024,2.45386 10.22393,4.49306 15.16671,7.14754 11.34109,6.0906 22.49883,12.10398 34.51735,15.1086 2.64309,0.66078 6.28268,1.25616 8.89083,1.53992 1.11528,0.12134 1.50945,0.32577 2.61495,0.43582 0.99285,0.0988 1.72974,0.0436 2.61495,0.0436 1.92492,0 7.97147,-0.15204 9.93681,0.0436 6.13614,0.61079 11.985,2.30204 17.78167,4.14034 1.76953,0.56118 2.96258,1.12956 4.70691,1.7433 7.82461,2.7531 15.59776,6.18473 23.01156,9.23949 4.95371,2.04108 10.90989,4.40976 15.68971,7.32186" /><path
       id="path52"
       style="fill:none;stroke:#ffffff;stroke-width:1.04598;stroke-linecap:round;stroke-linejoin:round;stroke-dasharray:none;stroke-opacity:1"
       d="m 713.43798,385.71151 0.12498,-1.65273 -0.592,-2.50486 -1.06755,-2.16705 -0.49046,-0.97849 -0.86228,-0.28244 -0.99299,0.47243 -0.20313,0.90698 0.93376,1.91628 1.52955,2.42121 1.25241,1.71362 1.40874,1.09981 1.24621,0.26628 0.91666,-0.47161 0.42762,-0.88534 -0.23486,-1.23651 -0.3244,-0.69521 m -10.31467,4.3326 0.54833,1.27757 0.96898,1.04538 0.9495,0.56812 1.0099,-0.14202 0.72293,-0.90522 -0.44873,-1.22423 -0.46963,-1.46903 -0.87745,-1.45714 0.53491,-0.16341 1.29846,2.33838 0.87756,0.61565 0.61839,0.38449 1.13066,-0.16047 0.53986,-0.67744 -0.0337,-1.37682 -0.31653,-0.91234 m -3.12298,11.67312 -0.0321,-0.75736 -2.51236,-2.40602 -2.52655,-2.7859 -2.03415,-2.50687 -1.22234,-1.83882 -0.8555,-1.22361 -0.0447,-1.36809 0.25716,-0.55244 1.03738,-0.27085 1.26135,0.93014 1.03791,2.06216 0.38921,1.92675 0.0228,1.04606 0.0261,0.70823 -0.27977,0.67287 -1.00853,0.80051 -0.33276,-0.2303 2.28027,-1.39717 1.04101,-0.87418 m -6.79371,4.92165 0.0727,-0.98313 -1.09602,-0.92924 2.40389,2.76491 1.17565,0.36773 1.13517,-0.44442 0.0382,-1.13795 -0.25491,-0.8932 -0.38157,-0.71189 m -5.53674,-1.65812 0.21157,0.53717 m -1.37761,5.38376 0.0163,-0.73513 -0.12075,-0.57726 -0.42937,-1.07037 -0.87972,-1.56175 -0.36667,-0.7037 -0.52753,0.21177 3.29435,4.37464 1.06923,0.82076 0.97091,0.16208 0.88423,-0.67549 -0.041,-1.41632 -0.26641,-1.12099 m -4.97474,0.28247 2.39646,-1.70086 m -8.08493,5.97265 0.54833,1.27756 0.96898,1.04539 0.9495,0.56812 1.0099,-0.14202 0.72293,-0.90522 -0.44872,-1.22424 -0.46964,-1.46902 -0.87745,-1.45714 0.53491,-0.16341 1.29847,2.33838 0.87755,0.61565 0.6184,0.38449 1.13065,-0.16048 0.53986,-0.67743 -0.0337,-1.37683 -0.31653,-0.91234 m -6.14918,3.91075 0.28706,0.71895 0.15804,0.83991 -0.22863,0.98153 -0.55907,0.57828 -1.00576,-0.13991 -1.02798,-0.7427 -1.45689,-1.40682 0.2255,0.40457 0.20333,1.60304 -0.0122,1.56862 -0.53452,1.00813 -1.25237,-0.0379 -1.23158,-0.77055 -0.4582,-1.60003 0.36831,-1.47163 0.64811,-0.8541 1.02068,-0.64914 0.34312,0.0116 m -4.93888,6.19915 0.40841,-0.98449 0.29255,-0.85778 -0.41382,-0.7444 -0.81757,-0.25784 -0.82382,0.41787 -0.42801,1.49193 -0.0659,0.6606 0.26685,0.89091 0.39778,0.68391 0.67866,0.46636 0.93108,0.18742 1.53584,-0.36426 1.20757,-1.3805 -0.0157,-0.65823 -0.007,-0.93408 -0.24235,-0.69436 m -9.49097,6.03606 -0.0487,-1.18873 -0.0771,-1.29441 0.0947,-1.43905 -0.0599,-1.1993 -0.57395,-1.52641 -1.08236,-0.92026 -1.24814,-0.037 -0.48434,1.03279 0.62096,1.65561 1.84279,2.4518 1.59546,1.76061 1.81445,1.13698 0.39719,0.0797 -1.20532,-0.84911 -0.44481,-1.44946 0.38332,-1.51651 0.77486,-0.82866 0.9522,0.0661 0.70553,0.32908 0.51798,0.89029 0.42856,0.8411 -0.041,1.42432 -0.34429,0.60785 -1.41473,1.40088 m -10.70683,3.63716 0.40841,-0.98449 0.29255,-0.85778 -0.41382,-0.7444 -0.81757,-0.25784 -0.82382,0.41787 -0.42802,1.49192 -0.0659,0.66061 0.26685,0.89091 0.39778,0.6839 0.67866,0.46637 0.93108,0.18742 1.53584,-0.36426 1.20757,-1.3805 -0.0157,-0.65823 -0.007,-0.93408 -0.24235,-0.69436 m -9.4911,6.03615 -0.0488,-1.18873 -0.0771,-1.29441 0.0947,-1.43905 -0.0599,-1.1993 -0.57396,-1.52641 -1.08235,-0.92026 -1.24815,-0.037 -0.48433,1.03279 0.62096,1.6556 1.84278,2.45181 1.59546,1.76061 1.81446,1.13698 0.39719,0.0797 -1.20533,-0.84911 -0.4448,-1.44946 0.38331,-1.51651 0.77486,-0.82867 0.9522,0.0661 0.70553,0.32908 0.51798,0.89029 0.42856,0.8411 -0.041,1.42431 -0.34428,0.60786 -1.41473,1.40088 m -10.99455,3.78853 0.44002,-1.03397 0.3152,-0.90088 -0.44586,-0.78181 -0.88085,-0.27079 -0.88759,0.43887 -0.46115,1.56689 -0.071,0.69381 0.2875,0.93567 0.42857,0.71827 0.73121,0.48981 1.00315,0.19682 1.65472,-0.38255 1.30105,-1.44987 -0.0169,-0.69131 -0.008,-0.98102 -0.26111,-0.72925 m -1.37972,11.02913 -0.0346,-0.79541 -2.70684,-2.52694 -2.72213,-2.92588 -2.19161,-2.63285 -1.31696,-1.93122 -0.92173,-1.2851 -0.0481,-1.43683 0.27707,-0.5802 1.11768,-0.28447 1.359,0.97688 1.11825,2.16579 0.41933,2.02357 0.0246,1.09863 0.028,0.74381 -0.30142,0.70669 -1.08662,0.84073 -0.3585,-0.24187 2.45678,-1.46738 1.12159,-0.91811 m -7.31957,5.16897 0.0784,-1.03253 -1.18086,-0.97594 2.58997,2.90385 1.26666,0.38621 1.22305,-0.46675 0.0412,-1.19514 -0.27464,-0.93808 -0.4111,-0.74767 m -5.96531,-1.74144 0.22795,0.56416 m -0.89862,5.42121 0.13465,-1.73579 -0.63782,-2.63072 -1.15019,-2.27595 -0.52843,-1.02766 -0.92901,-0.29663 -1.06987,0.49617 -0.21886,0.95255 1.00604,2.01258 1.64796,2.54288 1.34936,1.79973 1.51779,1.15507 1.34268,0.27967 0.98762,-0.49531 0.46072,-0.92983 -0.25304,-1.29865 -0.34952,-0.73014 m -12.46552,7.72796 0.0176,-0.77208 -0.13009,-0.60627 -0.46261,-1.12416 -0.94782,-1.64023 -0.39505,-0.73905 -0.56837,0.2224 3.54936,4.59447 1.15201,0.862 1.04606,0.17023 0.95268,-0.70943 -0.0442,-1.48749 -0.28703,-1.17732 m -5.35982,0.29667 2.58197,-1.78635 m -4.22713,6.07374 0.44003,-1.03396 0.31519,-0.90088 -0.44586,-0.78181 -0.88085,-0.2708 -0.88759,0.43887 -0.46115,1.5669 -0.071,0.6938 0.2875,0.93568 0.42857,0.71827 0.7312,0.4898 1.00315,0.19683 1.65473,-0.38256 1.30105,-1.44987 -0.0169,-0.69131 -0.008,-0.98102 -0.26111,-0.72925 m -8.49924,6.32732 0.12069,-0.0748 1.27412,-2.20084 0.0317,-2.52597 -1.46357,-2.30445 -1.62933,-1.10635 m 0.0939,-0.0582 -1.76205,-0.35572 -1.19021,0.38513 -0.77664,1.24265 0.63427,1.70466 2.32097,2.23705 3.20791,3.22438 1.048,1.10472 0.50197,0.85842 0.1896,0.58236 -0.0461,0.26991 m -3.28213,-1.71359 -1.05927,1.2415 -0.33681,-0.376 2.21535,-0.61222 4.11026,-0.3853 2.99435,-0.45651 2.94824,-0.71384 2.09511,-1.46595 0.10646,-1.01282 -0.24296,-0.42491 -0.97617,-0.57" /><path
       id="path10"
       style="fill:none;stroke:#ffffff;stroke-width:1.04598;stroke-linecap:round;stroke-linejoin:round;stroke-dasharray:none;stroke-opacity:1"
       d="m 701.25591,423.27165 -0.78346,-1.44509 -1.22475,-2.5082 -0.27619,1.50792 0.41748,0.22388 0.31483,-0.0281 2.70488,-1.62119 0.71648,2.1364 0.96819,1.49764 1.47906,0.54972 1.08276,-0.79007 -0.18829,-1.80663 -0.26906,-0.78003 m -8.06464,5.24099 0.44002,-1.03396 0.3152,-0.90089 -0.44586,-0.7818 -0.88085,-0.2708 -0.88759,0.43887 -0.46115,1.56689 -0.071,0.69381 0.28751,0.93568 0.42857,0.71826 0.7312,0.48981 1.00315,0.19683 1.65473,-0.38256 1.30104,-1.44987 -0.0169,-0.69131 -0.008,-0.98102 -0.26111,-0.72925 m -13.86019,8.5926 -0.10065,-1.2743 -0.67889,-0.80443 3.22037,3.43573 -0.24295,-1.25291 -0.64373,-2.34858 -0.0301,-1.03955 0.18072,-0.63187 0.24687,-0.20874 0.54347,0.18291 0.43582,0.43529 1.50134,2.16965 0.0622,-1.6723 0.0802,-1.27502 0.66635,-1.00718 0.4215,0.9083 1.54539,1.55753 1.08477,0.38015 1.09473,-0.32779 0.38431,-1.17394 -0.56505,-1.76057 m -18.41994,11.41939 -0.10065,-1.2743 -0.67889,-0.80443 3.22037,3.43574 -0.24295,-1.25292 -0.64373,-2.34858 -0.0301,-1.03955 0.18072,-0.63186 0.24687,-0.20874 0.54347,0.1829 0.43582,0.4353 1.50134,2.16964 0.0622,-1.6723 0.0802,-1.27501 0.66635,-1.00719 0.4215,0.9083 1.54539,1.55753 1.08478,0.38015 1.09472,-0.32779 0.38431,-1.17394 -0.56505,-1.76057 m -16.81276,8.08381 0.59077,1.34176 1.04399,1.09792 1.023,0.59667 1.08807,-0.14916 0.77889,-0.95071 -0.48345,-1.28575 -0.506,-1.54285 -0.94536,-1.53036 0.57631,-0.17162 1.39898,2.45588 0.94548,0.64659 0.66627,0.40381 1.21818,-0.16854 0.58165,-0.71148 -0.0363,-1.44601 -0.34103,-0.95818 m -10.68166,6.62206 0.003,-0.63323 -0.36922,-0.58798 -0.65336,-0.83881 -0.37714,-0.9915 0.91923,-1.55384 0.47769,-0.42609 0.83111,-0.3296 0.59164,0.20874 0.41995,0.33374 0.0557,0.26249 m -2.22013,3.0658 0.91315,0.19507 1.98971,-0.30525 1.26694,0.10569 0.71123,0.42794 0.27057,0.82735 -0.31155,0.95246 -0.27948,0.58356 -0.71062,0.4981 -0.32838,-0.0303 -0.55718,-0.29879 -0.0497,-0.31819 m -10.78533,4.17266 0.44002,-1.03396 0.3152,-0.90089 -0.44586,-0.7818 -0.88086,-0.2708 -0.88758,0.43887 -0.46115,1.56689 -0.071,0.69381 0.2875,0.93567 0.42857,0.71827 0.7312,0.48981 1.00316,0.19683 1.65472,-0.38256 1.30105,-1.44987 -0.0168,-0.69131 -0.008,-0.98102 -0.26111,-0.72925 m -9.42105,5.84053 -0.26304,-1.11793 -0.47837,-1.28148 m -0.6417,0.0451 1.14664,-0.71085 0.35934,-1.55948 -0.35528,-1.89618 -0.60042,-1.20582 -0.94699,-0.69392 -1.10391,0.0903 -0.66634,1.00718 0.34314,1.25393 1.02565,1.57341 0.90549,1.36943 2.6582,3.0862 1.52266,1.40268 -0.0669,-0.71969 -0.73971,-1.75811 -0.42781,-1.79553 0.0719,-1.13991 0.62237,-0.44153 m -1.13808,2.50638 3.92038,1.37359 3.03853,0.51305 2.40633,-0.32219 0.88512,-0.54873 -0.0607,-0.48221 -0.26484,-0.18855 -0.60062,-0.27557 m -13.89036,3.98668 0.0784,-1.03254 -1.18086,-0.97593 2.58998,2.90385 1.26665,0.38621 1.22305,-0.46675 0.0412,-1.19514 -0.27464,-0.93808 -0.4111,-0.74767 m -5.96531,-1.74144 0.22795,0.56416 m -0.89862,5.42121 0.13465,-1.73579 -0.63781,-2.63072 -1.15019,-2.27595 -0.52843,-1.02767 -0.92902,-0.29662 -1.06987,0.49617 -0.21885,0.95255 1.00604,2.01258 1.64795,2.54288 1.34937,1.79973 1.51778,1.15507 1.34268,0.27967 0.98762,-0.49531 0.46072,-0.92984 -0.25304,-1.29864 -0.34952,-0.73014" /><path
       style="fill:none;stroke:#ffffff;stroke-width:1.04598;stroke-linecap:round;stroke-linejoin:round;stroke-dasharray:none;stroke-opacity:1"
       d="m 684.1024,472.33054 -0.0346,-0.79541 -2.70684,-2.52694 -2.72214,-2.92588 -2.1916,-2.63285 -1.31696,-1.93122 -0.92173,-1.2851 -0.0481,-1.43683 0.27706,-0.5802 1.11768,-0.28447 1.359,0.97688 1.11826,2.16579 0.41933,2.02357 0.0246,1.09863 0.028,0.74381 -0.30142,0.70669 -1.08661,0.84073 -0.35851,-0.24187 2.45678,-1.46738 1.12159,-0.91811"
       id="path9" /><path
       style="fill:none;stroke:#ffffff;stroke-width:1.04598;stroke-linecap:round;stroke-linejoin:round;stroke-dasharray:none;stroke-opacity:1"
       d="m 681.03177,464.19035 0.13466,-1.73578 -0.63782,-2.63072 -1.15019,-2.27595 -0.52843,-1.02767 -0.92902,-0.29663 -1.06986,0.49618 -0.21886,0.95255 1.00604,2.01257 1.64796,2.54289 1.34936,1.79973 1.51778,1.15507 1.34268,0.27967 0.98763,-0.49531 0.46071,-0.92984 -0.25303,-1.29864 -0.34952,-0.73015"
       id="path8" /><path
       style="fill:none;stroke:#ffffff;stroke-width:1.04598;stroke-linecap:round;stroke-linejoin:round;stroke-dasharray:none;stroke-opacity:1"
       d="m 687.39865,460.57738 1.12982,0.35779 0.87496,-0.0115 0.49847,-0.36843 -0.003,-0.63709 -0.32727,-1.15238"
       id="path7" /><path
       style="fill:none;stroke:#ffffff;stroke-width:1.04598;stroke-linecap:round;stroke-linejoin:round;stroke-dasharray:none;stroke-opacity:1"
       d="m 684.89997,458.80328 -1.16038,0.19954 -0.21505,1.06158 0.34572,1.30802 0.69207,0.90765 1.15937,0.86673 1.99154,-0.007 0.68055,-1.00577 -0.01,-1.27677 -0.94326,-1.23462 -0.48946,-0.40203 -0.61017,-0.32722 -0.25481,0.15797"
       id="path6" /><path
       style="fill:none;stroke:#ffffff;stroke-width:1.04598;stroke-linecap:round;stroke-linejoin:round;stroke-dasharray:none;stroke-opacity:1"
       d="m 688.31354,456.51995 0.81242,1.70561 1.12666,1.28801 0.7296,0.48895 0.77593,0.22073 0.83598,-0.28434 0.4494,-0.68704 -0.30879,-1.14712 -0.82467,-1.60519 -0.46173,-0.88336 0.43708,-0.21528 0.97767,1.45465 1.32546,0.86587 1.24957,0.22043 1.00311,-0.3304 0.42725,-1.49204 -0.5014,-1.97455 -1.04754,-1.33706 -0.91524,-0.49081 -1.14606,-0.27347 -0.91952,0.32871"
       id="path5" /><path
       style="fill:none;stroke:#ffffff;stroke-width:1.04598;stroke-linecap:round;stroke-linejoin:round;stroke-dasharray:none;stroke-opacity:1"
       d="m 698.52614,453.45616 0.44002,-1.03396 0.3152,-0.90089 -0.44586,-0.7818 -0.88085,-0.2708 -0.88759,0.43887 -0.46115,1.56689 -0.071,0.69381 0.2875,0.93567 0.42857,0.71827 0.73121,0.48981 1.00315,0.19683 1.65472,-0.38256 1.30105,-1.44987 -0.0169,-0.69131 -0.008,-0.98102 -0.26111,-0.72925"
       id="path4" /><path
       style="fill:none;stroke:#ffffff;stroke-width:1.04598;stroke-linecap:round;stroke-linejoin:round;stroke-dasharray:none;stroke-opacity:1"
       d="m 701.64884,451.2789 -0.78345,-1.44508 -1.22475,-2.50821 -0.27619,1.50793 0.41748,0.22388 0.31483,-0.0281 2.70488,-1.62118 0.71648,2.13639 0.96819,1.49764 1.47905,0.54973 1.08277,-0.79008 -0.1883,-1.80663 -0.26905,-0.78002"
       id="path3" /><path
       style="fill:none;stroke:#ffffff;stroke-width:1.04598;stroke-linecap:round;stroke-linejoin:round;stroke-dasharray:none;stroke-opacity:1"
       d="m 706.27614,446.72073 0.91314,0.19507 1.98971,-0.30525 1.26694,0.10569 0.71123,0.42794 0.27057,0.82735 -0.31155,0.95246 -0.27948,0.58356 -0.41015,0.38253 -0.60574,0.3857 -0.51095,0.27903 c 0,0 1.80921,-1.03679 2.26843,-1.41723 1.01258,-0.83887 3.4827,-2.93138 6.05057,-5.73751 3.46614,-3.78771 6.53922,-7.26245 6.53922,-7.26245"
       id="path2" /><path
       style="fill:none;stroke:#ffffff;stroke-width:1.04598;stroke-linecap:round;stroke-linejoin:round;stroke-dasharray:none;stroke-opacity:1"
       d="m 706.59749,448.21101 0.003,-0.63323 -0.36922,-0.58798 -0.65336,-0.83881 -0.37714,-0.9915 0.91923,-1.55384 0.47769,-0.4261 0.83111,-0.32959 0.59164,0.20874 0.41995,0.33374 0.0557,0.26249"
       id="path1078" /></g></svg>
