<?xml version="1.0" encoding="UTF-8" standalone="no"?>
<!-- Created with Inkscape (http://www.inkscape.org/) -->

<svg
   width="620.5238"
   height="729.47595"
   viewBox="0 0 620.5238 729.47595"
   version="1.1"
   id="svg1"
   xml:space="preserve"
   sodipodi:docname="1.svg"
   inkscape:version="1.4.3 (0d15f75042, 2025-12-25)"
   xmlns:inkscape="http://www.inkscape.org/namespaces/inkscape"
   xmlns:sodipodi="http://sodipodi.sourceforge.net/DTD/sodipodi-0.dtd"
   xmlns="http://www.w3.org/2000/svg"
   xmlns:svg="http://www.w3.org/2000/svg"><sodipodi:namedview
     id="namedview1"
     pagecolor="#505050"
     bordercolor="#eeeeee"
     borderopacity="1"
     inkscape:showpageshadow="0"
     inkscape:pageopacity="0"
     inkscape:pagecheckerboard="0"
     inkscape:deskcolor="#505050"
     inkscape:zoom="0.8554086"
     inkscape:cx="309.79347"
     inkscape:cy="364.73798"
     inkscape:window-width="1536"
     inkscape:window-height="836"
     inkscape:window-x="0"
     inkscape:window-y="0"
     inkscape:window-maximized="1"
     inkscape:current-layer="layer1" /><defs
     id="defs1" /><g
     id="layer1"
     transform="translate(-846.00001,-157.50319)"><path
       id="path41"
       style="fill:none;stroke:#ffffff;stroke-width:2;stroke-linecap:round;stroke-linejoin:round;stroke-dasharray:none;stroke-opacity:1"
       d="m 1120.1405,620.28479 c 4.1083,22.85534 22.4129,54.86063 23.9981,91.1651 -0.1757,-40.4057 3.1019,-75.65249 6.0019,-90.1651 m 11.4214,0.35121 c -1.2343,49.18309 -4.7852,103.7316 -5.5038,128.60063 -0.7128,24.66708 1.0092,44.83452 1.0092,44.83452" /><path
       id="path37"
       style="fill:none;stroke:#ffffff;stroke-width:2;stroke-linecap:round;stroke-linejoin:round;stroke-dasharray:none;stroke-opacity:1"
       d="m 1013,570 c 0,0 -10.8938,34.43088 -14.98145,52 -1.33998,5.75942 -3.11789,17.46358 -3.11789,17.46358 M 1038,585 l -23.8843,28 c 0,0 -7.5488,8.38148 -10.8657,12.93054 -3.1445,4.31269 -8.52152,13.55621 -8.52152,13.55621 M 1048,591 c -9.7198,17.77968 -21.909,35.9006 -31.1779,53.85795 -1.4195,2.91928 -3.9749,12.7308 -3.7636,14.5671 M 1060,596 l -8.713,17 c -6.0828,11.39248 -14.2801,23.93563 -20.4093,35.04925 -1.6993,3.08107 -8.0061,18.78657 -8.3347,24.89303" /><path
       id="path35"
       style="fill:none;stroke:#ffffff;stroke-width:2;stroke-linecap:round;stroke-linejoin:round;stroke-dasharray:none;stroke-opacity:1"
       d="m 1276,559 c 0.3566,9.67672 1.0019,19.31268 1,29 v 31 c 0.081,8.40654 -0.1515,11.31835 -0.3161,16.51021 M 1249,568 l 16.1574,39 5.8611,14 5.7376,14.56957" /><path
       style="fill:none;stroke:#ffffff;stroke-width:2;stroke-linecap:round;stroke-linejoin:round;stroke-dasharray:none;stroke-opacity:1"
       d="m 1137,159.41205 c 11.8533,-1.71936 28.6915,-0.65454 40,0.45367 2.5851,0.25336 4.3798,0.0236 7,0.19446 13.6243,0.88837 28.2783,3.82434 42,6.73608 57.6407,12.23133 118.8309,44.07673 157.412,89.20374 15.2041,17.78363 30.0895,35.69348 42.1621,56 29.223,49.15405 43.0491,109.51123 39.3657,166 -2.6237,40.23782 -15.5552,81.49796 -19.8055,122 -3.2353,30.8298 -6.9995,61.05756 0.7361,92 3.9492,15.79706 13.9508,38.01746 0.8518,51.86108 -10.2355,10.81739 -23.2043,-0.56616 -25.2917,-11.86108 -3.1041,-16.79681 7.543,-35.7995 7.5695,-53 0.01,-6.17596 -0.1362,-13.61725 -6.0185,-17.36572 -3.3491,-2.13416 -6.7239,-0.96402 -8.4861,2.43054 -3.3343,6.42273 -8.3828,44.23181 -23.9259,23.87036 -2.8932,-3.78992 -3.5447,-10.36536 -3.5695,-13.93518 -0.015,-2.19226 -0.092,-3.66852 0.06,-6 1.1246,-17.24738 4.3792,-35.00421 -2.4861,-52 -6.9749,-17.26715 -22.7849,-25.72159 -39.5741,-16.14813 -23.9523,13.65796 -44.044,40.34262 -52.9445,66.14813 -3.4189,9.91272 -6.507,24.02441 -5.9027,34 0.1401,2.3136 0.6441,3.8075 0.787,6 0.1687,2.58606 -0.062,4.38416 0.1945,7 0.4643,4.73877 1.2854,10.0741 2.1064,15 2.549,15.29358 7.3979,32.94348 5.6204,48 -0.8887,7.52765 -6.3721,13.87103 -13.8611,14.71759 -10.0989,1.1416 -17.3925,-9.48029 -18.7361,-18.71759 -0.4112,-2.82745 -0.2639,-4.51489 -0.2639,-8 0,-3.64978 -0.2344,-5.23779 0.1343,-9 1.8727,-19.10999 7.8657,-41.95056 7.8657,-61 0,-14.52478 -5.3069,-29.74261 -21,-34.25925 -2.9485,-0.8486 -5.2136,-0.75473 -8,-0.74075 -2.2727,0.0114 -3.6464,-0.0771 -6,0.47687 -18.4754,4.34802 -19.511,29.10968 -28.0602,42.52313 -7.9621,12.49255 -22.296,17.66266 -30.2593,30 -5.6879,8.81232 -9.2815,22.83209 -9.662,33 -0.1322,3.53235 -0.018,5.48816 -0.018,9 0,3.49487 -0.024,5.49152 0,9 0.078,11.19373 3.6627,28.68542 5.5833,40 1.0939,6.44391 1.8749,13.80182 2.676,20 0.678,5.24652 0.8487,7.65167 0.7361,14 -0.051,2.84149 -0.3246,4.13837 -0.7408,7 -1.3574,9.33301 -6.3497,20.71216 -17.2546,21.85651 -20.7296,2.17529 -22.9891,-24.68402 -20.5833,-38.85651 1.5249,-8.9834 4.2688,-18.00134 5.9769,-27 5.6708,-29.87561 4.7537,-67.84344 -18.3982,-90.99536 -4.6856,-4.68561 -10.5213,-9.03912 -16.9954,-10.52777 -13.376,-3.07569 -22.6108,6.23346 -28.713,17.52313 -3.9442,7.29712 -8.2547,18.604 -18.287,17.93054 -5.4683,-0.36706 -10.0225,-5.08862 -11.9167,-9.93054 -4.7151,-12.0531 -0.1534,-25.13776 -5.3935,-37 -3.222,-7.29376 -12.2917,-15.99878 -20.6713,-11.62964 -7.0163,3.65833 -8.619,14.57617 -8.9537,21.62964 -0.7618,16.05396 5.8587,34.41284 6.875,50 0.1631,2.50134 0.1019,4.38568 0.056,7 -0.1997,11.25 -6.6703,27.26367 -19.9954,22.79626 C 988.95435,792.75781 984.04828,777.50568 985.9259,766 989.07892,746.67932 996.96973,727.64471 997,708 c 0.0205,-13.31366 -2.57239,-29.07251 -11.31946,-40 -5.31598,-6.64108 -15.02826,-9.37772 -20.54169,-15.06482 C 958.20663,645.78461 957.168,629.7634 945,628.45834 934.89563,627.3746 926.71021,638.53882 924.01389,647 c -5.36228,16.82709 0.41561,32.93958 2.12039,50 0.64538,6.45868 1.41079,5.09387 0.27313,12 -0.73343,4.45227 -2.34412,9.43457 -5.68518,12.84259 -6.35095,6.47821 -16.7533,4.30994 -22.56946,-1.90741 -12.14108,-12.97858 -1.84817,-31.60034 1.1991,-45.93518 3.45334,-16.24503 1.62872,-34.03305 -4.03241,-50 C 884.80429,594.34247 865.98734,569.05917 857.875,538 851.96042,515.35522 847,491.14825 847,468 v -9 -10 c 0,-20.74707 4.25967,-41.95941 9.37036,-62 12.44492,-48.80023 37.25995,-94.16858 71.68982,-131 36.09683,-38.61462 83.61872,-67.28046 133.93982,-82.98608 15.9631,-4.98224 32.486,-8.65552 49,-10.8982 6.0687,-0.82416 11.3885,-1.68744 17,-2.05554 3.9509,-0.25915 4.8785,-0.0503 9,-0.64813"
       id="path2" /><path
       style="fill:none;stroke:#ffffff;stroke-width:2;stroke-linecap:round;stroke-linejoin:round;stroke-dasharray:none;stroke-opacity:1"
       d="m 1434,515 c 0,6.50516 -0.2787,7.01044 -0.8657,13 -0.5422,5.53256 -0.172,11.49469 -0.875,17 -0.6699,5.24554 -1.6295,14.94406 -2.125,20 -0.2218,2.2627 -0.065,3.68314 -0.1528,6 -0.2019,5.34033 -0.9815,9.24167 -0.9815,16 v 8 7 c 0,6.93869 0.8134,9.4845 0.9815,15 0.089,2.92273 -0.1896,4.67142 -0.5741,7 -0.5217,3.15973 -1.3129,7.30948 -4.4722,9.52316 -4.7977,3.3617 -8.241,-1.01223 -9.2824,-5.52316 -1.7447,-7.55728 1.3472,-24.29489 1.3472,-32"
       id="path30" /><path
       id="path28"
       style="fill:none;stroke:#ffffff;stroke-width:2;stroke-linecap:round;stroke-linejoin:round;stroke-dasharray:none;stroke-opacity:1"
       d="m 1344,494 c 16.0104,16.01047 31.806,32.03442 44.662,51 11.8319,17.45451 13.6757,35.52895 13.8316,51.71851 M 1329,513 c 19.938,12.87564 42.1016,30.49402 57.5097,52.31461 6.391,9.05089 14.3971,20.03781 15.7967,31.40564 M 1321,520 c 7.8892,6.92584 17.1187,12.96921 25,20.04166 15.298,13.72796 29.1567,28.3753 40,45.95834" /><path
       id="path27"
       style="fill:none;stroke:#ffffff;stroke-width:2;stroke-linecap:round;stroke-linejoin:round;stroke-dasharray:none;stroke-opacity:1"
       d="m 958,490 c -7.50867,7.00439 -16.02203,13.37729 -24,19.80093 -9.87979,7.95496 -21.73569,16.13966 -28.30132,22.92424 C 928.71588,523.90055 947.13723,516.68864 967,509 m 3,8 -58,36 m 62.19868,-26.00662 c -19.03465,13.10736 -38.78402,24.4471 -58.18543,37 M 921,574 979.29624,538.09582" /><path
       id="path23"
       style="fill:none;stroke:#ffffff;stroke-width:2;stroke-linecap:round;stroke-linejoin:round;stroke-dasharray:none;stroke-opacity:1"
       d="m 1353,424 c 26.073,0.31845 54.3156,12.43619 68.5833,35 6.1101,9.66284 9.2485,19.78726 10.5463,31 0.5729,4.94943 0.8545,5.31277 0.8704,10 m -77,-64 c 17.6015,2.08981 36.7546,8.76395 49.9954,22.00464 C 1416.7006,468.70978 1424.556,486.77155 1425,501 m -71,-54 c 20.9142,3.95865 44.4227,13.25092 55.5417,34 7.2825,13.58987 8.5732,29.50342 9.5185,44 0.2026,3.1069 0.7976,5.2113 0.9213,8 0.1488,3.35367 0.6558,8.18127 2.0185,12" /><path
       style="fill:none;stroke:#ffffff;stroke-width:2;stroke-linecap:round;stroke-linejoin:round;stroke-dasharray:none;stroke-opacity:1"
       d="m 1152,421.21854 c 0.035,8.83631 4.9435,12.58906 11.2351,13.17881"
       id="path1" /><path
       style="fill:none;stroke:#ffffff;stroke-width:2;stroke-linecap:round;stroke-linejoin:round;stroke-dasharray:none;stroke-opacity:1"
       d="m 1174.553,426.50331 c -1.6478,3.41079 -3.799,5.44259 -5.3113,6.45039 -1.5823,1.05452 -3.957,1.56902 -5.929,1.47925 -0.91,1.91664 -2.0004,4.62686 -2.9655,6.56705 -3.4276,6.89014 -8.6222,16.04898 -12.5,23 -12.7755,22.90054 -24.8933,47.05365 -37.6944,70 -4.4032,7.89288 -8.102,16.41415 -13.0648,23.99536 -3.8874,5.93842 -7.7294,6.87555 -12.088,9.00464 -3.0568,-9.38675 3.4391,-20.73337 8.7546,-31 12.4441,-24.03513 25.8731,-47.36899 39.0926,-71 5.3612,-9.5837 21.8128,-35.03627 21.2185,-35.66071 -6.3635,2.84976 -29.0516,16.89441 -41.0657,22.90146 -30.6295,15.31476 -60.3036,31.39313 -90,46.98612 -3.3629,1.76578 -6.5602,3.29397 -10,5.01388 -9.6545,4.82727 -20.70996,11.9097 -28,8.75925 3.73553,-10.17087 31.7664,-22.14243 45,-28.75925 21.3776,-10.68878 42.0516,-21.75326 63,-32.48611 17.0131,-8.79582 33.7755,-18.12183 51,-26.50928 2.173,-1.05124 6.756,-3.43473 7.9754,-4.00983 0,-3.63591 1.5335,-8.22336 7.0246,-10.15222 7.1833,-2.52326 12.5877,1.20779 14.9336,6.83568 1.1419,2.73929 1.3147,5.70834 0.52,8.63399 C 1225.8781,444.24794 1277.2017,464.49007 1328,484"
       id="path21" /><path
       style="fill:none;stroke:#ffffff;stroke-width:2;stroke-linecap:round;stroke-linejoin:round;stroke-dasharray:none;stroke-opacity:1"
       d="m 870,458 c 0.35443,-104.41919 65.35455,-201.08789 159,-246.75464 29.1775,-14.22858 63.6356,-25.06232 96,-27.18518 5.9385,-0.38953 15.2463,-1.06018 21,-1.06018 h 8 8 c 8.9601,0 18.3086,0.86438 27,1.87036 33.1379,3.83551 65.3929,14.08539 95,28.88892 3.3732,1.68664 6.5845,3.1773 10,5.08795 62.4501,34.93567 105.6164,89.93066 131,156.15277"
       id="path20" /><path
       id="path18"
       style="fill:none;stroke:#ffffff;stroke-width:2;stroke-linecap:round;stroke-linejoin:round;stroke-dasharray:none;stroke-opacity:1"
       d="m 958,416 -23,10.02316 -10.79388,4.30411 9.79852,4.65421 L 958,445 m -66,-28 c 11.64906,4.80703 23.00895,9.35365 32.09067,13.43806 C 916.43155,434.3811 902.69379,440.45233 892,444 m -1,13 c 22.52834,-0.44958 45.36108,0 68,0" /><path
       id="path14"
       style="fill:none;stroke:#ffffff;stroke-width:2;stroke-linecap:round;stroke-linejoin:round;stroke-dasharray:none;stroke-opacity:1"
       d="m 1320,352 c 12.9801,-5.26599 30.5626,-15.04053 44,-21.75928 5.307,-2.6535 11.2798,-5.97265 16,-7.24072 m 6,13 -46,23.24072 L 1327,366" /><path
       id="path13"
       style="fill:none;stroke:#ffffff;stroke-width:2;stroke-linecap:round;stroke-linejoin:round;stroke-dasharray:none;stroke-opacity:1"
       d="m 935.9996,313.00005 13.65741,19 7.20831,9.54626 L 961.9213,349 977,370 m -55,-33 c 10.07596,1.19629 29.40818,4.8005 35.00413,4.8005 m -0.28886,8.2e-4 C 964.00875,340.80181 983.1734,343.7146 994,345" /><path
       style="fill:none;stroke:#ffffff;stroke-width:2;stroke-linecap:round;stroke-linejoin:round;stroke-dasharray:none;stroke-opacity:1"
       d="m 1287.9995,238 -33,55"
       id="path10" /><path
       id="path6"
       style="fill:none;stroke:#ffffff;stroke-width:2;stroke-linecap:round;stroke-linejoin:round;stroke-dasharray:none;stroke-opacity:1"
       d="m 1043,227 30,56 m -42,-50 c 0.058,12.00746 1.1302,24.01526 2.0412,36 0.3505,3.64801 0.6584,5.23425 0.8981,9 0.5112,8.02966 0.7843,19.23517 2.0602,26 m -32,-56 c 8.5629,3.34619 19.5749,17.77545 28.9132,21.1443 m -0.037,-0.0574 c 7.5313,2.66718 19.9237,13.65894 29.1239,19.91315" /><path
       id="path3"
       style="fill:none;stroke:#ffffff;stroke-width:2;stroke-linecap:round;stroke-linejoin:round;stroke-dasharray:none;stroke-opacity:1"
       d="m 1132,205 c 2.7509,10.23981 8.5405,24.18229 13.6137,31.28479 2.1341,-5.15321 8.8689,-23.05426 13.3863,-31.28479 m 13,0 v 62 m 15,-62 v 62 m -41.4381,-30.68009 C 1150.893,246.63425 1155.3136,257.38403 1160,268 m -14.4386,-31.75606 c -3.7966,7.20338 -10.3904,20.40462 -14.5619,30.75606" /></g></svg>
