<?xml version="1.0" encoding="UTF-8" standalone="no"?>
<!-- Created with Inkscape (http://www.inkscape.org/) -->

<svg
   width="400.23297"
   height="470.38263"
   viewBox="0 0 400.23297 470.38262"
   version="1.1"
   id="svg1"
   xml:space="preserve"
   xmlns="http://www.w3.org/2000/svg"
   xmlns:svg="http://www.w3.org/2000/svg"><defs
     id="defs1" /><g
     id="layer1"
     transform="matrix(0.88353817,0,0,0.88353817,-821.48543,-226.22754)"
     style="stroke-width:2.26363;stroke-dasharray:none"><path
       id="path41"
       style="fill:none;stroke:#ffffff;stroke-width:2.26363;stroke-linecap:round;stroke-linejoin:round;stroke-dasharray:none;stroke-opacity:1"
       d="m 1129.9398,593.68674 c 2.9938,16.65496 16.3326,39.9776 17.4877,66.43311 -0.128,-29.44412 2.2604,-55.12888 4.3737,-65.7044 m 8.3229,0.25593 c -0.8995,35.84031 -3.4871,75.59047 -4.0107,93.71284 -0.5194,17.9752 0.7354,32.67145 0.7354,32.67145" /><path
       id="path37"
       style="fill:none;stroke:#ffffff;stroke-width:2.26363;stroke-linecap:round;stroke-linejoin:round;stroke-dasharray:none;stroke-opacity:1"
       d="m 1051.8652,557.0436 c 0,0 -7.9384,25.0902 -10.9171,37.89303 -0.9765,4.19696 -2.2721,12.72592 -2.2721,12.72592 m 31.407,-39.68827 -17.4048,20.40394 c 0,0 -5.5009,6.10769 -7.9179,9.42264 -2.2915,3.14271 -6.2098,9.87858 -6.2098,9.87858 m 38.8196,-35.33288 c -7.0829,12.95627 -15.9653,26.1612 -22.7197,39.24694 -1.0344,2.12731 -2.8965,9.27709 -2.7425,10.61522 m 34.2068,-46.2186 -6.3493,12.3881 c -4.4326,8.30184 -10.4061,17.44219 -14.8725,25.54082 -1.2383,2.24521 -5.8341,13.69 -6.0736,18.13985" /><path
       id="path35"
       style="fill:none;stroke:#ffffff;stroke-width:2.26363;stroke-linecap:round;stroke-linejoin:round;stroke-dasharray:none;stroke-opacity:1"
       d="m 1243.5165,549.02777 c 0.2599,7.05154 0.7301,14.07338 0.7287,21.13265 v 22.59008 c 0.059,6.12594 -0.1104,8.24781 -0.2303,12.03119 m -20.1736,-49.19551 11.7741,28.41977 4.271,10.20197 4.1811,10.61702" /><path
       style="fill:none;stroke:#ffffff;stroke-width:2.26363;stroke-linecap:round;stroke-linejoin:round;stroke-dasharray:none;stroke-opacity:1"
       d="m 1142.2255,257.84319 c 8.6377,-1.25291 20.9079,-0.47697 29.1485,0.3306 1.8838,0.18462 3.1916,0.0172 5.101,0.1417 9.9282,0.64737 20.6067,2.78685 30.6059,4.90867 42.0035,8.91312 86.5935,32.11924 114.708,65.00384 11.0794,12.95915 21.9266,26.01027 30.7241,40.80788 21.2951,35.81915 31.3704,79.80216 28.6862,120.96621 -1.9119,29.32179 -11.3352,59.38855 -14.4325,88.90288 -2.3576,22.46604 -5.1006,44.49338 0.5364,67.04151 2.8779,11.51151 10.1661,27.70378 0.6207,37.7918 -7.4587,7.88276 -16.9092,-0.41257 -18.4303,-8.64332 -2.262,-12.24003 5.4966,-26.08752 5.516,-38.62174 0.01,-4.50049 -0.099,-9.92305 -4.3858,-12.65461 -2.4405,-1.55519 -4.8998,-0.70249 -6.1839,1.77117 -2.4298,4.68032 -6.1087,32.23225 -17.4351,17.39462 -2.1083,-2.76176 -2.5831,-7.55337 -2.6011,-10.15474 -0.011,-1.59752 -0.067,-2.67329 0.044,-4.37227 0.8195,-12.56838 3.1911,-25.50799 -1.8117,-37.89303 -5.0827,-12.58278 -16.6036,-18.74363 -28.8381,-11.76734 -17.4543,9.95272 -32.0954,29.39816 -38.5813,48.20295 -2.4914,7.22351 -4.7417,17.50687 -4.3014,24.77621 0.1021,1.68595 0.4694,2.77457 0.5735,4.37227 0.123,1.88449 -0.045,3.19479 0.1418,5.10098 0.3383,3.4532 0.9366,7.34112 1.5349,10.93069 1.8575,11.14461 5.391,24.00631 4.0957,34.97818 -0.6476,5.48549 -4.6435,10.10798 -10.1008,10.72488 -7.3592,0.8319 -12.6741,-6.9084 -13.6532,-13.63973 -0.2996,-2.0604 -0.1923,-3.29006 -0.1923,-5.8297 0,-2.65964 -0.1708,-3.81684 0.098,-6.55841 1.3646,-13.92568 5.7318,-30.56988 5.7318,-44.45144 0,-10.58438 -3.8672,-21.6738 -15.303,-24.96513 -2.1486,-0.61838 -3.7992,-0.54998 -5.8297,-0.53979 -1.6561,0.008 -2.6571,-0.0562 -4.3722,0.3475 -13.4633,3.16846 -14.2179,21.21258 -20.4478,30.98712 -5.8021,9.10347 -16.2474,12.871 -22.0504,21.86136 -4.1448,6.42165 -6.7635,16.63802 -7.0408,24.0475 -0.096,2.57407 -0.013,3.99929 -0.013,6.55841 0,2.54676 -0.017,4.00174 0,6.55841 0.057,8.15701 2.6691,20.90341 4.0686,29.14849 0.7972,4.69575 1.3663,10.05755 1.9501,14.57424 0.494,3.8232 0.6184,5.57586 0.5364,10.20197 -0.037,2.07063 -0.2366,3.01568 -0.5399,5.10098 -0.9891,6.80108 -4.6271,15.0932 -12.5736,15.92711 -15.1059,1.58516 -16.7524,-17.98755 -14.9993,-28.31521 1.1112,-6.54632 3.1107,-13.1178 4.3554,-19.67523 4.1324,-21.77072 3.4641,-49.43834 -13.407,-66.30942 -3.4144,-3.41446 -7.667,-6.58692 -12.3847,-7.67171 -9.7473,-2.2413 -16.4768,4.54239 -20.9235,12.76931 -2.8742,5.3175 -6.0153,13.55696 -13.326,13.0662 -3.9848,-0.26748 -7.3035,-3.70813 -8.6838,-7.2365 -3.436,-8.78324 -0.1118,-18.31819 -3.9303,-26.96235 -2.3479,-5.31505 -8.9571,-11.6585 -15.0635,-8.47466 -5.1128,2.66587 -6.2807,10.62183 -6.5246,15.76178 -0.5552,11.69872 4.2693,25.07706 5.0099,36.43561 0.1188,1.82275 0.074,3.1959 0.041,5.10098 -0.1455,8.19801 -4.8608,19.86737 -14.5709,16.61191 -8.7783,-2.94286 -12.3534,-14.05728 -10.9852,-22.4416 2.2976,-14.07922 8.0478,-27.94997 8.0698,-42.26531 0.015,-9.70182 -1.8745,-21.18549 -8.2486,-29.14848 -3.8738,-4.83944 -10.9513,-6.83366 -14.969,-10.97792 -5.0516,-5.2107 -5.8084,-16.88555 -14.6754,-17.83657 -7.36318,-0.78973 -13.32799,7.34577 -15.29283,13.51154 -3.90756,12.2621 0.30286,24.00347 1.54515,36.4356 0.4703,4.70652 1.02806,3.71197 0.19903,8.74455 -0.53445,3.24442 -1.70818,6.87508 -4.14285,9.35855 -4.62802,4.72075 -12.20834,3.1407 -16.44664,-1.38996 -8.84736,-9.45764 -1.34679,-23.02755 0.8738,-33.47352 2.51649,-11.83795 1.18686,-24.80029 -2.93847,-36.4356 -7.66253,-21.6118 -21.37467,-40.03605 -27.28623,-62.66924 -4.31003,-16.50153 -7.92475,-34.14144 -7.92475,-51.00985 v -6.55841 -7.28712 c 0,-15.11864 3.10408,-30.57633 6.8283,-45.18015 9.06876,-35.56132 27.15178,-68.62179 52.24124,-95.46129 26.30415,-28.13894 60.93395,-49.02808 97.60355,-60.47296 11.6325,-3.63062 23.673,-6.30738 35.7069,-7.94165 4.4223,-0.60057 8.2989,-1.22966 12.3881,-1.4979 2.8791,-0.18884 3.555,-0.0367 6.5584,-0.4723"
       id="path2" /><path
       style="fill:none;stroke:#ffffff;stroke-width:2.26363;stroke-linecap:round;stroke-linejoin:round;stroke-dasharray:none;stroke-opacity:1"
       d="m 1358.653,516.96444 c 0,4.74039 -0.2031,5.10859 -0.6308,9.47325 -0.3951,4.03165 -0.1254,8.37632 -0.6376,12.38811 -0.4882,3.82249 -1.1875,10.88992 -1.5486,14.57424 -0.1616,1.64886 -0.047,2.68395 -0.1113,4.37228 -0.1471,3.89156 -0.7152,6.73451 -0.7152,11.65939 v 5.8297 5.10098 c 0,5.05631 0.5927,6.91147 0.7152,10.93068 0.065,2.12983 -0.1382,3.40412 -0.4184,5.10099 -0.3801,2.30253 -0.9567,5.3265 -3.2589,6.93964 -3.4962,2.44971 -6.0053,-0.73763 -6.7642,-4.02479 -1.2714,-5.50709 0.9817,-17.70399 0.9817,-23.31879"
       id="path30" /><path
       id="path28"
       style="fill:none;stroke:#ffffff;stroke-width:2.26363;stroke-linecap:round;stroke-linejoin:round;stroke-dasharray:none;stroke-opacity:1"
       d="m 1293.0689,501.66148 c 11.667,11.66703 23.1774,23.34387 32.5458,37.16432 8.622,12.71931 9.9656,25.89038 10.0792,37.6879 m -53.5557,-61.00669 c 14.5291,9.38264 30.68,22.22136 41.9081,38.12229 4.6572,6.5955 10.4913,14.6018 11.5112,22.88567 M 1276.3086,520.608 c 5.7489,5.04694 12.4746,9.45082 18.2178,14.6046 11.1478,10.00373 21.2468,20.67742 29.1484,33.4904" /><path
       id="path27"
       style="fill:none;stroke:#ffffff;stroke-width:2.26363;stroke-linecap:round;stroke-linejoin:round;stroke-dasharray:none;stroke-opacity:1"
       d="m 1011.7861,498.74663 c -5.4717,5.10419 -11.6755,9.7482 -17.48913,14.42918 -7.19953,5.79688 -15.83906,11.76117 -20.62352,16.70517 16.77291,-6.4306 30.19675,-11.68601 44.67105,-17.28882 m 2.1861,5.8297 -42.2653,26.23364 m 45.3249,-18.95134 c -13.8707,9.55149 -28.26235,17.8149 -42.4004,26.96235 m 3.63391,7.29194 42.48119,-26.16381" /><path
       id="path23"
       style="fill:none;stroke:#ffffff;stroke-width:2.26363;stroke-linecap:round;stroke-linejoin:round;stroke-dasharray:none;stroke-opacity:1"
       d="m 1299.6273,450.65164 c 18.9998,0.23205 39.5805,9.0624 49.9775,25.50492 4.4525,7.04143 6.7395,14.41922 7.6852,22.59007 0.4175,3.60671 0.6227,3.87148 0.6343,7.28713 m -56.1108,-46.63758 c 12.8264,1.52287 26.7835,6.3864 36.4322,16.03505 7.801,7.80096 13.5254,20.96279 13.8489,31.33124 m -51.7385,-39.35046 c 15.2404,2.88472 32.3713,9.65611 40.4739,24.77622 5.3068,9.9031 6.2474,21.4995 6.9362,32.06333 0.1476,2.26403 0.5812,3.79754 0.6714,5.8297 0.1084,2.44386 0.4779,5.96179 1.4709,8.74454" /><path
       style="fill:none;stroke:#ffffff;stroke-width:2.26363;stroke-linecap:round;stroke-linejoin:round;stroke-dasharray:none;stroke-opacity:1"
       d="m 1153.1562,448.62475 c 0.026,6.43913 3.6024,9.1738 8.1872,9.60356"
       id="path1" /><path
       style="fill:none;stroke:#ffffff;stroke-width:2.26363;stroke-linecap:round;stroke-linejoin:round;stroke-dasharray:none;stroke-opacity:1"
       d="m 1169.5909,452.47583 c -1.2008,2.48548 -2.7684,3.96608 -3.8705,4.70048 -1.153,0.76844 -2.8835,1.14336 -4.3205,1.07794 -0.6631,1.39668 -1.4577,3.37165 -2.161,4.78549 -2.4977,5.02093 -6.2831,11.69509 -9.1089,16.76038 -9.3097,16.6879 -18.14,34.28856 -27.4684,51.00985 -3.2086,5.75163 -5.904,11.96119 -9.5204,17.48571 -2.8328,4.3274 -5.6325,5.01029 -8.8087,6.56179 -2.2275,-6.84024 2.5061,-15.10866 6.3796,-22.59008 9.0681,-17.51469 18.854,-34.51835 28.4872,-51.73856 3.9068,-6.98376 15.8953,-25.53135 15.4622,-25.98639 -4.6372,2.07666 -21.1702,12.31116 -29.9251,16.68857 -22.3201,11.16005 -43.9439,22.87656 -65.5841,34.23936 -2.4505,1.28674 -4.7805,2.40035 -7.2871,3.65367 -7.0353,3.51769 -15.0916,8.67874 -20.4039,6.38297 2.7221,-7.41163 23.1485,-16.13545 32.792,-20.95721 15.5781,-7.78904 30.6435,-15.85186 45.9089,-23.67302 12.3976,-6.40962 24.6126,-13.2056 37.1643,-19.31764 1.5835,-0.76605 4.9232,-2.50292 5.8118,-2.92201 0,-2.64953 1.1175,-5.99246 5.1189,-7.39804 5.2345,-1.83873 9.1728,0.88013 10.8823,4.98124 0.8321,1.99615 0.958,4.15974 0.3789,6.29169 37.4737,12.89453 74.8738,27.64522 111.8911,41.86234"
       id="path21" /><path
       style="fill:none;stroke:#ffffff;stroke-width:2.26363;stroke-linecap:round;stroke-linejoin:round;stroke-dasharray:none;stroke-opacity:1"
       d="m 947.65939,475.42785 c 0.25828,-76.09153 47.62465,-146.53518 115.86521,-179.8131 21.262,-10.36853 46.372,-18.26321 69.9564,-19.81017 4.3274,-0.28385 11.1101,-0.77256 15.3029,-0.77256 h 5.8297 5.8297 c 6.5294,0 13.3417,0.62988 19.6753,1.36295 24.1479,2.79498 47.6526,10.2642 69.2276,21.05171 2.4581,1.22907 4.7982,2.31533 7.2871,3.70765 45.5082,25.45804 76.964,65.53356 95.4613,113.79041"
       id="path20" /><path
       id="path18"
       style="fill:none;stroke:#ffffff;stroke-width:2.26363;stroke-linecap:round;stroke-linejoin:round;stroke-dasharray:none;stroke-opacity:1"
       d="m 1011.7861,444.82194 -16.76042,7.304 -7.86563,3.13645 7.1403,3.39158 17.48575,7.30062 m -48.09504,-20.40394 c 8.48881,3.50294 16.7669,6.81612 23.38486,9.79248 -5.5813,2.87334 -15.59217,7.29752 -23.38486,9.88275 m -0.72871,9.47326 c 16.41667,-0.32762 33.05516,0 49.55245,0" /><path
       id="path14"
       style="fill:none;stroke:#ffffff;stroke-width:2.26363;stroke-linecap:round;stroke-linejoin:round;stroke-dasharray:none;stroke-opacity:1"
       d="m 1275.5798,398.18436 c 9.4588,-3.83739 22.2714,-10.96021 32.0634,-15.85625 3.8672,-1.93363 8.2197,-4.35234 11.6594,-5.2764 m 4.3722,9.47326 -33.5207,16.93579 -9.4733,4.92557" /><path
       id="path13"
       style="fill:none;stroke:#ffffff;stroke-width:2.26363;stroke-linecap:round;stroke-linejoin:round;stroke-dasharray:none;stroke-opacity:1"
       d="m 995.7541,369.76463 9.9523,13.84553 5.2528,6.95647 3.6844,5.4316 10.988,15.30295 m -40.07918,-24.0475 c 7.34248,0.87175 21.43008,3.49818 25.50798,3.49818 m -0.2105,6e-4 c 5.3148,-0.72835 19.2803,1.39423 27.1698,2.33092" /><path
       style="fill:none;stroke:#ffffff;stroke-width:2.26363;stroke-linecap:round;stroke-linejoin:round;stroke-dasharray:none;stroke-opacity:1"
       d="m 1252.2607,315.11118 -24.0475,40.07917"
       id="path10" /><path
       id="path6"
       style="fill:none;stroke:#ffffff;stroke-width:2.26363;stroke-linecap:round;stroke-linejoin:round;stroke-dasharray:none;stroke-opacity:1"
       d="m 1073.7266,307.09535 21.8613,40.80788 m -30.6059,-36.43561 c 0.042,8.74999 0.8236,17.50021 1.4875,26.23364 0.2554,2.65835 0.4798,3.81426 0.6544,6.55841 0.3726,5.85131 0.5716,14.0169 1.5013,18.94651 m -23.3187,-40.80787 c 6.2398,2.4384 14.2644,12.95318 21.0693,15.4081 m -0.027,-0.0418 c 5.4881,1.94361 14.5186,9.95344 21.2229,14.51096" /><path
       id="path3"
       style="fill:none;stroke:#ffffff;stroke-width:2.26363;stroke-linecap:round;stroke-linejoin:round;stroke-dasharray:none;stroke-opacity:1"
       d="m 1138.582,291.06368 c 2.0046,7.46188 6.2235,17.62193 9.9204,22.79761 1.5552,-3.75521 6.4629,-16.79992 9.7548,-22.79761 m 9.4732,0 v 45.18016 m 10.9307,-45.18016 v 45.18016 m -30.1964,-22.35696 c 3.8848,7.51619 7.1062,15.34968 10.5212,23.08567 m -10.5216,-23.14103 c -2.7666,5.24919 -7.5716,14.8691 -10.6114,22.41232" /></g></svg>
