<?xml version="1.0" encoding="UTF-8" standalone="no"?>
<!-- Created with Inkscape (http://www.inkscape.org/) -->

<svg
   width="399.73618"
   height="226.80014"
   viewBox="0 0 399.73618 226.80014"
   version="1.1"
   id="svg1"
   xml:space="preserve"
   xmlns="http://www.w3.org/2000/svg"
   xmlns:svg="http://www.w3.org/2000/svg"><defs
     id="defs1" /><g
     id="layer1"
     transform="translate(-178.49562,-178.60501)"><path
       style="fill:none;stroke:#ffffff;stroke-width:2;stroke-linecap:round;stroke-linejoin:round;stroke-dasharray:none;stroke-opacity:1"
       d="m 439.49771,372.73423 c 1.0832,0.59727 1.47917,1.29176 1.44611,2.57817 -0.0479,1.86252 -0.69582,3.09699 -0.70986,5.15555 -0.0144,2.09098 -0.35681,3.27243 -0.36768,5.5241 -0.0203,4.23471 0.8421,8.11743 1.06759,12.15301 0.0629,1.1261 0.26217,3.16604 -0.60869,4.27407 -1.50689,1.91726 -4.89081,1.25003 -7.08811,1.25003 h -4.41927 -10.31164 c -2.24724,0 -5.0656,0.95416 -6.80367,-0.89625 -1.44005,-1.53311 -0.72255,-4.83927 0.68823,-6.39079 2.59283,-2.85146 8.89132,-2.26257 10.83706,-5.67072 0.76254,-1.3357 0.39581,-2.30463 0.22221,-3.61453 -0.39806,-3.00379 -0.53536,-6.45011 -1.2611,-8.83855"
       id="path236" /><path
       style="fill:none;stroke:#ffffff;stroke-width:2;stroke-linecap:round;stroke-linejoin:round;stroke-dasharray:none;stroke-opacity:1"
       d="m 433.23707,400.3547 c -3.01542,1.60926 -13.80369,0.8441 -18.41364,0.73116 -1.55456,-0.0381 -2.5984,-0.2773 -3.68273,-0.36288"
       id="path235" /><path
       style="fill:none;stroke:#ffffff;stroke-width:2;stroke-linecap:round;stroke-linejoin:round;stroke-dasharray:none;stroke-opacity:1"
       d="m 440.23425,400.3547 c -2.04847,0.60551 -4.14001,0.84456 -6.99718,0 0.9338,-3.22058 2.77247,-6.43836 6.62892,-7.36545"
       id="path234" /><path
       style="fill:none;stroke:#ffffff;stroke-width:2;stroke-linecap:round;stroke-linejoin:round;stroke-dasharray:none;stroke-opacity:1"
       d="m 451.65072,337.01175 c -3.09166,4.58214 -6.33786,9.05732 -9.44838,13.6261 -1.22001,1.792 -3.18662,3.81074 -3.83415,5.89237 -0.52896,1.70036 0.35354,5.15627 0.54928,6.62891 0.22969,1.72828 0.21197,2.83914 0.21197,4.78754 0,1.24549 0.3664,3.24019 -0.59048,4.19706 -0.92338,0.92338 -2.84293,0.55912 -3.82879,0.653 -1.39647,0.133 -2.07796,0.31541 -3.68273,0.30406 -1.29382,-0.009 -2.13249,-0.19156 -3.31447,-0.30406 -2.00407,-0.19071 -2.25077,-0.0625 -4.41927,-0.0625"
       id="path230" /><path
       style="fill:none;stroke:#ffffff;stroke-width:2;stroke-linecap:round;stroke-linejoin:round;stroke-dasharray:none;stroke-opacity:1"
       d="m 453.86036,335.53866 c 0.46705,3.17428 3.36233,12.20452 4.66594,16.204 0.98528,3.02295 1.762,6.50572 3.48493,9.20683 3.26552,5.11948 9.33127,8.7818 13.94238,12.59487 2.6403,2.18339 2.12254,5.68241 5.89549,6.18705"
       id="path229" /><path
       style="fill:none;stroke:#ffffff;stroke-width:2;stroke-linecap:round;stroke-linejoin:round;stroke-dasharray:none;stroke-opacity:1"
       d="m 476.69328,334.80211 c 0.006,1.87113 0.20285,4.7052 0.47341,6.99718 0.31989,2.70946 0.41225,4.99559 0.73655,7.73374 0.15936,1.34515 0.0358,3.05387 1.11675,4.35677 2.42891,2.92761 6.99579,7.80992 10.19998,9.75637 1.15174,0.69969 2.53697,0.56316 3.63722,1.50095 3.26253,2.7807 5.75824,7.69848 8.88406,10.90156 2.50283,2.56469 8.23956,5.69733 9.27473,9.20683 0.59226,2.00785 -2.16488,3.93288 -3.38777,5.15582 -4.03399,4.03428 -8.23266,7.79709 -12.3093,11.71312 -1.03356,0.99285 -2.66951,2.55111 -4.26273,1.88144 -1.87197,-0.78687 -3.15863,-2.8636 -3.26157,-4.75601 -0.1918,-3.52595 4.05012,-6.92149 3.47815,-10.31164 -0.5576,-3.30484 -7.19045,-7.38846 -9.42366,-9.20683 2.89459,-2.83483 7.15547,-6.41893 10.31164,-9.5751"
       id="path228" /><path
       style="fill:none;stroke:#ffffff;stroke-width:2;stroke-linecap:round;stroke-linejoin:round;stroke-dasharray:none;stroke-opacity:1"
       d="m 489.58284,364.26394 c -1.83404,3.93293 -7.67095,7.81592 -11.04819,11.04819"
       id="path227" /><path
       style="fill:none;stroke:#ffffff;stroke-width:2;stroke-linecap:round;stroke-linejoin:round;stroke-dasharray:none;stroke-opacity:1"
       d="m 505.41857,388.93825 c -3.2935,2.87731 -12.1453,11.09427 -15.46746,13.99437"
       id="path226" /><path
       style="fill:none;stroke:#ffffff;stroke-width:2;stroke-linecap:round;stroke-linejoin:round;stroke-dasharray:none;stroke-opacity:1"
       d="m 503.94548,379.36312 c -0.63394,2.77358 -0.51127,6.79308 1.10482,9.57509 1.90272,-1.40044 3.34679,-3.26325 4.78755,-5.15582"
       id="path225" /><path
       style="fill:none;stroke:#ffffff;stroke-width:2;stroke-linecap:round;stroke-linejoin:round;stroke-dasharray:none;stroke-opacity:1"
       d="m 275.61488,319.58584 c 0,2.14395 -0.001,7.21794 0,10.31164 3.6e-4,0.93949 -0.0277,1.62949 0.0625,2.57792 0.1221,1.28305 0.28226,1.97825 0.30461,3.31445 0.0141,0.84701 0.009,1.38982 0.10628,2.20964 0.22197,1.88124 0.50774,4.31669 0.6405,6.26064 0.13099,1.91806 0.89146,3.84252 -0.0193,5.48546 -0.88261,1.59209 -4.30338,3.03023 -5.88215,4.08993 -2.66478,1.78871 -4.05567,4.43314 -6.40412,6.36094 -3.58332,2.94146 -9.78814,4.41749 -8.57373,10.57932 0.30407,1.54287 1.0517,3.07512 1.92179,4.41928 0.97075,1.49967 2.06223,2.83441 3.48125,3.86716 1.07524,0.78254 2.04755,1.2037 3.31418,1.18637 5.0097,-0.0686 6.83323,-4.68762 10.37956,-6.89943 1.06818,-0.66624 2.46413,-0.82563 3.61481,-1.50321 4.62798,-2.72528 10.51037,-7.50228 13.79943,-11.75035 4.06592,-5.25149 3.95969,-13.37026 4.8262,-19.5182 0.63532,-4.50758 1.07138,-8.10973 1.62938,-12.52128"
       id="path224" /><path
       style="fill:none;stroke:#ffffff;stroke-width:2;stroke-linecap:round;stroke-linejoin:round;stroke-dasharray:none;stroke-opacity:1"
       d="m 310.23252,398.39627 c 4.64942,0.60042 10.03717,1.78326 14.36264,2.31449 3.42932,0.42117 6.62903,0.60076 9.5751,-0.8414"
       id="path221" /><path
       id="path220"
       style="fill:none;stroke:#ffffff;stroke-width:2;stroke-linecap:round;stroke-linejoin:round;stroke-dasharray:none;stroke-opacity:1"
       d="m 310.60079,390.66253 c -0.19101,1.51028 -0.47445,3.09351 -0.63139,4.41928 -0.28451,2.40331 -0.21652,3.7068 -0.17636,6.13643 6.20568,0.75025 11.24933,2.17863 17.38005,2.32844 1.97823,0.0483 6.18963,0.20724 7.34612,-1.88513 3.31356,-5.99504 -9.12284,-8.25302 -12.13367,-10.99903 2.58057,-2.7218 3.70672,-5.93462 3.68102,-9.57509 -0.0143,-2.02325 -1.00333,-4.31064 -0.63368,-6.26064 0.36737,-1.938 0.89222,-3.29688 1.15854,-5.15582 0.13094,-0.91412 0.20067,-1.64945 0.21198,-2.57792 0.0437,-3.67867 0.019,-8.43961 10e-4,-12.153 -0.006,-1.29075 -0.11672,-2.12247 -0.26312,-3.31446 -0.12053,-0.98132 -0.14349,-1.90287 -0.33161,-2.94618 -2.23679,-12.40606 -8.22246,-24.52574 -13.03108,-36.09075" /><path
       style="fill:none;stroke:#ffffff;stroke-width:2;stroke-linecap:round;stroke-linejoin:round;stroke-dasharray:none;stroke-opacity:1"
       d="m 261.62049,379.61431 c -0.19866,1.0244 -0.73211,4.23037 -0.73626,5.5241 -0.003,0.97769 -0.0102,1.5988 0.10481,2.57791 0.12798,1.08463 0.27646,1.80309 0.25603,2.94618 -0.037,2.06833 -0.92326,3.46342 -2.57081,4.78755"
       id="path218" /><path
       style="fill:none;stroke:#ffffff;stroke-width:2;stroke-linecap:round;stroke-linejoin:round;stroke-dasharray:none;stroke-opacity:1"
       d="m 249.46748,373.3537 c -4.34129,2.09383 0.67574,15.02577 2.69725,18.78191 1.30811,2.43056 3.32664,5.04149 6.1413,3.31447 -5.2419,-3.99659 -6.15349,-10.13769 -7.44304,-16.20401 -0.35326,-1.66177 -1.43916,-4.27326 -0.84623,-5.81366 0.71884,-1.86753 3.6109,-2.30467 5.34309,-3.02489"
       id="path217" /><path
       style="fill:none;stroke:#ffffff;stroke-width:2;stroke-linecap:round;stroke-linejoin:round;stroke-dasharray:none;stroke-opacity:1"
       d="m 298.44779,332.84367 c 1.50251,2.11049 2.66096,4.76721 3.96008,7.36545 2.16584,4.33172 5.99475,9.60081 6.87868,14.36265 0.52041,2.80345 -0.73479,6.47198 -1.10709,9.20683 -0.14016,1.02968 -0.15482,1.86126 -0.15658,2.94619 -0.005,2.93157 1.12483,6.44771 0.6962,9.20682 -0.37131,2.3902 -1.06744,4.18915 -1.06448,6.62891 0.003,2.53772 0.27106,5.3743 2.28807,7.26287 3.0427,2.84894 8.79956,1.54569 12.44285,0.83913"
       id="path216" /><path
       style="fill:none;stroke:#ffffff;stroke-width:2;stroke-linecap:round;stroke-linejoin:round;stroke-dasharray:none;stroke-opacity:1"
       d="m 459.75273,311.23264 11.41646,8.10201"
       id="path215" /><path
       style="fill:none;stroke:#ffffff;stroke-width:2;stroke-linecap:round;stroke-linejoin:round;stroke-dasharray:none;stroke-opacity:1"
       d="m 438.02462,310.12782 -3.68273,3.31446"
       id="path214" /><path
       style="fill:none;stroke:#ffffff;stroke-width:2;stroke-linecap:round;stroke-linejoin:round;stroke-dasharray:none;stroke-opacity:1"
       d="m 396.77805,308.65473 0.73654,0.73654"
       id="path213" /><path
       style="fill:none;stroke:#ffffff;stroke-width:2;stroke-linecap:round;stroke-linejoin:round;stroke-dasharray:none;stroke-opacity:1"
       d="m 398.25114,295.76517 -0.36827,1.47309"
       id="path212" /><path
       style="fill:none;stroke:#ffffff;stroke-width:2;stroke-linecap:round;stroke-linejoin:round;stroke-dasharray:none;stroke-opacity:1"
       d="m 434.34189,286.19006 c 0,2.1462 -0.19677,2.22877 0.10515,4.78754 0.13244,1.12235 0.24185,1.73952 0.26203,2.94619 0.0158,0.95705 0.0273,1.58804 0.1574,2.57791 0.12572,0.95763 0.1932,1.52241 0.21088,2.57791 0.0158,0.95657 0.0276,1.58848 0.15739,2.57791 0.17943,1.36649 0.24498,2.11662 0.20661,3.68273 -0.063,2.57254 -0.98396,5.27114 -1.68199,7.73373 -0.45647,1.61054 -1.05951,3.41437 -1.48929,5.15582 -0.82147,3.32884 -2.42828,9.01212 -0.50608,11.04819"
       id="path211" /><path
       style="fill:none;stroke:#ffffff;stroke-width:2;stroke-linecap:round;stroke-linejoin:round;stroke-dasharray:none;stroke-opacity:1"
       d="m 306.18151,290.86053 c -1.57114,0.76044 -3.14738,0.58573 -5.15582,1.63592 -3.16769,1.65635 -6.67223,6.12708 -9.62738,1.30458 -4.27619,-6.97829 7.74259,-10.12758 10.36393,-11.41077"
       id="path210" /><path
       style="fill:none;stroke:#ffffff;stroke-width:2;stroke-linecap:round;stroke-linejoin:round;stroke-dasharray:none;stroke-opacity:1"
       d="m 477.42983,282.8756 c 0,3.0457 -0.38853,8.99921 -0.36802,13.25782 0.009,1.95422 0.32791,3.4689 0.36802,5.15582 0.0671,2.81987 0.51491,6.00296 0.89287,8.83855 0.39299,2.94845 0.8604,6.00785 0.94337,8.83856 0.0288,0.97712 0.0313,1.58768 0.16146,2.57791 0.12119,0.9233 0.19901,1.60844 0.2105,2.57791 0.0268,2.24762 0.85852,7.31461 -0.58905,9.05367 -1.85985,2.2343 -7.02857,2.22934 -9.72116,2.34829 -0.96226,0.0426 -1.61347,-0.0147 -2.5779,0.077 -1.36169,0.1296 -2.12177,0.33079 -3.68273,0.30007 -1.26944,-0.025 -2.07949,-0.24504 -3.31446,-0.32962 -1.14194,-0.0782 -1.81548,-10e-4 -2.94619,-0.0472 -1.21711,-0.0494 -2.1228,-0.18262 -3.31445,-0.30292 -2.32086,-0.23429 -4.19312,-0.6836 -6.62892,-1.15597"
       id="path209" /><path
       style="fill:none;stroke:#ffffff;stroke-width:2;stroke-linecap:round;stroke-linejoin:round;stroke-dasharray:none;stroke-opacity:1"
       d="m 274.87831,281.28543 -1.10482,0.36828"
       id="path208" /><path
       style="fill:none;stroke:#ffffff;stroke-width:2;stroke-linecap:round;stroke-linejoin:round;stroke-dasharray:none;stroke-opacity:1"
       d="m 433.97362,279.92941 c 0,1.80763 0.39946,3.64837 -0.22222,5.07741 -0.74759,1.71857 -3.96759,2.7599 -5.67015,3.70972 -4.77278,2.66261 -9.06047,5.58555 -13.25782,9.10708 -1.53884,1.29106 -6.95907,6.37405 -8.10201,4.93872"
       id="path207" /><path
       style="fill:none;stroke:#ffffff;stroke-width:2;stroke-linecap:round;stroke-linejoin:round;stroke-dasharray:none;stroke-opacity:1"
       d="m 257.20121,275.0248 5.89236,8.83855"
       id="path206" /><path
       style="fill:none;stroke:#ffffff;stroke-width:2;stroke-linecap:round;stroke-linejoin:round;stroke-dasharray:none;stroke-opacity:1"
       d="m 227.73937,273.91997 c -0.46572,5.77248 4.10812,9.2376 7.59421,13.29079 1.97634,2.29786 3.2104,4.78809 5.66362,6.71786 2.047,1.61024 4.74854,3.06234 7.36546,2.5725 3.8695,-0.72428 7.86841,-2.39733 11.04818,-4.78072 2.28079,-1.70955 4.19693,-3.82543 6.26065,-5.27915 0.84177,1.88958 1.59796,2.98823 2.06585,5.15582 0.22587,1.04641 0.14338,1.89206 0.14379,2.94619 7.3e-4,1.86538 -0.0113,3.39472 0.41657,5.15582 0.72291,2.97661 2.71633,5.38521 2.31763,8.47028 -0.46216,3.57598 0.3927,8.99264 4.26326,10.93253 2.1909,1.09806 5.38839,0.88306 8.10172,0.85079 1.08794,-0.013 1.91419,-0.13526 2.94618,-0.262 6.77869,-0.83251 14.02235,-2.00603 20.62329,-4.59943 2.66198,-1.04585 6.29772,-2.3186 7.58001,-5.08223 0.68557,-1.47757 0.52445,-2.82802 0.52199,-4.41757 -0.002,-1.22752 0.0161,-2.1527 -0.25061,-3.31446 -0.39909,-1.73854 -1.52889,-3.12121 -2.06985,-4.78755 -0.58696,-1.80799 -0.19353,-2.97224 -0.62572,-4.78754"
       id="path205" /><path
       style="fill:none;stroke:#ffffff;stroke-width:2;stroke-linecap:round;stroke-linejoin:round;stroke-dasharray:none;stroke-opacity:1"
       d="m 291.81886,303.7501 -10.31164,1.90246 -2.57791,0.29268 -5.89236,0.0145"
       id="path204" /><path
       style="fill:none;stroke:#ffffff;stroke-width:2;stroke-linecap:round;stroke-linejoin:round;stroke-dasharray:none;stroke-opacity:1"
       d="m 295.86987,298.96254 c 0.25951,3.26098 2.15179,8.2085 2.51511,11.78474 0.0988,0.97234 0.0578,1.64757 0.16794,2.57791 0.2553,2.15641 0.2583,1.92635 0.26313,3.68273"
       id="path203" /><path
       style="fill:none;stroke:#ffffff;stroke-width:2;stroke-linecap:round;stroke-linejoin:round;stroke-dasharray:none;stroke-opacity:1"
       d="m 309.49596,298.226 c -2.69811,1.76303 -6.33119,3.08761 -9.20681,3.68273"
       id="path202" /><path
       style="fill:none;stroke:#ffffff;stroke-width:2;stroke-linecap:round;stroke-linejoin:round;stroke-dasharray:none;stroke-opacity:1"
       d="m 270.45903,291.59707 c 1.26972,0.27512 2.04753,0.0682 3.31446,0.0145 1.17164,-0.0496 1.82631,0.0293 2.94619,-0.0474 3.19882,-0.21927 8.14842,-1.5119 11.04819,-2.17668"
       id="path201" /><path
       style="fill:none;stroke:#ffffff;stroke-width:2;stroke-linecap:round;stroke-linejoin:round;stroke-dasharray:none;stroke-opacity:1"
       d="m 249.83575,282.02198 1.10482,7.73374"
       id="path200" /><path
       style="fill:none;stroke:#ffffff;stroke-width:2;stroke-linecap:round;stroke-linejoin:round;stroke-dasharray:none;stroke-opacity:1"
       d="m 243.20683,278.33925 c -1.96512,1.50979 -3.97591,3.78039 -5.15582,6.26064"
       id="path199" /><path
       style="fill:none;stroke:#ffffff;stroke-width:2;stroke-linecap:round;stroke-linejoin:round;stroke-dasharray:none;stroke-opacity:1"
       d="m 447.96817,273.6688 -0.38134,4.41928 -0.25006,2.20963 -0.10651,4.05101 -0.33392,8.47027 0.33531,4.41928 0.0626,4.78755 0.30545,3.68273 -0.21169,7.36546 -0.7877,6.99718 -0.11024,2.20964 -0.33019,3.31446 -0.0332,3.31445 0.36828,4.78756 c -3.57884,-0.0743 -11.5155,-2.79898 -14.36265,-4.41928 -1.24109,2.10443 -2.53184,4.51354 -3.77366,6.99718 -2.3951,4.79019 -5.72885,9.81701 -6.67951,15.0992 -0.23216,1.28999 -0.2262,2.30709 -0.22674,3.68273 0,1.60917 -0.058,2.6691 0.10515,4.05099 0.11649,0.98704 0.22908,1.59062 0.25802,2.57792 0.0291,0.99176 0.0371,1.63421 0.16141,2.5779 0.19869,1.50875 0.37944,3.13345 0.56177,4.78756 0.28983,2.62878 -2.58882,5.56968 -0.77036,7.99942 0.73482,0.98182 1.90269,1.13707 2.99848,1.19261 1.00344,0.0509 1.70938,0.0148 2.57792,0.0148 h 4.41927 5.15583"
       id="path198" /><path
       style="fill:none;stroke:#ffffff;stroke-width:2;stroke-linecap:round;stroke-linejoin:round;stroke-dasharray:none;stroke-opacity:1"
       d="m 287.76805,270.60554 c 1.64238,4.2333 3.69007,8.72252 4.051,13.25783"
       id="path197" /><path
       style="fill:none;stroke:#ffffff;stroke-width:2;stroke-linecap:round;stroke-linejoin:round;stroke-dasharray:none;stroke-opacity:1"
       d="m 210.43055,269.13245 c -3.111,3.25281 -5.01624,6.89025 -6.62891,11.04819"
       id="path196" /><path
       style="fill:none;stroke:#ffffff;stroke-width:2;stroke-linecap:round;stroke-linejoin:round;stroke-dasharray:none;stroke-opacity:1"
       d="m 208.95746,262.87177 c -7.42264,5.9832 -12.5969,12.76111 -16.65299,21.35983 -1.798,3.81167 -3.57304,9.91718 -4.33858,13.6261"
       id="path193" /><path
       style="fill:none;stroke:#ffffff;stroke-width:2;stroke-linecap:round;stroke-linejoin:round;stroke-dasharray:none;stroke-opacity:1"
       d="m 275.61485,260.29396 c 2.86568,1.66629 9.00849,2.92211 12.88956,4.41927"
       id="path191" /><path
       style="fill:none;stroke:#ffffff;stroke-width:2;stroke-linecap:round;stroke-linejoin:round;stroke-dasharray:none;stroke-opacity:1"
       d="m 234.00002,268.02769 c -1.6924,1.44358 -5.04012,5.57882 -7.00258,5.27744 -3.49712,-0.53708 -8.09454,-3.38316 -10.0076,-6.38367 -0.8742,-1.37112 -1.54468,-2.87052 -1.59671,-4.41786 -0.0563,-1.67211 0.373,-2.23994 1.66633,-2.94619"
       id="path190" /><path
       style="fill:none;stroke:#ffffff;stroke-width:2;stroke-linecap:round;stroke-linejoin:round;stroke-dasharray:none;stroke-opacity:1"
       d="m 298.81605,257.34778 c 4.93267,0.63702 8.70918,3.33519 13.25783,5.84263 2.39807,1.32194 4.8726,1.9165 6.99578,3.80066 2.87663,2.55281 7.17131,7.53359 7.3521,11.34826 0.0908,1.91614 -0.48561,4.50005 -1.94793,6.25923 -3.50659,4.2184 -12.81147,8.99049 -17.92405,6.26205 3.0655,-4.26172 -2.50362,-7.49615 -4.78754,-8.83855 0.97501,-1.53397 2.96574,-2.42601 3.9342,-4.55737 0.74824,-1.64669 -0.9055,-4.8045 -1.3563,-6.49082"
       id="path189" /><path
       style="fill:none;stroke:#ffffff;stroke-width:2;stroke-linecap:round;stroke-linejoin:round;stroke-dasharray:none;stroke-opacity:1"
       d="m 311.7056,277.60275 c 4.03456,0.63816 6.4769,4.78315 6.62891,8.102"
       id="path188" /><path
       style="fill:none;stroke:#ffffff;stroke-width:2;stroke-linecap:round;stroke-linejoin:round;stroke-dasharray:none;stroke-opacity:1"
       d="m 306.54978,277.60275 c 4.31094,-2.17882 7.22383,-4.78701 12.15301,-4.78754"
       id="path187" /><path
       style="fill:none;stroke:#ffffff;stroke-width:2;stroke-linecap:round;stroke-linejoin:round;stroke-dasharray:none;stroke-opacity:1"
       d="m 309.86424,264.71318 c -1.39132,1.82472 -2.48312,3.94286 -2.94618,5.89236"
       id="path186" /><path
       style="fill:none;stroke:#ffffff;stroke-width:2;stroke-linecap:round;stroke-linejoin:round;stroke-dasharray:none;stroke-opacity:1"
       d="m 292.92369,253.66505 c 3.0662,4.02254 1.09095,10.41493 -3.68273,13.28369 -1.95353,1.17397 -4.38513,1.78651 -6.62892,1.78651 -2.3579,0 -4.49746,-0.7888 -6.62891,-1.07583"
       id="path185" /><path
       style="fill:none;stroke:#ffffff;stroke-width:2;stroke-linecap:round;stroke-linejoin:round;stroke-dasharray:none;stroke-opacity:1"
       d="m 504.68202,254.88693 c 2.38004,0.79053 0.9211,4.62015 0.58423,6.62892 -0.99444,5.93056 -1.81618,15.15077 -6.4925,19.44914 -1.36582,1.25543 -3.46188,2.01611 -5.13991,2.34972 -1.75681,0.34929 -2.79962,0.31975 -4.78755,0.2961 -1.15612,-0.0138 -1.88659,-0.13662 -2.94618,-0.26171 -0.97412,-0.11502 -1.59426,-0.0692 -2.57792,-0.13811 -3.64306,-0.25533 -5.31602,-0.77444 -8.83855,-1.07186"
       id="path184" /><path
       style="fill:none;stroke:#ffffff;stroke-width:2;stroke-linecap:round;stroke-linejoin:round;stroke-dasharray:none;stroke-opacity:1"
       d="m 232.15865,264.71323 c -1.32244,0.95009 -7.34153,3.38973 -9.20143,2.67254 -4.36155,-1.68185 -6.67021,-8.50605 -4.61022,-12.57726 1.06592,-2.10661 5.93296,-3.70977 7.91928,-3.61879 2.46826,0.11307 4.88923,2.96613 6.5448,4.75288 2.55374,2.75604 -0.29595,5.03678 -0.3606,7.97157 -0.0226,1.02611 0.84539,2.40531 1.4316,3.32271 1.01657,1.59081 4.05082,2.02316 5.64202,3.25107 3.18238,2.45581 6.42748,6.55294 9.20683,8.9562 2.33363,-2.94017 11.39067,-11.73101 13.6261,-13.25782"
       id="path183" /><path
       style="fill:none;stroke:#ffffff;stroke-width:2;stroke-linecap:round;stroke-linejoin:round;stroke-dasharray:none;stroke-opacity:1"
       d="m 476.69328,262.98894 c 2.97329,0.7046 5.96323,1.91742 8.83855,2.96579 0.91946,0.33526 2.47302,1.27023 3.3682,0.46034 2.01316,-1.82147 2.29006,-8.19628 2.93907,-10.79159 0.46313,-1.85193 0.495,-3.47405 2.53128,-3.68273"
       id="path182" /><path
       style="fill:none;stroke:#ffffff;stroke-width:2;stroke-linecap:round;stroke-linejoin:round;stroke-dasharray:none;stroke-opacity:1"
       d="m 287.09869,243.80565 c 0.68126,-0.86061 1.31073,-0.61134 1.59133,-0.63155"
       id="path180" /><path
       style="fill:none;stroke:#ffffff;stroke-width:2;stroke-linecap:round;stroke-linejoin:round;stroke-dasharray:none;stroke-opacity:1"
       d="m 290.71405,241.14377 c 0.24957,3.05549 1.4825,5.82626 1.47281,8.83855 -0.0119,3.697 -1.24422,7.89288 -4.78727,9.9104 -1.61162,0.91771 -3.71949,0.89803 -5.52409,0.66295 -2.28439,-0.29759 -4.14772,-1.22456 -6.26065,-2.10308"
       id="path178" /><path
       style="fill:none;stroke:#ffffff;stroke-width:2;stroke-linecap:round;stroke-linejoin:round;stroke-dasharray:none;stroke-opacity:1"
       d="m 288.50441,251.82368 0.36827,0.36827 c -0.48608,2.02174 -1.41627,3.87941 -3.68273,3.99475 -1.9609,0.0998 -2.81758,-0.77827 -4.051,-2.15339 2.06753,-0.78 4.73215,-1.60042 7.36546,-2.20963"
       id="path177" /><path
       style="fill:none;stroke:#ffffff;stroke-width:2;stroke-linecap:round;stroke-linejoin:round;stroke-dasharray:none;stroke-opacity:1"
       d="m 286.66304,248.87749 -2.5779,1.10483"
       id="path176" /><path
       style="fill:none;stroke:#ffffff;stroke-width:2;stroke-linecap:round;stroke-linejoin:round;stroke-dasharray:none;stroke-opacity:1"
       d="m 291.45059,240.77549 c 2.84535,3.28811 5.67584,7.10451 6.62324,11.41646 0.59254,2.69688 0.68763,5.04969 -2.57224,5.15583"
       id="path175" /><path
       style="fill:none;stroke:#ffffff;stroke-width:2;stroke-linecap:round;stroke-linejoin:round;stroke-dasharray:none;stroke-opacity:1"
       d="m 443.54872,237.94638 -0.36828,0.36828"
       id="path173" /><path
       id="path170"
       style="fill:none;stroke:#ffffff;stroke-width:2;stroke-linecap:round;stroke-linejoin:round;stroke-dasharray:none;stroke-opacity:1"
       d="m 345.58671,240.77549 c 2.3e-4,-2.02579 -0.17718,-4.19966 1.25913,-5.81364 2.68438,-3.0165 8.25583,-2.37691 9.78564,1.39436 1.2121,2.98807 -0.0747,7.13436 -3.67931,7.95681 -2.18006,0.4974 -3.87047,-0.34202 -5.52409,-1.69616 m -32.7763,0.36827 c 8.98849,-3.73728 18.7207,-7.65398 28.35703,-7.73373 m -17.30884,9.20682 c 2.92369,-0.95295 10.52683,-3.28879 13.62611,-3.31445" /><path
       style="fill:none;stroke:#ffffff;stroke-width:2;stroke-linecap:round;stroke-linejoin:round;stroke-dasharray:none;stroke-opacity:1"
       d="m 494.37038,251.94075 c 1.66272,-3.2327 -1.27632,-5.48121 -2.61289,-8.47027 -0.65582,-1.46676 -1.23832,-3.24292 -0.11274,-4.5358 1.03805,-1.1924 2.76585,-3.4092 4.20443,-4.43063 1.1629,-0.82571 2.71414,-0.81832 3.72139,-1.64471 0.89193,-0.73171 1.21796,-1.4035 2.53532,-1.48702 5.18832,-0.32897 8.24857,5.83439 7.50381,10.25679 -0.53625,3.1841 -2.37234,5.67548 -3.92428,8.47028 -0.65236,1.17479 -0.83914,2.9315 -1.6538,3.93365 -1.91469,2.35531 -8.03105,-0.93266 -9.6612,-2.09229"
       id="path168" /><path
       style="fill:none;stroke:#ffffff;stroke-width:2;stroke-linecap:round;stroke-linejoin:round;stroke-dasharray:none;stroke-opacity:1"
       d="m 495.84347,250.46766 c 2.63264,1.01556 5.94754,1.83442 8.47029,1.84137"
       id="path167" /><path
       style="fill:none;stroke:#ffffff;stroke-width:2;stroke-linecap:round;stroke-linejoin:round;stroke-dasharray:none;stroke-opacity:1"
       d="m 493.26557,238.68292 c 0.0346,1.62333 0.3475,4.05843 2.2483,5.80968 1.70035,1.56656 3.67706,1.55434 5.8537,1.55578"
       id="path166" /><path
       style="fill:none;stroke:#ffffff;stroke-width:2;stroke-linecap:round;stroke-linejoin:round;stroke-dasharray:none;stroke-opacity:1"
       d="m 500.26275,233.5271 c 3.15371,0.57123 5.23109,3.1723 5.13454,6.26065 -0.0673,2.15049 -1.32719,3.47533 -3.29317,4.41927"
       id="path165" /><path
       style="fill:none;stroke:#ffffff;stroke-width:2;stroke-linecap:round;stroke-linejoin:round;stroke-dasharray:none;stroke-opacity:1"
       d="m 266.03976,255.13814 c 1.52862,-2.4115 2.51293,-6.52044 4.78755,-8.47029 2.4297,3.90927 4.18921,9.41826 4.10328,13.99438 -0.0211,1.11952 -0.0113,1.90477 -0.0852,2.94618 -0.22053,3.09249 -1.8091,6.90672 -1.85927,9.94337 -0.0375,2.26436 1.73444,5.97747 0.41914,8.10201 -2.51165,-1.71547 -4.24518,-3.75709 -5.89237,-5.89237 -0.38828,1.11446 -0.35982,1.12838 -0.73655,2.20964 -2.84369,-2.83793 -3.95042,-7.95513 -3.70516,-11.78473 0.11974,-1.86977 0.69851,-4.03485 1.31708,-5.89237 0.43704,-1.31242 1.7344,-3.27954 1.35203,-4.61988 -0.46755,-1.63892 -3.20124,-3.40869 -3.91375,-5.3235 -0.87156,-2.34226 -1.99876,-4.92766 -2.48641,-7.36545 -0.26825,-1.34101 -0.20738,-2.70113 -0.31883,-4.051 -0.23509,-2.84766 -3.09138,-4.8306 -2.84189,-8.10201 0.32373,-4.24489 5.28326,-8.57911 9.49212,-9.09059 2.25479,-0.27402 4.18436,1.18698 6.26063,1.75184 5.73247,1.55954 11.78077,2.48856 16.00936,7.37854 1.26981,1.4684 2.33565,3.62301 2.79872,5.4843 0.56839,2.2847 0.0839,2.47401 0.34212,4.41928 l -0.73655,-0.73655"
       id="path164" /><path
       style="fill:none;stroke:#ffffff;stroke-width:2;stroke-linecap:round;stroke-linejoin:round;stroke-dasharray:none;stroke-opacity:1"
       d="m 270.82731,246.66785 c 1.33928,-3.93953 5.98619,-7.20642 9.94336,-8.67686 3.92101,-1.457 8.20703,-1.46856 9.20683,1.31141"
       id="path163" /><path
       style="fill:none;stroke:#ffffff;stroke-width:2;stroke-linecap:round;stroke-linejoin:round;stroke-dasharray:none;stroke-opacity:1"
       d="m 275.24659,244.8265 4.05099,-1.84137"
       id="path162" /><path
       style="fill:none;stroke:#ffffff;stroke-width:2;stroke-linecap:round;stroke-linejoin:round;stroke-dasharray:none;stroke-opacity:1"
       d="m 267.51285,275.02484 v 0.73655"
       id="path161" /><path
       style="fill:none;stroke:#ffffff;stroke-width:2;stroke-linecap:round;stroke-linejoin:round;stroke-dasharray:none;stroke-opacity:1"
       d="m 277.76191,247.23642 c 0.33553,-0.34869 0.72697,-0.62549 1.32283,-0.63947"
       id="path160" /><path
       style="fill:none;stroke:#ffffff;stroke-width:2;stroke-linecap:round;stroke-linejoin:round;stroke-dasharray:none;stroke-opacity:1"
       d="m 289.9775,239.3024 c -1.15912,0.57841 -1.81349,0.1824 -4.41927,1.10482"
       id="path159" /><path
       style="fill:none;stroke:#ffffff;stroke-width:2;stroke-linecap:round;stroke-linejoin:round;stroke-dasharray:none;stroke-opacity:1"
       d="m 259.77912,233.04176 c -0.43076,1.7442 -0.4875,2.40755 -1.10482,3.68273"
       id="path158" /><path
       style="fill:none;stroke:#ffffff;stroke-width:2;stroke-linecap:round;stroke-linejoin:round;stroke-dasharray:none;stroke-opacity:1"
       d="m 284.08514,228.25421 c -1.83513,0.97953 -7.13435,1.65842 -9.94338,3.08371 -5.4526,2.7666 -9.46134,7.53974 -11.78473,13.1203"
       id="path157" /><path
       style="fill:none;stroke:#ffffff;stroke-width:2;stroke-linecap:round;stroke-linejoin:round;stroke-dasharray:none;stroke-opacity:1"
       d="m 437.65635,236.47329 -1.47309,2.20963 c 1.33008,0.75683 2.87591,0.71468 4.41898,0.29555 0.91847,-0.24949 1.46971,-0.45484 2.4219,-0.15346 2.34871,0.74337 3.39858,0.30785 5.6804,-1.2469 -1.62689,-1.01009 -5.09995,-1.89833 -7.36546,-1.83568 -0.97759,0.0271 -3.31148,0.95891 -3.87453,-0.13867 -1.79139,-3.49191 3.35054,-7.05021 5.68294,-8.38191 1.35118,-0.77148 2.64456,-2.13497 4.08396,-2.94731 2.54012,-1.43357 5.31454,-2.2044 8.102,-2.46966 2.26672,-0.21572 3.76025,0.28812 5.89237,0.30577 0.20808,-2.29281 1.32461,-4.40746 4.05101,-4.60227 1.98189,-0.14161 4.10889,1.11314 4.88244,3.12947 0.58018,1.51236 0.42794,2.7239 -0.36657,4.0507 -0.57878,0.96661 -1.63334,1.73717 -1.67742,2.94619 -0.097,2.66022 1.61396,5.9331 1.57938,8.83855 -0.0427,3.58839 -2.03327,7.1042 -1.56656,10.6586 0.25274,1.92473 4.00961,2.76322 5.23482,4.44627 2.42802,3.33544 2.96209,7.37178 2.96209,11.04251 -3.21775,-0.43331 -8.0816,-2.37267 -10.98025,-0.72631 -1.57392,0.89392 -2.76944,3.10561 -4.11894,4.37608 -1.22646,1.15465 -2.57658,1.76507 -2.46423,3.34884 0.0868,1.22455 0.93546,2.19337 1.35404,3.31303 1.20767,3.2305 3.24897,6.80463 5.45614,9.5751 0.9767,1.22598 3.17694,3.12191 3.2193,4.77163 0.0403,1.57232 -1.97233,2.16332 -3.14598,2.59383 0.54644,1.60526 3.63975,6.49687 1.04999,7.30492 -1.19247,0.37207 -2.0753,0.25103 -3.25962,0.50667 -1.97435,0.42619 -4.10945,1.5428 -5.52409,2.13177 -0.95969,-1.96009 -1.34144,-4.20796 -2.22923,-6.62891 -1.87091,-5.10177 -3.90672,-9.9227 -4.61138,-15.09919 -0.17595,-1.29256 -0.15606,-2.01144 -0.15658,-3.31446 v -3.31445 c -2.24301,-2.5e-4 -6.21266,0.12507 -9.19063,-2.64611 -1.40916,-1.31129 -1.98498,-4.65116 -2.93936,-5.56757 -1.55479,-1.49289 -5.87702,1.60679 -7.38849,2.57848 -8.22777,5.28946 -15.79139,12.07388 -23.20119,18.425 -2.90493,2.4899 -7.82437,5.60646 -9.69953,8.93546 -1.63083,2.8952 11.50639,5.35351 6.0168,10.31448 -1.63646,-2.25049 -3.46578,-5.82143 -6.62891,-5.9634 -1.52816,-0.0686 -3.48036,1.34258 -4.78755,2.13889 -2.74463,1.67198 -5.31823,3.99966 -6.33963,7.13897 -0.3149,0.96792 -0.53339,1.94265 -0.48394,2.94619 0.0384,0.77802 0.23938,1.53379 0.61438,2.20395 0.82526,1.4749 2.34939,2.45474 3.99955,2.16814 3.33213,-0.57874 4.31671,-4.4289 6.62891,-6.21346 0.13623,1.23936 -0.60017,5.08152 1.47994,4.76539 2.94873,-0.44816 3.98895,-6.98366 5.14898,-9.18467"
       id="path156" /><path
       style="fill:none;stroke:#ffffff;stroke-width:2;stroke-linecap:round;stroke-linejoin:round;stroke-dasharray:none;stroke-opacity:1"
       d="m 448.70454,237.57811 c 3.75347,1.08126 8.08999,4.699 10.66515,7.99686 0.94369,1.20854 2.0396,2.28682 2.53953,3.78787 0.63469,1.90545 -1.30925,2.97429 -1.05167,4.78755 1.17368,-0.96156 1.49437,-1.35368 1.84136,-2.57791"
       id="path155" /><path
       style="fill:none;stroke:#ffffff;stroke-width:2;stroke-linecap:round;stroke-linejoin:round;stroke-dasharray:none;stroke-opacity:1"
       d="m 456.80654,243.83874 c 0.30733,1.69054 0.78932,2.9254 2.57792,2.20964"
       id="path154" /><path
       style="fill:none;stroke:#ffffff;stroke-width:2;stroke-linecap:round;stroke-linejoin:round;stroke-dasharray:none;stroke-opacity:1"
       d="m 456.43827,243.1022 0.73655,0.36828"
       id="path153" /><path
       style="fill:none;stroke:#ffffff;stroke-width:2;stroke-linecap:round;stroke-linejoin:round;stroke-dasharray:none;stroke-opacity:1"
       d="m 461.22582,222.11065 c 2.1088,1.50595 4.6128,3.14526 6.62891,5.15582"
       id="path152" /><path
       style="fill:none;stroke:#ffffff;stroke-width:2;stroke-linecap:round;stroke-linejoin:round;stroke-dasharray:none;stroke-opacity:1"
       d="m 458.64791,271.0909 c 0,0.42251 -0.0481,0.72777 0.0332,1.85046 0.0774,1.07183 0.61704,3.60559 0.96929,4.77845 1.0927,3.63825 4.21609,9.10387 5.62666,11.78473"
       id="path151" /><path
       style="fill:none;stroke:#ffffff;stroke-width:2;stroke-linecap:round;stroke-linejoin:round;stroke-dasharray:none;stroke-opacity:1"
       d="m 451.28245,271.0909 c 1.87348,-0.16358 4.77359,-1.43821 6.62892,-2.20964"
       id="path150" /><path
       style="fill:none;stroke:#ffffff;stroke-width:2;stroke-linecap:round;stroke-linejoin:round;stroke-dasharray:none;stroke-opacity:1"
       d="m 439.12944,257.09657 c -0.43077,2.35527 -0.65936,3.37101 0.71243,5.36241 0.49565,0.71959 1.17452,1.23018 1.86721,1.71803 1.49964,1.05625 3.05582,1.74003 4.78582,2.1207 1.62372,0.35728 2.96423,0.37375 4.78755,0.37396"
       id="path149" /><path
       style="fill:none;stroke:#ffffff;stroke-width:2;stroke-linecap:round;stroke-linejoin:round;stroke-dasharray:none;stroke-opacity:1"
       d="m 460.85755,256.7283 c -2.27203,1.74616 -6.00834,3.73718 -8.102,4.051"
       id="path148" /><path
       style="fill:none;stroke:#ffffff;stroke-width:2;stroke-linecap:round;stroke-linejoin:round;stroke-dasharray:none;stroke-opacity:1"
       d="m 460.48927,254.51867 c 0.0464,1.08587 0.025,1.08722 0.36828,2.20963 l 1.84136,-1.47309"
       id="path147" /><path
       style="fill:none;stroke:#ffffff;stroke-width:2;stroke-linecap:round;stroke-linejoin:round;stroke-dasharray:none;stroke-opacity:1"
       d="m 459.01618,252.6773 h 1.47309"
       id="path146" /><path
       style="fill:none;stroke:#ffffff;stroke-width:2;stroke-linecap:round;stroke-linejoin:round;stroke-dasharray:none;stroke-opacity:1"
       d="m 468.59128,250.46766 c 2.2493,1.10979 2.39745,3.41255 0.3296,5.46016 -2.61691,2.59131 -6.72179,4.39781 -10.27297,5.21976"
       id="path145" /><path
       style="fill:none;stroke:#ffffff;stroke-width:2;stroke-linecap:round;stroke-linejoin:round;stroke-dasharray:none;stroke-opacity:1"
       d="m 467.85473,247.88975 c -1.35185,1.89306 -2.53206,5.19784 -5.15582,4.41928"
       id="path144" /><path
       style="fill:none;stroke:#ffffff;stroke-width:2;stroke-linecap:round;stroke-linejoin:round;stroke-dasharray:none;stroke-opacity:1"
       d="m 448.70454,245.68012 v 0.36826"
       id="path143" /><path
       style="fill:none;stroke:#ffffff;stroke-width:2;stroke-linecap:round;stroke-linejoin:round;stroke-dasharray:none;stroke-opacity:1"
       d="m 447.23145,242.73393 c 1.58898,-0.34445 2.41137,-0.31572 4.41927,0.73655"
       id="path142" /><path
       style="fill:none;stroke:#ffffff;stroke-width:2;stroke-linecap:round;stroke-linejoin:round;stroke-dasharray:none;stroke-opacity:1"
       d="m 438.02462,239.78775 c 0.0682,3.06049 0,4.63846 0,7.36546 0,3.43195 0.0343,6.51716 1.71177,9.57509 1.37212,2.50102 3.87173,4.76125 6.75851,4.77646 1.72407,0.009 3.42759,-0.0184 5.15582,-0.84111 2.13076,-1.01427 3.63993,-2.50554 5.5241,-4.30363"
       id="path141" /><path
       style="fill:none;stroke:#ffffff;stroke-width:2;stroke-linecap:round;stroke-linejoin:round;stroke-dasharray:none;stroke-opacity:1"
       d="m 448.70454,254.15039 c -0.94654,1.23107 -2.01968,2.70456 -3.68273,2.82201 -1.14864,0.0812 -3.11412,-0.93488 -2.93252,-2.33809 0.23669,-1.829 5.21875,-0.89671 6.61525,-0.48392"
       id="path140" /><path
       style="fill:none;stroke:#ffffff;stroke-width:2;stroke-linecap:round;stroke-linejoin:round;stroke-dasharray:none;stroke-opacity:1"
       d="m 442.07562,250.09939 1.84136,0.73655"
       id="path139" /><path
       style="fill:none;stroke:#ffffff;stroke-width:2;stroke-linecap:round;stroke-linejoin:round;stroke-dasharray:none;stroke-opacity:1"
       d="m 439.86599,244.94357 v 0.36827"
       id="path138" /><path
       style="fill:none;stroke:#ffffff;stroke-width:2;stroke-linecap:round;stroke-linejoin:round;stroke-dasharray:none;stroke-opacity:1"
       d="m 438.76116,241.99739 c 1.3578,-0.34474 1.55652,-0.22482 2.57792,0"
       id="path137" /><path
       style="fill:none;stroke:#ffffff;stroke-width:2;stroke-linecap:round;stroke-linejoin:round;stroke-dasharray:none;stroke-opacity:1"
       d="m 443.91698,226.89819 c 2.37685,1.2687 8.38315,2.05942 11.78475,4.00411 4.74603,2.71331 9.794,8.56894 12.153,12.56818"
       id="path136" /><path
       id="path127"
       style="fill:none;stroke:#ffffff;stroke-width:2;stroke-linecap:round;stroke-linejoin:round;stroke-dasharray:none;stroke-opacity:1"
       d="m 543.71896,229.10783 c -1.72606,0.92134 -3.81947,0.89052 -6.26064,1.20853 -3.83181,0.49918 -7.3978,1.21267 -11.04819,1.36938 m -8.47028,57.81882 v 23.93774 l -0.0557,3.31445 0.0555,2.94619 2.6e-4,15.46746 v 7.73374 m -10.67994,-37.19555 c 2.77592,3.1775 7.81586,8.25593 9.94336,11.04819 m 34.98594,-118.58392 v 30.93492 c 0,1.9001 0.018,4.01595 0,5.89237 -0.0102,1.01607 -0.11899,1.92668 -0.10538,2.94618 0.0121,0.92039 0.0955,1.61802 0.10538,2.57791 0.0996,9.67123 0,21.12098 0,30.93492 0,1.55878 0.069,2.70181 0.0512,4.05101 -0.0165,1.25255 -0.0511,2.27277 -0.0512,3.68273 v 27.62047 27.62047 c 0,2.16081 1.05897,8.17162 -0.5905,9.70666 -0.93897,0.87384 -3.41415,0.27448 -4.56532,0.22222 -0.77024,-0.035 -1.41042,-0.15434 -2.20964,-0.24863 -1.42978,-0.16872 -2.42998,-0.0708 -4.05101,-0.11058 -1.03238,-0.0254 -1.91674,-0.2024 -2.94618,-0.30038 -1.68032,-0.1599 -2.88365,-0.0624 -4.78754,-0.0625 -2.34948,-1.5e-4 -4.21201,-0.29387 -6.26065,-0.35775 -1.30206,-0.0406 -2.10092,-0.0102 -3.31445,-0.0102 -2.12502,0 -6.33013,-0.0234 -8.47028,-10e-4 -1.69399,0.0174 -2.60509,-0.0188 -4.41928,0.003 -2.70017,0.0322 -4.66141,0.36686 -7.73372,0.36686 -1.52451,0 -2.33346,-0.0594 -3.68273,0.0329 -1.27935,0.0876 -2.30017,0.31746 -3.68273,0.33392 -1.4935,0.0178 -2.37066,-0.0609 -3.68273,0.0639 -0.97181,0.0925 -1.62535,0.24919 -2.57792,0.29126 -1.16248,0.0514 -1.86953,-0.008 -2.94559,0.11966 -0.83315,0.0989 -1.76267,0.2281 -2.5785,0.26311 m 46.40239,-131.84284 c 4.48144,5.50746 9.19331,10.76951 13.76394,16.09886 2.77409,3.2346 4.95895,5.87513 7.96416,8.9437 m 18.78193,1.84137 c -0.56081,4.4335 -1.76558,11.44158 -2.54834,16.20401 -0.24446,1.48727 -0.32379,3.26871 -0.87469,4.41927 -2.23611,4.67036 -10.86339,11.34022 -14.25408,14.73092 M 577.2318,251.2042 c -2.86985,2.86988 -7.14594,6.77904 -9.20683,8.83855 M 200.4872,318.84929 v 24.30603 m -16.94058,0.0625 c 6.12578,0.43101 12.25615,0.4282 18.37072,0.69611 7.75053,0.58138 15.51994,0.81554 23.27693,1.35301 13.81903,0.80595 27.64038,1.81873 41.43895,2.98392 l 0.99171,0.0387 0.99274,0.0217 m 5.89237,34.61748 18.78192,-0.006 4.051,-0.35749 6.26065,-0.006 m 113.06118,-30.44902 c -32.18704,8.90165 -51.05522,11.1574 -65.55398,12.38971 l -2.5779,0.077 -4.05101,0.30576 m -13.25783,-11.04815 c 2.84693,0.84184 7.47515,0.83887 10.67991,1.26111 4.93266,0.64989 9.9932,0.86109 14.73093,1.42195 4.18773,0.49572 8.89268,1.02903 13.25783,1.335 0.97378,0.0682 1.64989,0.0285 2.5779,0.13809 m 71.81462,17.68903 c 1.65483,-0.39399 7.7344,-0.29248 11.04819,-0.37366 1.23659,-0.0303 2.10294,-0.24695 3.31446,-0.32993 1.49135,-0.1021 2.69807,-0.0329 4.41928,-0.0329 m 43.08793,0.36824 c 1.18135,1.4e-4 2.22481,-0.0234 3.31446,0.10516 1.14923,0.13564 2.05625,0.25669 3.31445,0.26285 1.24149,0.006 2.17829,-0.0286 3.31446,0.10538 1.03562,0.12218 1.8425,0.2468 2.94618,0.2617 2.59427,0.035 5.3668,0.19556 7.73373,0.47485 0.93284,0.11002 1.59566,0.21499 2.57792,0.26311 6.91034,0.33859 13.48302,1.34173 20.255,2.15253 7.33118,0.87773 15.62958,2.80231 22.83293,3.37157 m -242.69327,-0.85358 5.15582,-0.0145 2.57792,-0.29127 c 7.29875,-0.12675 10.24435,-0.6552 16.94055,-0.80056 l 3.31445,-0.30435 46.03552,-2.52505 3.31445,-0.30435 2.94618,-0.0639 3.31447,-0.30435 3.68272,-0.0625 m -237.53744,1.35637 c 13.97323,-7.4e-4 27.26474,1.47954 40.14176,2.19655 2.16786,0.12073 4.29601,0.25457 6.26063,0.48652 0.81359,0.096 1.38343,0.21113 2.20964,0.24863 0.86325,0.0392 1.39156,-7.5e-4 2.20964,0.077 0.99109,0.0944 1.62086,0.24898 2.57791,0.29126 1.04743,0.0463 1.62276,-0.0139 2.57791,0.077 0.97594,0.0929 1.65006,0.25065 2.57791,0.29127 2.7194,0.11908 2.70447,0.0264 5.52409,0.38277 m 308.9824,-37.44668 c 1.62154,0.0696 2.16636,0.25561 3.68273,0.35919 4.48531,0.30632 11.50572,1.76108 15.83574,1.85045 m -76.23251,55.9775 8.10201,-1.04231 4.05101,-0.0625 5.52408,0.0625 2.20964,0.27308 4.41928,0.44897 9.57509,1.79335 m -191.8716,-4.16808 c 2.29402,-0.30891 4.40573,-0.92553 6.62892,-1.13237 1.37373,-0.12781 2.10225,-0.3752 3.68273,-0.32481 1.28995,0.0411 2.03654,0.25601 3.31446,0.34329 3.35076,0.22879 7.37005,1.27812 10.31164,2.21872 M 309.88086,401.115 c -6.60864,-0.76216 -13.3027,-0.73655 -19.92613,-0.26622 -14.60568,2.02641 -29.64257,4.50338 -44.24961,1.134 -7.78591,-1.69295 -15.58686,-3.64708 -23.60288,-3.72459 -5.16265,-0.59811 -10.34458,0.35012 -15.44604,1.07774 -2.06397,0.38555 -4.11342,0.84314 -6.169,1.27004" /><path
       id="path1"
       style="fill:none;stroke:#ffffff;stroke-width:2;stroke-linecap:round;stroke-linejoin:round;stroke-dasharray:none;stroke-opacity:1"
       d="m 424.39852,179.70436 c 3.07681,-0.86401 1.87109,3.60963 -0.36257,4.1462 -2.70282,0.64924 -1.6559,-3.57939 0.36257,-4.1462 m -214.33625,8.03978 h 0.36828 m 187.18093,8.38872 c 1.1351,-0.39224 1.43085,1.50291 0.26999,1.70099 -1.03386,0.17641 -1.12294,-1.40624 -0.26999,-1.70099 m 138.74202,77.53596 v 1.84136 -1.84136 m -40.49581,-72.95836 c 2.26772,-0.56232 1.89605,3.00202 -0.3623,3.33264 -2.00474,0.2935 -1.35275,-2.90735 0.3623,-3.33264 m -263.64477,-0.82405 c 1.88264,-0.44933 3.66454,2.85476 1.37763,3.41675 -1.87455,0.46063 -3.47475,-2.91624 -1.37763,-3.41675 m -28.41128,33.15535 c -1.55995,-3.07523 2.50221,-2.15648 0,0 m 208.81215,3.43153 h 0.36827 m -19.46393,26.44229 c 2.04148,-0.72369 2.66715,1.83797 1.03268,2.6194 -1.98455,0.94878 -2.62258,-2.05579 -1.03268,-2.6194" /></g></svg>
