<?xml version="1.0" encoding="UTF-8" standalone="no"?>
<!-- Created with Inkscape (http://www.inkscape.org/) -->

<svg
   width="401.45575"
   height="249.89861"
   viewBox="0 0 401.45575 249.89861"
   version="1.1"
   id="svg1"
   xml:space="preserve"
   xmlns="http://www.w3.org/2000/svg"
   xmlns:svg="http://www.w3.org/2000/svg"><defs
     id="defs1" /><g
     id="layer1"
     transform="translate(-1063.1012,-374.60928)"><path
       style="fill:none;stroke:#ffffff;stroke-width:2;stroke-linecap:round;stroke-linejoin:round;stroke-dasharray:none;stroke-opacity:1"
       d="m 1222.9703,594.96422 c -8.9313,10.1345 -19.6169,18.1392 -31.2072,24.6051 -2.3434,1.30733 -5.0018,3.04643 -7.8018,3.63518 -4.8795,1.02597 -12.9993,-0.93395 -18.39,-0.93395 -15.3034,0 -31.3578,1.0235 -46.2535,-1.34417 -9.3978,-1.49376 -20.0119,-4.14371 -27.8636,-9.63872 -3.1585,-2.21043 -7.0675,-4.96441 -8.5991,-8.52163 -1.8525,-4.3026 2.1549,-6.39893 5.2554,-8.70996 6.0738,-4.5272 13.6069,-11.47754 20.6191,-13.02364"
       id="path151" /><path
       style="fill:none;stroke:#ffffff;stroke-width:2;stroke-linecap:round;stroke-linejoin:round;stroke-dasharray:none;stroke-opacity:1"
       d="m 1084.7669,600.53694 c 8.5176,5.59944 19.8964,4.31855 29.5354,5.80234 14.9338,2.29883 28.6843,7.38993 43.4672,10.35855"
       id="path150" /><path
       style="fill:none;stroke:#ffffff;stroke-width:2;stroke-linecap:round;stroke-linejoin:round;stroke-dasharray:none;stroke-opacity:1"
       d="m 1168.3577,594.96422 c 2.4457,-2.07075 4.3353,-3.1457 7.2445,-4.45817"
       id="path149" /><path
       style="fill:none;stroke:#ffffff;stroke-width:2;stroke-linecap:round;stroke-linejoin:round;stroke-dasharray:none;stroke-opacity:1"
       d="m 1121.5468,591.06332 c 7.1589,7.15399 16.0115,11.25071 26.1918,9.70325 3.4568,-0.52547 6.7806,-1.20082 10.0309,-2.27295 4.6739,-1.54175 6.3438,-2.59083 10.0309,-4.08667 1.9819,5.00242 5.645,6.36461 10.0309,10.11603 2.3057,1.9721 4.256,4.54409 7.2445,5.02836 4.443,0.71992 8.1954,-6.62014 8.937,-10.12894 0.5011,-2.37084 -2.0302,-3.94281 -3.9215,-4.81936 -4.9668,-2.30198 -10.7503,-1.68223 -14.4891,-4.09699 2.0979,-2.09788 4.2138,-4.6578 7.2446,-6.12999 0.1187,2.21556 -0.7295,3.24132 -2.2291,5.01544"
       id="path148" /><path
       style="fill:none;stroke:#ffffff;stroke-width:2;stroke-linecap:round;stroke-linejoin:round;stroke-dasharray:none;stroke-opacity:1"
       d="m 1212.3822,581.03243 c 8.5545,0 14.9015,-5.55747 22.2908,-5.90813 1.3451,-0.0638 2.1039,0.25129 3.3437,0.27092 1.4222,0.0225 3.5838,-0.39267 4.9561,0.52889 3.4615,2.32457 -1.9077,8.85716 -3.8751,10.50044 -2.8363,2.36902 -6.5769,1.88578 -9.9974,2.63931 -4.9878,1.09877 -10.8517,3.86835 -16.1609,4.22855"
       id="path146" /><path
       style="fill:none;stroke:#ffffff;stroke-width:2;stroke-linecap:round;stroke-linejoin:round;stroke-dasharray:none;stroke-opacity:1"
       d="m 1139.9368,569.32972 c 9.366,-3.10714 18.7333,-6.534 28.4209,-8.47001 5.4211,-1.08341 11.5618,-1.67429 16.7181,0.35085 2.6309,1.03329 4.9375,2.36957 7.2446,4.06604 4.8344,3.55493 8.7719,8.32679 13.3745,12.17999 2.7466,2.29946 5.8515,3.95634 6.9272,7.47674 0.8632,2.82515 -0.1689,5.761 -1.9995,7.78892 -3.5428,3.92471 -10.5619,1.86492 -15.5159,2.79924"
       id="path144" /><path
       style="fill:none;stroke:#ffffff;stroke-width:2;stroke-linecap:round;stroke-linejoin:round;stroke-dasharray:none;stroke-opacity:1"
       d="m 1169.4722,553.16883 c 5.0361,2.91099 13.0273,-1.00506 18.39,-2.55674 9.5616,-2.76666 20.5671,-5.86996 30.65,-7.51543 2.9251,-0.47737 5.531,-0.92362 7.8018,-0.92362 1.8685,0 3.3504,0.17226 5.5727,0.82041 2.3659,0.69008 4.3331,1.95933 5.8126,4.04798 1.8489,2.61003 2.4755,6.20577 1.7234,9.47103 -2.0049,8.70482 -16.4968,18.83721 -23.1396,22.84815"
       id="path142" /><path
       style="fill:none;stroke:#ffffff;stroke-width:2;stroke-linecap:round;stroke-linejoin:round;stroke-dasharray:none;stroke-opacity:1"
       d="m 1211.8249,554.84065 c -3.8117,3.35652 -8.7853,8.17823 -12.8173,12.25998"
       id="path141" /><path
       style="fill:none;stroke:#ffffff;stroke-width:2;stroke-linecap:round;stroke-linejoin:round;stroke-dasharray:none;stroke-opacity:1"
       d="m 1221.8558,551.49701 -9.4736,3.90091 c -0.6081,-2.79173 3.3421,-4.96589 5.5727,-5.57272"
       id="path140" /><path
       style="fill:none;stroke:#ffffff;stroke-width:2;stroke-linecap:round;stroke-linejoin:round;stroke-dasharray:none;stroke-opacity:1"
       d="m 1219.1026,534.22159 h 15.0132"
       id="path139" /><path
       style="fill:none;stroke:#ffffff;stroke-width:2;stroke-linecap:round;stroke-linejoin:round;stroke-dasharray:none;stroke-opacity:1"
       d="m 1201.794,525.86251 c -2.0042,2.0056 -3.7435,4.12315 -5.6476,6.09645 -3.7205,3.85582 -9.7857,10.83905 -15.5287,11.38537 -1.6589,0.15782 -2.4067,-0.38656 -3.9009,-0.76367"
       id="path136" /><path
       style="fill:none;stroke:#ffffff;stroke-width:2;stroke-linecap:round;stroke-linejoin:round;stroke-dasharray:none;stroke-opacity:1"
       d="m 1166.1286,522.51888 c 3.4292,-1.42378 6.1845,-4.05665 8.9163,-5.57272"
       id="path134" /><path
       style="fill:none;stroke:#ffffff;stroke-width:2;stroke-linecap:round;stroke-linejoin:round;stroke-dasharray:none;stroke-opacity:1"
       d="m 1162.2277,504.1289 1.1145,26.19178"
       id="path123" /><path
       style="fill:none;stroke:#ffffff;stroke-width:2;stroke-linecap:round;stroke-linejoin:round;stroke-dasharray:none;stroke-opacity:1"
       d="m 1087.5533,589.94878 c -9.2273,-9.34135 -14.5346,-21.41334 -17.0536,-33.99359 -1.3267,-6.6258 -1.4328,-13.42034 -2.6909,-20.06179 -0.8695,-4.59038 -5.7207,-15.02171 -2.6832,-19.41938 1.653,-2.39301 7.6288,-3.93301 10.1677,-5.10058 9.0554,-4.16442 19.2634,-8.23362 29.5354,-8.35908"
       id="path121" /><path
       style="fill:none;stroke:#ffffff;stroke-width:2;stroke-linecap:round;stroke-linejoin:round;stroke-dasharray:none;stroke-opacity:1"
       d="m 1068.0487,520.28979 c 3.0274,5.01395 7.1226,10.80687 9.1021,16.71816 2.8793,8.59788 2.0652,19.25829 4.5021,27.86359 2.1948,7.75069 8.6579,13.24062 8.6867,21.7336"
       id="path120" /><path
       style="fill:none;stroke:#ffffff;stroke-width:2;stroke-linecap:round;stroke-linejoin:round;stroke-dasharray:none;stroke-opacity:1"
       d="m 1151.6395,488.52529 c -0.1753,5.06907 -3.3298,6.98119 -7.2445,4.45818"
       id="path96" /><path
       style="fill:none;stroke:#ffffff;stroke-width:2;stroke-linecap:round;stroke-linejoin:round;stroke-dasharray:none;stroke-opacity:1"
       d="m 1151.6395,484.06712 c 4.5917,1.02486 11.0296,5.10141 14.0402,10.03089 3.5819,5.86498 7.4002,12.01949 9.9096,18.38997 1.319,3.34847 -0.041,5.49279 2.242,8.91635"
       id="path92" /><path
       style="fill:none;stroke:#ffffff;stroke-width:2;stroke-linecap:round;stroke-linejoin:round;stroke-dasharray:none;stroke-opacity:1"
       d="m 1167.8004,550.93974 c 2.4827,4.84695 -3.4752,7.19921 -7.2445,8.53711 -9.1543,3.24918 -19.6707,3.19305 -27.3063,9.93026 -4.7114,4.15701 -7.883,9.01885 -10.7147,14.41167 -1.4601,2.78091 -2.3257,5.36557 -4.889,7.24454 -5.1176,-6.66964 -7.0674,-15.82091 -7.4664,-23.96269 -0.1004,-2.05019 -1.0123,-3.66268 -1.7698,-5.57272 -1.0091,-2.54437 -1.5547,-4.96999 -1.8344,-7.80181 -1.3509,-13.67828 0.037,-27.37066 1.6692,-41.23812 0.9963,-8.46618 3.2683,-18.72906 9.4118,-25.07723 2.3617,-2.44041 4.3633,-4.03192 7.2342,-5.01545"
       id="path89" /><path
       style="fill:none;stroke:#ffffff;stroke-width:2;stroke-linecap:round;stroke-linejoin:round;stroke-dasharray:none;stroke-opacity:1"
       d="m 1115.9741,517.50343 c 4.0562,6.16383 6.4279,13.82976 10.5882,20.06179 5.3583,-4.52137 10.143,-10.75956 16.1609,-13.9318"
       id="path88" /><path
       style="fill:none;stroke:#ffffff;stroke-width:2;stroke-linecap:round;stroke-linejoin:round;stroke-dasharray:none;stroke-opacity:1"
       d="m 1117.6459,491.86892 c 7.1183,-2.64154 11.688,1.07759 15.3663,7.24454 7.1638,12.01072 10.6099,26.33701 19.1846,37.33721"
       id="path87" /><path
       style="fill:none;stroke:#ffffff;stroke-width:2;stroke-linecap:round;stroke-linejoin:round;stroke-dasharray:none;stroke-opacity:1"
       d="m 1151.0823,479.05167 -2.2291,8.35908"
       id="path83" /><path
       style="fill:none;stroke:#ffffff;stroke-width:2;stroke-linecap:round;stroke-linejoin:round;stroke-dasharray:none;stroke-opacity:1"
       d="m 1127.6768,475.15077 c 0.1532,12.5429 6.2004,24.02701 15.0464,32.87904"
       id="path74" /><path
       style="fill:none;stroke:#ffffff;stroke-width:2;stroke-linecap:round;stroke-linejoin:round;stroke-dasharray:none;stroke-opacity:1"
       d="m 1170.0295,472.36441 c 0,3.76954 0.3078,8.69919 1.4422,12.81725 0.9062,3.28972 0.854,7.05573 0.7869,10.58817"
       id="path70" /><path
       style="fill:none;stroke:#ffffff;stroke-width:2;stroke-linecap:round;stroke-linejoin:round;stroke-dasharray:none;stroke-opacity:1"
       d="m 1165.5713,471.24986 c -0.5677,2.11333 -1.2999,3.84225 -2.5438,5.57272 -1.3396,1.8635 -2.9556,3.34069 -5.258,3.5139 -4.993,0.37563 -9.4914,-3.54303 -12.8172,-6.85753"
       id="path68" /><path
       style="fill:none;stroke:#ffffff;stroke-width:2;stroke-linecap:round;stroke-linejoin:round;stroke-dasharray:none;stroke-opacity:1"
       d="m 1158.8841,472.36441 c 1.3263,0.74466 2.8497,0.79963 4.4581,0.55727"
       id="path67" /><path
       style="fill:none;stroke:#ffffff;stroke-width:2;stroke-linecap:round;stroke-linejoin:round;stroke-dasharray:none;stroke-opacity:1"
       d="m 1138.265,464.5626 c 0,7.79477 4.202,14.09076 4.4143,21.7336 0.1179,4.24332 -2.1829,12.12121 -2.1852,15.60362"
       id="path55" /><path
       style="fill:none;stroke:#ffffff;stroke-width:2;stroke-linecap:round;stroke-linejoin:round;stroke-dasharray:none;stroke-opacity:1"
       d="m 1156.9713,454.50729 c 2.1218,-0.78047 4.2251,-0.83487 6.6873,0"
       id="path47" /><path
       style="fill:none;stroke:#ffffff;stroke-width:2;stroke-linecap:round;stroke-linejoin:round;stroke-dasharray:none;stroke-opacity:1"
       d="m 1139.9342,462.89078 c -7.4372,-1.30434 -5.0404,-16.96708 1.6718,-8.91635"
       id="path45" /><path
       style="fill:none;stroke:#ffffff;stroke-width:2;stroke-linecap:round;stroke-linejoin:round;stroke-dasharray:none;stroke-opacity:1"
       d="m 1167.7978,440.59991 c 1.4472,3.59113 3.3778,7.21106 2.5232,11.14544 -0.598,2.75294 -2.8503,5.05919 -2.807,7.8018 0.062,3.92007 4.6482,7.58735 -3.1395,8.33254"
       id="path40" /><path
       style="fill:none;stroke:#ffffff;stroke-width:2;stroke-linecap:round;stroke-linejoin:round;stroke-dasharray:none;stroke-opacity:1"
       d="m 1166.126,439.48536 c -4.8346,8.65869 -12.6182,14.9214 -22.8482,15.04635"
       id="path38" /><path
       style="fill:none;stroke:#ffffff;stroke-width:2;stroke-linecap:round;stroke-linejoin:round;stroke-dasharray:none;stroke-opacity:1"
       d="m 1108.727,497.44164 c 0.038,-11.20014 7.3766,-18.04223 10.6655,-27.86359 2.8807,-8.60241 1.7127,-18.08154 4.5717,-26.74905 1.7134,-5.19431 4.741,-10.11743 9.2827,-13.43386 3.2215,-2.35239 7.0362,-4.23315 11.1455,-4.38852 3.126,-0.1182 5.9161,0.25343 8.9163,1.10422"
       id="path23" /><path
       style="fill:none;stroke:#ffffff;stroke-width:2;stroke-linecap:round;stroke-linejoin:round;stroke-dasharray:none;stroke-opacity:1"
       d="m 1156.6524,427.78265 c 4.2164,2.52635 6.2924,5.44185 8.359,8.35908"
       id="path10" /><path
       style="fill:none;stroke:#ffffff;stroke-width:2;stroke-linecap:round;stroke-linejoin:round;stroke-dasharray:none;stroke-opacity:1"
       d="m 1157.2096,426.11084 c 4.8135,1.07436 9.074,4.11996 12.4045,7.80181 4.7157,5.21334 5.3839,15.27086 4.3137,20.61906"
       id="path9" /><path
       style="fill:none;fill-rule:evenodd;stroke:#ffffff;stroke-width:2.4;stroke-linecap:round;stroke-linejoin:round;stroke-dasharray:none;stroke-opacity:1"
       d="m 1160.4206,458.47241 -0.345,1.08801"
       id="path2" /><path
       id="path1-6"
       style="fill:none;fill-rule:evenodd;stroke:#ffffff;stroke-width:2;stroke-linecap:round;stroke-linejoin:round;stroke-dasharray:none;stroke-opacity:1"
       d="m 1152.7541,539.23703 c 10.558,-7.05542 24.0116,-11.10388 32.647,-20.65738 1.9416,-2.14804 2.5112,-5.19141 3.8819,-7.77086 1.1931,-2.24513 2.9111,-3.91877 4.0079,-6.31554 0.6519,-1.42444 1.3405,-3.34694 2.285,-3.5271 1.1328,-0.21606 1.6882,1.96939 1.2945,3.20816 -0.974,3.06511 -2.4729,4.7096 -2.2214,5.6081 0.7405,2.6455 7.9525,1.32519 11.6272,0.39204 3.8501,-0.97768 8.77,-4.77688 9.3911,-3.12406 0.5041,1.34157 -2.6211,3.59033 -4.0751,4.46185 -2.1232,1.27258 -6.3476,3.33466 -8.0278,3.70346 1.6821,-0.35966 3.1595,-1.1652 4.6695,-1.90353 2.6801,-1.31042 5.5952,-3.13543 7.756,-4.46609 0.6949,-0.42798 1.9896,-1.20242 2.5132,-0.52545 0.6297,0.81412 -0.7342,2.09094 -1.3714,2.76641 -0.98,1.03898 -2.0834,1.74309 -3.0846,2.58463 -2.7065,2.275 -6.2827,3.75874 -9.1129,4.78117 2.3728,-0.80989 3.6845,-1.47265 5.474,-2.32628 2.1403,-1.02098 5.8279,-4.69585 6.2824,-3.33772 1.0429,3.11632 -8.2409,6.60044 -10.5937,7.85068 3.3607,-1.44412 6.6453,-3.58349 7.1447,-2.94117 0.883,1.13555 -2.1613,2.86376 -3.4446,3.7185 -2.1379,1.42417 -5.2617,2.9453 -8.1583,2.99657 -3.9257,0.0695 -6.8856,0.52128 -9.9167,1.99878 -7.4585,3.63558 -13.33,11.18775 -18.9061,16.1917 -4.4403,3.98454 -9.2851,8.03672 -14.4891,10.96999 -2.0004,1.12754 -4.2828,2.44436 -6.6873,2.19297 -8.7452,-0.91434 -15.0954,-13.65921 -20.0618,-19.87346" /><path
       id="path163"
       style="fill:none;fill-rule:evenodd;stroke:#ffffff;stroke-width:2;stroke-linecap:round;stroke-linejoin:round;stroke-dasharray:none;stroke-opacity:1"
       d="m 1215.8935,506.32969 c 2.3531,1.08651 6.0998,-2.40976 8.9591,-4.15497 0.6092,-0.37186 1.6848,-0.81796 1.9058,-0.21794 0.732,1.98673 -6.1624,5.93667 -7.0817,6.62356 1.4787,-0.74295 5.6316,-3.76838 7.9886,-5.20308 0.2552,-0.15531 0.8226,-0.48098 1.1399,-0.0613 0.3174,0.41968 -0.023,1.62679 -0.7578,2.62715 -0.5023,0.68338 -1.1394,1.28334 -1.8176,1.83827 0.086,-1.01763 -0.1008,-2.21833 -0.729,-2.09852 -0.5757,0.10984 -1.4056,2.33859 -2.1508,3.481 -0.42,0.64387 -1.3069,1.90024 -1.3069,1.90024 0.01,-0.029 1.7796,-2.55102 2.3806,-3.80427 0.2756,-0.5746 0.6265,-1.8351 1.2375,-1.56944 1.7304,0.75237 -0.5185,4.83539 -0.8606,5.59484 -0.4573,1.01061 -1.204,2.07065 -2.4119,3.05056 -0.08,-1.07671 -0.115,-2.29028 -0.36,-3.22527 -0.1345,-0.51319 -0.3116,-1.4678 -0.8679,-1.42996 -1.3283,0.0904 -1.5346,2.50065 -1.5907,3.66356 -0.1177,2.44314 -1.8693,2.13681 -2.4924,2.00903 3.7444,0.54311 1.6893,-5.19918 4.0775,-5.72324 0.5589,-0.12266 0.8917,0.89018 0.9178,1.46618 0.078,1.73261 0.5712,4.07734 -0.5604,5.55477 -1.7724,2.31402 -5.5471,2.0175 -8.1711,3.11393 m -10.4641,-10.18565 c 2.2535,-3.33572 5.052,-6.24061 6.7004,-8.37028 1.316,-1.70035 1.6871,-2.98341 2.0122,-3.03329 0.7892,-0.12104 2.0298,2.08771 1.1703,3.69728 -1.222,2.28855 -1.7973,3.54436 -2.4211,4.68198" /><path
       id="path167"
       style="fill:none;fill-rule:evenodd;stroke:#ffffff;stroke-width:2;stroke-linecap:round;stroke-linejoin:round;stroke-dasharray:none;stroke-opacity:1"
       d="m 1260.3049,445.61536 c 2.1895,-0.9804 2.8841,-1.38099 5.0155,-1.37771 2.2751,0.003 4.8672,1.24519 6.6021,3.08564 4.9453,5.24625 9.16,16.58527 11.068,23.3693 1.1752,4.1785 3.0225,11.412 7.0278,14.14852 2.0763,1.4185 6.5017,-0.1785 8.7384,-0.54696 3.1572,-0.52011 9.5854,-1.57736 14.3928,-2.26869 5.5953,-0.80465 11.5716,-1.41388 16.5294,-2.36619 21.3072,-1.77269 31.6273,3.47254 25.5133,9.16813 -4.2821,3.98914 -21.9994,-2.59192 -25.5259,-1.19945 -8.4796,1.83197 -16.2758,5.86539 -24.2197,8.51339 -5.8762,1.9587 -14.806,6.00484 -21.1764,4.37045 -7.4113,-1.90144 -10.9729,-11.55451 -15.6036,-17.00195 m 45.4865,-12.67044 c -0.833,3.68686 -1.3587,6.72875 -1.3123,8.82109 m -1.6715,-8.90477 c -1.0881,4.74042 -1.0912,6.31902 -1.166,9.34151 m -1.8258,-9.42519 c -0.8485,3.3535 -1.1717,6.85521 -1.051,9.84559 m 153.239,-70.56768 c -26.4469,-8.46878 -53.9553,-15.75331 -80.8044,-22.64175 -7.133,-1.83004 -14.0512,-3.89356 -21.1763,-5.94423 -4.2881,-1.23411 -5.7936,-1.15315 -8.9164,-3.17851 3.251,-1.0587 7.9696,-1.11268 12.8173,-1.11455 9.1815,-0.003 18.7982,-0.68468 27.8636,-1.40865 5.8035,-0.46348 12.6859,2.34301 18.3899,3.7074 16.7735,4.01214 34.7016,10.09908 51.8263,12.19032 m -113.6834,-13.37452 h 2.7863 m -60.1853,3.9009 c -2.0348,3.18054 -3.3509,2.60346 -6.6873,3.34363 m 7.8018,-0.55727 c 2.7829,-1.42355 5.2717,-2.59779 8.3591,-2.75024 5.3151,-0.26246 10.3451,2.68357 13.9318,6.1042 3.589,3.42283 9.3166,6.5456 12.26,8.34875 -1.1014,1.71819 -1.4563,2.09128 -2.7864,3.9009 0.8717,0.52016 2.648,0.73503 3.3281,1.93498 1.8596,3.28077 -4.0661,7.38705 -6.6717,8.09592 m 31.2072,-26.19178 v 37.33721 m -73.5599,-2.78636 c 1.1921,-6.34359 -1.7666,-13.22299 -1.0371,-19.50451 0.6339,-5.45883 4.4634,-10.36412 9.3962,-11.70271 m 6.6873,23.96269 c 1.1602,-3.81288 4.6122,-3.29016 7.1335,-5.69398 1.4035,-1.33811 1.5704,-2.666 2.3401,-4.33691 3.8978,2.61534 6.8646,5.36252 11.7027,5.98035 2.8241,0.36064 5.2207,-0.69566 7.8018,-1.52218 m -35.6654,9.47362 c -6.7767,-5.98223 3.2625,-14.16759 5.0154,-6.68726 m 42.91,-3.34363 h 16.7181 m -32.3217,3.9009 c -1.416,3.93038 -3.5103,6.26749 -5.4515,10.0309 -1.9922,3.86233 1.045,8.25838 -5.1367,8.35907 m -2.7864,-14.48906 5.5728,1.67181 m -27.8636,1.67182 -3.3437,2.22908 m 27.7451,-0.99604 -0.6233,0.62331 m -26.5645,3.15909 c -1.5547,2.52103 -7.5903,8.3074 -6.7234,11.14803 1.7382,5.69537 8.3619,10.85965 13.9679,11.98908 2.517,0.50707 3.8682,-0.58851 4.4582,-3.07532 m 167.7388,22.29088 c -0.9158,1.07298 -1.9584,3.15525 -3.4287,3.55778 -2.1713,0.59444 -6.2512,-1.77432 -8.274,-2.55161 -5.3603,-2.05976 -10.7803,-3.84573 -16.1608,-5.91325 -21.0408,-8.08512 -43.4666,-15.4847 -64.6436,-23.62216 -7.6557,-2.94178 -15.3308,-4.83757 -20.619,-7.69344 0.5832,-0.99301 1.0527,-2.68559 3.3461,-2.47677 3.3418,0.30429 7.949,2.61582 11.1429,3.82094 8.764,3.3068 18.4528,6.65069 27.3063,9.61551 11.4894,3.84748 23.5072,8.52061 35.1082,12.44574 7.33,2.48009 15.6973,5.43133 22.8481,8.12946 5.3989,2.03708 15.171,3.30557 17.9049,9.14597 1.7613,3.76244 0.7148,7.01478 -1.0526,10.58817 -3.8196,7.72262 -7.2565,16.38051 -12.3941,23.40542 m -163.2807,-75.78898 c 2.57,3.79575 5.4918,9.75245 10.5882,9.98445 3.9808,0.18122 6.8568,-4.024 9.4736,-6.64082 m -6.13,-1.11454 2.7864,1.67181 m 43.4672,-1.67181 c 0.6276,1.62292 2.9331,3.60725 1.9143,7.24453 -0.8117,2.89801 -2.4774,5.64949 -3.6713,8.35908 -0.8546,1.93969 -1.6992,3.70215 -2.7219,5.57272 -0.8428,1.5417 -3.8645,6.02045 -2.3787,8.17849 1.4095,2.04694 5.2582,3.13731 7.4149,4.21566 5.681,2.8405 11.7063,5.70271 17.2754,8.54741 15.9421,8.14323 32.8715,16.42466 49.0399,24.3342 7.2718,3.55732 14.7274,8.81249 22.2909,11.0087 m -178.8817,-37.89449 8.3591,17.27543 17.2754,-12.25998 m -12.2626,-42.90994 c -2.5348,1.72311 -5.7746,3.76557 -8.359,6.16353 -4.9122,4.55781 -8.3658,9.74247 -11.2796,15.57008 -3.5652,7.13034 -5.9867,15.14334 -8.2249,22.84815 -3.0487,10.49454 -4.2496,20.63933 -3.9448,31.76449 0.094,3.4201 -1.8928,6.59419 -1.548,10.0309 0.3018,3.00884 2.4004,4.81235 2.6703,7.8018 0.1849,2.04917 -0.7192,6.157 1.2719,7.27291 3.2404,1.81606 10.0463,-2.86648 12.696,-4.51234 8.3254,-5.17129 15.3298,-11.9415 24.52,-15.29918 4.5799,-1.67331 13.3794,-2.24967 16.7181,-4.17954 l -2.7863,-4.45818 m 0,-69.65898 -3.3437,6.12999 m 62.9717,-4.45818 12.8173,4.68004 25.0772,9.6981 66.8727,25.74544 m -133.7453,-29.53541 -7.2445,6.68726 m -11.1455,-16.71816 c 3.4388,0.97518 7.486,1.1913 10.5882,2.45871 5.2847,2.15914 10.4026,1.58606 15.6036,4.1976 2.4875,1.249 5.0584,3.30098 4.8245,6.16095 -0.6594,8.06238 -11.1986,9.45068 -15.779,14.19754 -1.6304,1.6896 -1.1531,3.70657 -1.3803,5.86424 -0.3853,3.65783 -1.597,6.83732 -1.597,10.58817 m -0.5573,-40.12358 c -0.051,4.20158 -1.6697,8.50844 -2.7863,12.81726 l 2.2291,1.11454 c -8.0707,8.17041 -11.1455,15.99882 -11.1455,27.30632 m 30.65,-27.30632 c 2.8848,-0.44232 4.3839,-1.52068 6.13,-2.22909 m -27.8636,1.11455 c -3.1581,4.18867 -9.0018,5.14825 -11.7027,7.24453 -0.4562,-1.85208 0.071,-2.98399 1.1145,-6.12999 m -2.2291,6.68726 c -2.3113,6.03 -4.8293,14.40182 -6.13,21.17634 m 44.0245,-20.61906 0.5573,6.12999 m -18.3874,1.67181 c 4.5701,-1.15338 12.1468,-1.52915 16.7182,-1.67181 m 120.928,2.22908 c 3.3819,4.85382 0.136,8.74594 -2.3891,13.37453 -3.5552,6.51713 -7.9289,16.03026 -12.1,21.7336 m -114.2407,-33.43631 15.6036,-1.11454 m -11.7027,3.34363 16.1609,-1.11455 m -28.9782,1.11455 8.3591,5.57272 m 9.4736,-3.34363 15.0464,-1.11455 m 1.6718,3.9009 5.0154,-0.55727 m -2.229,2.78636 6.6872,-0.55727 m -3.9009,2.78636 8.3591,-0.55727 m -5.0155,5.01545 11.7028,-1.11455 m -12.26,3.9009 17.2754,-1.11454 m -10.5882,5.01545 17.8327,-1.67182 m 3.9009,2.22909 -17.8327,1.67182 m 3.9009,2.78635 19.5046,-1.67181 m -40.1236,1.11454 11.7027,7.7786 16.1609,10.24243 12.8172,8.17075 m -13.3745,-22.29087 c 5.6738,0 12.9188,-0.95606 18.9472,-1.67182 m -15.0463,4.45818 19.5045,-1.67182 m -15.0463,4.45818 20.619,-2.22909 m -79.6898,-15.04634 c 4.6501,1.64678 13.0431,8.08629 17.8327,11.12222 15.3891,9.75476 30.7174,20.82408 46.8108,29.55862 1.8464,-5.66975 -1.0107,-13.15523 4.4685,-17.6521 3.8374,-3.1494 8.7159,-2.52234 13.3642,-3.19658 9.4274,-1.36749 21.6335,-0.34785 30.65,-3.71514 6.1304,-2.28946 8.5373,-8.56179 11.7027,-13.88794 m -135.9744,2.78636 c 17.5743,13.71133 37.0007,25.21214 55.1699,38.12412 5.3405,3.79522 15.5557,11.909 20.6191,13.70217 0.9763,-2.99809 0.5573,-11.55594 0.5573,-15.60361 m 59.6281,-27.8636 c -8.3696,10.30785 -25.096,8.54185 -37.3372,9.95865 -4.4692,0.51728 -9.7515,0.41595 -13.2972,3.27139 -2.0838,1.67818 -2.6697,3.72458 -3.0908,6.27448 -1.1773,7.13011 -0.3302,23.04544 -0.3302,27.86359 -2.8711,-0.63499 -3.9312,-1.85127 -6.13,-3.9009 m -62.9717,-39.5663 v 12.25998 m -38.4518,-8.91635 c 6.0885,1.34246 16.4544,5.16493 22.8482,7.69087 5.2691,2.08166 10.6066,4.0551 15.6036,7.03554 4.7357,2.82464 8.3195,6.33605 8.3591,12.02264 0.021,3.05659 -0.1947,5.09367 -1.6719,7.8018 m -55.7271,-30.64995 c 6.4597,2.143 15.5949,5.86387 22.2908,8.17075 8.1369,2.80333 18.4735,5.26272 24.4426,11.89362 5.3536,5.94721 8.0639,13.95071 11.3828,21.17375 3.6315,7.9034 7.1157,16.38095 10.5133,24.51996 1.7969,4.3043 3.3194,8.09414 5.3509,12.25998 0.8379,1.71818 2.0721,3.66323 2.2961,5.57272 0.5459,4.65257 -8.8991,7.92815 -12.1903,8.35908 m -38.4517,-50.15447 c -3.0498,5.13761 -5.8698,14.12282 -8.2482,20.06179 -0.7576,1.89183 -2.6078,4.82429 -1.8085,6.67694 1.2778,2.96185 6.1642,5.24252 8.9421,6.53506 1.6475,0.76653 4.2446,1.99896 6.0939,1.49379 3.507,-0.95807 5.6916,-9.37305 6.7234,-12.4767 m -77.4608,-45.13903 c 10.5091,12.95178 32.3582,12.7818 47.9254,14.90186 5.7123,0.77795 13.5321,1.43347 18.3899,4.21824 4.9545,2.84014 6.2928,8.86044 8.519,13.75895 6.3906,14.0612 17.739,26.99262 24.9173,40.68084 m 59.0709,-55.72719 c 8.1071,-1.52902 17.8081,-1.89465 26.1917,-3.114 8.8978,-1.29417 18.7234,-2.40208 27.8636,-3.01599 m -156.5934,39.56631 c -2.163,2.66585 -8.43,7.05808 -6.9039,11.70271 1.1987,3.64846 5.4102,5.71596 7.9411,8.39261 2.5941,2.74361 3.649,5.99561 5.9158,8.88023 2.5782,3.28078 5.7265,3.67616 9.7652,4.03766 1.7318,0.15499 4.2902,0.22159 4.9561,-1.83952 0.7052,-2.18251 -5.2248,-4.68079 -6.4473,-6.12999 -3.1357,-3.71705 -4.581,-11.39174 -4.6388,-16.12735 m 48.4827,8.35908 c 4.2439,6.29335 11.8299,9.91455 18.9472,12.438 2.2177,0.7863 8.0842,1.48206 8.857,3.80802 1.1599,3.49103 -7.2162,4.84113 -9.4143,4.91999 -5.3126,0.19062 -9.9231,-2.39664 -15.0463,-2.55674 -4.2228,-0.13195 -8.9619,1.63884 -12.1413,-1.93497 -2.2082,-2.48203 -1.7905,-6.22899 -1.7905,-9.42977" /></g><path
     id="path44"
     style="fill:none;fill-rule:evenodd;stroke:#ffffff;stroke-width:0.785897px;stroke-linecap:round;stroke-linejoin:round;stroke-opacity:1"
     d="m 161.786,110.01556 c -0.35198,3.59887 -1.07268,4.773 -2.04919,5.73079 m -0.38904,-6.29246 c 0.79342,0.9861 0.69646,2.67016 0.27786,4.02892 m -22.74167,-8.59176 c -0.48692,0.80661 -0.91034,1.32359 -0.27786,3.05642 m 0.63608,-7.87328 c -1.31466,1.7912 -3.63114,4.27658 -2.22286,8.75248 m 7.49602,-5.431 8.01607,4.35159 0.0175,9.75702 m -5.2931,-15.52691 8.04089,4.27631 -0.0156,9.8357 m -5.44601,-15.48971 8.14051,4.25412 -0.008,9.82269 m -16.13898,-0.0401 8.04903,4.32164 8.07925,-4.25344 m -16.12828,-3.31726 8.06199,4.34757 8.06629,-4.27937 m -16.12828,-3.30821 8.01549,4.2666 8.11279,-4.19841 m -16.19427,6.41051 -0.0299,-9.80712 8.12447,-4.2094 m -5.56994,15.3395 -0.009,-9.77011 8.22325,-4.2011 m -5.35247,15.50819 -0.0657,-9.7695 8.13636,-4.27277 m -5.35329,5.74822 0.006,9.72732 m -8.04391,-14.06347 8.04215,4.32995 7.99342,-4.30035" /></svg>
