<?xml version="1.0" encoding="UTF-8" standalone="no"?>
<!-- Created with Inkscape (http://www.inkscape.org/) -->

<svg
   width="400.89911"
   height="297.88739"
   viewBox="0 0 400.89911 297.88739"
   version="1.1"
   id="svg1"
   xml:space="preserve"
   xmlns="http://www.w3.org/2000/svg"
   xmlns:svg="http://www.w3.org/2000/svg"><defs
     id="defs1" /><g
     id="layer1"
     transform="translate(-866.55133,-472.45978)"><path
       style="fill:none;stroke:#ffffff;stroke-width:2;stroke-linecap:round;stroke-linejoin:round;stroke-dasharray:none;stroke-opacity:1"
       d="m 891.81389,763.83294 0.55142,5.51422"
       id="path119" /><path
       style="fill:none;stroke:#ffffff;stroke-width:2;stroke-linecap:round;stroke-linejoin:round;stroke-dasharray:none;stroke-opacity:1"
       d="m 1090.8772,756.11304 c 0.073,3.54059 0.5514,9.10954 0.5514,13.23412"
       id="path118" /><path
       style="fill:none;stroke:#ffffff;stroke-width:2;stroke-linecap:round;stroke-linejoin:round;stroke-dasharray:none;stroke-opacity:1"
       d="m 1039.595,767.14148 c 4.8499,0 13.9294,-1.08675 19.2997,-2.41203 10.31,-2.54437 20.5006,-6.78791 30.8797,-8.97425 4.7672,-1.00419 9.6582,-1.84785 14.3369,-1.84785"
       id="path117" /><path
       style="fill:none;stroke:#ffffff;stroke-width:2;stroke-linecap:round;stroke-linejoin:round;stroke-dasharray:none;stroke-opacity:1"
       d="m 869.75701,753.35593 c -0.0837,4.056 -1.34536,11.3599 -2.20569,15.99123"
       id="path116" /><path
       style="fill:none;stroke:#ffffff;stroke-width:2;stroke-linecap:round;stroke-linejoin:round;stroke-dasharray:none;stroke-opacity:1"
       d="m 1040.1464,730.19621 -2.2057,17.09408"
       id="path114" /><path
       style="fill:none;stroke:#ffffff;stroke-width:2;stroke-linecap:round;stroke-linejoin:round;stroke-dasharray:none;stroke-opacity:1"
       d="m 1099.7,723.02772 c 8.9917,3.04192 17.57,6.51123 27.0196,8.02966 18.6719,3.00031 36.5533,-0.1446 54.0394,-6.92682"
       id="path113" /><path
       style="fill:none;stroke:#ffffff;stroke-width:2;stroke-linecap:round;stroke-linejoin:round;stroke-dasharray:none;stroke-opacity:1"
       d="m 1025.258,720.27061 c 0.039,14.25421 9.3618,26.24003 10.477,40.2538"
       id="path112" /><path
       style="fill:none;stroke:#ffffff;stroke-width:2;stroke-linecap:round;stroke-linejoin:round;stroke-dasharray:none;stroke-opacity:1"
       d="m 1048.9691,720.82203 4.4114,-3.30853 c 1.0225,10.0687 -8.4857,21.15732 -11.7496,30.32821 -2.2851,6.42047 -2.2998,15.44624 -2.5873,21.50545"
       id="path111" /><path
       style="fill:none;stroke:#ffffff;stroke-width:2;stroke-linecap:round;stroke-linejoin:round;stroke-dasharray:none;stroke-opacity:1"
       d="m 1042.3521,719.71919 c 5.2003,-15.23756 13.3602,-37.62906 30.8796,-42.45949"
       id="path109" /><path
       style="fill:none;stroke:#ffffff;stroke-width:2;stroke-linecap:round;stroke-linejoin:round;stroke-dasharray:none;stroke-opacity:1"
       d="m 1029.6694,650.79144 c 9.0053,6.54228 19.8984,10.92996 29.7768,15.56108 7.2742,3.41029 14.5603,6.6239 20.3809,12.56952 11.5185,11.76603 14.0656,31.01691 17.7948,46.31137 1.7584,7.21131 4.0608,14.30898 5.8683,21.50545 0.68,2.70761 1.9274,6.11451 0.1676,8.72064 -2.1078,3.12158 -7.1565,4.45988 -10.5749,5.61634"
       id="path108" /><path
       style="fill:none;stroke:#ffffff;stroke-width:2;stroke-linecap:round;stroke-linejoin:round;stroke-dasharray:none;stroke-opacity:1"
       d="m 1032.4265,631.49167 c 0.5456,6.85653 2.661,14.9656 6.0656,20.95404"
       id="path107" /><path
       style="fill:none;stroke:#ffffff;stroke-width:2;stroke-linecap:round;stroke-linejoin:round;stroke-dasharray:none;stroke-opacity:1"
       d="m 1025.258,630.38883 c 0.5743,4.52066 3.993,15.61113 4.4114,20.40261 l -14.337,-10.47701"
       id="path106" /><path
       style="fill:none;stroke:#ffffff;stroke-width:2;stroke-linecap:round;stroke-linejoin:round;stroke-dasharray:none;stroke-opacity:1"
       d="m 1037.9407,628.18314 c 1.8476,9.80639 3.8293,20.45088 8.8228,29.22537"
       id="path105" /><path
       style="fill:none;stroke:#ffffff;stroke-width:2;stroke-linecap:round;stroke-linejoin:round;stroke-dasharray:none;stroke-opacity:1"
       d="m 1019.1924,613.29475 c -1.1815,4.46378 -2.5754,10.1151 -2.7571,14.33697"
       id="path104" /><path
       style="fill:none;stroke:#ffffff;stroke-width:2;stroke-linecap:round;stroke-linejoin:round;stroke-dasharray:none;stroke-opacity:1"
       d="m 956.33026,592.34072 c -3.3e-4,3.21336 -0.30516,7.91161 -0.87693,11.57986 -1.07389,6.89038 -2.44412,13.65944 -5.60609,19.85119 -2.25184,4.4095 -4.96483,7.03608 -8.40538,10.47701"
       id="path103" /><path
       style="fill:none;stroke:#ffffff;stroke-width:2;stroke-linecap:round;stroke-linejoin:round;stroke-dasharray:none;stroke-opacity:1"
       d="m 1049.5206,590.13503 c -0.6649,5.14822 -2.441,11.51253 -4.568,16.54266 -2.1891,5.1772 -4.1021,10.42634 -6.3865,15.43981 -1.0339,2.2692 -2.3812,4.26482 -4.4874,5.78441 -5.7336,4.13658 -11.8515,-1.49445 -16.9167,1.00753 -2.6394,1.30369 -1.8293,8.87967 -1.8296,11.40499 -5.3197,-0.90128 -11.3295,-2.43642 -17.09407,-2.18398 -8.02066,0.3512 -16.36577,2.08486 -24.26257,2.18185 -1.58385,0.0195 -2.90908,-0.0177 -4.41138,0.15955 -1.54337,0.1821 -2.76907,0.37983 -4.41137,0.39144 -1.92865,0.0137 -3.21077,-0.18471 -4.9628,-0.39144 -1.34045,-0.15816 -2.50897,-0.11779 -3.85995,-0.17913 -2.98143,-0.13533 -6.44866,-0.7154 -9.37418,-1.44791 -2.845,-0.71234 -6.45819,-3.32736 -9.37417,-3.1528 -4.35801,0.26088 -9.27071,5.80832 -12.6827,8.24666 -9.78069,6.98962 -22.01245,11.76017 -30.27674,20.64044 -3.38266,3.63481 -6.15726,8.32589 -8.15261,12.68059 -7.27237,15.87135 -10.50649,33.38997 -14.57864,50.1794 -1.4756,6.08389 -6.09767,17.27343 -3.06176,23.15928 3.47627,6.73961 15.13108,11.60477 22.43301,12.68314 -0.091,-4.4103 -1.66422,-11.95735 -2.43374,-16.54266 -0.30447,-1.81413 -0.41523,-3.25037 -1.08371,-4.96279 -0.64297,-1.64712 -1.37431,-2.73753 -1.90912,-4.41138 -1.67488,-5.24203 -3.58926,-11.8377 -5.60187,-17.09408"
       id="path102" /><path
       style="fill:none;stroke:#ffffff;stroke-width:2;stroke-linecap:round;stroke-linejoin:round;stroke-dasharray:none;stroke-opacity:1"
       d="m 885.19682,710.34501 c 0,6.6844 0.99565,13.21146 1.613,19.8512 0.38319,4.12119 1.23039,6.98235 0.59269,9.92559"
       id="path101" /><path
       style="fill:none;stroke:#ffffff;stroke-width:2;stroke-linecap:round;stroke-linejoin:round;stroke-dasharray:none;stroke-opacity:1"
       d="m 933.72196,642.52011 c 15.25939,7.80661 33.64688,6.9814 50.1794,4.80751 9.08837,-1.19506 20.77064,-4.71246 29.77674,-2.0504"
       id="path100" /><path
       style="fill:none;stroke:#ffffff;stroke-width:2;stroke-linecap:round;stroke-linejoin:round;stroke-dasharray:none;stroke-opacity:1"
       d="m 1014.781,574.14379 3.86,4.9628"
       id="path99" /><path
       style="fill:none;stroke:#ffffff;stroke-width:2;stroke-linecap:round;stroke-linejoin:round;stroke-dasharray:none;stroke-opacity:1"
       d="m 1051.7263,560.35824 c -2.1429,3.73439 -0.8925,7.89945 -0.6008,12.13128 0.1163,1.68616 -0.1228,2.84947 0.3579,4.41138 0.4671,1.51786 1.2747,2.50208 1.8397,3.85995 1.5615,3.75276 0.2617,6.2937 -2.6996,8.82276 -0.9995,-3.95585 0.4332,-8.27711 0.5514,-11.02844"
       id="path98" /><path
       style="fill:none;stroke:#ffffff;stroke-width:2;stroke-linecap:round;stroke-linejoin:round;stroke-dasharray:none;stroke-opacity:1"
       d="m 1018.0896,558.15255 c -0.1196,5.79403 -0.3709,14.64249 1.5849,20.95404 1.6307,5.26292 6.4858,9.40233 6.6864,1.10284"
       id="path97" /><path
       style="fill:none;stroke:#ffffff;stroke-width:2;stroke-linecap:round;stroke-linejoin:round;stroke-dasharray:none;stroke-opacity:1"
       d="m 1030.2209,553.18976 v 2.20568"
       id="path96" /><path
       style="fill:none;stroke:#ffffff;stroke-width:2;stroke-linecap:round;stroke-linejoin:round;stroke-dasharray:none;stroke-opacity:1"
       d="m 1051.1749,553.74118 3.3085,-1.65427"
       id="path95" /><path
       style="fill:none;stroke:#ffffff;stroke-width:2;stroke-linecap:round;stroke-linejoin:round;stroke-dasharray:none;stroke-opacity:1"
       d="m 1023.6038,574.14379 c -2.6809,-7.15837 -1.2528,-17.46009 3.8599,-23.15972 1.0641,3.71212 -0.8632,6.80018 -2.7571,9.92559"
       id="path94" /><path
       style="fill:none;stroke:#ffffff;stroke-width:2;stroke-linecap:round;stroke-linejoin:round;stroke-dasharray:none;stroke-opacity:1"
       d="m 1024.1552,565.87246 1.1029,4.9628"
       id="path93" /><path
       style="fill:none;stroke:#ffffff;stroke-width:2;stroke-linecap:round;stroke-linejoin:round;stroke-dasharray:none;stroke-opacity:1"
       d="m 1021.9495,548.77838 c -2.9506,3.94862 -7.5913,12.55422 -7.7199,18.74835"
       id="path92" /><path
       style="fill:none;stroke:#ffffff;stroke-width:2;stroke-linecap:round;stroke-linejoin:round;stroke-dasharray:none;stroke-opacity:1"
       d="m 1053.3806,529.47861 c 0.1615,2.04566 0.3898,2.91715 0.5514,4.9628"
       id="path91" /><path
       id="path90"
       style="fill:none;stroke:#ffffff;stroke-width:2;stroke-linecap:round;stroke-linejoin:round;stroke-dasharray:none;stroke-opacity:1"
       d="m 1054.4834,560.90966 c -4.2242,-0.71193 0.8501,-9.25375 0.3936,-13.23412 -0.3188,-2.77867 -0.9259,-4.8706 -0.4787,-7.16849 0.384,-1.97263 1.8133,-3.65433 3.032,-5.51422 5.8308,-8.89902 13.7355,-17.29401 21.8671,-23.92346 8.6475,-7.05002 19.1493,-12.92925 29.7768,-16.7622 33.264,-11.99704 70.1484,-3.68864 97.0503,18.41646 11.3814,9.35208 21.4129,21.32084 28.5037,34.40048 25.8798,47.73819 21.0866,108.66776 -18.0267,147.78109 -2.6485,2.64847 -5.3377,5.32433 -8.2714,7.76373 -10.8441,9.01725 -23.4111,15.92867 -36.9452,19.9614 -6.991,2.08308 -24.5383,3.98163 -24.5383,3.98163 -4.5321,0.27524 -12.4603,-0.3215 -17.3698,-0.98286 -11.4341,-1.54027 -21.4618,-5.94109 -31.9825,-10.32129" /><path
       style="fill:none;stroke:#ffffff;stroke-width:2;stroke-linecap:round;stroke-linejoin:round;stroke-dasharray:none;stroke-opacity:1"
       d="m 1052.2777,525.61866 c 0.048,3.12029 -0.4543,5.34358 -1.6644,8.27133 -1.2327,2.98235 -3.2363,5.32542 -5.484,7.7199 -2.1943,2.33747 -3.8491,4.69453 -4.8693,7.71991 -0.7728,2.29192 -1.1009,9.89282 -4.0233,10.22004 -3.6695,0.41087 -4.9002,-7.81529 -6.2651,-10.16004 -2.7858,-4.78512 -10.9634,-0.78344 -14.066,1.85211 -6.4662,5.49276 -9.0149,14.24418 -12.1594,21.79904 -1.9526,4.69136 -4.62163,8.83505 -8.8244,11.9713 -7.81155,5.82919 -19.59004,7.87619 -29.21731,7.87989 -3.00801,10e-4 -7.9981,0.45707 -10.16602,-1.87339 -2.87528,-3.09086 -3.20249,-10.56496 -4.54024,-14.66927 -3.34917,-10.27534 -5.71582,-19.65942 -7.1166,-30.32821 -0.67941,-5.17444 -0.29468,-10.71465 -0.23193,-15.99124 0.11757,-9.88079 2.34399,-21.97697 9.0002,-29.7687 2.59428,-3.03685 6.30513,-4.64994 9.14313,-7.29229 5.58276,-5.19786 8.95537,-10.45307 16.59416,-13.07499 10.23704,-3.51373 21.57913,-2.60293 31.98251,-0.48505 14.6609,2.98462 31.6162,9.62405 41.5825,21.39609 4.3526,5.14116 7.6469,11.00904 8.7317,17.64508 0.3775,2.30902 0.297,3.34842 0.4166,5.51422"
       id="path4" /><path
       style="fill:none;stroke:#ffffff;stroke-width:2;stroke-linecap:round;stroke-linejoin:round;stroke-dasharray:none;stroke-opacity:1"
       d="m 1058.8948,520.10444 c 0.6487,3.22722 0.4668,4.34618 -0.2855,7.71991 -0.712,3.19268 -4.6139,9.0733 -4.6773,11.02843"
       id="path3" /><path
       style="fill:none;stroke:#ffffff;stroke-width:2;stroke-linecap:round;stroke-linejoin:round;stroke-dasharray:none;stroke-opacity:1"
       d="m 1061.1005,509.076 c 10.9635,-10.96352 23.309,-19.81919 37.4967,-26.29806 62.9909,-28.76515 132.0261,12.90242 157.2259,72.06608 14.9366,35.06785 13.9559,76.86135 -1.8952,111.38724 -6.4578,14.0661 -15.451,26.23909 -25.653,37.49669 -14.6341,16.14838 -34.679,27.45036 -55.7872,33.00022 -4.0652,1.06885 -6.7552,0.75289 -10.477,1.41388 -3.1918,0.56685 -8.0276,1.19852 -11.0284,1.5198 -1.8686,0.20006 -2.8992,0.43328 -4.9628,0.45783 -15.2624,0.18154 -28.923,-4.24858 -43.5624,-7.71779"
       id="path2" /><path
       style="fill:none;stroke:#ffffff;stroke-width:2;stroke-linecap:round;stroke-linejoin:round;stroke-dasharray:none;stroke-opacity:1"
       d="m 1064.409,516.24448 c 3.9622,-4.49782 8.8462,-8.71035 13.7856,-12.4206 10.5286,-7.90867 22.2126,-13.72034 34.7395,-17.71785 38.0168,-12.13162 78.56,2.27213 105.8731,29.58703 52.7208,52.72424 49.9482,140.19353 -2.2551,192.39691 -14.5263,14.52637 -31.2514,20.83605 -49.5786,28.7233"
       id="path1" /><path
       style="fill:none;fill-rule:evenodd;stroke:#ffffff;stroke-width:2;stroke-linecap:round;stroke-linejoin:round;stroke-dasharray:8, 6;stroke-dashoffset:0;stroke-opacity:1"
       d="m 1079.4892,599.31234 37.029,-51.43769"
       id="path120" /><path
       style="fill:none;fill-rule:evenodd;stroke:#ffffff;stroke-width:2;stroke-linecap:round;stroke-linejoin:round;stroke-dasharray:8, 6;stroke-dashoffset:0;stroke-opacity:1"
       d="m 1101.7996,585.52331 11.0002,-14.87354"
       id="path121" /><path
       style="fill:none;fill-rule:evenodd;stroke:#ffffff;stroke-width:2;stroke-linecap:round;stroke-linejoin:round;stroke-dasharray:8, 6;stroke-dashoffset:0;stroke-opacity:1"
       d="m 1097.3065,546.17039 22.4652,-26.80338"
       id="path122" /><path
       style="fill:none;fill-rule:evenodd;stroke:#ffffff;stroke-width:2;stroke-linecap:round;stroke-linejoin:round;stroke-dasharray:8, 6;stroke-dashoffset:0;stroke-opacity:1"
       d="m 1114.1941,537.18428 17.9723,-20.45113"
       id="path123" /></g></svg>
