<?xml version="1.0" encoding="UTF-8" standalone="no"?>
<!-- Created with Inkscape (http://www.inkscape.org/) -->

<svg
   width="401.91504"
   height="272.44046"
   viewBox="0 0 401.91504 272.44046"
   version="1.1"
   id="svg1"
   xml:space="preserve"
   xmlns="http://www.w3.org/2000/svg"
   xmlns:svg="http://www.w3.org/2000/svg"><defs
     id="defs1" /><g
     id="layer1"
     transform="translate(-475.94305,-329.96408)"><path
       id="path287"
       style="fill:none;stroke:#ffffff;stroke-width:2;stroke-linecap:round;stroke-linejoin:round;stroke-dasharray:none;stroke-opacity:1"
       d="m 744.58279,438.43226 h 16.55001 m -16.55001,9.02731 h 15.34637 m -35.20639,57.12351 c 1.55085,-0.0131 2.13219,-0.21743 3.61091,-0.28928 5.71283,-0.27775 11.37087,-1.08439 17.15183,-1.99472 2.64955,-0.41722 5.76831,-1.22417 8.12456,-1.32693 M 511.21766,383.69514 522.4348,382.44879 m -21.18793,-19.31841 c 0,13.02405 0.15641,25.69178 -0.007,38.63682 -0.0678,5.37693 -0.76582,12.72701 0.6299,17.44888 l 14.95859,-15.57936 8.09887,-8.72444 m -37.3902,-21.18793 12.46349,8.10126 m 18.07206,-7.47809 c -2.63647,2.63645 -5.77962,5.85046 -8.2234,8.45998 -3.02693,3.23221 -4.09041,4.47484 -7.35596,7.74256 m 46.73808,0.62317 c 0.58327,7.141 3.27631,10.63198 8.72444,14.95619 m -18.07206,-13.08667 9.97079,6.85492 m -1.86952,-1.24635 -11.21714,3.11588 m -25.55015,8.10126 11.84031,2.4927 m 23.68063,3.73905 11.21714,4.36222 m -56.70887,-0.62318 v 25.36471 m 57.95522,-69.61009 c 0,17.04944 -0.0205,33.68865 0,50.47713 0.005,3.99865 0.0172,15.42057 0.18268,19.19467 m -68.70711,-0.12388 60.42316,0.24762 c 16.95757,0.0695 40.7066,-0.40553 61.0711,0 m -42.37586,-61.69427 -3.30485,7.30691 -6.66595,3.28705 m 8.72445,-3.11587 8.72444,-3.73905 m -87.8676,0.62318 -4.36222,7.47809 14.95619,9.97079 m -23.05746,-14.95618 7.4781,4.98539 m 90.98347,3.73905 -1.86953,8.72444 8.72444,-3.11587 m 32.66508,2.78159 2.49269,-1.86953 m -3.73904,-12.46349 -0.0866,23.05746 c 0,0 0.40357,28.12522 0.35744,32.14077 m -121.42668,-48.00902 -13.08667,6.23174 m 128.01076,-6.56603 4.9854,2.4927 m 9.34761,-2.4927 -4.60571,5.60445 8.96794,-1.24223 m -53.22983,2.82699 c -2.70505,2.06968 -4.71744,2.48096 -7.4781,4.36222 l 9.9708,6.23174 m -15.57937,-4.98539 c 2.20024,-0.50339 3.28668,-0.90468 5.60857,-1.24635 m 40.76634,-5.31968 c 0.21146,5.16406 2.48017,7.89602 6.23175,10.59396 m -12.46349,-9.34761 5.60857,4.36222 m 211.57355,27.41967 h 40.38911 m -248.22361,-24.92697 -8.72445,3.73904 m 20.09429,-3.98254 -6.34318,5.84794 m 13.47047,-2.31524 -11.23364,0.40032 m -63.97237,29.96189 c 22.4199,0.70038 95.958,-0.54599 117.27618,-0.46954 m 147.89038,1.09272 59.08434,-0.62318 m -62.38099,45.09439 c 16.78533,0 28.14441,-4.49235 44.30893,-8.06264 m -356.1771,86.92514 c 18.0538,-3.50116 35.82647,-7.6767 53.59301,-12.39137 7.53939,-2.00071 15.93038,-4.96756 23.05745,-7.58338 5.24728,-1.92589 10.11793,-4.09803 14.95619,-6.63663 9.84071,-5.16333 19.56976,-9.95845 30.53554,-13.00733 2.31262,-0.64299 45.56502,-21.62458 61.03738,-22.84563 M 528.78224,549.6936 c 16.60313,-0.71288 37.11248,-1.58319 52.34618,-8.6629 5.74146,-2.66827 3.83429,-9.1532 9.34856,-11.22003 10.63228,-3.9851 23.91584,-1.60653 34.8973,-4.90123 12.44318,-3.73326 22.65155,-10.10469 36.14412,-10.11361 m -143.33012,24.30381 c 15.18443,0 31.43457,0.20866 46.1149,-4.21941 6.23208,-1.87981 9.79895,-6.82543 15.57936,-9.38224 9.53431,-4.21725 22.05952,-5.63111 32.40508,-5.71676" /><path
       id="path1"
       style="fill:none;stroke:#ffffff;stroke-width:2;stroke-linecap:round;stroke-linejoin:round;stroke-dasharray:none;stroke-opacity:1"
       d="m 770.32584,336.97975 c 2.90744,-0.79359 5.58473,-1.93888 8.42546,-0.30091 m 5.41637,3.0091 c 1.05113,1.21561 1.92394,2.37965 2.57909,3.91182 0.68908,1.61149 0.73091,3.73565 0.73091,5.11544 m -33.70188,-5.11544 c -1.40401,1.62039 -1.71297,2.53144 -1.79339,4.51362 -0.0477,1.17448 0.12178,1.98814 0.28884,3.31 m 12.33728,-7.2218 c -0.13861,0.27576 -0.38564,0.63188 -0.58974,1.21707 -0.68385,1.96069 0.216,2.84907 1.79245,2.29816 0.85296,-0.29805 1.44826,-0.60151 2.10729,-1.10797 m 0,0.90272 c 0.0224,1.08075 -0.1511,1.87957 0.64384,3.30561 0.79891,1.43317 2.36693,2.11747 3.09593,3.61555 0.40619,0.83472 0.39606,2.15848 1.4154,2.50874 2.50642,0.8612 3.46662,-5.66317 6.81248,-2.42515 2.79429,2.70421 -0.45268,9.53977 -4.44491,8.04072 m -25.27634,-16.85086 c 0.0242,-1.13649 0.11616,-2.25827 0.81334,-3.31001 1.06472,-1.60618 3.02419,-2.04357 3.72538,-3.64226 0.51683,-1.17838 -0.53727,-1.97143 -0.92781,-2.97774 0.43167,0 0.90096,0.01 1.80685,-10e-4 0.82601,-0.01 1.61551,-0.0942 2.40588,-0.22592 2.00044,-0.3334 4.21089,-1.10708 6.01819,-1.97657 0.89152,-0.42892 1.44844,-0.88273 2.40727,-1.33645 1.95867,-0.9268 4.45554,-1.2723 6.92091,-1.27214 2.04952,1.3e-4 4.16622,0.50514 6.01819,1.57236 1.72976,0.9968 2.31864,2.36012 4.21273,2.84354 2.00502,0.51171 4.81963,0.86882 6.47443,2.83171 1.45697,1.72827 0.004,2.09977 0.73578,3.88372 0.95247,2.32397 3.01189,4.61654 3.01189,7.52272 0,5.29031 -5.2098,9.33598 -5.39431,14.14268 -0.0432,1.12471 0.19057,2.07966 0.28767,3.31005 m -23.77184,-35.80815 1.20364,0.90273 m -12.63819,3.31001 0.30091,0.3009 m -63.49191,61.98735 c 0.13861,-1.09679 0.29209,-1.68837 0.29209,-2.70819 0,-0.80084 -0.094,-1.29003 -0.21059,-2.10639 -0.81638,-5.71395 -3.8014,-10.95603 -4.28981,-16.85089 -0.41036,-4.95274 3.21549,-10.72352 5.82468,-12.46025 m 7.41091,-17.63072 c 3.48322,3.9197 -0.31786,9.58086 -3.09477,12.93909 -0.6991,0.84544 -1.17398,1.53136 -1.89856,2.27029 -0.53325,0.54384 -1.04437,0.83991 -1.57536,1.3794 -0.74511,0.75703 -1.26267,1.39441 -1.50756,2.3685 -0.23337,0.92821 -0.12755,1.44769 -0.27607,2.40726 -0.11052,0.71415 -0.25349,1.38849 -0.32296,2.10639 -0.39257,4.05655 0.78789,8.66324 2.23197,12.63816 1.03286,2.84299 2.20367,5.86046 2.65479,8.72638 0.15494,0.98436 0.17631,1.64044 0.17761,2.70819 0.002,1.40332 -0.0258,2.29714 -0.34014,3.61092 -0.53959,2.25521 -1.21275,4.10067 -2.31023,6.01818 -0.5025,0.87799 -0.75296,2.24387 -1.9032,2.50454 -2.14274,0.4857 -5.90054,-4.15632 -6.9367,-5.81453 -3.02807,-4.84593 -3.36602,-9.81687 -2.95337,-15.04549 m 21.06364,-36.1091 c 2.70608,0.16673 7.7106,3.25433 9.36147,8.94507 m -15.98147,-7.44052 c -0.50186,1.83858 -1.44662,3.98169 -2.53938,5.7173 -2.58286,4.10215 -6.7848,7.08344 -9.0988,11.43457 -1.36528,2.5671 -1.85065,5.30022 -1.90274,7.82364 m 25.08615,-15.62617 c 2.31271,-1.2473 3.51372,-0.33744 4.65775,0.31207 m -4.31956,3.79728 c 1.10994,-0.98705 2.49363,-1.01908 3.5375,-0.21637 m -16.22911,-1.32543 c 1.03086,-1.23345 3.5732,-1.91855 5.25342,-1.63867 m 0.0684,14.39636 c 1.92489,-0.81225 3.35679,-0.70992 5.71727,-1.03023 0.72413,-0.0982 2.50349,-0.50184 2.71005,0.52409 0.26536,1.31789 -1.40939,2.85918 -2.41029,3.34296 -2.70995,1.30985 -5.06315,-0.40744 -6.01703,-2.83682 m 12.03637,-11.73543 c 0.7722,5.97936 0.74893,11.42621 -2.59372,16.85088 -0.6698,1.08701 -1.49755,2.35087 -2.57282,3.02763 -0.97861,0.61601 -1.77467,0.57345 -2.95801,0.58192 -1.11284,0.008 -1.95351,-0.0592 -3.00909,-0.31158 -2.47607,-0.59258 -4.73154,-1.87632 -6.62001,-3.59884 m 10.53183,-15.64728 c 0.12609,2.42545 3.47082,5.0909 0.3009,6.61998 m -8.72636,-5.11545 c 1.40235,-0.73491 2.33409,-0.87862 3.61091,-0.6018 m 14.14273,12.63816 c 0.16644,2.09131 0.61192,4.1066 2.16488,6.01818 0.6175,0.76009 1.11857,1.55962 1.88393,2.15027 1.53607,1.18528 2.80346,1.07803 4.67756,1.15973 m -15.34637,-3.31 c 1.2703,1.74975 2.25918,2.15133 4.21273,2.14023 3.05961,-0.0168 3.51877,0.26703 5.71728,0.26703 m -6.3191,0 c -0.35425,2.05735 -1.81397,5.10642 -3.66663,7.22185 -2.73878,3.12721 -6.85694,5.26096 -10.4761,5.41638 m 21.36456,6.01812 c 0.62366,2.72041 1.55198,5.7261 2.38104,8.42526 0.21732,0.70749 0.49079,1.67565 1.29418,1.88043 1.20683,0.3076 2.60307,-1.3837 3.5466,-2.049 2.37386,-1.67385 5.52474,-3.48249 8.12455,-3.74304 m -7.8248,16.24928 c -0.35283,0.66112 -0.58085,1.20709 -0.60043,2.40726 -0.0293,1.79705 -0.0838,2.96868 0.12654,4.51365 0.50834,3.73437 1.8845,8.07428 -0.12793,10.53184 m -2.10521,-27.38291 c 0.36687,1.344 2.05029,5.85902 2.47925,7.52271 0.20986,0.81393 0.13618,1.49799 0.52057,2.40726 0.45027,1.06519 0.81159,1.50802 1.23427,2.70819 1.09197,3.10067 1.76286,6.1311 2.17091,9.32818 0.64885,5.0836 1.6644,10.37641 2.49784,15.34641 0.26442,1.57682 0.58748,3.22013 0.69933,4.81452 0.0525,0.74825 0.0233,1.34818 0.11284,2.1064 0.10723,0.90827 0.20313,1.50633 0.21384,2.40726 0.0169,1.42277 0.0555,2.12577 -0.13095,3.30999 -0.14438,0.91719 -0.37434,1.78589 -0.64733,2.70819 -1.09617,3.70359 -2.22965,6.57786 -2.22965,10.53183 0,0.95035 -0.37899,3.35536 0.47039,3.85889 0.51372,0.30454 0.95561,-0.17194 1.28259,-0.59488 0.52103,-0.67391 0.8193,-1.20198 0.9631,-2.06041 0.25259,-1.50783 -0.008,-2.93153 -0.008,-3.91179 m 8.44546,1.56199 c 0.082,1.49431 0.035,2.96712 -0.051,4.43345 m -2.03419,-3.57802 c 0.24869,2.37592 -0.13631,4.75245 -0.40297,6.00223 m -53.80172,-79.73541 c -4.16634,-2.55913 -7.99018,-5.7504 -9.02612,-10.8327 -0.24081,-1.18148 -0.30206,-2.09711 -0.30206,-3.30999 0,-2.43836 0.65546,-5.0461 1.19945,-7.52278 0.32387,-1.47443 0.837,-4.26725 1.03438,-5.71725 0.12075,-0.88709 0.16859,-1.45038 0.17321,-2.40726 0.0168,-3.49557 -0.38447,-6.32958 -0.29627,-9.93003 0.19955,-8.14528 3.8715,-17.56555 12.33287,-20.35386 1.4066,-0.46352 3.06201,-0.77492 4.51364,-0.68261 1.20918,0.0769 2.06121,0.27185 3.31,0.0991 1.15029,-0.1591 1.84387,-0.35886 3.0091,-0.27141 5.75211,0.43167 10.42551,5.25435 12.50189,10.37601 0.68734,1.69541 1.18563,3.60378 1.51314,5.41637 0.28577,1.58159 0.34244,3.16445 0.45554,4.81456 0.0807,1.17761 0.24706,1.87768 0.27398,3.00906 0.0287,1.20528 0.22336,2.67136 0.43186,3.91185 0.27838,1.65627 0.7725,3.52642 1.39403,5.11545 1.10581,2.82716 3.49469,5.10218 4.85123,7.82364 0.52508,1.05342 0.52371,2.04009 1.10102,2.95684 1.19343,1.89514 3.64863,3.47775 4.95153,5.46861 2.03648,3.11176 3.63344,6.68572 5.19719,9.93003 0.62287,1.29228 2.11147,3.29747 1.89322,4.80156 -0.14224,0.98019 -1.1215,1.40308 -1.76552,1.81842 0.54878,1.73174 1.08258,4.87616 1.60972,7.22185 1.08679,4.83589 2.39297,9.88535 3.37061,14.74455 0.59072,2.93609 0.84809,6.26415 1.21106,9.02725 0.15482,1.17854 0.1277,2.01129 0.1277,3.30999 v 6.01818 3.61092 c 0,1.52248 0.0159,3.63124 -10e-4,5.11545 -0.01,0.85126 -0.12794,1.52342 -0.12794,2.40733 0,1.24454 0.11292,1.898 0.13025,3.30999 0.056,4.5574 2.65162,8.67982 2.70587,13.24002 0.0194,1.63148 -0.17174,2.80354 -1.05505,4.03948 -0.44403,0.62131 -0.56084,1.0465 -1.01208,1.59651 -0.49021,0.5975 -0.90466,0.71796 -1.44929,1.18971 -1.72898,1.49748 -1.16739,1.90043 -3.10243,2.20155 0.0474,-2.29453 0.80645,-4.45763 0.30091,-7.22185 m 18.0546,-130.5946 c 1.73247,-0.35492 4.61218,-0.77746 6.62001,-1.74693 1.14337,-0.55211 1.69881,-0.79912 2.40727,-0.96125 m -5.80894,5.97533 c 1.6634,-0.4606 3.7083,0.0995 5.41636,0.90276 m -4.43811,3.14706 c 0.97487,-0.68475 2.69187,-0.4693 3.27388,0.50171 m 12.99136,10.53679 c -0.71797,1.9458 -2.47046,4.42859 -4.51364,5.71731 m 4.21273,12.3373 v 1.80546 M 756.1833,348.41425 c -0.29813,2.35895 0.7688,6.11102 0.0253,8.42546 -0.43218,1.34534 -3.00903,4.43735 -2.12192,5.94973 0.53615,0.91401 1.54104,0.79885 2.21595,1.49082 0.92185,0.94517 -0.23483,2.14403 1.17614,2.56293 0.99293,0.29476 2.26936,-0.0505 3.21793,-0.1232 0.5146,-0.0393 2.21798,-0.59862 2.5362,-0.053 0.3535,0.60641 -1.03056,1.67179 -1.45121,2.15306 -0.70472,0.80639 -3.3152,1.43088 -3.5361,2.44023 -0.18906,0.86385 1.43292,-0.57326 1.93969,4.92077 0.22622,2.45244 5.68727,0.44981 7.73347,0.31664 1.13957,-0.0742 2.0683,0.31819 2.85005,1.16882 1.03663,1.12801 3.76516,5.0064 3.34367,6.55567 -0.23247,0.8545 -0.95181,1.28655 -1.24311,2.1064 -0.27665,0.77853 -0.0954,1.91165 0.14767,2.707 0.31063,1.0164 0.81789,1.69373 1.82729,1.97702 2.09161,0.58716 4.53565,-0.74151 6.31444,-1.88504 4.84731,-3.11624 9.04815,-8.01788 12.63818,-12.12716 -2.62095,-2.40695 -4.61336,-4.2144 -6.61999,-7.22184 m -6.31909,-7.52246 c 0.66097,2.78141 2.4416,4.72322 5.11545,5.71725 m 7.82363,9.0273 c 1.89239,0.1257 4.90396,1.92767 6.92092,3.14442 2.67716,1.61501 5.41826,3.57839 7.29819,6.18401 4.01642,5.56656 3.94812,13.35811 4.91042,19.85975 0.34655,2.34108 0.63433,4.60439 0.94642,6.92092 0.40008,2.96992 0.63726,4.92351 -2.02139,6.31911 m -18.35546,-25.27639 c 0.26272,-1.52584 0.72808,-2.68102 1.71512,-4.21272 1.77961,-2.7616 4.10013,-4.36652 7.31215,-4.51365 m -36.71092,18.95727 c -0.27836,1.1692 -0.3009,2.70614 -0.3009,3.91186 0,1.43953 0.0189,2.22373 -10e-4,3.91179 -0.0122,1.02456 -0.14961,1.6673 -0.24867,2.70819 -0.13497,1.41828 0.36226,3.72901 -0.23265,5.06971 -0.44738,1.00817 -1.41071,0.78962 -2.22455,0.36935 -0.89144,-0.46033 -1.71023,-1.09971 -1.84818,-2.1335 -0.32936,-2.4682 1.10804,-5.66939 1.60602,-8.12015 1.18131,-5.81378 1.10221,-12.32452 3.38987,-17.75367 1.23215,-2.92419 3.94894,-5.51441 6.48023,-6.01819 m 20.16097,13.84183 c 0,2.51407 -1.5e-4,5.68547 0,8.12457 6e-5,0.88092 -0.034,1.51288 0.0511,2.40726 0.11844,1.24486 0.24758,1.9812 0.24981,3.31 0.003,1.91246 -0.0496,4.55278 1.80546,5.11551 0,0.89687 0.26564,4.17695 0.29652,5.41632 0.0192,0.78028 -0.0235,1.27932 0.0555,2.10639 0.2159,2.25969 1.35521,5.43134 -0.1816,7.52159 -2.01314,2.73823 -5.42958,4.83559 -7.99405,7.04998 -4.9989,4.31654 -9.86584,8.8826 -15.34637,12.61379 -2.76177,1.88025 -5.65388,4.04983 -8.42546,4.10922 0.05,-2.42054 0.72513,-4.82917 1.11888,-7.82365 0.24774,-1.8841 0.27225,-3.09294 0.43675,-4.81458 0.0869,-0.9089 0.22313,-1.49774 0.24541,-2.40726 0.0294,-1.20117 -0.0245,-1.95172 0.009,-3.30999 0.0375,-1.52759 0.27891,-2.22978 0.29534,-3.61092 0.0342,-2.87558 10e-4,-6.66429 10e-4,-9.62911 v -3.60344 -1.51201 m -86.74699,-20.11807 c -0.14871,0.57906 -0.43184,1.78397 -0.74238,3.56805 -0.57987,3.33143 -1.04929,6.62285 -1.49479,9.93004 -0.14416,1.07011 -0.60119,2.52348 -0.19991,3.59347 0.64528,1.72071 3.74599,1.96817 5.23038,2.08016 0.9889,0.0747 2.28582,0.48557 2.5856,-0.90367 0.18306,-0.84833 -0.19515,-2.02912 -0.16532,-2.9645 0.0308,-0.96729 0.19666,-1.52665 0.2612,-2.40732 0.13035,-1.77817 0.24772,-2.051 0.32762,-3.9118 m 110.43369,9.02731 c 1.37639,-1.12807 2.65508,-1.76882 5.11546,-2.27197 0.86557,-0.17698 1.81431,-0.31346 2.70818,-0.43622 0.99161,-0.13623 1.6083,-0.28149 2.70821,-0.29539 2.68687,-0.0336 6.54513,0.85219 8.72631,0.89719 m -56.27115,52.35837 c -2.10592,2.10732 -4.41181,5.37257 -5.23502,7.33943 m 7.73397,-5.32471 c -2.06167,2.06302 -3.69937,3.46728 -4.51364,6.01818 m 54.07312,-60.6922 c 0,2.55059 -0.35253,3.97834 -0.57488,7.22184 -0.13187,1.9238 -0.25432,3.83726 -0.33969,5.71725 -0.0299,0.6625 -0.12308,1.12732 -0.20316,1.80546 -0.0788,0.66842 -0.0696,1.1062 -0.0901,1.80546 -0.0237,0.80683 -0.12002,1.33927 -0.21082,2.1064 -0.17094,1.44383 -0.4336,4.34165 -1.28791,5.71725 -2.02158,3.25509 -7.00832,6.26514 -10.23256,8.42525 -7.10216,4.75807 -15.10112,8.02792 -22.26729,12.4782 -3.31676,2.05978 -5.51013,6.65731 -8.72637,9.07467 -1.54525,1.16141 -3.08934,2.57695 -4.54057,3.72371 -1.06148,0.83879 -2.25922,2.68694 -3.61092,3.04346 -0.72207,0.19044 -1.35291,-0.33103 -2.07943,-0.38263 -2.16894,-0.15405 -1.81772,1.12888 -3.14559,-0.79554 -1.94557,0.91638 -3.23888,-0.24491 -2.71819,-2.16616 0.68877,-2.54149 3.51209,-5.6955 5.26197,-7.22184 m -85.45939,9.93016 c -0.18554,1.46814 -0.22441,2.31191 -0.47411,4.21278 -0.19898,1.51463 -0.1277,3.01822 -0.1277,4.21272 m 10.83387,-65.29752 c 0.20695,4.81988 0.2449,8.30729 -0.25099,12.93909 -0.48557,4.53553 -2.21292,8.82478 -3.32184,13.24003 -1.50336,5.98572 -2.89603,12.08236 -4.50621,18.05455 -0.96052,3.56262 -2.09287,6.65388 -3.73072,9.93003 -0.78807,1.57632 -1.60188,3.08671 -2.05482,4.81452 -0.37071,1.41411 -0.29576,2.6437 -0.27699,4.21273 0.0152,1.27059 0.12331,2.44907 0.73369,3.61092 1.20359,2.29104 3.3941,4.03044 5.88515,2.70819 -2.13975,-1.97241 -2.6582,-2.56848 -3.00909,-3.91185 2.02838,-0.3167 1.81341,-3.13208 3.04462,-6.31905 0.55676,-1.44122 1.47822,-3.02471 2.07084,-4.51366 m 52.05572,-27.98432 c -1.5381,1.11062 -2.40958,0.9967 -3.61091,1.50453 0.7207,1.82085 2.10636,7.49772 2.10636,10.23096 -3.97736,0.17075 -8.43945,0.79025 -12.33611,-1.64549 -1.28387,-0.80252 -3.67852,-3.14042 -3.09802,-4.90606 0.39774,-1.20977 2.67654,-1.35591 3.69867,-1.6111 3.16991,-0.79149 7.2821,-2.04862 9.6291,-2.06831 m -26.17911,-0.30087 c 0,2.18715 0.0472,3.79943 0.0796,4.86182 m 2.02681,-2.75549 h 0.30091 m -3.55979,2.98799 4.76343,0.0212 m 5.71728,-6.31917 c 0.0707,1.64318 0.51116,3.47127 0.65623,4.95629 -2.14623,0.56441 -4.68522,0.84982 -6.37351,1.36282 0.14624,0.49474 0.28681,0.98842 0.29998,2.10683 0.015,1.27377 -0.0537,2.11773 0.0279,3.30955 0.0606,0.88497 0.19381,1.55881 0.28906,2.40726 0.17087,1.52198 0.30335,2.49413 0.28466,3.91179 -0.0292,2.21283 -0.50828,2.94114 -2.10521,3.91186 -0.92365,-2.14684 -1.26826,-5.34447 -1.67775,-8.42545 -0.12319,-0.92697 -0.10773,-1.47318 -0.13211,-2.40732 -0.029,-1.11224 0.0677,-3.01267 -0.47806,-4.11706 -0.41713,-0.84409 -1.16472,-0.65614 -1.92503,-0.74738 -0.93399,-0.1121 -2.19572,-0.19436 -2.68776,-0.98305 -0.4325,-0.69329 -0.0955,-1.55295 -0.0471,-2.27658 0.0512,-0.76551 0.0269,-1.49369 0.0269,-2.10683 m -2.40728,-0.6018 c -0.0137,1.65733 -0.10093,3.11656 -0.50105,5.11545 -0.52622,2.62892 -0.70139,4.52288 -0.70258,6.31911 1.5698,-0.46177 2.97107,-3.93254 3.00909,-5.71731 m 33.70184,6.01818 c 0,2.72832 0.0462,5.46873 -0.4783,8.72638 -1.11327,6.91437 -4.28225,13.68609 -7.6221,19.86 -5.57524,10.30625 -13.6904,21.29979 -16.53492,32.79911 -0.20251,0.81866 -0.36501,1.58629 -0.51336,2.40732 -0.25386,1.40495 -0.4208,2.34015 -0.42838,3.91179 -0.011,2.26929 6.2e-4,3.4704 -2.3e-4,6.01818 -6e-4,1.29658 -0.0785,2.15345 -0.215,3.30999 -0.10908,0.92448 -0.067,1.47051 -0.0903,2.40733 -0.0327,1.3139 -0.27615,2.8681 -0.47086,4.21272 -0.99668,6.8829 -2.87741,13.83428 -4.8134,20.46181 -0.98183,3.36115 -2.21483,8.97327 -3.43769,11.73549 m 13.54091,-105.01735 9.6291,-3.91186 m -14.74456,3.00913 c 0.21723,1.11953 0.22954,1.72501 0.90273,3.30999 m 3.91182,0.30093 c 2.71134,-1.85307 6.73326,-2.70782 9.93001,-2.70819 M 682.15831,574.9992 c 1.90094,-0.0193 6.56472,1.76988 9.02728,2.40726 M 683.664,420.33161 c 1.73668,2.82229 3.66753,8.38793 4.38594,12.33729 0.23972,1.31783 0.41423,2.326 0.42745,3.61093 0.0162,1.57258 -0.17949,2.25956 -0.29232,3.91179 -0.0608,0.88945 -0.17804,1.56055 -0.25726,2.40726 -0.1438,1.53712 -0.0365,3.48223 1.47088,4.38434 1.72037,1.02961 4.18845,0.79935 6.00078,0.9949 1.16482,0.12569 2.09044,-0.18851 3.31,-0.25102 4.58776,-0.23506 9.21804,-1.30212 13.84183,-2.45804 4.31618,-1.07909 8.85733,-2.04663 12.93909,-2.36919 0.0895,1.95266 0.87201,3.64177 1.78712,6.01818 1.24472,3.23222 2.07185,6.57879 2.55216,9.92998 0.34157,2.3832 0.64082,4.38764 0.34757,6.62004 -0.33365,2.53994 -1.00092,7.28167 -1.41527,8.84577 -0.41434,1.56405 -0.81518,2.66414 -1.42222,4.09345 -1.29888,3.05829 -2.59426,6.10175 -4.21598,9.02731 -1.45276,2.62069 -3.35459,5.85092 -4.65527,8.42544 -0.4714,0.93308 -0.62937,1.53743 -1.2048,2.40726 -0.56351,0.85188 -1.09446,1.48801 -1.61135,2.40726 -0.83611,1.48696 -1.52496,3.26051 -2.31393,4.42778 -1.41125,2.08776 -2.7279,4.32639 -4.05625,6.70585 -1.43099,2.56337 -2.84969,5.61717 -4.06228,8.12458 -0.36303,0.75074 -0.67885,1.26978 -0.89041,2.10639 -0.33249,1.31471 -0.55504,2.86573 -0.72047,4.21272 -0.37666,3.06702 -0.0699,5.90751 -0.0864,9.32818 -0.009,1.8067 -0.28272,3.61466 -0.51685,5.41638 -0.54611,4.20244 -1.4029,8.19555 -2.38801,12.33729 -0.68758,2.89079 -1.64877,5.86557 -2.4688,8.72632 -0.96461,3.36514 -2.01018,6.56807 -3.04415,9.93003 -0.75822,2.4654 -0.78252,5.62421 -3.61834,5.71725 -0.10793,1.35622 0.0297,2.48796 -1.03298,3.35274 -0.524,0.42644 -1.02962,0.49387 -1.67544,0.51867 -0.68499,0.0268 -1.44223,-0.13442 -2.10613,-0.40581 -1.77763,-0.72668 -2.99947,-2.42109 -3.76275,-4.0674 -0.48849,-1.05354 -0.66496,-1.4419 -1.35224,-2.27957 -0.58909,-0.71796 -0.88403,-1.24292 -0.92665,-1.93427 -0.0755,-1.22497 0.39428,-2.29328 0.73695,-3.6098 0.92842,-3.56686 1.81639,-7.21549 2.46881,-10.8327 1.10843,-6.14556 2.30253,-12.56625 2.83588,-18.65641 0.13478,-1.53893 0.21775,-3.10397 0.35199,-4.51366 0.10928,-1.14751 0.24399,-1.84615 0.2496,-3.00906 0.0121,-2.51949 -0.1941,-3.77226 -0.28884,-6.01818 -0.066,-1.56504 0.16715,-2.51968 0.28907,-3.91185 0.20304,-2.3184 0.73155,-4.93062 1.37801,-7.22178 1.23111,-4.36335 2.80258,-8.62137 4.18742,-12.9391 0.76133,-2.37379 1.33897,-4.02352 1.35548,-6.01818 m 117.95761,-74.02384 c 0,2.57303 0.27276,3.44884 0.29975,5.71725 0.0268,2.26032 0,5.19485 0,7.52272 v 4.21272 2.70819 c 0,1.44851 -0.0782,3.72515 0.0859,5.11545 0.0995,0.84272 0.20147,1.48714 0.21387,2.40732 0.0112,0.83612 -0.006,1.31814 0.0871,2.10633 0.0943,0.7991 0.19088,1.30319 0.21063,2.1064 0.0187,0.77522 -0.0243,1.29452 0.0312,2.10632 0.13018,1.90094 0.37621,4.11414 0.58996,6.01819 0.13629,1.21382 0.2317,2.1755 0.37148,3.31005 0.32386,2.62861 0.59319,5.07601 0.86789,7.82364 0.11628,1.16241 0.77267,2.64214 -0.44738,3.74204 -1.32406,1.19375 -5.4271,1.49469 -7.12618,1.75692 -0.83605,0.12912 -1.5261,0.31732 -2.40726,0.43211 -0.75704,0.0986 -1.34805,0.0647 -2.10633,0.13815 -0.78165,0.0756 -1.28411,0.20198 -2.1064,0.23799 -0.88381,0.0386 -1.41984,-0.0193 -2.40727,0.0237 -1.20347,0.0523 -1.88719,0.25718 -3.0091,0.28466 -1.69433,0.0417 -3.97453,0.007 -5.71728,0.006 -1.40533,0 -2.05012,-0.12993 -3.31,-0.24976 -0.95111,-0.0905 -1.52077,-0.0174 -2.40727,-0.0781 -2.06034,-0.14121 -4.20158,-0.58217 -6.3191,-0.87575 -3.92238,-0.54378 -7.54586,-1.26286 -11.43455,-2.36507 -2.05488,-0.58235 -2.81084,-0.68412 -4.21274,-1.54678 m -73.75249,-29.39514 c -0.65395,2.17563 -2.71896,6.99501 -4.10924,9.83438 -2.28271,4.66197 -5.76272,9.83575 -7.37088,14.74456 -0.78791,2.40501 -0.12466,4.53291 -0.75622,6.92091 -0.50286,1.90137 -1.7558,3.50579 -2.07827,5.41638 -0.47473,2.81245 1.85511,3.39244 1.13328,5.71707 -0.46232,1.48882 -0.80465,2.16889 -2.43606,1.80565 m 82.75005,-27.08186 c -1.47099,1.16752 -3.9472,4.23796 -5.70288,4.41893 -1.11272,0.11467 -1.22274,-0.97072 -0.7539,-1.71098 0.79232,-1.25096 2.27767,-2.27852 3.44769,-3.15514 2.83458,-2.12371 8.70357,-3.25378 10.53182,-4.06646 m -74.6255,0.90273 c -0.0146,1.75779 -0.53599,4.15795 -0.17321,6.92091 0.42076,3.20455 0.40507,6.12463 0.95265,9.62911 0.74638,4.77682 1.7244,9.48216 3.00491,14.14276 0.79904,2.90816 0.8313,4.42391 2.23383,6.31911 1.66476,-2.0642 2.02279,-4.56326 3.0091,-7.52278 1.50174,-4.50611 3.2051,-9.01945 4.51364,-13.54089 m 47.84457,-7.52271 c -0.59477,1.63689 -1.86536,3.24817 -2.04484,5.41495 -0.15115,1.8249 1.48593,1.6701 2.29693,1.20902 m 11.18247,4.50966 c -0.63332,2.0027 -0.87197,3.79177 -1.11773,5.71725 -0.1501,1.176 -0.28346,2.4307 -0.38682,3.61093 -0.12114,1.38326 -0.41864,2.85326 -0.55073,4.21272 -0.12452,1.28162 -0.23769,2.60661 -0.352,3.91185 -0.12395,1.41529 -0.35427,2.86548 -0.51591,4.21272 -0.3266,2.72215 -0.58389,5.7595 -0.90273,8.42544 -0.10586,0.8851 -0.0868,1.47687 -0.21384,2.40726 -0.13321,0.9759 -0.26331,1.75125 -0.38913,2.7082 -0.20693,1.57364 -0.46158,3.04321 -0.6399,4.51365 -0.0893,0.73628 -0.17284,1.35584 -0.26167,2.10633 -0.14329,1.21058 -0.0859,1.93857 -0.0859,3.31005 0,2.09835 -0.126,3.9422 0.12886,5.71725 0.29514,2.05554 1.31447,3.85396 1.51221,6.01819 0.2515,2.75262 -0.79736,5.25984 -0.3982,8.12457 0.78157,5.60901 1.30972,11.21976 1.81731,16.55002 0.1113,1.16876 0.24935,1.81138 0.24935,3.00906 0,0.99913 -0.0581,1.53469 -0.17274,2.40726 -0.0797,0.60722 -0.26243,3.22212 -0.3427,3.91185 -0.24932,2.14216 1.66275,4.67911 1.61484,6.61998 -0.0631,2.55502 -3.2041,5.44007 -1.11751,7.91419 0.60192,0.71372 1.80932,0.98686 2.72677,1.35391 4.06017,1.62418 8.37158,3.29043 12.63819,3.61853 0.71277,0.0548 1.17521,0.0854 1.73673,-0.25681 0.96393,-0.58747 0.96692,-1.59352 0.96913,-2.69978 0.004,-1.8398 -1.06141,-3.56363 -1.01185,-5.41639 0.0532,-1.98985 1.42283,-3.71823 1.25843,-5.71725 -0.22725,-2.76321 -1.98189,-6.24539 -1.62111,-9.0273 0.0773,-0.59632 0.15158,-1.1138 0.1688,-1.80546 0.0227,-0.9147 -0.0229,-1.44807 0.0903,-2.40726 0.21357,-1.81008 0.46264,-3.4221 0.5115,-5.41639 0.0303,-1.23856 -0.045,-1.9114 0.0163,-3.30999 0.097,-2.21438 0.29304,-3.54225 0.28906,-6.01818 -0.002,-1.41485 -0.17888,-2.22243 -0.27397,-3.61092 -0.0816,-1.19145 0.0217,-1.90561 -0.0538,-3.00912 -0.16132,-2.3556 -0.69553,-4.52886 -0.73859,-6.92092 -0.024,-1.33371 0.62919,-2.5714 0.68194,-3.91179 0.0666,-1.69254 -0.60917,-2.8145 -0.0608,-4.51365 1.22793,-3.80492 2.97105,-9.32238 4.03208,-13.24003 0.38546,-1.42326 1.42773,-3.8719 1.67962,-4.81452 0.23661,-0.8854 0.16348,-1.47225 0.0179,-2.40726 -0.52995,-3.4029 -1.52565,-9.59395 -3.42284,-12.63822 -1.30229,-2.0897 -3.08808,-3.75145 -4.56959,-5.71726 m -40.89184,-10.32057 c 0.35256,0.45635 0.97552,5.41102 0.8648,7.01058 -0.13387,1.93396 -1.43799,4.45327 -0.88518,5.30683 0.78921,1.21856 2.82681,-1.41965 3.2985,-1.99684 m 74.62552,-5.41638 c 0,2.27471 0.17903,3.15239 -0.0281,5.71732 -0.16358,2.02519 -1.27807,3.81644 -1.89831,5.71725 -0.426,1.30542 -0.4786,2.49824 -0.4809,3.91185 0,0.77199 0.0143,1.35173 -0.006,2.10633 -0.0193,0.80134 -0.11503,1.30723 -0.21057,2.10639 -0.17411,1.45549 -0.36287,3.32644 -0.38774,4.81452 -0.0175,1.03223 -0.15143,1.68382 -0.24895,2.70819 -0.2603,2.73543 0.0555,6.46955 0.18695,9.02731 0.0786,1.53182 -1.37934,4.42896 -1.03298,5.98677 0.21693,0.97577 1.2777,1.41112 1.82167,2.16909 0.60267,0.83966 0.59052,1.7996 1.23432,2.64967 1.65415,2.1841 4.23721,3.70359 6.13752,5.74442 5.03924,5.4119 7.97158,13.16992 13.57224,17.95659 1.02905,0.87948 2.28923,1.43804 3.1092,2.53339 0.85126,1.13717 0.72868,2.46902 1.76969,3.50037 1.07448,1.06457 2.47843,1.45081 3.31884,2.79176 0.98929,1.57869 0.66618,3.22692 0.10682,4.8134 -0.77342,2.19345 -2.24605,4.08466 -4.09619,5.51254 -1.46614,1.13149 -3.55203,2.19058 -5.41638,2.515 -1.19756,0.20833 -1.76932,0.41099 -3.00794,-0.10213 -2.645,-1.09592 -2.39648,-5.53217 -4.82892,-6.806 -6.26178,-3.27927 -9.8957,-10.65186 -14.75826,-15.86391 -6.14183,-6.58321 -15.1015,-11.01984 -18.34271,-19.86007 -0.5733,-1.5636 -1.0683,-3.19489 -1.40447,-4.81452 -0.75037,-3.61516 -1.36543,-7.20875 -2.01906,-10.83276 -0.52724,-2.92319 -0.85996,-5.54788 -1.97867,-7.22179 m -110.7333,-22.26704 c 1.25656,1.5775 1.90187,2.18734 3.00909,2.70813 m 80.04187,71.91732 c -0.55154,1.63041 -1.25064,3.29366 -2.18391,5.11545 -1.06586,2.08065 -2.27285,4.14585 -3.00817,6.31911 -0.70741,2.09081 -1.09116,4.22107 -2.48993,6.01706 -1.46423,1.87999 -3.57361,2.9293 -5.8589,3.33411 -2.57102,0.45548 -3.5245,0.38462 -5.41637,-0.32386 m -17.75365,-82.14823 c 1.14015,1.97733 1.34563,5.44592 2.04298,8.72638 0.87765,4.12859 1.65643,8.37808 4.00237,12.03636 2.25467,3.51595 6.11699,6.50332 8.61075,9.92997 1.64069,2.25446 3.28207,4.8106 4.7753,7.22185 1.57648,2.54566 2.7252,4.91821 4.35552,7.52271 1.33703,2.13593 5.41204,6.40312 5.32513,9.0273 -0.0748,2.25945 -3.10352,4.90912 -4.7384,6.20184 -0.66381,0.52483 -1.67404,0.89506 -2.046,1.68587 -1.01557,2.1593 -0.35741,5.95088 -0.36128,8.36138 -0.002,1.43636 -0.0846,2.42938 -0.42977,3.91179 -0.64287,2.76116 -3.39393,3.8066 -4.12774,6.3203 -0.42601,1.45929 -0.33368,3.24886 1.26075,4.01511 1.93827,0.93152 3.69146,0.51948 5.70404,0.0685 2.38862,-0.53531 4.88172,-1.74533 6.46073,-3.7841 2.18471,-2.82086 2.69452,-6.46538 4.29863,-9.62886 1.21831,-2.40259 3.83153,-5.41981 3.63112,-8.12432 -0.0841,-1.13505 -0.95458,-1.8972 -1.63666,-2.54337 -2.20064,-2.08451 -3.92125,-3.46939 -5.8329,-4.3778 -0.53065,1.67803 -0.71193,5.30228 -3.32208,6.9985 -1.45242,0.9438 -3.77957,0.61981 -5.40429,0.82515 m -26.48002,-57.47364 c 0.97803,1.69423 1.1605,3.59952 1.84353,6.31906 0.90273,3.59428 1.95231,7.01775 3.87397,10.23096 1.65625,2.76939 3.8134,4.88376 5.99103,7.22178 2.14591,2.304 3.94882,4.60726 5.73562,7.22185 1.37512,2.01223 2.78456,4.28202 4.16304,6.31911 2.74638,4.05849 5.17694,8.42669 8.18283,12.33723 m -37.91457,-34.90543 c 2.29316,3.68957 3.5727,7.96305 6.91766,11.4345 1.15354,1.19725 2.13961,2.42004 3.31441,3.61093 5.01372,5.08236 9.78654,10.4047 14.36726,15.94821 2.38767,2.88948 5.5944,9.50447 9.40341,9.62911 m 7.22183,-6.62005 1.80545,1.5046 m 91.77736,7.52271 c 0.92404,0.8067 3.31747,2.34806 3.50847,3.62276 0.33577,2.24062 -1.75829,5.71601 -2.6508,7.8118 -2.57402,6.04423 -4.14436,13.01905 -8.98667,17.74159 -2.84155,2.77126 -7.95975,3.34489 -10.22648,3.92388 -0.37577,-0.78083 -0.60074,-1.41653 -0.58535,-2.40732 0.0536,-3.46354 2.4173,-7.00947 3.56749,-10.2309 1.31265,-3.67617 1.23058,-6.37439 1.23058,-9.92998 m -165.5001,4.51366 c 2.20533,1.90834 4.78755,3.79083 8.12455,5.77713 3.74574,2.2296 7.91206,3.37505 12.03637,4.58146 2.7501,0.80439 6.37242,1.71354 8.42546,1.97864 -0.33396,3.23702 -3.0888,2.72608 -6.01819,1.99353 -5.69172,-1.42326 -12.1219,-3.06776 -17.15183,-6.14936 -1.87834,-1.15075 -7.20201,-4.74958 -6.43263,-6.95088 0.59554,-1.70389 2.38771,-2.71156 4.32626,-2.49619 1.1054,0.12283 2.25722,0.3109 3.31001,0.44762 0.98262,0.12769 1.57568,0.23382 2.70818,0.21157 0.79092,-0.0156 1.31755,-0.10207 2.10637,-0.21481 3.44371,-0.49199 6.31392,-1.56186 8.42545,-2.78964 m 10.53183,7.22179 c -0.006,2.22018 -0.58173,6.61418 -1.80545,8.72637 m 69.20913,-6.01818 c -1.49008,1.47773 -2.96689,2.76502 -5.11545,3.9961 -2.93193,1.67996 -6.08358,2.88187 -9.3282,3.74167 -1.25389,0.33221 -3.12144,0.79448 -4.20832,1.41398 -0.70839,0.40375 -1.31286,0.93676 -1.80011,1.68562 -0.48067,0.73884 -0.66591,1.19338 -0.56119,2.1006 0.34253,2.96712 5.9938,3.44291 8.37509,3.7841 1.76452,0.25282 3.90738,0.49131 5.71727,0.25656 0.88181,-0.11435 1.50526,-0.10855 2.40727,-0.13211 1.66525,-0.0436 3.47072,-0.3898 5.11546,-0.54634 0.91069,-0.0867 1.48346,-0.0224 2.40728,-0.0629 2.15385,-0.0944 3.52254,-0.28055 5.41636,-0.50402 0.82192,-0.097 1.31019,-0.0617 2.10637,-0.0978 0.70141,-0.0318 1.13774,-0.12326 1.80545,-0.20315 0.75412,-0.0902 1.35123,-0.0586 2.10637,-0.18365 0.80436,-0.13311 1.65094,-0.31246 2.37454,-0.78526 0.94685,-0.61863 1.74092,-1.85301 0.92595,-2.83538 -0.65546,-0.79013 -2.9797,0.13217 -3.90231,0.27631 -1.97882,0.30903 -3.43309,-0.0517 -5.71728,0.21799 -1.50997,0.17816 -2.39854,0.21206 -4.21272,0.21499 -0.74623,0 -1.33995,-0.008 -2.10637,0.0861 -4.55533,0.55948 -8.83316,1.61726 -13.54092,0.94311 -3.39331,-0.48589 -6.47359,-1.1563 -8.42546,-2.53377 m 37.91457,-5.71731 c 0,1.35229 0.28428,4.46386 0,6.01818 m 68.00549,-28.88725 c 2.59832,1.27832 1.62225,4.14 0.54496,6.92091 -2.49039,6.42811 -4.60233,14.45123 -9.29944,19.55908 -2.50018,2.71885 -5.26707,4.79657 -8.99914,5.1577 -2.33815,0.22628 -3.54736,-0.26273 -4.51365,-1.84771" /></g></svg>
