<?xml version="1.0" encoding="UTF-8" standalone="no"?>
<!-- Created with Inkscape (http://www.inkscape.org/) -->

<svg
   width="401.27234"
   height="361.6441"
   viewBox="0 0 401.27234 361.6441"
   version="1.1"
   id="svg1"
   xml:space="preserve"
   xmlns="http://www.w3.org/2000/svg"
   xmlns:svg="http://www.w3.org/2000/svg"><defs
     id="defs1" /><g
     id="layer1"
     transform="translate(-269.10126,-46.23486)"><path
       style="fill:none;stroke:#ffffff;stroke-width:2;stroke-linecap:round;stroke-linejoin:round;stroke-dasharray:none;stroke-opacity:1"
       d="m 657.97597,185.90798 c 2.53136,0.009 8.34089,0.11024 10.50162,-0.002"
       id="path360" /><path
       style="fill:none;stroke:#ffffff;stroke-width:2;stroke-linecap:round;stroke-linejoin:round;stroke-dasharray:none;stroke-opacity:1"
       d="m 658.1041,176.4231 c 4.43704,1.72015 11.20483,5.10814 11.21411,10.39803 0.12983,73.98969 -0.37668,146.6193 0.0554,219.93434"
       id="path359" /><path
       id="path363"
       style="fill:none;stroke:#ffffff;stroke-width:2;stroke-linecap:round;stroke-linejoin:round;stroke-dasharray:none;stroke-opacity:1"
       d="M 270.44849,406.84827 C 403.40973,407.01881 536.3723,406.4085 669.33376,406.73082 620.88064,357.51364 485.39568,270.08478 471.46864,270.19534 458.37702,270.29927 323.47591,353.09902 270.44849,406.84827 Z" /><path
       style="fill:none;stroke:#ffffff;stroke-width:2;stroke-linecap:round;stroke-linejoin:round;stroke-dasharray:none;stroke-opacity:1"
       d="M 668.28865,186.39246 C 645.71407,202.77118 553.89038,263.6684 513.25921,291.57302"
       id="path361" /><path
       style="fill:none;stroke:#ffffff;stroke-width:2;stroke-linecap:round;stroke-linejoin:round;stroke-dasharray:none;stroke-opacity:1"
       d="m 270.10126,406.74834 c 0.49326,-47.15958 0.17909,-149.68793 0.29406,-219.3185 0.0138,-8.35481 27.0866,-25.79896 41.60931,-36.04701 33.24877,-23.71585 151.14772,-104.224548 157.12122,-104.147844 6.79076,0.0872 37.74066,21.40526 73.20045,47.519646"
       id="path357" /><path
       id="path346"
       style="fill:none;stroke:#ffffff;stroke-width:2;stroke-linecap:round;stroke-linejoin:round;stroke-dasharray:none;stroke-opacity:1"
       d="M 436.81723,120.74 H 544.19642 M 436.81723,137.19326 H 629.06062 M 436.81723,153.64652 H 629.06062 M 436.81723,170.09979 H 629.06062 M 436.81754,186.55305 H 629.06093 M 435.95158,203.00631 H 629.06093 M 435.95158,219.45957 H 609.14382 M 435.95158,235.91284 H 584.03095 M 435.95158,252.3661 h 123.83245 m -123.83245,16.45326 h 98.71958" /><path
       id="path362"
       style="fill:none;stroke:#ffffff;stroke-width:2;stroke-linecap:round;stroke-linejoin:round;stroke-dasharray:none;stroke-opacity:1"
       d="m 274.22405,188.88239 c 25.34822,17.22432 97.15759,65.43224 152.94837,103.04938" /><path
       id="path345"
       style="fill:none;stroke:#ffffff;stroke-width:2;stroke-linecap:round;stroke-linejoin:round;stroke-dasharray:none;stroke-opacity:1"
       d="m 412.83839,280.34494 c 0.27333,-53.71771 -1.61145,-181.223487 0.89001,-183.927229 2.15873,-2.333296 240.20787,-2.596287 242.42072,0 2.089,2.450966 1.8461,84.640769 1.71033,96.575379" /><path
       style="fill:none;stroke:#ffffff;stroke-width:2;stroke-linecap:round;stroke-linejoin:round;stroke-dasharray:none;stroke-opacity:1"
       d="m 270.76338,186.20953 c 45.9095,-0.11944 95.52727,0.23002 141.80437,0.0205"
       id="path344" /></g></svg>
