<?xml version="1.0" encoding="UTF-8" standalone="no"?>
<!-- Created with Inkscape (http://www.inkscape.org/) -->

<svg
   width="401.0564"
   height="374.30576"
   viewBox="0 0 401.0564 374.30576"
   version="1.1"
   id="svg1"
   xml:space="preserve"
   xmlns="http://www.w3.org/2000/svg"
   xmlns:svg="http://www.w3.org/2000/svg"><defs
     id="defs1" /><g
     id="layer1"
     transform="translate(-296.36659,-182.37778)"><path
       style="fill:none;stroke:#ffffff;stroke-width:2;stroke-linecap:round;stroke-linejoin:round;stroke-dasharray:none;stroke-opacity:1"
       d="m 389.12081,539.70691 c 0,0 31.96685,-2.29499 47.95985,-1.867 13.53183,0.36213 40.43673,3.74778 40.43673,3.74778"
       id="path436" /><path
       style="fill:none;stroke:#ffffff;stroke-width:2;stroke-linecap:round;stroke-linejoin:round;stroke-dasharray:none;stroke-opacity:1"
       d="m 426.73638,530.30302 c 0,0 23.98577,-0.34408 35.73478,1.6972 5.48991,0.95382 15.98662,4.88553 15.98662,4.88553"
       id="path435" /><path
       style="fill:none;stroke:#ffffff;stroke-width:2;stroke-linecap:round;stroke-linejoin:round;stroke-dasharray:none;stroke-opacity:1"
       d="m 346.8033,531.24341 c 4.67308,-0.86756 5.89388,-0.58493 11.28467,-1.10001 8.67105,-0.82852 17.65538,-2.19629 26.3309,-3.33707 23.36901,-3.07291 47.99905,-7.86908 71.46957,-3.79132 10.32843,1.79445 19.0184,5.27307 28.21167,10.10918"
       id="path434" /><path
       style="fill:none;stroke:#ffffff;stroke-width:2;stroke-linecap:round;stroke-linejoin:round;stroke-dasharray:none;stroke-opacity:1"
       d="m 481.27894,520.89913 c 3.52365,2.7182 6.27098,4.58147 9.40389,7.56085 2.03509,1.93537 3.60237,3.66636 5.64234,5.5059 2.36406,2.13181 3.8775,3.09226 6.58272,4.55757 4.15341,2.24975 8.27863,6.12699 13.16545,7.56518 11.04193,3.24969 26.13994,0.80565 37.61556,0.44408 24.67948,-0.77758 49.56478,-0.24307 74.29074,-0.24307 10.54017,0 21.47931,-0.83903 31.97323,0.15962 7.67648,0.73054 17.83611,2.42969 24.45011,-1.10001 -2.6895,-5.02515 -7.75583,-15.92402 -9.90058,-20.09917"
       id="path433" /><path
       style="fill:none;stroke:#ffffff;stroke-width:2;stroke-linecap:round;stroke-linejoin:round;stroke-dasharray:none;stroke-opacity:1"
       d="m 517.01373,541.58769 c 36.7041,-4.663 71.30334,-4.78827 108.14474,-1.88078"
       id="path432" /><path
       style="fill:none;stroke:#ffffff;stroke-width:2;stroke-linecap:round;stroke-linejoin:round;stroke-dasharray:none;stroke-opacity:1"
       d="m 519.8349,535.00497 c 17.1994,-7.61455 37.11265,-6.58273 55.48295,-6.58273"
       id="path431" /><path
       style="fill:none;stroke:#ffffff;stroke-width:2;stroke-linecap:round;stroke-linejoin:round;stroke-dasharray:none;stroke-opacity:1"
       d="m 375.95537,402.41011 c 2.72181,-7.97701 8.95811,-10.65049 16.927,-11.28467"
       id="path428" /><path
       style="fill:none;stroke:#ffffff;stroke-width:2;stroke-linecap:round;stroke-linejoin:round;stroke-dasharray:none;stroke-opacity:1"
       d="m 324.02876,526.34282 c 8.36736,-1.57651 29.92029,-4.19229 39.70165,-5.83257 18.84702,-3.16059 40.17242,-5.17131 59.24451,-7.6755 6.43166,-0.84448 13.16347,-0.65042 19.74817,-0.36206 7.53778,0.33006 17.00573,1.9089 24.45012,4.13667 4.69052,1.40367 9.69329,2.52657 13.81446,4.0481 -4.67027,-3.56095 -11.09767,-7.79381 -16.63563,-10.09169 -19.95732,-8.2809 -43.31121,-10.80808 -64.88684,-9.3306 -12.03916,0.82442 -35.24161,4.06034 -45.13868,6.49855 -1.80178,-8.67363 5.94412,-22.43388 8.92933,-31.03284 8.72515,-25.1329 17.96508,-52.03246 26.67485,-77.1119 2.23767,-6.44329 4.34637,-19.06845 9.2544,-23.89646 3.05657,-3.00686 8.15444,-2.40623 11.56466,-2.43447"
       id="path426" /><path
       style="fill:none;stroke:#ffffff;stroke-width:2;stroke-linecap:round;stroke-linejoin:round;stroke-dasharray:none;stroke-opacity:1"
       d="m 618.78864,403.83019 c 2.13217,-0.58074 5.68486,-0.42427 7.59324,1.70007 4.99485,5.56006 7.57965,14.67094 10.64975,21.33 8.45088,18.33009 17.70214,36.40013 26.03266,54.54257 2.35126,5.12071 4.63347,9.236 6.98979,14.10583 6.52474,13.48472 12.85859,26.78807 19.20467,40.43673 1.78791,3.8453 3.4119,7.44704 5.25778,11.28467 0.93114,1.93588 2.87483,5.00156 1.34383,6.94192 -2.3628,2.99453 -14.83477,0.58116 -18.98049,0.58116 -19.79093,0 -39.44164,-0.94039 -59.24451,-0.94039 -4.41359,0 -9.65908,-0.44706 -13.16545,-0.78077 -2.3547,-0.22407 -4.11351,-0.15867 -6.58272,-0.15962 -7.66259,-0.003 -16.68927,0.4473 -24.45012,-0.0842 -17.5757,-1.20357 -36.01092,-2.03029 -53.60217,-1.77918 -8.29247,0.11838 -14.83937,4.84116 -23.50973,4.67001 -6.83056,-0.13483 -12.29944,-3.50288 -18.80778,-4.48717 -7.3048,-1.10472 -15.18487,0.74013 -22.56934,0.74013 -23.35518,0 -73.12232,1.88076 -94.9793,1.88076 -14.14371,0 -28.15726,0.94039 -42.31751,0.94039 -3.73678,0 -17.47433,2.15467 -19.68142,-0.6516 -1.81723,-2.31059 0.94568,-6.5263 2.04695,-8.7523 4.21123,-8.51217 8.64086,-18.19105 12.70033,-26.33089 14.65268,-29.38085 28.57801,-60.7253 43.25718,-90.27735 4.43111,-8.92073 7.31462,-25.25195 19.0407,-25.39051 -3.56018,10.52374 -8.69022,21.45028 -13.16545,31.97323 -10.5728,24.86062 -21.23633,52.65404 -32.26058,77.11191 -2.61802,5.80818 -3.30468,9.1743 -6.09293,14.10583 -1.66778,2.94974 -3.45899,5.44538 -5.27954,8.4635 -1.50014,2.487 -5.32186,6.92312 -4.4886,10.04533 0.96525,3.61678 7.71365,2.12552 10.50609,1.8278 10.57306,-1.12719 21.35256,-0.58846 31.97323,-0.58846 32.36221,0 64.59636,0.94039 96.86007,0.94039 7.78795,0 20.62281,2.52916 27.27128,-1.49404 4.30993,-2.60805 9.28893,-6.11166 13.13353,-8.81758 5.204,-3.66269 3.82286,-5.10076 3.7964,-10.37694 -0.0245,-4.88099 -0.003,-10.98574 -0.003,-15.98661 v -82.75424"
       id="path442" /><path
       style="fill:none;stroke:#ffffff;stroke-width:2;stroke-linecap:round;stroke-linejoin:round;stroke-dasharray:none;stroke-opacity:1"
       d="m 509.49062,534.06458 c 3.85981,-2.11697 7.36263,-4.06858 11.28466,-5.85786 44.72095,-20.40221 92.87611,1.15591 139.17759,1.15591"
       id="path424" /><path
       id="path422"
       style="fill:none;stroke:#ffffff;stroke-width:2;stroke-linecap:round;stroke-linejoin:round;stroke-dasharray:none;stroke-opacity:1"
       d="m 601.91245,391.48098 c 3.53965,0.24751 7.32099,0.0447 10.91937,1.93233 1.7694,0.92818 12.43157,23.43404 30.84418,63.53936 5.91341,12.88028 11.3284,25.64386 17.42331,38.55596 4.26217,9.02943 11.44857,22.80204 13.45608,30.14212 -8.05529,0.83312 -22.04396,-3.29036 -32.46991,-5.49393 -28.20531,-5.96129 -56.70328,-9.94182 -85.57541,-9.59835 -12.05539,0.14343 -35.02086,6.61209 -40.17153,8.02087" /><path
       id="path421"
       style="fill:none;stroke:#ffffff;stroke-width:2;stroke-linecap:round;stroke-linejoin:round;stroke-dasharray:none;stroke-opacity:1"
       d="m 497.26556,396.76781 c 19.35419,-19.19418 44.90036,-24.45012 71.46957,-24.45012 6.83664,0 22.61423,-3.34881 25.93692,2.81029 5.66881,10.508 9.58836,24.38992 14.11089,36.68602 7.97064,22.06451 15.94259,45.72277 23.57504,67.70801 2.37743,6.8481 5.02354,13.77988 7.0101,20.68856 0.50618,1.76042 1.48796,4.40808 0.0957,5.85493 -2.50112,2.5993 -10.29055,-0.55887 -13.36496,-1.07679 -12.09482,-2.03758 -25.22302,-3.83695 -37.61556,-3.83775 -21.34105,-9.4e-4 -47.41756,2.21604 -65.82724,12.86503 -3.55303,2.05527 -5.10034,3.70789 -8.4635,6.03998 -6.63737,4.60245 -11.15852,8.86437 -16.45107,14.15698" /><path
       style="fill:none;stroke:#ffffff;stroke-width:2;stroke-linecap:round;stroke-linejoin:round;stroke-dasharray:none;stroke-opacity:1"
       d="m 475.64808,383.26692 c 5.07124,1.93754 12.45517,4.99095 17.8008,10.6935 3.07608,3.28149 3.76491,5.94619 3.81668,10.3305"
       id="path438" /><path
       id="path402"
       style="fill:none;stroke:#ffffff;stroke-width:2;stroke-linecap:round;stroke-linejoin:round;stroke-dasharray:none;stroke-opacity:1"
       d="m 304.50015,310.59889 c 14.14506,2.3445 52.56895,14.40619 68.5877,20.58999 m -14.48168,11.2002 c 4.20423,2.44607 8.45662,5.48463 15.55001,8.59445 m 0.0992,-0.0736 c -0.25126,-7.16056 -0.77045,-15.78231 -0.89018,-19.51088 5.65304,-4.64698 10.25453,-8.14324 15.75565,-13.62392 -28.52345,-3.73572 -57.18228,-6.89154 -85.93968,-8.07278 4.51488,6.74617 37.85281,43.58178 40.88518,44.822 5.02852,-4.14874 13.09472,-10.88707 18.78125,-15.68401 6.53602,7.06875 8.71793,8.65369 11.40778,12.06959 z m -11.49689,-12.09856 c -15.22535,-8.68298 -35.48467,-17.18244 -58.49627,-28.15796" /><path
       id="path402-9"
       style="fill:none;stroke:#ffffff;stroke-width:2.21826;stroke-linecap:round;stroke-linejoin:round;stroke-dasharray:none;stroke-opacity:1"
       d="m 579.06857,284.89371 c -13.78193,7.93445 -49.0062,35.40145 -63.24189,48.05245 m 19.39728,6.00445 c -3.41626,4.17533 -6.65223,8.98485 -12.81161,14.97286 m -0.13165,-0.0379 c -2.52276,-7.53582 -5.33525,-16.69363 -6.6604,-20.61329 -7.67875,-2.62943 -13.81784,-4.47234 -21.66289,-8.02684 28.17686,-14.96937 56.71977,-29.389 86.13274,-41.79581 -2.06726,8.7629 -22.37724,59.98696 -25.045,62.45412 -6.83632,-2.35466 -17.83482,-6.21837 -25.60665,-8.99056 -4.04133,9.88373 -5.69166,12.37835 -7.1578,16.97238 z m 7.2391,-17.03711 c 12.43995,-14.93862 30.18034,-31.64361 49.81712,-51.99063" /><path
       id="path402-9-0"
       style="fill:none;stroke:#ffffff;stroke-width:2.42237;stroke-linecap:round;stroke-linejoin:round;stroke-dasharray:none;stroke-opacity:1"
       d="m 690.25394,222.27584 c -16.48653,5.45654 -60.20383,27.09104 -78.21285,37.49285 m 19.42793,10.68794 c -4.57232,3.71492 -9.09124,8.14785 -16.99632,13.19851 m -0.13248,-0.0694 c -1.0414,-8.6154 -2.03606,-19.02948 -2.5916,-23.51352 -7.63537,-4.50105 -13.79678,-7.82225 -21.40663,-13.34937 33.43095,-9.81611 67.13256,-18.96369 101.32221,-25.76695 -4.13811,8.91864 -37.12637,59.24435 -40.52244,61.29673 -6.79468,-4.02191 -17.70961,-10.57319 -25.41314,-15.24741 -6.49614,9.68345 -8.80996,11.98892 -11.3884,16.58052 z m 11.48959,-16.63189 c 16.59124,-13.24362 39.24049,-27.21112 64.71905,-44.6573" /><path
       id="path402-9-4"
       style="fill:none;stroke:#ffffff;stroke-width:1.81158;stroke-linecap:round;stroke-linejoin:round;stroke-dasharray:none;stroke-opacity:1"
       d="m 681.09074,311.28215 c -12.80843,2.14789 -47.5917,13.13915 -62.09072,18.76786 m 13.13658,10.12018 c -3.80395,2.22284 -7.65051,4.98243 -14.0703,7.81144 m -0.09,-0.0665 c 0.2153,-6.4864 0.67079,-14.29677 0.77285,-17.67428 -5.12844,-4.19949 -9.30243,-7.35848 -14.29469,-12.31337 25.82984,-3.43272 51.7833,-6.3404 77.82944,-7.45968 -4.07798,6.11835 -34.21193,39.54086 -36.95649,40.66944 -4.5619,-3.74925 -11.87974,-9.83893 -17.03877,-14.17419 -5.90814,6.41402 -7.88177,7.85338 -10.31234,10.95208 z m 10.39301,-10.97847 c 13.77607,-7.89108 32.11216,-15.62456 52.93701,-25.60555" /><path
       id="path402-9-2"
       style="fill:none;stroke:#ffffff;stroke-width:1.66794;stroke-linecap:round;stroke-linejoin:round;stroke-dasharray:none;stroke-opacity:1"
       d="m 557.15324,391.69544 c -11.02685,4.62497 -39.88465,21.80795 -51.69297,29.90897 m 13.90697,6.30119 c -2.94075,2.79406 -5.80656,6.07818 -10.96398,9.96693 m -0.0947,-0.0407 c -1.17432,-5.85884 -2.41245,-12.95494 -3.03292,-16.00356 -5.48161,-2.68278 -9.88845,-4.6342 -15.40723,-8.02271 22.42652,-8.5213 45.07449,-16.59809 68.18252,-23.09156 -2.3652,6.3432 -22.32771,42.65025 -24.54963,44.24027 -4.87894,-2.39867 -12.72123,-6.31403 -18.25887,-9.11204 -3.94317,6.99397 -5.40865,8.70003 -6.93387,11.9896 z m 7.0006,-12.03026 c 10.6835,-9.97629 25.48714,-20.77255 42.04759,-34.10775" /><path
       id="path402-5"
       style="fill:none;stroke:#ffffff;stroke-width:1.23407;stroke-linecap:round;stroke-linejoin:round;stroke-dasharray:none;stroke-opacity:1"
       d="m 311.87121,235.6913 c 8.15004,3.442 29.46982,16.20785 38.19171,22.22311 m -10.30088,4.63671 c 2.17069,2.07263 4.28503,4.50768 8.09379,7.39427 m 0.0701,-0.0299 c 0.87953,-4.33265 1.80852,-9.58062 2.27316,-11.83507 4.06059,-1.97493 7.32464,-3.41069 11.41402,-5.90771 -16.57724,-6.34557 -33.31915,-12.36265 -50.40432,-17.20914 1.73837,4.69748 16.4419,31.5965 18.08295,32.77697 3.61416,-1.76583 9.42361,-4.64839 13.52587,-6.70848 2.90469,5.18185 3.98584,6.44679 5.10832,8.88343 z m -5.15762,-8.91363 c -7.88624,-7.40069 -18.81939,-15.41555 -31.04771,-25.31211" /><path
       id="path402-2"
       style="fill:none;stroke:#ffffff;stroke-width:2;stroke-linecap:round;stroke-linejoin:round;stroke-dasharray:none;stroke-opacity:1"
       d="m 414.78226,344.41406 c 10.73488,9.50483 36.8691,40.14602 47.1502,53.89878 m -18.21986,1.78886 c 2.26082,4.30668 4.24749,9.14081 8.60266,15.54547 m 0.12315,-0.01 c 3.59346,-6.19869 7.7367,-13.77746 9.61725,-16.99927 7.2584,-0.93113 13.01443,-1.44655 20.58731,-3.1646 -22.17413,-18.32623 -44.77119,-36.23324 -68.50135,-52.52013 0.23818,8.11407 8.8956,57.03573 10.80482,59.69812 6.46456,-0.84109 16.87863,-2.26089 24.24511,-3.30124 1.77864,9.46167 2.78427,11.96397 3.24686,16.28712 z m -3.30694,-16.35903 c -8.28061,-15.44787 -20.92264,-33.41618 -34.57972,-54.94476" /><path
       style="opacity:1;fill:none;fill-opacity:0;stroke:#ffffff;stroke-width:2;stroke-linecap:round;stroke-linejoin:round;stroke-dasharray:none;stroke-opacity:1;paint-order:stroke fill markers"
       d="m 388.60574,299.023 c 8.3532,-7.02965 21.52802,-12.91884 30.59883,-14.89893 7.9938,-1.74499 14.53643,-0.5745 21.83219,3.06927 5.92643,2.95987 14.59239,5.25528 21.34172,7.10277 -5.75623,-6.24463 -7.39927,-15.69923 0.13483,-24.11442 6.25549,-6.98706 17.4702,-9.20821 25.83663,-10.21347 3.06431,-0.36819 9.10066,-1.01652 14.10086,-1.2641 -11.35303,-2.91661 -27.7611,-4.84439 -36.36842,-0.53151 -9.40238,4.71126 -12.46888,8.95277 -15.05404,15.30999 -3.40031,-2.25018 -7.75667,-4.85959 -10.62646,-2.63427 -2.50336,1.94119 -1.24322,5.54258 0.25769,6.63528 -9.47486,-2.55084 -20.8188,-4.13925 -29.82378,1.14029 -9.04597,4.70791 -15.58086,12.48428 -22.23005,20.3991 z"
       id="path439" /><path
       style="opacity:1;fill:none;fill-opacity:0;stroke:#ffffff;stroke-width:1.88574;stroke-linecap:round;stroke-linejoin:round;stroke-dasharray:none;stroke-opacity:1;paint-order:stroke fill markers"
       d="m 582.17633,211.23175 c -9.17891,0.93663 -5.61973,9.55356 -11.98878,16.48458 -6.36904,6.93101 -14.23668,7.68031 -17.98317,11.98878 -3.7465,4.30847 -4.49579,9.92821 -4.49579,9.92821 0,0 -1.68593,-2.43522 -7.68032,-2.43522 -5.99439,0 -9.74088,1.68592 -9.74088,1.68592 0,0 16.29725,-11.05216 18.17049,-16.48457 1.87325,-5.43242 -0.18732,-9.55356 -4.12114,-11.05216 -3.93382,-1.4986 -9.36624,-3.93382 -14.98598,-8.05497 -5.61974,-4.12114 -10.86483,-13.11273 -10.86483,-13.11273 0,0 8.80426,3.93382 14.61133,5.2451 5.80706,1.31127 12.85192,2.48074 19.66909,2.99719 1.54544,0.11708 5.22168,1.33469 6.83735,3.04403 1.64786,1.74339 3.27818,5.19826 3.27818,5.19826 0,0 -1.00132,-2.58579 -3.25476,-5.24509 -2.35967,-2.78466 -10.04529,-3.37185 -10.04529,-3.37185 0,0 -5.05776,-6.74369 -6.36904,-11.05216 -1.92571,-4.42817 -1.22008,-8.9642 -1.12395,-13.6747 0,0 3.74649,7.30566 6.93102,10.11553 3.18452,2.80987 9.55356,5.99439 12.73808,9.36624 3.18451,3.37185 3.37184,10.67751 3.37184,10.67751 0,0 2.80987,-3.93382 6.93102,-5.43242 4.12114,-1.4986 10.11553,3.18452 10.11553,3.18452 z"
       id="path440" /></g><g
     style="fill:none;fill-opacity:1;stroke:#ffffff;stroke-width:1.12225;stroke-linecap:round;stroke-linejoin:round;stroke-dasharray:none;stroke-opacity:1"
     id="g7"
     transform="matrix(1.7821351,0,0,1.7821351,-52.615155,265.70756)"><g
       transform="translate(86.9841,21.912)"
       id="g6"
       style="fill:none;fill-opacity:1;stroke:#ffffff;stroke-width:1.12225;stroke-dasharray:none;stroke-opacity:1"><path
         d="M 346,662 V 0 M 126,662 h 441"
         style="fill:none;fill-opacity:1;stroke:#ffffff;stroke-width:42.0843;stroke-dasharray:none;stroke-opacity:1"
         transform="scale(0.0266667,-0.0266667)"
         id="path1" /><path
         d="M 220,662 V 0 M 662,662 V 0 M 220,346 h 442"
         style="fill:none;fill-opacity:1;stroke:#ffffff;stroke-width:42.0843;stroke-dasharray:none;stroke-opacity:1"
         transform="matrix(0.0266667,0,0,-0.0266667,13.44,0)"
         id="path2" /><path
         d="M 220,662 V 0 m 0,662 H 630 M 220,346 H 472 M 220,0 h 410"
         style="fill:none;fill-opacity:1;stroke:#ffffff;stroke-width:42.0843;stroke-dasharray:none;stroke-opacity:1"
         transform="matrix(0.0266667,0,0,-0.0266667,31.92,0)"
         id="path3" /><path
         d="M 220,662 V 0 m 0,662 H 630 M 220,346 H 472 M 220,0 h 410"
         style="fill:none;fill-opacity:1;stroke:#ffffff;stroke-width:42.0843;stroke-dasharray:none;stroke-opacity:1"
         transform="matrix(0.0266667,0,0,-0.0266667,57.9467,0)"
         id="path4" /><path
         d="M 220,662 V 0 M 662,662 V 0 M 220,346 h 442"
         style="fill:none;fill-opacity:1;stroke:#ffffff;stroke-width:42.0843;stroke-dasharray:none;stroke-opacity:1"
         transform="matrix(0.0266667,0,0,-0.0266667,73.8934,0)"
         id="path5" /><path
         d="M 220,662 V 0 m 0,662 h 221 l 95,-32 62,-63 32,-63 32,-94 V 252 L 630,158 598,94.5 536,31.5 441,0 H 220"
         style="fill:none;fill-opacity:1;stroke:#ffffff;stroke-width:42.0843;stroke-dasharray:none;stroke-opacity:1"
         transform="matrix(0.0266667,0,0,-0.0266667,92.3734,0)"
         id="path6" /></g></g></svg>
