<?xml version="1.0" encoding="UTF-8" standalone="no"?>
<!-- Created with Inkscape (http://www.inkscape.org/) -->

<svg
   width="505.00006"
   height="584.39539"
   viewBox="0 0 505.00006 584.39539"
   version="1.1"
   id="svg1"
   xml:space="preserve"
   xmlns="http://www.w3.org/2000/svg"
   xmlns:svg="http://www.w3.org/2000/svg"><defs
     id="defs1" /><g
     id="layer1"
     transform="translate(-820.36505,-267.65222)"><path
       style="fill:none;stroke:#ffffff;stroke-width:2;stroke-linecap:round;stroke-linejoin:round;stroke-dasharray:none;stroke-opacity:1"
       d="m 1252.7411,672.91856 c 3.4054,1.58936 33.3786,14.44071 44.4871,30.16031 9.4504,13.37329 13.1355,30.96021 16.3367,46.96875 6.5889,32.9491 10.8002,67.41687 10.8002,101"
       id="path16" /><path
       style="fill:none;stroke:#ffffff;stroke-width:2;stroke-linecap:round;stroke-linejoin:round;stroke-dasharray:none;stroke-opacity:1"
       d="m 955.36504,657.04762 c 9.82221,6.99268 33.92377,17.20078 47.99996,21.99692 36.1871,12.32987 69.331,14.62045 107.0001,13.00308"
       id="path15" /><path
       style="fill:none;stroke:#ffffff;stroke-width:2;stroke-linecap:round;stroke-linejoin:round;stroke-dasharray:none;stroke-opacity:1"
       d="m 1005.8857,583.36938 c 0.1819,7.84539 -1.03,31.44395 -7.13631,40.92063 -1.6582,2.57349 -3.32166,5.46928 -5.47773,7.58784 -2.66809,2.62165 -4.74097,4.20157 -7.90662,6.71994 -6.85571,5.45386 -14.0462,9.67258 -22,13.69751 -2.85498,1.44474 -5.26416,2.94181 -8,4.40509 -2.62182,1.40232 -5.16381,2.20984 -8,3.36112 -11.80432,4.79172 -23.89001,9.85684 -36,13.98303 -20.096,6.84726 -41.50021,13.05124 -56.96063,28.09256 -12.91696,12.5669 -18.35928,29.51245 -21.83954,46.91052 -6.56851,32.83643 -11.19616,68.521 -11.19983,102"
       id="path14" /><path
       style="fill:none;stroke:#ffffff;stroke-width:2;stroke-linecap:round;stroke-linejoin:round;stroke-dasharray:none;stroke-opacity:1"
       d="m 1101.3651,538.04762 c 14.601,32.78516 31.3092,58.00051 60,80.62577 10.1001,7.96484 24.8758,19.35806 32.75,25.12347 7.1375,5.22599 12.6353,10.77536 14.3713,13.57528"
       id="path13" /><path
       style="fill:none;stroke:#ffffff;stroke-width:2;stroke-linecap:round;stroke-linejoin:round;stroke-dasharray:none;stroke-opacity:1"
       d="m 1190.9347,403.88411 c 1.0102,6.97271 4.8759,31.48193 6.452,46.19476 3.9549,36.91767 5.4995,79.08976 24.3534,112.21875"
       id="path12" /><path
       style="fill:none;stroke:#ffffff;stroke-width:2;stroke-linecap:round;stroke-linejoin:round;stroke-dasharray:none;stroke-opacity:1"
       d="m 939.60811,344.51772 c -2.59033,8.68189 -1.92318,37.69116 1.75693,50.5299 8.79609,30.68665 27.7389,55.57819 46,81"
       id="path11" /><path
       style="fill:none;stroke:#ffffff;stroke-width:2;stroke-linecap:round;stroke-linejoin:round;stroke-dasharray:none;stroke-opacity:1"
       d="m 1120.3651,327.04762 c 4.3999,6.14405 10.0352,14.82013 13.7415,22 8.5248,16.51447 14.4606,33.90509 18.6072,52 11.8216,51.58625 5.4659,107.5622 26.5232,157 7.8414,18.40998 18.9479,35.1334 27.8812,53 5.3747,11.31452 8.3194,24.52289 12.1805,36.4375 1.9296,6.26984 2.3912,7.68937 2.4102,14.5625"
       id="path10" /><path
       style="fill:none;stroke:#ffffff;stroke-width:2;stroke-linecap:round;stroke-linejoin:round;stroke-dasharray:none;stroke-opacity:1"
       d="m 1038.5525,270.54762 c 5.332,0.93146 15.5453,6.05719 22.8125,10.56556 10.54,6.53869 18.7962,15.16455 26.6004,24.93444 25.7855,32.28034 35.7094,69.66632 45.3997,109"
       id="path9" /><path
       style="fill:none;stroke:#ffffff;stroke-width:2;stroke-linecap:round;stroke-linejoin:round;stroke-dasharray:none;stroke-opacity:1"
       d="m 1003.3651,554.04762 c 1.8128,6.07602 2.4828,23.33289 2.5209,29.35714 -5.313,0.93706 -26.17717,2.41719 -32.50547,-3.46209 -7.05933,-6.55844 -10.01496,-15.33825 -14.26313,-23.89505 -7.36914,-14.8432 -14.96832,-29.51794 -20.94134,-45 -6.47425,-16.78115 -6.2973,-36.33496 -6.81018,-54 -0.12025,-4.14176 0.22418,-6.55639 0.82841,-9.14805 -2.24881,-3.49136 -4.69522,-9.7442 -6.31387,-14.95404 -5.13971,-16.54266 -5.98254,-33.631 -3.0802,-50.89791 1.51441,-9.00982 5.54999,-20.54364 10.18287,-27.99615 1.9685,-3.16657 3.25036,-4.29926 5.28936,-7.28937 3.03974,-4.45758 6.54962,-13.8064 9.84186,-18.71448 9.60065,-14.31262 21.97955,-26.95715 36.25073,-36.65588 11.77784,-8.00427 27.00126,-14.30037 40.99996,-17.88037 7.5783,-1.93806 15.317,-3.45244 23,-4.36963 29.4565,-2.52094 60.8075,4.61426 84.0001,23.52087 3.514,2.86469 6.7286,5.49152 9.7145,8.55475 17.8114,18.27265 28.9718,41.33655 36.9552,65.83026 2.1648,6.64167 5.5503,16.65381 7.6636,23 1.5397,4.62366 3.1938,10.09239 4.517,15 1.024,3.79778 21.0459,49.68566 22.921,78.23224 2.2219,33.82611 5.3177,74.77018 7.5724,78.95526 1.4068,2.25235 8.5259,15.42395 12.554,23.75 9.5038,19.64429 18.1376,40.12708 20.1771,62.0625 0.5947,6.39554 2.2954,19.72251 -1.6771,24.92024 -3.002,-1.12098 -13.6394,-4.68897 -17.3977,-6.11238 -4.8391,-1.83273 -9.5258,-3.46771 -14,-4.9591 -4.8548,-1.21995 -9.4055,-3.20872 -14,-5.13889 -2.1674,-0.89386 -3.8046,-1.27618 -6,-2.23456 -3.0976,-1.3522 -7.2925,-2.89489 -9,-3.77853 -3.1168,1.54708 -6.445,3.02829 -10,4.99072 -8.0493,4.44333 -18.1732,8.33005 -27,11.30866 -28.3217,9.55707 -57.3444,12.00384 -87.0001,12.00384"
       id="path8" /><path
       style="fill:none;stroke:#ffffff;stroke-width:2;stroke-linecap:round;stroke-linejoin:round;stroke-dasharray:none;stroke-opacity:1"
       d="m 1061.3963,584.07887 c 3.1554,8.41773 17.8174,37.40271 32.9687,47.92939 13.8927,9.65213 31.9332,14.03781 49.0001,14.03781 9.6159,0 18.5029,-1.64794 25.25,-3.74845"
       id="path7" /><path
       style="fill:none;stroke:#ffffff;stroke-width:2;stroke-linecap:round;stroke-linejoin:round;stroke-dasharray:none;stroke-opacity:1"
       d="m 1061.365,584.04762 c 2.7381,2.39023 4.9701,4.27631 8,6.7392 15.7435,12.79709 41.176,28.58817 61.0001,36.97687 8.1153,3.43409 53.9476,20.30322 61.9704,22.93796"
       id="path6" /><path
       style="fill:none;stroke:#ffffff;stroke-width:2;stroke-linecap:round;stroke-linejoin:round;stroke-dasharray:none;stroke-opacity:1"
       d="m 1006.4569,536.35979 c 4.126,5.22504 30.3358,58.76632 55.9081,75.68783"
       id="path5" /><path
       style="fill:none;stroke:#ffffff;stroke-width:2;stroke-linecap:round;stroke-linejoin:round;stroke-dasharray:none;stroke-opacity:1"
       d="m 1193.3651,527.04762 c 10.769,25.90003 21.9126,51.12958 26.5864,79 1.3352,7.9618 3.4705,24.92133 3.3812,31.99848 -0.047,3.70459 -0.2478,22.27383 -1.1864,24.03277"
       id="path4" /><path
       style="fill:none;stroke:#ffffff;stroke-width:2;stroke-linecap:round;stroke-linejoin:round;stroke-dasharray:none;stroke-opacity:1"
       d="m 1036.365,524.04762 c 9.479,16.24054 20.3557,49.12005 25.0156,60.01562"
       id="path3" /><path
       style="fill:none;stroke:#ffffff;stroke-width:2;stroke-linecap:round;stroke-linejoin:round;stroke-dasharray:none;stroke-opacity:1"
       d="m 932.18653,447.93538 c 5.01099,7.03864 18.14189,27.6817 27.76878,39.11224 4.82862,5.73328 10.35846,11.94062 15.40973,17 4.77051,4.77823 7.76984,7.65354 12.98536,13 6.10162,6.25486 11.913,13.67832 18.4398,19.63965 4.6749,4.26987 11.4219,9.86759 16.5748,14.53012 2.8323,2.56266 5.2764,5.13532 8,7.82639 9.5547,9.44034 26.4168,22.12103 30.0114,25.00081"
       id="path2" /><path
       style="fill:none;stroke:#ffffff;stroke-width:2;stroke-linecap:round;stroke-linejoin:round;stroke-dasharray:none;stroke-opacity:1"
       d="m 1004.365,299.04762 c -10.74336,46.43726 -5.68086,87.75299 15.2585,131 18.8407,38.91233 48.8183,74.10749 58.7415,117"
       id="path1" /></g></svg>
