<?xml version="1.0" encoding="UTF-8" standalone="no"?>
<!-- Created with Inkscape (http://www.inkscape.org/) -->

<svg
   width="401.44086"
   height="375.95383"
   viewBox="0 0 401.44086 375.95383"
   version="1.1"
   id="svg1"
   xml:space="preserve"
   xmlns="http://www.w3.org/2000/svg"
   xmlns:svg="http://www.w3.org/2000/svg"><defs
     id="defs1" /><g
     id="layer1"
     transform="translate(-974.63445,-202.15218)"><path
       id="path592"
       style="fill:none;stroke:#ffffff;stroke-width:2;stroke-linecap:round;stroke-linejoin:round;stroke-dasharray:none;stroke-opacity:1"
       d="m 1041.6581,272.98098 c -1.591,-2.78412 -2.0014,-5.40236 -3.5947,-8.5891 -1.3066,-2.61297 -3.8127,-6.02438 -5.3444,-8.58909 -1.3511,-2.26237 -2.4802,-4.85017 -3.2607,-7.44389 -0.8584,-2.85271 -0.9702,-4.78984 -0.9702,-7.44387 0,-2.57803 -0.1844,-3.04987 0.1273,-5.15346 0.3944,-2.66232 1.2657,-4.66861 2.1631,-6.87128 1.1382,-2.79373 3.3519,-5.91402 5.7261,-7.96878 1.4566,-1.26065 2.8861,-1.8227 4.5808,-2.22678 1.0432,-0.24874 1.9305,-0.37445 2.8631,-0.97026 2.8244,-1.80446 5.769,-4.80799 9.1617,-5.78967 0.9619,-0.27834 1.9031,-0.52361 2.863,-0.66805 0.9643,-0.14508 1.4533,-0.0716 2.2904,-0.17496 0.9416,-0.11624 1.4824,-0.34995 2.2905,-0.34995 1.173,0 1.7,0.20995 2.863,0.34995 0.7651,0.0921 1.5046,0.0136 2.2904,0.0954 1.3425,0.13983 2.7917,0.55647 4.0083,0.92256 3.2457,0.97672 6.2763,2.48361 9.1617,4.58085 5.0061,3.63872 9.064,9.16589 10.8795,15.06271 0.7358,2.39003 0.6535,4.18414 0.5726,6.87128 -0.049,1.62639 -0.2274,2.48303 -1.2407,4.00824 -1.0369,1.56087 -2.0892,2.65407 -3.3243,4.00825 -0.7255,0.79547 -1.3029,1.42963 -1.9087,2.29042 -1.3578,1.92958 -2.7513,3.98364 -4.4058,5.72606 l -0.6522,-0.8589 c -0.4421,-0.96302 -0.3967,-1.71541 -0.9066,-2.56083 -0.9983,-1.65529 -2.4848,-1.74127 -3.6742,0 -1.0204,1.49366 -0.9579,2.62527 -1.9246,3.94464 -0.9492,1.29546 -1.8233,1.72278 -2.6722,2.92664 -0.8361,1.18564 -1.3717,2.15328 -2.0518,3.41973 -0.7673,1.42879 -1.2164,2.6192 -2.0041,4.00825 -1.5902,2.8039 -4.3532,5.34305 -7.3008,6.72812 -2.2782,1.07059 -4.3777,1.35763 -6.8713,1.28837 -1.6356,-0.0454 -2.0504,-0.24979 -3.4356,-0.44536 -1.1361,-0.16042 -1.7779,-0.14375 -2.863,-0.2545 -2.3876,-0.24374 -2.6758,-0.0763 -3.4356,1.84507 m 45.2359,-27.48518 -1.4793,6.29867 -0.2863,2.86303 -0.509,3.43564 -1.0656,9.16171 -3.388,6.87127 -4.1513,5.58291 -2.8631,1.24066 -4.5809,-1.67012 m 4.0083,-24.04946 1.1452,7.44388 m 55.5421,67.5668 c 5.4938,4.75947 12.8965,8.2198 16.1467,14.74332 1.4717,2.95383 2.133,7.70406 0.926,9.85705 -3.7222,3.65662 -7.8868,4.59558 -13.6369,3.0915 -3.2931,-0.86142 -5.362,-2.33875 -8.5891,-4.07187 -1.2566,-0.67484 -2.2021,-1.03195 -3.4197,-1.6542 -2.1723,-1.11014 -2.6531,-1.8731 -4.5968,-3.64242 m -27.4851,7.44389 c 8.0877,0.96955 16.1791,1.73767 24.2776,2.54887 5.1843,0.47931 10.3561,1.16237 15.5575,1.5194 2.7403,0.29231 5.4817,0.68599 8.2306,0.84155 4.1912,0.44416 10.1935,1.30108 15.2956,1.53796 3.0445,0.28728 6.8327,1.51902 6.7752,5.22693 0.5798,2.98014 0.1485,6.04859 0.3152,9.07285 0.088,2.52114 -0.1301,5.02792 -1.0958,7.38159 -2.1009,1.16246 -5.5833,0.0193 -8.1903,-0.10151 -9.2108,-1.10075 -18.4162,-2.28059 -27.6451,-3.24581 -10.3609,-1.25286 -20.7327,-2.43147 -31.1066,-3.57358 -1.7635,-0.15123 -3.5318,-0.28724 -5.2768,-0.59442 m 63.49,-21.0953 c 4.577,0.81031 9.3717,0.12133 14.3682,2.37426 2.764,4.09889 1.4373,9.07985 1.7338,13.71078 -0.06,51.59114 0.1209,103.19456 -0.091,154.77802 -0.8971,8.05213 -0.3095,16.21464 -0.4818,24.30458 m 2.2908,-194.68617 c 5.3025,-0.79448 10.3691,-2.62554 15.5803,-3.83145 7.7705,-1.94448 15.5577,-3.82804 23.2783,-5.96275 6.7143,-1.66769 13.4218,-3.36152 20.1198,-5.09357 m -97.1515,-11.92077 c 33.0171,3.91528 66.1309,7.02808 99.2378,9.99773 6.8729,3.21314 2.7791,12.04669 3.6405,18.1016 -0.096,25.08089 0.2518,50.16621 -0.1842,75.2318 -0.9532,12.63575 0.1177,25.38632 -0.3767,38.07063 -0.024,15.80419 -0.051,31.64427 0.1054,47.4178 -4.7745,7.21653 -15.6491,8.28641 -22.7946,13.13112 -13.9799,6.63633 -28.0616,13.10253 -42.0018,19.78995 -12.5833,3.24008 -6.9026,-12.86088 -8.1491,-19.88031 0.618,-14.85426 -0.8535,-29.78031 0.6887,-44.57372 0.095,-30.16314 -0.2351,-60.34041 0.1677,-90.49465 1.0791,-10.05191 -12.919,-5.80267 -19.1687,-7.9772 -13.5245,-1.55267 -27.0099,-3.59404 -40.8455,-4.80712 l -12.8839,-1.4318 m 3.4356,-32.63857 c 2.54,0.87979 5.2853,0.7566 7.9154,1.15963 1.3751,0.0853 2.757,0.16712 4.1093,0.44685 m -88.7545,98.59968 c 0.1023,23.84096 -0.028,47.68749 0.5814,71.52248 -0.081,6.63004 8.1698,4.41686 12.1003,2.76662 10.0034,-3.90356 20.7686,-7.45243 30.7371,-11.44556 m 20.4762,-8.04104 c 2.7957,-0.57558 7.8252,-3.07062 10.2752,-3.36916 m -68.4435,-50.28813 v 6.29867 c 0.4049,13.47431 0.1677,54.67766 0.5726,61.26888 v 3.43564 l -0.072,3.72194 m 43.4543,-15.64496 1.5675,-0.56249 c 1.7556,-0.6863 2.7872,-0.94789 4.392,-1.58759 m 3.8799,-89.58741 c -0.4543,-6.65336 -0.6345,-15.69918 -1.7459,-22.10343 -1.9964,-12.89373 -3.2941,-25.93074 -5.9548,-38.69969 -0.5557,-5.80253 -4.0796,-9.49518 -9.8246,-10.45519 -8.4631,-0.63912 -16.9406,-0.9889 -25.3854,-1.84939 -12.8093,-1.27476 -31.4582,-3.21104 -34.38132,-4.24656 -1.16199,-0.15507 -6.99502,-0.19832 -5.43149,1.70112 6.62623,2.15154 13.83491,2.51655 20.73981,3.55051 9.2484,1.00734 18.5019,1.92732 27.7865,2.57367 5.6656,0.5481 11.5054,0.24248 17.0505,1.59893 2.3643,1.74841 5.1348,3.20671 5.3567,6.4853 2.5699,9.70287 3.3267,19.82433 4.8975,29.73738 1.9657,12.66354 3.4139,25.40085 4.061,38.17068 0.5858,7.59489 0.3997,15.26724 1.9406,22.75884 1.4527,3.0539 2.7916,6.52535 4.2443,9.57924 -3.8534,5.52735 -13.7406,-0.76744 -16.5117,-0.69074 0.2785,6.36724 0.6654,16.50905 1.1879,23.40816 0.4191,5.3722 0.6314,10.75313 1.1177,16.11852 0.2481,4.90271 0.5826,9.82645 0.8654,12.62819 l 0.41,8.24151 0.4454,4.00824 -0.1909,4.58085 -2.6721,2.08367 -3.2447,-2.65627 -0.1909,-3.43564 -0.4454,-3.43564 -0.2483,-5.3324 c -0.5258,-6.13556 -0.9402,-12.99091 -1.3884,-19.4169 -0.1239,-3.7505 -0.4853,-7.51706 -0.7214,-11.25876 -0.3914,-5.38235 -0.7193,-10.75855 -1.1489,-16.13001 0.069,-3.25271 -0.4762,-6.46323 -0.6275,-9.70341 m -1.7173,-171.20869 -3.4356,-0.52489 -2.8631,-0.27039 -3.4357,-0.33403 -3.4356,0.50898 -4.0082,-0.52488 c 0.3853,-0.89912 0.7967,-1.65285 1.4951,-2.86303 1.7075,-2.95876 3.037,-4.72667 6.5214,-5.10576 1.5523,-0.16887 3.6284,-0.12004 5.1534,-0.0318 1.0521,0.0609 1.8156,0.25489 2.8631,0.42946 1.8236,0.30395 3.9193,0.58728 5.726,1.0975 2.9156,0.82338 6.4673,2.19921 9.1617,3.8333 1.1017,0.66815 1.8258,1.2079 2.863,2.11543 0.7921,0.69304 1.4208,1.40326 2.0519,2.24272 0.6481,0.86211 0.872,1.47795 1.3997,2.29043 0.6579,1.01287 1.2245,1.72728 2.2745,2.33812 1.9706,1.14635 4.6331,1.73559 6.8713,2.49722 2.2512,0.91696 4.5748,1.62705 6.8713,2.41766 1.071,0.37932 1.8735,0.73468 2.863,1.20884 5.4617,2.36349 10.0487,6.33159 14.3151,10.41826 0.8232,0.76981 2.2426,2.37152 3.4489,3.46841 5.6674,5.15335 11.3943,10.41858 17.7578,14.58585 6.8262,8.12925 -3.2807,17.50115 -8.6716,23.38805 -9.0699,12.51003 -17.964,-7.11003 -27.0472,-5.10933 -0.4694,12.98731 -5.0502,25.74628 -3.8384,38.74198 0.5916,9.03141 8.0732,21.31749 -1.8738,27.67596 -4.178,3.45888 -9.2765,7.32839 -11.2943,8.83396 0.5395,10.29484 -0.7282,30.89645 9.459,35.2172 10.7281,-2.17774 20.827,-7.36331 31.1531,-11.12336 7.4363,-2.63032 26.5528,-13.78446 23.3012,2.16725 2.1343,9.70804 1.3114,19.76169 2.324,29.60993 1.6015,9.6122 2.172,22.59594 2.4806,30.66039 2.6512,-20.32957 6.772,-41.62119 8.9778,-62.00895 0.7113,-11.01343 3.7052,-25.25672 -7.0238,-32.58424 -16.9216,-7.27264 -35.8799,-7.67477 -54.0417,-8.6699 m -21.1859,-120.03207 -0.5726,1.14521 m -58.979,38.93683 c 0.1569,6.85697 -0.4526,14.24024 0.986,21.00572 m 24.2092,-58.79734 c -9.131,5.50407 -22.1673,7.20447 -27.1101,17.87319 -5.1955,14.52578 -5.03,38.22916 -5.3864,40.09343 m 73.7238,116.67829 c 3.3515,2.78475 -2.9732,6.53163 -2.2348,10.29623 -0.8254,4.52725 -0.8491,9.13749 -1.4441,13.6943 -0.5227,4.34317 -0.7154,8.7227 -1.2269,13.06802 -0.2137,4.58373 -0.8945,9.12617 -1.223,13.71069 -0.8147,11.308 -2.0604,22.58044 -3.0184,33.87755 -0.8326,8.61637 -1.7003,17.23078 -2.3211,25.86575 -3.6744,4.47055 5.6263,10.56049 6.9994,4.18204 2.3545,-22.86806 4.2601,-45.78633 6.5246,-68.66578 1.1526,-11.78656 1.8583,-23.66688 3.9806,-35.32299 0.4304,-1.65338 1.9893,-3.48164 3.4291,-4.51499 m -7.7484,-18.78862 c 1.2744,-0.48729 3.6395,-1.03631 5.726,-1.49512 1.2069,-0.2654 2.1813,-0.4138 3.4357,-0.71576 1.0748,-0.25877 1.6866,-0.41251 2.863,-0.65215 1.4837,-0.30224 2.3659,-0.52787 4.0083,-0.93845 1.2352,-0.30881 2.2077,-0.55192 3.4356,-0.85891 2.9893,-0.74732 6.6489,-1.70343 9.7343,-2.41764 4.0175,-0.93 7.9901,-1.76452 12.0247,-2.73582 2.0538,-0.49439 4.321,-0.86331 6.2987,-1.19292 2.8478,-0.47465 5.0006,-0.34729 6.2987,0.12725 M 989.68687,342.83005 c 0,0 -1.61929,1.29058 -1.83407,1.75174 -0.58793,0.59608 -2.25317,56.61855 -2.31055,84.71989 0,3.38658 -0.2412,4.19928 0.22268,6.87128 0.31754,1.8291 0.68771,3.59997 1.39971,5.15346 1.16089,2.53283 3.05283,4.10261 4.67628,5.72607 -3.56446,3.62537 -5.02088,6.30934 -5.59882,11.45212 -3.57909,31.84895 -7.54591,64.44364 -10.45006,94.48004 -0.082,0.8481 -0.27022,1.50527 -0.0477,2.29043 0.40833,1.44088 1.37756,2.21507 2.92666,2.25862 1.11414,0.0313 1.87511,-0.23011 2.67218,-0.82711 0.58973,-0.44168 0.76951,-1.33289 0.97024,-2.00412 0.25475,-0.85191 0.28518,-1.32604 0.34992,-2.29042 0.39768,-5.92211 10.87132,-92.05063 11.11815,-93.33484 0.16007,-0.8335 0.3337,-1.50875 0.57257,-2.29042 0.42471,-1.39007 0.9482,-2.8444 2.11546,-3.83329 1.0219,-0.86569 2.81648,-1.40813 3.96048,-1.89277 1.267,-0.53672 1.6548,-0.94986 2.0945,-1.78327 1.4569,-0.0116 2.7186,-0.049 4.0082,0.17496 1.4653,0.25439 4.9072,0.93019 6.4947,1.19475 0.847,0.14116 1.455,0.18233 2.2904,0.30221 2.593,0.37214 4.8591,0.71447 7.4439,1.12931 0.7959,0.12774 1.435,0.12777 2.2904,0.2545 4.0206,0.59563 7.5167,1.1348 11.4522,1.71782 2.2081,0.32716 4.2057,0.72034 6.2986,1.04976 2.1869,0.34425 4.2514,0.63073 6.2987,0.98616 1.4391,0.24985 2.3793,0.58166 4.0082,0.7476 1.3011,0.13249 2.1725,0.18967 3.4039,0.39761 0.8571,0.14477 3.0676,0.41324 3.0738,0.41356 m 16.4257,0.85896 0.8589,0.74756 c 1.6105,0.8492 2.252,0.91224 3.7219,0.87481 0.7973,-0.0203 2.0744,-0.41244 2.8631,-0.66802 1.896,-0.61447 3.8634,-1.35798 5.726,-2.09957 10.6793,-4.25194 21.3674,-8.49858 32.066,-12.70868 3.2244,-1.26883 5.9305,-2.57806 9.1617,-3.1016 2.5478,-0.41285 3.6857,0.52462 5.726,2.06773 m -144.29673,3.43564 c 3.68135,0.72525 7.36093,1.54603 11.00603,2.23981 m 130.9446,68.33883 c 0.5036,6.05172 1.1624,12.30193 1.5413,17.73136 -4.1428,0.59673 -10.1764,1.80571 -13.9257,-0.4971 -3.7792,-3.11771 -2.7082,-8.50861 -2.6722,-12.78155 0.1018,-2.05307 0.3001,-3.17636 0.9153,-4.40283 1.9747,0.46578 6.5036,0.38434 8.9286,0.69473 3.1082,0.14326 3.6823,-0.90278 5.2459,-0.82004 -0.1335,-4.62102 -0.6666,-12.63013 -0.6801,-17.25767 -0.5458,-4.76646 -0.4203,-9.57851 -0.9637,-14.34582 -0.066,-5.34648 -0.7593,-10.64515 -0.7624,-15.99677 -0.7603,-7.46462 -0.6314,-15.01251 -1.6112,-22.45762 0.6406,-0.89535 1.5717,0.0375 2.3222,0.12725 m -12.5966,3.65397 c 0.4132,6.61417 0.1188,24.36027 -0.014,36.10963 0.05,4.92449 0.5381,11.17574 -0.3162,16.04446 -0.2935,4.52262 -0.3888,7.82127 0.4143,12.28275 0.1463,0.64478 0.3273,1.28228 0.5553,1.90312 M 1109.69,507.42669 c 2.9259,0.78681 6.8699,1.00386 9.2383,1.86965 m 0.1158,13.03653 c -8.0022,1.99462 -15.1749,8.55485 -23.8532,6.80759 -4.4006,0.0119 -7.5558,-3.76905 -6.6932,-8.0904 0.3721,-3.60737 -0.8372,-12.67383 5.0467,-9.34319 5.8473,1.29656 11.9412,-1.18274 16.4118,-4.88061 1.327,-5.61112 -0.6018,-11.3047 -0.1689,-16.98101 0.061,-10.93225 -0.1667,-23.73819 -0.2688,-34.62824 2.792,-1.33033 8.2666,-2.62369 12.1289,-5.11837 2.4415,-1.09679 4.8722,-2.40346 7.6182,-2.47353 m -39.5091,62.9867 c -1.7918,-2.47807 -2.1214,-5.73848 -2.2975,-8.69424 -0.1168,-2.99373 -0.6414,-5.9338 -0.6442,-8.92986 -0.5574,-4.44308 -0.8788,-8.91241 -1.4934,-13.34806 -0.1285,-3.19426 -0.7682,-6.31817 -0.8451,-9.51547 -1.1777,-2.40974 -0.6003,-5.71331 2.3671,-6.39419 7.8131,-2.43966 14.97,-6.7333 22.9542,-8.66099 m 31.4931,50.96196 0.1909,6.72812 3.2448,2.21089 3.4356,0.90664 5.1534,0.90662 3.1494,0.2863 0.8589,0.41355 m -15.8464,-4.97929 c 0.2447,3.94243 0.1107,7.63066 0.266,11.35388 0.088,2.12187 0.12,3.13618 0.12,5.65014 0,1.77675 0.027,2.56974 0.1431,4.58086 0.115,1.98668 0.381,2.8357 0.4295,4.58085 0.069,2.47356 0.3839,4.47754 -1.7337,5.48746 -3.1236,1.48975 -5.0181,-1.47548 -5.1375,-4.34225 -0.084,-2.02282 0.01,-2.14845 -0.1512,-4.46139 m 7.0224,-1.26467 c 3.398,-0.65673 11.6319,-3.59001 15.4604,-4.00825" /><path
       style="display:inline;fill:none;stroke:#ffffff;stroke-width:2;stroke-linecap:round;stroke-linejoin:round;stroke-dasharray:none;stroke-opacity:1"
       d="m 1254.4115,368.81908 c 1.632,-0.0844 7.4152,-2.51302 9.8241,-7.1254 2.1837,-4.18138 -1.1659,-15.67649 -1.1292,-16.46741 -0.012,-2.2382 -0.3263,-3.91044 -0.4495,-5.83395 -0.2951,-2.67872 0.78,-8.74665 1.1709,-12.46714 0.2464,-2.71857 0.8986,-4.36562 1.115,-7.5632 l 0.2864,-2.29043 0.2863,-2.29042 0.835,-5.03416 c 0,0 3.312,1.23871 4.9228,1.96436 1.3641,0.6145 2.6383,1.41862 4.0082,2.02002 1.3075,0.57395 2.5806,1.52873 4.0083,1.51104 1.0298,-0.0128 1.9458,-0.69293 2.863,-1.16112 0.802,-0.4093 2.2365,-1.42171 2.2365,-1.42171 l 2.0416,-2.13349 c 2.2677,-2.71201 3.0371,-3.86071 4.5411,-6.91105 0.9671,-1.96154 2.7028,-4.08474 2.4379,-6.33034 -0.1094,-0.9266 -0.9411,-1.63229 -1.5864,-2.30619 -2.4612,-2.57029 -8.5255,-6.4259 -8.5255,-6.4259 0,0 -10.4236,-10.01639 -16.6055,-13.6312 -3.5358,-2.06749 -7.6393,-2.95762 -11.4522,-4.45364 -2.2931,-0.89973 -6.8712,-2.71988 -6.8712,-2.71988 0,0 -6.1016,0.55613 -9.1617,0.65215 -4.3323,0.13593 -10.6883,0.13431 -19.0033,-3.26248 -3.3208,1.14364 -9.172,3.84092 -12.4731,7.36436 -4.1646,4.44487 -7.9946,10.06164 -8.2469,16.30614 0.4328,5.80979 -2.3927,13.80985 1.6214,18.12844 11.6978,1.67327 23.6519,1.77715 35.4782,2.64293 5.4518,-0.63255 11.6929,2.84774 11.7937,8.84035 1.72,11.44464 3.2135,22.93624 4.3815,34.44935 0.3616,4.10624 0.9677,8.19121 1.3181,12.29966 0.5199,6.09834 0.4733,12.23869 1.1628,18.32455 -0.4333,5.77176 1.1541,17.4627 9.5489,13.34782 9.1931,-4.37537 18.7072,-8.20298 28.2429,-11.66181 1.1178,-0.40545 3.0966,1.42161 2.9933,2.61993 -4.3925,1.69998 -22.9403,9.53461 -33.2497,12.748 -8.9134,4.06797 -9.5032,-8.99867 -10.3965,-14.80185 -0.5121,-21.36896 -3.1373,-42.62902 -5.9914,-63.81466 -0.1485,-11.01393 -12.8285,-10.46903 -20.8095,-10.84235 -13.6259,-0.49997 -27.1741,-2.27423 -40.7692,-3.17898"
       id="path705" /><path
       style="display:inline;fill:none;stroke:#ffffff;stroke-width:2;stroke-linecap:round;stroke-linejoin:round;stroke-dasharray:none;stroke-opacity:1"
       d="m 1203.1326,291.87668 0.016,4.00824 0.4294,2.86304 0.2545,2.86303 0.3977,2.29042 0.048,2.86303"
       id="path704" /><path
       style="display:inline;fill:none;stroke:#ffffff;stroke-width:2;stroke-linecap:round;stroke-linejoin:round;stroke-dasharray:none;stroke-opacity:1"
       d="m 1302.6706,449.96615 c 2.3567,0.89113 5.2615,1.40963 7.5387,1.79446 2.6545,0.44857 6.6027,0.92548 8.3028,3.35609 2.5747,3.68091 -3.4082,7.12483 -6.0124,7.96878 -1.8661,0.60476 -3.1138,0.84207 -5.1535,1.35198 -1.419,0.35476 -2.6837,0.75755 -4.0082,1.1134 -0.9739,0.2617 -2.0391,0.3561 -2.863,0.39765"
       id="path703" /><path
       style="display:inline;fill:none;stroke:#ffffff;stroke-width:2;stroke-linecap:round;stroke-linejoin:round;stroke-dasharray:none;stroke-opacity:1"
       d="m 1244.9499,447.39251 c 1.0605,0.31427 2.6126,2.02747 3.9904,1.66414"
       id="path702" /><path
       style="display:inline;fill:none;stroke:#ffffff;stroke-width:2;stroke-linecap:round;stroke-linejoin:round;stroke-dasharray:none;stroke-opacity:1"
       d="m 1262.5975,445.06577 c 1.2005,0.78185 2.7993,0.79971 4.0936,1.2392 2.7997,0.95054 5.898,3.52168 4.0401,7.03033 -0.7673,1.44882 -7.4429,7.97086 -16.7228,9.10168"
       id="path701" /><path
       style="display:inline;fill:none;stroke:#ffffff;stroke-width:2;stroke-linecap:round;stroke-linejoin:round;stroke-dasharray:none;stroke-opacity:1"
       d="m 1241.497,400.67137 v 8.5891 c 0,0.92162 -0.046,1.34558 0.048,2.29042 0.1096,1.10082 0.3353,1.8187 0.4772,2.86303 0.1121,0.8256 0.1212,1.39548 0.2703,2.29043 0.1442,0.86467 0.2778,1.27805 0.334,2.29042 0.049,0.87636 0.01,1.32889 0.1432,2.29043 0.162,1.16631 0.3538,1.60575 0.4295,2.86303 0.067,1.11007 -0.037,1.56767 0.1431,2.86303 0.1868,1.34437 0.4,1.92828 0.4454,3.43564 0.035,1.17136 -0.053,1.56908 0.1272,2.86303 0.2331,1.6784 0.4408,2.58812 0.4454,4.58085 0.01,1.4059 0.01,4.00045 -0.016,5.15346 -0.018,0.86146 -0.1828,1.52906 0.1909,2.86303 0.4746,1.69465 0.7492,1.98846 0.5248,4.00825 -0.2511,2.26001 -0.3085,2.67986 -0.5726,4.58084 -0.133,0.95775 -0.2609,3.58983 -0.2285,4.46673 0.079,2.13767 2.1674,2.45921 3.328,3.00246"
       id="path700" /><path
       style="display:inline;fill:none;stroke:#ffffff;stroke-width:2;stroke-linecap:round;stroke-linejoin:round;stroke-dasharray:none;stroke-opacity:1"
       d="m 1255.1615,448.69474 c 2.3986,0.0986 6.6171,-2.042 8.0395,-4.444 1.1938,-9.23597 0.4806,-18.90179 0.767,-28.55089 0.9291,-3.22292 0.01,-6.61468 0.6242,-9.87502"
       id="path699" /><path
       style="display:inline;fill:none;stroke:#ffffff;stroke-width:2;stroke-linecap:round;stroke-linejoin:round;stroke-dasharray:none;stroke-opacity:1"
       d="m 1232.3356,398.95355 c 7.5951,1.38176 15.4485,1.42357 22.9043,3.43564 -4.3645,7.22149 -3.2244,16.05652 -4.4247,24.09987 -1.4922,17.5474 -3.0574,35.07405 -4.4374,52.62214 0.2613,4.80823 -2.0433,9.7935 -0.3075,14.42824 5.7835,4.96486 6.2944,-6.27592 6.128,-10.01942 1.4403,-18.1657 3.1946,-36.27976 4.6923,-54.44784 0.7851,-6.26394 0.4863,-12.70314 2.0959,-18.82317 3.0215,-5.05653 9.1935,-7.14406 14.3923,-9.33125 5.2298,-1.72805 10.2749,-3.98277 15.2838,-6.18952 l 0.7511,-0.18694 0.7551,-0.1686"
       id="path698" /><path
       style="display:inline;fill:none;stroke:#ffffff;stroke-width:2;stroke-linecap:round;stroke-linejoin:round;stroke-dasharray:none;stroke-opacity:1"
       d="m 1293.8416,467.31201 c 0,0 -3.1032,0.45273 -4.2454,0.3702 -0.9625,-0.0695 -2.0085,0.0188 -2.863,-0.42946 -1.4549,-0.76319 -2.7583,-2.07075 -3.3721,-3.59469 -0.6418,-1.59354 -0.1086,-3.43609 -0.064,-5.15345 0.03,-1.14723 0.056,-2.30025 0.2227,-3.43564 0.1711,-1.16297 0.7073,-2.26344 0.7953,-3.43564"
       id="path697" /><path
       style="display:inline;fill:none;stroke:#ffffff;stroke-width:2;stroke-linecap:round;stroke-linejoin:round;stroke-dasharray:none;stroke-opacity:1"
       d="m 1293.0317,452.77857 c -2.951,0 -6.639,-0.0604 -9.3684,-1.30627 0.08,-1.67647 0.2192,-3.65062 0.2068,-5.56503 1.0993,-16.72894 -0.4447,-32.43178 0.6641,-49.24415"
       id="path696" /><path
       style="display:inline;fill:none;stroke:#ffffff;stroke-width:2;stroke-linecap:round;stroke-linejoin:round;stroke-dasharray:none;stroke-opacity:1"
       d="m 1256.3849,391.50965 4.0083,-0.93843 4.0082,-1.00206 2.8631,-0.84301 8.0164,-2.02002 4.5809,-1.28837 7.4438,-1.33609 h 2.2905 l 2.2904,0.5567"
       id="path695" /><path
       style="display:inline;fill:none;stroke:#ffffff;stroke-width:2;stroke-linecap:round;stroke-linejoin:round;stroke-dasharray:none;stroke-opacity:1"
       d="m 1304.4839,305.04648 c 14.9559,0.17969 29.8519,1.94498 44.7873,2.76691 8.055,1.9541 20.3003,-2.21485 25.2411,5.39985 1.7788,9.85033 -1.447,19.87775 -0.142,29.87122 -0.353,12.39938 -0.7655,24.78317 -0.6305,37.19308 -0.8222,11.45756 -0.2716,22.92636 -0.7112,34.39984 -1.1094,11.74582 0.4209,36.31945 -0.5276,39.32065 -0.786,2.48701 -10.4895,7.56315 -16.7748,10.94092 -10.2619,4.40972 -18.4268,10.67498 -29.301,13.42608"
       id="path694" /><path
       style="display:inline;fill:none;stroke:#ffffff;stroke-width:2;stroke-linecap:round;stroke-linejoin:round;stroke-dasharray:none;stroke-opacity:1"
       d="m 1369.3308,311.34507 c -6.5132,2.62051 -13.5618,3.04409 -19.3597,4.87502 -6.7401,1.77105 -11.1912,2.67032 -17.9861,4.21698 -0.9498,0.268 -1.8879,0.57263 -2.8798,0.64231"
       id="path693" /><path
       style="display:inline;fill:none;stroke:#ffffff;stroke-width:2;stroke-linecap:round;stroke-linejoin:round;stroke-dasharray:none;stroke-opacity:1"
       d="m 1307.9193,319.93403 c 6.4622,2.03429 16.6295,-0.12568 19.9491,2.868 1.1814,1.06552 0.5176,17.72742 0.2714,25.93841 -0.3334,15.11444 0,30.24056 -0.7729,45.34764 0.4976,16.07146 -1.0672,32.09259 -0.4567,48.15958 -0.8861,11.9085 0.1489,24.03913 -0.4421,36.11837 -1.5249,0.32219 -3.5619,0.73413 -5.8471,0.19881 -0.1992,-16.86177 0.6022,-33.68749 1.1092,-50.55416 -0.4082,-12.30835 0.015,-24.60336 0.5416,-36.89548 -0.1146,-12.1212 -0.1908,-24.25205 0.9404,-36.31104 -1.0069,-9.68102 -14.3559,-4.9411 -20.9984,-7.22765 -11.9411,-1.08603 -27.1643,-1.2532 -39.0898,-2.37753"
       id="path692" /><path
       style="display:inline;fill:none;stroke:#ffffff;stroke-width:2;stroke-linecap:round;stroke-linejoin:round;stroke-dasharray:none;stroke-opacity:1"
       d="m 1264.9584,357.43868 c 12.818,-2.35806 6.6961,-0.93652 21.4283,-0.10316 8.5811,2.18454 17.09,4.29259 23.0921,10.69801 3.7317,9.39349 0.047,19.52513 -0.6517,29.1917 -1.7377,15.09023 -3.0689,39.38884 -4.3066,46.28496 -0.6346,3.53569 -1.7132,8.48091 -5.101,9.00047"
       id="path691" /><path
       style="display:inline;fill:none;stroke:#ffffff;stroke-width:2;stroke-linecap:round;stroke-linejoin:round;stroke-dasharray:none;stroke-opacity:1"
       d="m 1292.858,389.24155 c 0,0 2.5976,0.31286 3.4004,1.20872 1.4664,1.63643 1.43,4.21964 1.5162,6.41528 0.6341,16.17481 0.5926,31.55005 1.206,47.32388 0.9329,12.1284 -0.2188,7.74558 0.3545,14.7939 0.3274,4.02626 1.9436,9.60902 0.096,11.18512 -2.0778,1.7728 -4.5343,3.03663 -5.2282,-0.43443 -1.6908,-26.22587 -2.4568,-49.04416 -3.0911,-75.54913 0.64,-0.12803 1.2803,-0.25605 1.9203,-0.38408"
       id="path690" /><path
       style="display:inline;fill:none;stroke:#ffffff;stroke-width:2;stroke-linecap:round;stroke-linejoin:round;stroke-dasharray:none;stroke-opacity:1"
       d="m 1265.5464,317.07111 c 5.1398,0.1146 10.2441,0.80896 15.376,1.06614 4.4021,0.38485 8.8149,0.64692 13.2225,0.93792"
       id="path689" /><path
       style="display:inline;fill:none;stroke:#ffffff;stroke-width:2;stroke-linecap:round;stroke-linejoin:round;stroke-dasharray:none;stroke-opacity:1"
       d="m 1179.2978,335.7018 c 0.049,-2.4909 -0.556,-17.44151 1.185,-25.56656 1.2904,-6.02171 5.4875,-4.44264 6.6162,-4.48444 1.2036,-0.0446 1.7824,0.26346 2.8631,0.41355 1.2454,0.17299 1.6995,0.0565 2.863,0.17497 0.9617,0.0979 1.4212,0.28965 2.2904,0.39764 1.2038,0.14953 2.3446,0.12725 3.4357,0.12725"
       id="path688" /><path
       style="display:inline;fill:none;stroke:#ffffff;stroke-width:2;stroke-linecap:round;stroke-linejoin:round;stroke-dasharray:none;stroke-opacity:1"
       d="m 1247.594,264.57528 c 0.019,1.00485 0.078,2.01328 0.8257,3.08434"
       id="path687" /><path
       style="display:inline;fill:none;stroke:#ffffff;stroke-width:2;stroke-linecap:round;stroke-linejoin:round;stroke-dasharray:none;stroke-opacity:1"
       d="m 1293.3288,298.4677 c 2.7736,1.41845 5.2432,2.78882 7.72,4.63863 0.7506,0.55346 1.5828,0.9991 2.2905,1.60647 1.3203,1.13323 2.7118,2.2798 3.6106,3.76966 1.1431,1.89502 1.9928,4.08812 2.0995,6.29867 0.038,0.78235 -0.1756,1.58936 -0.5249,2.29042 -0.4077,0.81847 -0.9098,1.77712 -1.7655,2.09958 -3.054,1.15084 -7.0027,0.39102 -9.1458,-0.2227 -4.0717,-1.16602 -8.9151,-4.52372 -13.1699,-6.29867"
       id="path686" /><path
       style="display:inline;fill:none;stroke:#ffffff;stroke-width:2;stroke-linecap:round;stroke-linejoin:round;stroke-dasharray:none;stroke-opacity:1"
       d="m 1262.6661,339.34638 c 10.1751,1.30652 22.367,2.07371 32.5771,3.12362 7.9857,0.63506 15.9544,1.60301 23.941,2.08063 5.3481,-0.63628 3.889,-8.2306 4.1843,-12.56967 0.4107,-2.11702 -4.6533,-5.15015 -7.3512,-5.52112 -7.2306,-0.40811 -14.4075,-1.19867 -21.6327,-1.69812 -6.6709,-0.56801 -13.3334,-1.13675 -20.0198,-1.59868 -3.0896,-0.69637 -6.8734,0.0235 -9.9268,-0.90233"
       id="path685" /><path
       style="display:inline;fill:none;stroke:#ffffff;stroke-width:2;stroke-linecap:round;stroke-linejoin:round;stroke-dasharray:none;stroke-opacity:1"
       d="m 1223.4273,261.52877 c -0.5743,1.39686 -1.2875,2.8953 -2.2646,3.86728"
       id="path684" /><path
       style="display:inline;fill:none;stroke:#ffffff;stroke-width:2;stroke-linecap:round;stroke-linejoin:round;stroke-dasharray:none;stroke-opacity:1"
       d="m 1256.3854,257.5206 c 2.3949,1.88768 2.8567,6.21827 -1.2551,6.04052 -3.2934,0.0263 -6.4901,1.11898 -9.7822,0.89909 -3.3871,-0.17804 -6.8193,0.23136 -10.1491,-0.59323 -5.3569,-0.19493 -10.7342,-1.64042 -15.4286,-4.23548 -4.3476,-2.43133 -7.2331,-7.31358 -6.9052,-12.32576 0.1432,-5.06808 2.0301,-9.91724 2.3323,-14.97896 0.4923,-3.91234 0.799,-7.87388 1.9717,-11.67147 1.8227,-7.27565 7.3398,-13.58379 14.5843,-15.80647 3.9956,-1.45955 8.3614,-2.2718 12.555,-1.21373 5.5701,0.96534 10.9359,3.48325 15.2111,7.19113 3.6112,3.1754 5.8388,7.93601 5.9863,12.72968 -0.3758,3.08418 -1.3445,6.13045 -2.9968,8.77001 -0.7853,2.52258 -0.2578,5.23812 -0.3976,7.85007 0.059,3.10899 0.1327,6.31667 -1.3373,9.1629 -1.1684,2.69055 -2.6411,5.2529 -4.3888,7.6091 -1.0251,-3.17062 -2.4103,-6.3259 -2.2478,-9.72971 -0.043,-1.81673 0.011,-3.68298 0.2953,-5.46386 1.0687,-3.01726 2.2592,-5.98145 3.7901,-8.79731 0.8066,-1.88447 2.2774,-3.44306 2.9462,-5.37302 0.2332,-0.67286 0.3523,-2.10712 0.3523,-2.10712 l 0.59,8.71513"
       id="path499" /></g></svg>
