<?xml version="1.0" encoding="UTF-8" standalone="no"?>
<!-- Created with Inkscape (http://www.inkscape.org/) -->

<svg
   width="401.01181"
   height="303.67105"
   viewBox="0 0 401.01181 303.67105"
   version="1.1"
   id="svg1"
   xml:space="preserve"
   xmlns="http://www.w3.org/2000/svg"
   xmlns:svg="http://www.w3.org/2000/svg"><defs
     id="defs1" /><g
     id="layer1"
     transform="matrix(0.49408784,0,0,0.49408784,-236.32765,-114.05374)"
     style="stroke-width:4.04786;stroke-dasharray:none"><path
       style="fill:none;stroke:#ffffff;stroke-width:4.04786;stroke-linecap:round;stroke-linejoin:round;stroke-dasharray:none;stroke-opacity:1"
       d="m 481.6741,708.61618 c -0.28925,4.91121 0.25971,26.27267 0.25971,38.3599 0,7.72616 0.80648,15.41375 0.79708,23.11525 -0.003,2.47715 -0.19143,4.83827 -0.0892,7.1737 0.54493,12.44486 4.31253,25.41965 8.81705,37.46265 3.12807,8.36305 11.93871,23.51745 14.38738,28.6948"
       id="path54" /><path
       style="fill:none;stroke:#ffffff;stroke-width:4.04786;stroke-linecap:round;stroke-linejoin:round;stroke-dasharray:none;stroke-opacity:1"
       d="m 1287.5944,703.65258 c 0.1247,13.64815 0.2365,27.28282 0.185,40.93227 0,23.81084 0.5176,46.61332 -7.4487,69.34576 -3.4929,9.9676 -12.9362,24.65424 -14.0724,29.49187"
       id="path53" /><path
       id="path50"
       style="fill:none;stroke:#ffffff;stroke-width:4.04786;stroke-linecap:round;stroke-linejoin:round;stroke-dasharray:none;stroke-opacity:1"
       d="m 896.24274,654.19803 c 3.29145,0.16347 5.80432,0.70113 8.33161,2.06971 m 109.01045,-69.50427 c -33.03141,20.62437 -73.25553,45.80382 -109.21729,69.39859 3.31784,1.89377 10.63613,7.79413 9.39396,15.94156 -2.31902,15.21054 -26.23452,17.52825 -38.0712,15.39794 -5.25388,-0.94561 -10.86782,-2.92104 -15.07315,-6.29606 -1.83406,-1.47195 -3.74405,-3.17839 -4.87472,-5.30463 -5.66078,-10.6451 7.28891,-20.49736 15.96248,-21.3858 m -189.70449,41.44804 c 12.86925,-1.62646 26.07566,-3.06031 39.05681,-4.32365 57.61332,-5.60701 115.14398,-12.98777 134.93061,-15.08802" /><path
       style="fill:none;stroke:#ffffff;stroke-width:4.04786;stroke-linecap:round;stroke-linejoin:round;stroke-dasharray:none;stroke-opacity:1"
       d="m 575.75564,569.60627 c -22.07972,19.55111 -37.70699,42.99851 -49.73889,69.76432 -2.97204,6.61151 -6.2429,13.32725 -8.57351,20.12622 -1.5185,4.42985 -2.96753,10.1261 -3.87159,12.84918 -0.92012,2.77138 -2.48176,9.44491 -2.74366,12.75694 -0.0725,-1.85395 -0.77968,-10.57106 -0.95329,-13.05585 -0.15728,-2.25092 -0.097,-6.88199 -0.0314,-9.56123 0.16956,-6.92082 1.64242,-14.01522 3.27994,-20.72402 5.3786,-22.03576 16.3113,-43.41843 31.21336,-60.57791 29.46704,-33.93084 72.26764,-55.60483 113.75146,-71.39872 19.58481,-7.45643 40.62559,-13.80608 60.57791,-19.46813"
       id="path45" /><path
       style="fill:none;stroke:#ffffff;stroke-width:4.04786;stroke-linecap:round;stroke-linejoin:round;stroke-dasharray:none;stroke-opacity:1"
       d="m 715.60064,474.08472 c -7.89669,1.62117 -25.6056,6.41025 -35.19437,9.1712 -63.65684,18.32908 -118.63166,53.33556 -139.35184,74.05573 -37.90862,37.90862 -65.40262,88.15257 -60.05289,143.43393 0.26081,16.21389 7.58484,30.05934 14.68013,44.63635 15.08468,29.9574 39.84997,54.29235 65.96002,74.75799 7.1657,5.61666 14.6951,10.8579 22.31818,15.83457 4.56502,2.98024 8.00767,4.87933 10.36201,7.44799"
       id="path44" /><path
       style="fill:none;stroke:#ffffff;stroke-width:4.04786;stroke-linecap:round;stroke-linejoin:round;stroke-dasharray:none;stroke-opacity:1"
       d="m 510.82826,684.75107 c -0.0563,2.49191 2.43347,13.15425 3.80612,17.58866 3.65786,11.81693 8.15314,23.46534 14.3277,34.27434 18.3008,32.03675 45.09225,58.04967 74.9247,79.36703 11.90515,8.50709 30.04792,19.0923 42.24512,25.65287"
       id="path42" /><path
       style="fill:none;stroke:#ffffff;stroke-width:4.04786;stroke-linecap:round;stroke-linejoin:round;stroke-dasharray:none;stroke-opacity:1"
       d="m 1128.1372,276.00281 c -39.7119,20.97408 -81.5519,61.26538 -97.8437,76.53429 -31.82308,29.82507 -60.18852,63.71151 -66.43737,72.4196 -14.16264,19.73642 -36.14923,48.76423 -48.37815,78.11361 -0.70828,1.6999 -1.42414,3.0996 -2.05909,4.78247 -1.48854,3.94508 -3.40233,8.69716 -4.78247,12.75324 -7.49157,22.01567 -13.96089,46.66157 -14.61309,70.14284 -0.43863,15.79219 -0.83765,31.27151 0.73063,47.02758 0.34537,3.4696 0.65862,8.67746 0.86355,11.95616 0.10402,1.66412 0.5519,3.01765 0.79708,4.78247 0.24383,1.75601 -0.1186,2.78422 0.0662,4.78247 0.82226,8.88037 1.31725,17.60372 -10.42844,18.31065 -14.17508,0.85312 -14.37289,-7.3016 -14.3474,-18.31065 0.004,-1.87745 0.0267,-3.05842 0.30999,-4.78247 0.31516,-1.91763 0.42312,-3.45423 0.48709,-5.57954 0.1928,-6.40688 0.79708,-13.38674 0.79708,-19.92695 0,-26.55053 -0.36318,-54.0312 -7.97078,-79.70776 -5.18756,-17.5086 -14.70139,-35.11853 -15.78454,-37.3185 -2.55549,0.80584 -11.42921,3.86296 -32.04012,6.16604 -23.03931,2.57442 -49.96798,-8.07492 -70.14284,-20.17049 -9.86393,-5.91379 -19.96082,-14.19081 -28.69479,-21.38826 -7.85527,-6.47332 -25.39789,-22.71068 -49.10885,-54.82122 -11.93439,-16.63122 -20.62166,-35.25269 -32.50305,-51.81005 -6.03901,-8.41568 -12.3826,-16.96524 -20.41405,-23.60233 -8.09889,-6.69285 -16.1145,-9.72752 -19.92694,-14.6574 1.08345,-0.66441 1.81512,-1.31024 4.00507,-1.9853 3.10492,-0.95714 9.94319,-2.09072 13.53064,-2.79658 10.73002,-2.11126 21.78366,-3.83895 32.68019,-4.7148 43.8546,-3.52496 89.4006,-2.11407 130.72074,14.76009 28.41263,11.60302 51.82347,30.82994 66.95145,57.70573 5.14739,9.14465 8.73113,19.36435 11.263,29.49187 1.51433,6.05723 3.24353,19.45189 3.49871,33.98819"
       id="path36" /><path
       style="fill:none;stroke:#ffffff;stroke-width:4.04786;stroke-linecap:round;stroke-linejoin:round;stroke-dasharray:none;stroke-opacity:1"
       d="m 683.09727,364.61225 c 37.08182,1.26608 116.08382,63.25907 156.38379,110.56034 7.0981,8.33127 15.8485,20.32599 18.32127,23.77558"
       id="path34" /><path
       style="fill:none;stroke:#ffffff;stroke-width:4.04786;stroke-linecap:round;stroke-linejoin:round;stroke-dasharray:none;stroke-opacity:1"
       d="m 682.7975,364.37879 c 30.38844,6.66288 79.334,47.10844 89.58355,57.43718 25.6282,25.8262 59.25838,56.28088 77.09678,90.02876"
       id="path32" /><path
       style="fill:none;stroke:#ffffff;stroke-width:4.04786;stroke-linecap:round;stroke-linejoin:round;stroke-dasharray:none;stroke-opacity:1"
       d="m 1223.2164,242.42591 h 2.3913"
       id="path27" /><path
       style="fill:none;stroke:#ffffff;stroke-width:4.04786;stroke-linecap:round;stroke-linejoin:round;stroke-dasharray:none;stroke-opacity:1"
       d="m 897.19892,458.43183 c 1.64478,7.45566 5.7843,19.62323 7.34786,23.15259 1.1287,2.54777 2.93651,5.16742 3.36151,7.77254 -0.7314,2.26883 -1.87999,5.21184 -3.72036,8.93087 -5.0117,10.12749 -9.42114,20.54647 -13.50359,31.08603 -2.43073,6.27535 -3.83963,11.30163 -6.22595,15.14447 -6.97861,-6.09024 -12.84947,-23.60965 -18.97671,-33.47726 -1.67701,-2.70072 -5.39632,-8.97108 -7.58992,-11.86776 0.51747,-13.61181 1.20453,-29.54257 1.53037,-41.33331 12.56718,-0.7646 22.72854,-1.03472 37.92429,0.8386 -3.87416,-16.3272 -3.12728,-34.17592 -3.31142,-41.69269 -0.38681,-15.79055 1.62085,-32.43996 5.46699,-47.82466 12.52114,-50.08435 47.25746,-90.01034 94.15608,-111.56875 28.09783,-12.91602 60.02653,-21.75116 90.86683,-23.86314 3.5141,-0.24067 5.3546,-0.0555 8.7679,-0.072 10.2445,-0.0494 22.2223,-0.79645 32.6802,-0.79645 10.457,0 22.4351,0.78063 32.6801,0.79708 3.1661,0.005 4.8759,-0.0641 7.9708,0.0117 11.9378,0.29243 26.9438,2.97834 39.0568,4.66688 7.2428,1.00962 13.0347,1.33202 17.5357,4.0893 -3.9058,4.61253 -11.3456,8.18075 -17.524,14.35908 -8.3367,8.33666 -14.8121,18.55306 -20.7264,28.68311 -14.2688,24.43926 -21.1568,51.66994 -32.5788,77.31654 -10.4224,23.4018 -24.3897,44.4221 -41.1006,63.76621 -6.85,7.92943 -12.9975,13.00976 -20.5212,20.23896 -3.5424,3.40379 -9.1633,7.77326 -13.2739,10.28734 -8.1118,5.30773 -21.0955,15.04319 -26.3527,17.5809 5.0921,0.57446 17.5904,3.91292 27.0095,6.19742 24.2755,5.88774 49.1717,12.73042 71.737,24.00581 31.9658,15.97266 59.4861,32.72355 83.7644,58.78693 18.7268,20.10364 33.2994,44.6164 44.2243,70.14284 9.2666,21.65148 10.4835,42.25154 9.9174,65.36037 -0.5625,22.95492 -15.4468,48.90056 -22.373,59.78083 -14.4298,22.66787 -34.1344,41.60668 -54.9552,58.34288 -10.7631,8.65154 -32.5727,25.5437 -40.651,26.14735"
       id="path26" /><path
       style="fill:none;stroke:#ffffff;stroke-width:4.04786;stroke-linecap:round;stroke-linejoin:round;stroke-dasharray:none;stroke-opacity:1"
       d="m 1044.6708,489.51999 c 44.3217,9.1482 90.2285,27.51283 129.1266,50.85369 35.9917,21.59692 68.9805,53.35414 80.3836,95.01153 2.8839,10.53559 4.7085,24.7358 4.1029,35.07141 -0.518,8.84083 -0.9144,14.89902 -1.8297,22.31818 -7.0758,48.9708 -49.0697,92.35325 -87.4393,119.89685 -9.5542,6.85849 -19.3156,13.34744 -29.4919,19.25348 -4.8543,2.81731 -11.3519,5.88293 -15.9415,8.77028"
       id="path24" /><path
       style="fill:none;stroke:#ffffff;stroke-width:4.04786;stroke-linecap:round;stroke-linejoin:round;stroke-dasharray:none;stroke-opacity:1"
       d="m 1193.3258,572.41607 c 20.9138,17.73916 39.8174,43.01065 48.3978,60.97644 7.512,15.72861 10.5789,25.27496 13.0098,38.4457 0.5368,2.90827 1.8992,10.67389 2.1251,18.63326"
       id="path21" /><path
       style="fill:none;stroke:#ffffff;stroke-width:4.04786;stroke-linecap:round;stroke-linejoin:round;stroke-dasharray:none;stroke-opacity:1"
       d="m 915.54422,503.86739 c 15.93214,0.70533 32.01526,0.30561 47.82466,-1.92935 18.61455,-2.81512 38.14842,-6.69307 55.79542,-13.69423 12.2962,-4.87836 25.7197,-10.93145 31.8934,-13.59607"
       id="path19" /><path
       style="fill:none;stroke:#ffffff;stroke-width:4.04786;stroke-linecap:round;stroke-linejoin:round;stroke-dasharray:none;stroke-opacity:1"
       d="m 907.82029,489.46266 c 4.573,-7.93693 11.57907,-20.44991 17.92684,-31.0287 13.38078,-22.29954 29.71792,-42.58211 46.72804,-62.17206 19.44455,-22.39325 76.44363,-71.10469 108.86143,-92.72668 14.7557,-9.84186 30.5601,-20.73965 47.0276,-27.63205"
       id="path17" /></g></svg>
