<?xml version="1.0" encoding="UTF-8" standalone="no"?>
<!-- Created with Inkscape (http://www.inkscape.org/) -->

<svg
   width="525.4527"
   height="581.0025"
   viewBox="0 0 525.4527 581.0025"
   version="1.1"
   id="svg1"
   xml:space="preserve"
   xmlns="http://www.w3.org/2000/svg"
   xmlns:svg="http://www.w3.org/2000/svg"><defs
     id="defs1" /><g
     id="layer1"
     transform="translate(-345.27979,-273.2489)"><path
       style="fill:none;stroke:#ffffff;stroke-width:2;stroke-dasharray:none;stroke-opacity:1"
       d="m 385.619,841.90476 203.00005,4.19048"
       id="path52" /><path
       style="fill:none;stroke:#ffffff;stroke-width:2;stroke-dasharray:none;stroke-opacity:1"
       d="m 680.2381,842.61905 c 4.76841,-2.00776 54.85211,-6 142,-6 11.3967,0 42.30051,0.90476 47.52381,0.90476"
       id="path51" /><path
       style="fill:none;stroke:#ffffff;stroke-width:2;stroke-dasharray:none;stroke-opacity:1"
       d="m 358.0199,300.28367 389.74358,-0.63095 h 50 19"
       id="path50" /><path
       style="fill:none;stroke:#ffffff;stroke-width:2;stroke-dasharray:none;stroke-opacity:1"
       d="m 830.04762,286 0.19048,24.61905 v 58 c 0,82.03973 -1.99628,163.71618 -1.99628,245.53875"
       id="path49" /><path
       style="fill:none;stroke:#ffffff;stroke-width:2;stroke-dasharray:none;stroke-opacity:1"
       d="m 710.40799,288.30907 80.83011,-3.69002 34,-1 5.42857,2.09524"
       id="path48" /><path
       style="fill:none;stroke:#ffffff;stroke-width:2;stroke-dasharray:none;stroke-opacity:1"
       d="m 839.4762,276.71429 c 2.69,6.38885 0.91289,22.2639 1,33 l 0.7619,93.90476 v 312 83 23 c 0,1.65308 -0.449,3.51532 0.5,4.83331 1.0802,1.50031 2.738,1.14221 4.5,1.16669 3.7351,0.0519 20.101,-2.16534 22.5,1.16669 1.8827,2.61474 0.4557,10.6383 0.5,13.83331 0.031,2.2442 0.8682,6.93311 -0.5,8.83331 -2.2954,3.18811 -15.7409,1.16669 -19.5,1.16669 h -59 -442.94573"
       id="path47" /><path
       style="fill:none;stroke:#ffffff;stroke-width:2;stroke-dasharray:none;stroke-opacity:1"
       d="m 807.80953,827.7143 h 21.09524"
       id="path46" /><path
       style="fill:none;stroke:#ffffff;stroke-width:2;stroke-dasharray:none;stroke-opacity:1"
       d="m 665.2381,826.61906 c 0,-3.60626 -1.1367,-10.16406 1.1667,-11.5 3.5141,-2.03821 15.8595,0.5 20.8333,0.5 h 47 c 5.305,0 14.8373,-1.95667 19,0.5 3.7478,2.21185 1.114,6.16895 1,10.5"
       id="path45" /><path
       style="fill:none;stroke:#ffffff;stroke-width:2;stroke-dasharray:none;stroke-opacity:1"
       d="m 835.2381,624.61905 -2,42 -6,120 v 35 l 0.30952,6.07141 8.69048,-0.0714 6.66667,-0.19048"
       id="path44" /><path
       style="fill:none;stroke:#ffffff;stroke-width:2;stroke-dasharray:none;stroke-opacity:1"
       d="m 400.65524,274.80357 366.58286,-0.18452 h 51 c 8.8894,0 15.8707,-1.64453 21,2 -4.075,4.07501 -8.0778,8.83356 -12,12.33331 -1.7651,1.57502 -2.9193,2.586 -5,4.66669 -2.1567,2.15668 -5.2601,4.03296 -6.1667,7 -1.8022,5.89795 0.1667,18.02649 0.1667,25 v 62 310 c 0,31.14856 -1,61.94739 -1,93 0,8.67883 4.5695,28.10443 0.5,35 -1.7144,2.90485 -9.8745,2 -13.5,2 -13.2602,0 -30.0976,0.1792 -43,0 -19.2747,-0.2677 -47.67218,-0.0588 -69,0 l -320.49509,0.88388"
       id="path43" /><path
       style="fill:none;stroke:#ffffff;stroke-width:2;stroke-dasharray:none;stroke-opacity:1"
       d="m 550.78811,288.8833 103.10171,0.65208 49.45678,2.87265"
       id="path42" /><path
       style="fill:none;stroke:#ffffff;stroke-width:2;stroke-dasharray:none;stroke-opacity:1"
       d="m 345.37548,289.33334 c 46.41609,-0.20905 155.66976,-7.63537 184.03832,-9.57423"
       id="path1" /><path
       id="path3-8-4"
       style="fill:none;fill-rule:evenodd;stroke:#ffffff;stroke-width:2;stroke-linecap:round;stroke-linejoin:round;stroke-dasharray:none;stroke-opacity:1"
       d="M 755.45337,363.66693 V 749.47655 M 471.85827,363.09085 V 749.95164 M 396.09525,363.66537 V 749.4655 m 0.006,10e-4 359.35167,0.0255 m -359.29486,-64.33217 359.29175,-0.0765 m -359.29221,-64.22989 359.16372,-0.0255 m -359.13247,-64.28118 359.26475,-0.0255 m -359.18708,-64.28117 359.06782,-0.0255 m -359.23143,-64.28118 359.341,-0.0255 m -359.32257,-64.28117 359.313,0.0255" /><path
       id="path62"
       style="fill:none;stroke:#ffffff;stroke-width:2;stroke-linecap:round;stroke-linejoin:round;stroke-dasharray:none;stroke-opacity:1"
       d="m 434.82188,635.65097 -5.20533,8.65784 -2.97448,5.7329 2.97448,-2.04748 4.88664,-1.81345 3.98367,-0.234 3.87743,0.93599 3.3463,2.22295 1.32788,3.33443 v 3.86095 l -1.32788,4.21191 -3.50564,4.79691 -4.19613,2.96003 -4.99287,2.21126 -4.88664,0.92136 h -3.98367 l -3.5375,-0.73709 -2.50971,-1.2899 -1.50583,-2.76698 -0.49929,-2.93665 0.99857,-1.46248 m 15.71161,-26.90949 7.54242,-0.58499 7.86111,-0.351 4.35548,0.351 m -20.24883,-25.22339 1.32789,-5.89668 2.81513,-9.03807 5.20533,-12.51877 4.51483,-10.12031 -7.01127,6.43488 -7.06437,6.08389 -7.17062,4.79691 -3.51625,3.27593 -2.17508,3.50993 2.84434,-1.63795 2.00777,-0.93599 h 5.03536 l 4.14302,0.1755 3.87744,0.93598 h 4.03679 l 4.30236,-1.81347 2.0184,-1.52098 1.32789,-1.81345 m -21.57722,-74.94214 0.84985,-4.03642 3.50563,-2.92495 4.51483,-1.28697 3.87744,-0.234 4.19614,1.11148 2.49643,3.50994 0.15935,3.86092 -1.0092,2.22296 -2.33708,2.22296 -1.85905,1.63797 -3.82433,0.93598 -4.03678,0.76049 -2.65579,1.11148 -0.6905,-0.58499 -0.31869,-1.63797 4.03679,0.35099 6.00206,1.28698 2.86825,1.11147 1.64658,2.74945 0.47804,4.79691 -1.16854,3.68543 -3.13383,3.87263 -3.55874,2.767 -3.98367,1.84271 -7.06438,1.10563 -3.82433,-0.55281 -2.33709,-1.65845 -1.50848,-3.12969 0.49929,-2.19956 0.84984,-1.28697 m 4.15322,-86.43328 -0.15935,-0.58499 v -2.04746 l 4.88664,-3.86093 4.51483,-1.63796 5.31156,-0.76049 5.36468,1.28698 2.54955,2.04746 1.48724,4.44591 -1.6997,4.56292 -4.14302,5.0309 -5.52403,4.73841 -4.51483,3.50994 -4.72729,3.33443 -3.34628,2.04747 -1.48724,0.90088 -2.49643,1.84271 -1.0092,1.10563 -2.51237,1.83687 v -1.83687 l 1.33851,-2.02991 2.02371,-0.73708 3.50563,0.18135 3.66498,1.48002 2.33709,1.65552 5.52402,2.39553 5.84272,0.18427 3.02759,-1.47417 2.49644,-2.21126 0.6905,-1.66137 m -16.28075,-84.4867 4.83352,-4.27042 2.86825,-3.86093 2.17774,-3.33444 h 1.48724 l -5.15222,12.75276 -5.04598,12.69426 -2.0184,6.43488 -0.47804,3.69713 m -7.36714,1.65844 3.34629,-1.2899 h 3.33035 l 3.87744,-0.36854 4.19614,0.18719" /><path
       id="path70"
       style="fill:none;fill-rule:evenodd;stroke:#ffffff;stroke-width:2;stroke-linecap:round;stroke-linejoin:round;stroke-dasharray:none;stroke-opacity:1;paint-order:stroke fill markers"
       d="m 510.97852,397.18837 8.9651,-4e-5 m -9.36916,-15.89303 -0.0484,30.79994 M 491,381.16062 l 32.95546,0.16456" /><path
       id="path70-4-8-71"
       style="fill:none;fill-rule:evenodd;stroke:#ffffff;stroke-width:2;stroke-linecap:round;stroke-linejoin:round;stroke-dasharray:none;stroke-opacity:1;paint-order:stroke fill markers"
       d="m 562.72981,526.31947 8.9651,-4e-5 m -9.36916,-15.89303 -0.0484,30.79994 m -12.19041,-17.06186 0.0168,17.24836 m -7.35245,-31.12112 32.95546,0.16456 m -62.97694,15.86343 8.9651,-4e-5 m -9.36916,-15.89303 -0.0484,30.79994 M 491,541.53611 l 37.46748,0.0203 m -28.38054,-17.39169 0.0168,17.24836 m -7.35245,-31.12112 32.95546,0.16456" /><path
       id="path70-4-76"
       style="fill:none;fill-rule:evenodd;stroke:#ffffff;stroke-width:2;stroke-linecap:round;stroke-linejoin:round;stroke-dasharray:none;stroke-opacity:1;paint-order:stroke fill markers"
       d="m 512.72981,589.02775 8.9651,-4e-5 m -9.36916,-15.89303 -0.0484,30.79994 M 491,604.24415 l 37.46748,0.0203 m -28.38054,-17.39169 0.0168,17.24836 M 492.75129,573 l 32.95546,0.16456" /><path
       id="path70-4-8-7-9"
       style="fill:none;fill-rule:evenodd;stroke:#ffffff;stroke-width:2;stroke-linecap:round;stroke-linejoin:round;stroke-dasharray:none;stroke-opacity:1;paint-order:stroke fill markers"
       d="m 592.75129,637 32.95546,0.16456 m -62.97694,15.86319 8.9651,-4e-5 m -9.36916,-15.89303 -0.0484,30.79994 M 541,668.24415 l 37.46748,0.0203 m -28.38054,-17.39169 0.0168,17.24836 M 542.75129,637 l 32.95546,0.16456 m -62.97694,15.86343 8.9651,-4e-5 m -9.36916,-15.89303 -0.0484,30.79994 M 491,668.24439 l 37.46748,0.0203 m -28.38054,-17.39169 0.0168,17.24836 m -7.35245,-31.12112 32.95546,0.16456" /><path
       style="fill:none;fill-rule:evenodd;stroke:#ffffff;stroke-width:3.3;stroke-linecap:round;stroke-linejoin:round;stroke-dasharray:none;stroke-opacity:1;paint-order:stroke fill markers"
       d="m 492.75129,445.09524 32.95546,0.16456"
       id="path18" /><path
       style="fill:none;fill-rule:evenodd;stroke:#ffffff;stroke-width:3.3;stroke-linecap:round;stroke-linejoin:round;stroke-dasharray:none;stroke-opacity:1;paint-order:stroke fill markers"
       d="m 500.08694,458.968 0.0168,17.24836"
       id="path17" /><path
       style="fill:none;fill-rule:evenodd;stroke:#ffffff;stroke-width:3.3;stroke-linecap:round;stroke-linejoin:round;stroke-dasharray:none;stroke-opacity:1;paint-order:stroke fill markers"
       d="m 491,476.33939 37.46748,0.0203"
       id="path16" /><path
       style="fill:none;fill-rule:evenodd;stroke:#ffffff;stroke-width:3.3;stroke-linecap:round;stroke-linejoin:round;stroke-dasharray:none;stroke-opacity:1;paint-order:stroke fill markers"
       d="m 512.32575,445.22992 -0.0484,30.79994"
       id="path15" /><path
       style="fill:none;fill-rule:evenodd;stroke:#ffffff;stroke-width:3.3;stroke-linecap:round;stroke-linejoin:round;stroke-dasharray:none;stroke-opacity:1;paint-order:stroke fill markers"
       d="m 512.72981,461.12299 8.9651,-4e-5"
       id="path70-4" /><path
       style="fill:none;fill-rule:evenodd;stroke:#ffffff;stroke-width:3.3;stroke-linecap:round;stroke-linejoin:round;stroke-dasharray:none;stroke-opacity:1;paint-order:stroke fill markers"
       d="m 542.75129,445.095 32.95546,0.16456"
       id="path14" /><path
       style="fill:none;fill-rule:evenodd;stroke:#ffffff;stroke-width:3.3;stroke-linecap:round;stroke-linejoin:round;stroke-dasharray:none;stroke-opacity:1;paint-order:stroke fill markers"
       d="m 550.08694,458.96776 0.0168,17.24836"
       id="path13" /><path
       style="fill:none;fill-rule:evenodd;stroke:#ffffff;stroke-width:3.3;stroke-linecap:round;stroke-linejoin:round;stroke-dasharray:none;stroke-opacity:1;paint-order:stroke fill markers"
       d="m 541,476.33915 37.46748,0.0203"
       id="path12" /><path
       style="fill:none;fill-rule:evenodd;stroke:#ffffff;stroke-width:3.3;stroke-linecap:round;stroke-linejoin:round;stroke-dasharray:none;stroke-opacity:1;paint-order:stroke fill markers"
       d="m 562.32575,445.22968 -0.0484,30.79994"
       id="path11" /><path
       style="fill:none;fill-rule:evenodd;stroke:#ffffff;stroke-width:3.3;stroke-linecap:round;stroke-linejoin:round;stroke-dasharray:none;stroke-opacity:1;paint-order:stroke fill markers"
       d="m 562.72981,461.12275 8.9651,-4e-5"
       id="path70-4-8" /><path
       style="fill:none;fill-rule:evenodd;stroke:#ffffff;stroke-width:3.3;stroke-linecap:round;stroke-linejoin:round;stroke-dasharray:none;stroke-opacity:1;paint-order:stroke fill markers"
       d="m 592.75129,445.095 32.95546,0.16456"
       id="path10" /><path
       style="fill:none;fill-rule:evenodd;stroke:#ffffff;stroke-width:3.3;stroke-linecap:round;stroke-linejoin:round;stroke-dasharray:none;stroke-opacity:1;paint-order:stroke fill markers"
       d="m 600.08694,458.96776 0.0168,17.24836"
       id="path9" /><path
       style="fill:none;fill-rule:evenodd;stroke:#ffffff;stroke-width:3.3;stroke-linecap:round;stroke-linejoin:round;stroke-dasharray:none;stroke-opacity:1;paint-order:stroke fill markers"
       d="m 591,476.33915 37.46748,0.0203"
       id="path8" /><path
       style="fill:none;fill-rule:evenodd;stroke:#ffffff;stroke-width:3.3;stroke-linecap:round;stroke-linejoin:round;stroke-dasharray:none;stroke-opacity:1;paint-order:stroke fill markers"
       d="m 612.32575,445.22968 -0.0484,30.79994"
       id="path7" /><path
       style="fill:none;fill-rule:evenodd;stroke:#ffffff;stroke-width:3.3;stroke-linecap:round;stroke-linejoin:round;stroke-dasharray:none;stroke-opacity:1;paint-order:stroke fill markers"
       d="m 612.72981,461.12275 8.9651,-4e-5"
       id="path70-4-8-7" /><path
       style="fill:none;fill-rule:evenodd;stroke:#ffffff;stroke-width:3.3;stroke-linecap:round;stroke-linejoin:round;stroke-dasharray:none;stroke-opacity:1;paint-order:stroke fill markers"
       d="m 642.75129,445.095 32.95546,0.16456"
       id="path6" /><path
       style="fill:none;fill-rule:evenodd;stroke:#ffffff;stroke-width:3.3;stroke-linecap:round;stroke-linejoin:round;stroke-dasharray:none;stroke-opacity:1;paint-order:stroke fill markers"
       d="m 650.08694,458.96776 0.0168,17.24836"
       id="path5" /><path
       style="fill:none;fill-rule:evenodd;stroke:#ffffff;stroke-width:3.3;stroke-linecap:round;stroke-linejoin:round;stroke-dasharray:none;stroke-opacity:1;paint-order:stroke fill markers"
       d="m 641,476.33915 37.46748,0.0203"
       id="path4" /><path
       style="fill:none;fill-rule:evenodd;stroke:#ffffff;stroke-width:3.3;stroke-linecap:round;stroke-linejoin:round;stroke-dasharray:none;stroke-opacity:1;paint-order:stroke fill markers"
       d="m 662.32575,445.22968 -0.0484,30.79994"
       id="path3" /><path
       style="fill:none;fill-rule:evenodd;stroke:#ffffff;stroke-width:3.3;stroke-linecap:round;stroke-linejoin:round;stroke-dasharray:none;stroke-opacity:1;paint-order:stroke fill markers"
       d="m 662.72981,461.12275 8.9651,-4e-5"
       id="path70-4-8-7-0" /><path
       style="fill:none;fill-rule:evenodd;stroke:#ffffff;stroke-width:3.3;stroke-linecap:round;stroke-linejoin:round;stroke-dasharray:none;stroke-opacity:1;paint-order:stroke fill markers"
       d="m 692.75129,445.095 32.95546,0.16456"
       id="path2" /><path
       style="fill:none;fill-rule:evenodd;stroke:#ffffff;stroke-width:3.3;stroke-linecap:round;stroke-linejoin:round;stroke-dasharray:none;stroke-opacity:1;paint-order:stroke fill markers"
       d="m 712.32575,445.22968 -0.0484,30.79994"
       id="path70-4-8-7-0-4" /></g></svg>
