<?xml version="1.0" encoding="UTF-8" standalone="no"?>
<!-- Created with Inkscape (http://www.inkscape.org/) -->

<svg
   width="401.37708"
   height="371.04956"
   viewBox="0 0 401.37708 371.04956"
   version="1.1"
   id="svg1"
   xml:space="preserve"
   xmlns="http://www.w3.org/2000/svg"
   xmlns:svg="http://www.w3.org/2000/svg"><defs
     id="defs1" /><g
     id="layer1"
     transform="translate(-673.94762,-297.59064)"><path
       style="opacity:1;fill:none;stroke:#ffffff;stroke-width:2;stroke-linecap:round;stroke-linejoin:round;stroke-dasharray:none;stroke-opacity:1"
       d="m 823.2301,658.4855 c 7.84269,4.66736 17.06133,3.27309 17.61511,9.10181 31.13668,0.0282 204.37219,0.0757 233.47949,0.0402"
       id="path141" /><path
       style="opacity:1;fill:none;stroke:#ffffff;stroke-width:2;stroke-linecap:round;stroke-linejoin:round;stroke-dasharray:none;stroke-opacity:1"
       d="m 777.16766,653.30229 c 2.39267,4.3936 5.28641,6.71896 9.20119,9.63681 1.7937,1.40348 3.94188,2.83431 2.67532,4.69184 8.76703,0.004 22.58606,-0.046 26.57027,-0.0165 -0.73766,-2.60865 0.50531,-5.91048 0.55002,-8.07713"
       id="path140" /><path
       style="opacity:1;fill:none;stroke:#ffffff;stroke-width:2;stroke-linecap:round;stroke-linejoin:round;stroke-dasharray:none;stroke-opacity:1"
       d="m 770.59788,650.83982 c -1.43563,1.56349 -4.74753,5.08251 -4.80755,7.3079 -0.0327,1.21336 1.49238,2.36748 2.18907,2.82107 2.11369,1.37615 7.10493,5.02583 11.23624,6.64571 -9.46322,0.0291 -91.1208,0.0168 -104.26802,0.0189"
       id="path139" /><path
       style="opacity:1;fill:none;stroke:#ffffff;stroke-width:2;stroke-linecap:round;stroke-linejoin:round;stroke-dasharray:none;stroke-opacity:1"
       d="m 807.1648,572.99067 c 2.35555,-0.65215 3.75613,-1.17692 6.14258,-2.11671"
       id="path138" /><path
       style="opacity:1;fill:none;stroke:#ffffff;stroke-width:2;stroke-linecap:round;stroke-linejoin:round;stroke-dasharray:none;stroke-opacity:1"
       d="m 796.4245,514.32368 v 11.83573 c 0,5.03111 -0.24149,7.51982 0.0557,11.83574 0.50839,7.38189 3.47253,14.54365 5.53475,21.17973 1.04717,3.36967 2.56595,10.61333 3.79265,14.1328 0.48902,-0.11404 0.96128,-0.17398 1.37738,-0.33217 -0.28181,3.30905 0.87107,11.00779 1.96827,12.29482 0.88476,1.03784 3.32925,3.00277 4.96038,1.53327 1.55209,-1.3983 1.40603,-4.45243 1.40233,-6.26334 -0.004,-1.78838 2.64558,-0.49326 2.12189,-2.32259 -0.42402,-1.48116 -3.61661,-6.11929 -4.34324,-7.34373 0.53671,-0.20472 0.77149,-0.35855 1.12327,-0.50573 -0.78909,-2.70232 -6.15406,-23.62093 -5.87605,-35.00106 0.12718,-5.20643 0.63275,-10.16356 1.0195,-15.43707 0.19071,-2.60011 0.46472,-3.2093 0.56764,-5.6064"
       id="path137" /><path
       style="opacity:1;fill:none;stroke:#ffffff;stroke-width:2;stroke-linecap:round;stroke-linejoin:round;stroke-dasharray:none;stroke-opacity:1"
       d="m 813.74622,497.64914 c 1.14257,2.74798 2.97746,5.86521 3.84019,8.5764 3.93971,12.38089 7.15951,57.18346 6.33338,59.5951 -0.34136,0.76008 -1.53187,0.93923 -2.04249,1.03635 0.15125,1.82273 0.70618,5.29134 0.71037,7.89122 0.005,2.94704 0.49541,5.74579 0.5984,8.09814 0.079,1.80325 0.0244,3.01471 0.0245,4.98347 2.7e-4,4.24646 0.44298,5.79445 0.59841,9.344 0.10026,2.28961 0.0245,4.73861 0.0245,7.4752 0,5.54564 0.62293,9.88389 0.62293,14.9504 v 4.98346 c 0,3.77129 -0.26945,15.36852 0.10574,19.31094 0.20143,2.11677 0.48769,3.32526 0.5148,5.6064 0.0397,3.33424 0.88902,5.78508 1.06389,8.43069 -2.88824,0.78919 -7.80782,1.63536 -11.29304,1.57966 -0.91036,-2.89855 -2.04294,-7.97958 -2.59242,-11.25622 -1.44001,-8.58677 -2.97658,-18.13214 -4.25765,-26.78613 -0.79083,-5.34231 -1.56645,-10.24108 -2.63695,-14.59952 -1.80227,3.0879 -3.42483,5.14141 -5.66791,9.61605 -4.51959,9.016 -9.18182,16.7543 -14.21882,25.54027 -2.06964,3.61004 -4.99325,9.15189 -6.49939,11.66169 -2.52863,-0.54826 -7.98279,-2.6517 -9.68983,-3.95645 1.29315,-3.0368 2.9924,-8.17354 4.08432,-10.81991 1.027,-2.48903 1.94368,-4.92944 3.02815,-7.4752 1.2795,-3.00357 2.46504,-5.75681 3.73712,-8.72107 2.19318,-5.11064 5.19935,-10.69465 6.26346,-16.19626 1.07873,-5.57721 1.91064,-11.20201 2.72005,-16.8192 0.96092,-6.66863 2.23572,-15.39428 3.91893,-21.88221 2.24472,6.18101 4.44727,16.59138 6.71658,23.12807 0.91725,2.64214 1.75538,4.6736 2.69268,7.4752 1.05485,3.15311 2.5196,6.5968 2.91466,8.44902"
       id="path136" /><path
       style="opacity:1;fill:none;stroke:#ffffff;stroke-width:2;stroke-linecap:round;stroke-linejoin:round;stroke-dasharray:none;stroke-opacity:1"
       d="m 815.83276,567.62341 c 1.75489,-0.18271 3.48343,-0.37291 5.99573,-0.7592"
       id="path135" /><path
       style="opacity:1;fill:none;stroke:#ffffff;stroke-width:2;stroke-linecap:round;stroke-linejoin:round;stroke-dasharray:none;stroke-opacity:1"
       d="m 801.30807,491.33371 c -3.95514,4.64044 -7.45818,11.35947 -8.82933,18.0065 -0.76734,3.71988 -0.82116,8.45074 -1.1435,11.83574 -0.89343,9.38217 -0.51718,18.88373 -0.51718,28.65493 0,4.47771 -0.004,15.90227 0.47944,16.85099 0.9654,1.89192 8.40551,1.41573 10.92803,1.45378"
       id="path134" /><path
       style="opacity:1;fill:none;stroke:#ffffff;stroke-width:2;stroke-linecap:round;stroke-linejoin:round;stroke-dasharray:none;stroke-opacity:1"
       d="m 801.50526,489.07541 c -3.38021,-1.96583 -10.73299,-4.59134 -13.13698,-10.09375 -0.61866,-1.41605 -0.5446,-2.66768 -0.2683,-4.28944 -0.37557,-1.9678 -0.35924,-5.05925 0.40889,-6.33228 3.84709,-6.37575 11.84053,-8.23807 13.77803,-12.36466 4.1426,4.13843 -0.52829,8.27049 -1.38994,12.85426 -0.33774,1.98651 1.06873,3.46686 0.55519,5.41126 -0.51918,1.96569 -3.50355,1.60537 -3.47226,3.95774 0.0275,2.06628 2.32835,2.80134 3.05216,4.49705 1.48873,3.48769 0.28752,7.05827 0.24019,8.7627 1.40197,0.59216 8.27841,3.25086 11.30315,3.78959 -0.62868,-5.72295 -0.7056,-9.86534 1.72524,-11.34951 3.4383,-2.09927 6.31662,-2.90529 4.69459,-7.00963 -0.49942,-1.26374 -2.55541,-4.22246 -3.07725,-5.99457 -0.27877,-0.9467 1.10811,-1.90321 0.70632,-2.54911 -0.64915,-1.04353 -3.57631,-0.083 -5.42299,-1.30995 -2.49869,-1.66016 -3.78454,-3.78092 -5.39286,-4.62115"
       id="path133" /><path
       style="opacity:1;fill:none;stroke:#ffffff;stroke-width:2;stroke-linecap:round;stroke-linejoin:round;stroke-dasharray:none;stroke-opacity:1"
       d="m 898.65243,408.2269 c 2.91501,3.79294 5.72189,8.12864 7.4752,11.83573"
       id="path132" /><path
       style="opacity:1;fill:none;stroke:#ffffff;stroke-width:2;stroke-linecap:round;stroke-linejoin:round;stroke-dasharray:none;stroke-opacity:1"
       d="m 841.34253,408.2269 -7.4752,11.83573"
       id="path131" /><path
       style="opacity:1;fill:none;stroke:#ffffff;stroke-width:2;stroke-linecap:round;stroke-linejoin:round;stroke-dasharray:none;stroke-opacity:1"
       d="M 869.99746,405.73517 V 432.5213"
       id="path130" /><path
       style="opacity:1;fill:none;stroke:#ffffff;stroke-width:2;stroke-linecap:round;stroke-linejoin:round;stroke-dasharray:none;stroke-opacity:1"
       d="m 906.12763,377.70316 c 5.01885,2.23521 17.57606,7.05732 23.67147,8.72107"
       id="path129" /><path
       style="opacity:1;fill:none;stroke:#ffffff;stroke-width:2;stroke-linecap:round;stroke-linejoin:round;stroke-dasharray:none;stroke-opacity:1"
       d="m 809.57292,386.42423 c 6.9474,-1.64637 16.81734,-6.19154 24.29441,-8.72107"
       id="path128" /><path
       style="opacity:1;fill:none;stroke:#ffffff;stroke-width:2;stroke-linecap:round;stroke-linejoin:round;stroke-dasharray:none;stroke-opacity:1"
       d="m 930.42203,343.44183 c -3.01026,1.3343 -9.38374,3.95953 -13.70454,4.98347"
       id="path127" /><path
       style="opacity:1;fill:none;stroke:#ffffff;stroke-width:2;stroke-linecap:round;stroke-linejoin:round;stroke-dasharray:none;stroke-opacity:1"
       d="m 808.94999,343.44183 c 4.59874,1.55578 11.3001,4.1983 14.9504,5.6064"
       id="path126" /><path
       style="opacity:1;fill:none;stroke:#ffffff;stroke-width:2;stroke-linecap:round;stroke-linejoin:round;stroke-dasharray:none;stroke-opacity:1"
       d="m 907.68496,352.47436 c -4.02128,4.65718 -14.29894,14.44488 -18.52317,19.6224 1.074,7.50517 4.4293,27.01974 4.4293,27.01974 -4.63138,-2.28548 -18.15272,-10.53158 -23.59363,-13.34307 -5.43078,2.71237 -16.84224,9.92348 -23.51573,13.4988 1.91496,-12.14975 4.25983,-22.41467 4.93046,-27.21482 -4.45381,-5.09973 -12.94179,-13.25515 -19.29686,-19.54411 8.49115,-1.30499 20.18897,-2.59564 26.36577,-3.4153 2.5505,-4.03888 8.85176,-19.62412 11.56202,-25.22762 3.21998,6.61866 6.58948,13.52639 11.87564,25.24708 6.92627,0.67016 25.7662,3.3569 25.7662,3.3569"
       id="path125" /><path
       style="opacity:1;fill:none;stroke:#ffffff;stroke-width:2;stroke-linecap:round;stroke-linejoin:round;stroke-dasharray:none;stroke-opacity:1"
       d="m 833.86733,311.04929 c 4.54364,6.24949 9.68022,14.91402 14.32746,21.80267"
       id="path124" /><path
       style="opacity:1;fill:none;stroke:#ffffff;stroke-width:2;stroke-linecap:round;stroke-linejoin:round;stroke-dasharray:none;stroke-opacity:1"
       d="m 906.75056,310.42636 -14.32747,21.80267"
       id="path123" /><path
       style="opacity:1;fill:none;stroke:#ffffff;stroke-width:2;stroke-linecap:round;stroke-linejoin:round;stroke-dasharray:none;stroke-opacity:1"
       d="m 869.99746,298.59063 v 8.09813 6.22933"
       id="path1" /><path
       id="path3-7-0-8-45-76"
       style="opacity:1;fill:#ffffff;fill-opacity:1;stroke-width:2;stroke-linecap:round;stroke-linejoin:round;stroke-dasharray:none;paint-order:stroke fill markers"
       d="m 986.29087,301.68798 c 10e-6,0.86056 -0.72345,1.55819 -1.61589,1.5582 -0.89244,-10e-6 -1.6159,-0.69764 -1.61589,-1.5582 10e-6,-0.86056 0.72346,-1.55817 1.61589,-1.55818 0.89243,1e-5 1.61588,0.69762 1.61589,1.55818 z m -41.73654,13.8992 c 10e-6,0.86056 -0.72345,1.55819 -1.61589,1.5582 -0.89244,-10e-6 -1.6159,-0.69764 -1.61589,-1.5582 10e-6,-0.86056 0.72346,-1.55817 1.61589,-1.55818 0.89243,1e-5 1.61588,0.69762 1.61589,1.55818 z m 25.2288,28.3824 c 10e-6,0.86056 -0.72345,1.55819 -1.61589,1.5582 -0.89244,-1e-5 -1.6159,-0.69764 -1.61589,-1.5582 1e-5,-0.86056 0.72346,-1.55817 1.61589,-1.55818 0.89243,10e-6 1.61588,0.69762 1.61589,1.55818 z m 38.46617,-10.12266 c 0,0.86056 -0.7235,1.55819 -1.6159,1.55819 -0.8924,0 -1.6159,-0.69763 -1.6159,-1.55819 0,-0.86056 0.7235,-1.55819 1.6159,-1.55819 0.8924,0 1.6159,0.69763 1.6159,1.55819 z m 30.7573,-10.82347 c 0,0.86056 -0.7235,1.55819 -1.6159,1.55819 -0.8924,0 -1.6159,-0.69763 -1.6159,-1.55819 0,-0.86056 0.7235,-1.55819 1.6159,-1.55819 0.8924,0 1.6159,0.69763 1.6159,1.55819 z m -11.3685,34.72749 c 0,1.31154 -1.1026,2.37475 -2.4627,2.37475 -1.3601,0 -2.4627,-1.06321 -2.4627,-2.37475 0,-1.31154 1.1026,-2.37475 2.4627,-2.37475 1.3601,0 2.4627,1.06321 2.4627,2.37475 z m 23.1264,18.06611 c 0,0.86057 -0.7235,1.5582 -1.6159,1.5582 -0.8924,0 -1.6159,-0.69763 -1.6159,-1.5582 0,-0.86056 0.7235,-1.55818 1.6159,-1.55818 0.8924,0 1.6159,0.69762 1.6159,1.55818 z m -60.26883,-18.99946 c 0,0.86056 -0.72346,1.55818 -1.61589,1.55819 -0.89243,-1e-5 -1.61589,-0.69763 -1.61589,-1.55819 0,-0.86056 0.72346,-1.55818 1.61589,-1.55819 0.89243,10e-6 1.61589,0.69763 1.61589,1.55819 z m -37.99894,13.53768 c 0,1.02643 -0.8629,1.85852 -1.92735,1.85853 -1.06445,0 -1.92736,-0.83209 -1.92736,-1.85853 0,-1.02644 0.8629,-1.85854 1.92736,-1.85854 1.06445,10e-6 1.92735,0.8321 1.92735,1.85854 z m 32.85974,12.31405 c 0,0.86056 -0.72346,1.55818 -1.61589,1.55819 -0.89243,-10e-6 -1.61589,-0.69763 -1.61589,-1.55819 0,-0.86056 0.72346,-1.55818 1.61589,-1.55819 0.89243,10e-6 1.61589,0.69763 1.61589,1.55819 z m -38.59951,39.73577 c 0,0.86056 -0.72346,1.55818 -1.61589,1.55819 -0.89243,-10e-6 -1.61589,-0.69763 -1.61589,-1.55819 -10e-6,-0.86056 0.72345,-1.55819 1.61589,-1.5582 0.89244,1e-5 1.6159,0.69764 1.61589,1.5582 z m 54.96504,-10.13727 c 0,1.06584 -0.896,1.92988 -2.00137,1.92985 -1.10529,-1e-5 -2.0013,-0.86403 -2.0013,-1.92985 0,-1.06581 0.89601,-1.92983 2.0013,-1.92984 1.10527,-3e-5 2.00137,0.864 2.00137,1.92984 z m -196.86047,5.03268 c 10e-6,0.86057 -0.72346,1.5582 -1.6159,1.5582 -0.89244,0 -1.61591,-0.69763 -1.6159,-1.5582 10e-6,-0.86056 0.72347,-1.55818 1.6159,-1.55818 0.89243,0 1.61589,0.69762 1.6159,1.55818 z M 692.86902,400.36939 c 0,0.64064 -0.53857,1.15998 -1.20294,1.15999 -0.66438,0 -1.20296,-0.51934 -1.20296,-1.15999 0,-0.64065 0.53858,-1.15999 1.20296,-1.15999 0.66437,10e-6 1.20294,0.51935 1.20294,1.15999 z m 19.35951,-28.94562 c -0.0936,1.07648 -1.07451,1.87042 -2.19086,1.77332 -1.11635,-0.0971 -1.94544,-1.04848 -1.8518,-2.12496 0.0936,-1.07648 1.07452,-1.87041 2.19087,-1.77331 1.11635,0.0971 1.94542,1.04847 1.85179,2.12495 z m 41.55246,-22.54859 c 10e-6,0.86057 -0.72346,1.5582 -1.6159,1.5582 -0.89244,0 -1.61591,-0.69763 -1.6159,-1.5582 1e-5,-0.86056 0.72347,-1.55818 1.6159,-1.55818 0.89243,0 1.61589,0.69762 1.6159,1.55818 z m -41.4745,-38.65786 c 0,0.86057 -0.72347,1.55821 -1.61591,1.5582 -0.89244,0 -1.61591,-0.69763 -1.6159,-1.5582 0,-0.86056 0.72347,-1.55818 1.6159,-1.55818 0.89244,0 1.6159,0.69762 1.61591,1.55818 z m 40.22864,91.29573 c 10e-6,0.86057 -0.72347,1.5582 -1.61591,1.5582 -0.89244,0 -1.61591,-0.69763 -1.6159,-1.5582 10e-6,-0.86056 0.72347,-1.55818 1.6159,-1.55818 0.89244,0 1.6159,0.69762 1.61591,1.55818 z m 39.13009,-39.1371 c 0,0.86056 -0.72346,1.55819 -1.6159,1.55819 -0.89244,0 -1.6159,-0.69763 -1.6159,-1.55819 0,-0.86056 0.72346,-1.55819 1.6159,-1.55819 0.89244,0 1.6159,0.69763 1.6159,1.55819 z m -19.78054,10.71492 c 0,1.16112 -0.97614,2.1024 -2.18027,2.1024 -1.20413,0 -2.18027,-0.94128 -2.18027,-2.1024 0,-1.16112 0.97614,-2.1024 2.18027,-2.1024 1.20413,0 2.18027,0.94128 2.18027,2.1024 z m 31.03018,-56.99755 c 0,0.86056 -0.72346,1.55819 -1.6159,1.55819 -0.89244,0 -1.6159,-0.69763 -1.6159,-1.55819 0,-0.86056 0.72346,-1.55819 1.6159,-1.55819 0.89244,0 1.6159,0.69763 1.6159,1.55819 z m -59.568,-0.15574 c 10e-6,0.86057 -0.72346,1.5582 -1.6159,1.5582 -0.89244,0 -1.61591,-0.69763 -1.6159,-1.5582 10e-6,-0.86056 0.72347,-1.55818 1.6159,-1.55818 0.89243,0 1.61589,0.69762 1.6159,1.55818 z m 40.02347,8.70717 c 1e-5,1.06791 -0.89777,1.93363 -2.00524,1.93363 -1.10746,0 -2.00524,-0.86572 -2.00523,-1.93363 10e-6,-1.0679 0.89777,-1.93361 2.00523,-1.93361 1.10746,0 2.00523,0.8657 2.00524,1.93361 z" /><path
       d="m 808.99389,470.09927 c 1e-5,0.60167 -0.50581,1.08942 -1.12977,1.08942 -0.62395,0 -1.12977,-0.48775 -1.12976,-1.08942 10e-6,-0.60167 0.50582,-1.08941 1.12976,-1.08941 0.62395,0 1.12976,0.48774 1.12977,1.08941 z"
       style="fill:#ffffff;fill-opacity:1;stroke-width:1.39831;stroke-linecap:round;stroke-linejoin:round;stroke-dasharray:none;paint-order:stroke fill markers"
       id="path1-6" /></g></svg>
