<?xml version="1.0" encoding="UTF-8" standalone="no"?>
<!-- Created with Inkscape (http://www.inkscape.org/) -->

<svg
   width="385.10037"
   height="219.79347"
   viewBox="0 0 385.10037 219.79347"
   version="1.1"
   id="svg1"
   xml:space="preserve"
   xmlns="http://www.w3.org/2000/svg"
   xmlns:svg="http://www.w3.org/2000/svg"><defs
     id="defs1" /><g
     id="layer1"
     transform="translate(-200.73679,-150.64217)"><path
       style="fill:none;stroke:#ffffff;stroke-width:2;stroke-linecap:round;stroke-linejoin:round;stroke-dasharray:none;stroke-opacity:1"
       d="m 426.06976,342.42471 c -0.52088,2.27205 -1.36018,6.29653 -1.08904,9.09842 0.15072,1.5574 1.2212,4.33341 1.31238,5.68519"
       id="path256" /><path
       style="fill:none;stroke:#ffffff;stroke-width:2;stroke-linecap:round;stroke-linejoin:round;stroke-dasharray:none;stroke-opacity:1"
       d="m 390.52905,335.60089 c 0.54069,2.61257 2.5936,7.57303 4.28001,10.23572 1.71524,2.70818 3.74865,5.1827 5.95571,7.39247 0.8345,0.83552 1.43032,1.45778 2.27461,2.19233 1.98811,1.72977 4.76773,3.63604 7.10814,5.02835 4.56885,2.71805 9.86376,4.5492 15.06926,5.57375 2.58274,0.50835 5.33972,1.21368 7.10814,0.28455"
       id="path255" /><path
       style="fill:none;stroke:#ffffff;stroke-width:2;stroke-linecap:round;stroke-linejoin:round;stroke-dasharray:none;stroke-opacity:1"
       d="m 288.74045,334.17926 c 1.74394,0.93549 4.1181,0.95969 6.53949,1.30097 5.00889,0.70597 10.05472,1.02986 15.06926,1.62347 14.83431,1.75604 30.76108,1.37038 45.49211,-1.1009 4.02511,-0.67525 8.01594,-1.5191 11.94168,-2.63659 2.14207,-0.60976 4.46142,-1.2947 6.25517,-2.31453"
       id="path254" /><path
       style="fill:none;stroke:#ffffff;stroke-width:2;stroke-linecap:round;stroke-linejoin:round;stroke-dasharray:none;stroke-opacity:1"
       d="m 416.08297,324.37079 c -3.8566,11.85222 -4.96697,25.08556 4.30444,34.54458 0.67489,0.68855 1.23617,1.24347 1.98611,1.85844 2.41091,1.97699 5.03584,3.41337 7.96112,4.56171 2.76908,1.08701 2.76365,1.58678 5.68652,1.82552"
       id="path253" /><path
       style="fill:none;stroke:#ffffff;stroke-width:2;stroke-linecap:round;stroke-linejoin:round;stroke-dasharray:none;stroke-opacity:1"
       d="m 419.81459,316.83539 c -0.53436,1.0156 -2.16312,4.57667 -2.93891,5.97084 -0.60757,1.09187 -0.96843,1.41028 -0.78497,2.55893 0.4851,3.03721 -0.61904,8.58571 -0.53684,11.94168 0.13361,5.45432 2.25496,11.02176 5.00116,15.63792 1.12538,1.89167 2.1115,3.29492 3.52445,4.83353"
       id="path249" /><path
       style="fill:none;stroke:#ffffff;stroke-width:2;stroke-linecap:round;stroke-linejoin:round;stroke-dasharray:none;stroke-opacity:1"
       d="m 442.22969,308.77031 c 0.4929,5.03506 -1.76251,11.45898 -3.11709,14.57025 -2.17049,4.98535 -6.80957,8.68698 -9.81742,13.11331 -1.21031,1.78109 -2.39289,3.78345 -2.9411,5.68651 2.05062,0.50519 4.81003,0.96767 7.10815,1.35143 4.65375,0.77713 9.21363,1.87155 13.64763,3.49724 9.5136,3.48807 17.88659,9.52007 25.30499,16.14426 0.80896,0.72236 1.5005,1.28648 2.2746,2.04162 1.3427,1.3098 2.88892,2.71103 3.98056,4.26072"
       id="path247" /><path
       style="fill:none;stroke:#ffffff;stroke-width:2;stroke-linecap:round;stroke-linejoin:round;stroke-dasharray:none;stroke-opacity:1"
       d="m 296.13292,310.58023 c 0,1.89726 -0.12061,5.16789 -0.3326,7.39247 -0.53469,5.61112 -1.96409,10.58262 -5.71964,14.78361 -0.51959,0.58122 -0.92971,1.08523 -1.62477,1.40386 -1.48094,0.6789 -3.87435,-0.0122 -5.6863,0.71652 -10.75203,4.32447 -21.2905,8.82693 -32.41313,12.17686 -10.46519,3.15195 -21.71354,5.04425 -31.84448,9.14757 -3.57743,1.44896 -6.98374,3.4204 -9.9514,5.86597 -1.10049,0.90688 -2.09162,1.75295 -3.11639,2.81957 -1.40449,1.46182 -2.26639,2.69997 -3.70743,4.26466"
       id="path246" /><path
       style="fill:none;stroke:#ffffff;stroke-width:2;stroke-linecap:round;stroke-linejoin:round;stroke-dasharray:none;stroke-opacity:1"
       d="m 442.27632,308.58995 c -0.63906,3.48308 -3.32895,7.06083 -6.25627,10.80437 -5.10822,6.40675 -12.11541,11.99463 -14.24501,20.47145 -1.0661,4.24361 -0.5136,8.42413 0.88368,12.51034 0.49264,1.44066 1.76516,4.64805 2.27374,5.40218"
       id="path245" /><path
       style="fill:none;stroke:#ffffff;stroke-width:2;stroke-linecap:round;stroke-linejoin:round;stroke-dasharray:none;stroke-opacity:1"
       d="m 402.1864,270.20598 c 9.14373,10.72809 13.86081,27.74305 10.41343,41.51155 -2.78344,11.11678 -13.2141,19.81159 -9.72301,32.1288 0.59035,2.08283 1.59881,4.13493 2.74013,5.97084 0.73948,1.18954 1.6836,2.35385 2.56333,3.41191 0.94973,1.14222 1.71151,2.00963 2.82022,3.12758"
       id="path240" /><path
       style="fill:none;stroke:#ffffff;stroke-width:2;stroke-linecap:round;stroke-linejoin:round;stroke-dasharray:none;stroke-opacity:1"
       d="m 424.95161,264.95121 c 0.0305,1.47808 0.64623,6.32928 1.3088,8.38235 1.11759,3.46297 2.80503,6.52041 4.60009,9.66707 5.56875,9.76167 6.59508,19.99327 2.3174,30.42285"
       id="path239" /><path
       style="fill:none;stroke:#ffffff;stroke-width:2;stroke-linecap:round;stroke-linejoin:round;stroke-dasharray:none;stroke-opacity:1"
       d="m 266.01355,242.38038 c 0.0713,1.68697 0.29037,4.16401 -0.13982,6.12617 -0.54127,5.7489 -0.14444,17.62863 0.3214,22.5239 1.30674,13.73153 8.55953,19.57625 13.90714,32.08067 2.50765,5.86366 9.71792,7.47504 16.03507,7.50551 -0.31021,-4.56806 -0.58846,-9.13673 -1.1418,-13.68404"
       id="path227" /><path
       style="fill:none;stroke:#ffffff;stroke-width:2;stroke-linecap:round;stroke-linejoin:round;stroke-dasharray:none;stroke-opacity:1"
       d="m 289.87775,251.72481 c -0.83546,-2.15401 -5.1987,-14.72684 3.12758,-12.16129 1.28788,0.39683 2.46469,1.2456 3.31933,2.2213 0.7756,0.88546 1.23584,2.20474 2.19059,2.87485 0.74237,0.52105 1.85389,0.61954 2.73553,1.10571 2.02413,1.11617 3.88893,2.7307 5.40109,4.25369 0.75568,0.76109 1.34249,1.40331 2.04688,2.27439 2.34911,2.905 4.1982,6.15908 5.81003,9.38275 1.80941,3.61882 3.32805,7.40336 5.83614,10.80437 0.95952,1.30113 1.79057,2.30844 2.84721,3.36364 0.54576,0.54503 1.06475,0.95308 1.65768,1.44686 2.20445,1.83588 4.78713,3.52181 7.39247,4.78309 6.46758,3.13105 13.47885,3.75651 20.18712,1.039 2.60475,-1.05518 5.29876,-2.84013 7.39247,-4.59176 0.83857,-0.70156 1.44615,-1.22642 2.27044,-2.06136 0.88684,-0.8983 1.46066,-1.60169 2.25573,-2.55784 2.2771,-2.73845 4.82128,-6.28603 6.27821,-9.66707"
       id="path226" /><path
       style="fill:none;stroke:#ffffff;stroke-width:2;stroke-linecap:round;stroke-linejoin:round;stroke-dasharray:none;stroke-opacity:1"
       d="m 298.6918,245.18532 c 0.41326,1.78635 1.70476,5.58448 2.00454,8.24544 0.66016,5.85987 0.17167,11.73416 -1.72131,17.34387 -1.02488,3.03712 -6.40353,12.93938 -9.11005,5.97062 -0.28087,-0.72318 -0.40803,-1.51435 -0.55593,-2.27439"
       id="path225" /><path
       style="fill:none;stroke:#ffffff;stroke-width:2;stroke-linecap:round;stroke-linejoin:round;stroke-dasharray:none;stroke-opacity:1"
       d="m 290.16203,244.90099 c 1.89196,0.92453 3.08009,3.59595 3.65301,5.68652 1.33859,4.88445 1.79992,11.74703 -0.24111,16.49089"
       id="path224" /><path
       style="fill:none;stroke:#ffffff;stroke-width:2;stroke-linecap:round;stroke-linejoin:round;stroke-dasharray:none;stroke-opacity:1"
       d="m 429.29902,217.11665 c 2.24523,2.00738 7.79492,7.43553 10.61202,9.64077 7.69317,6.02226 24.77371,20.75421 34.56439,25.41929"
       id="path218" /><path
       style="fill:none;stroke:#ffffff;stroke-width:2;stroke-linecap:round;stroke-linejoin:round;stroke-dasharray:none;stroke-opacity:1"
       d="m 388.25444,217.89005 c -0.0114,1.37621 -0.0936,2.11911 -0.36571,3.41191 -1.06942,5.0813 -4.07098,10.70293 -5.87432,15.63791 -2.93954,8.04422 -5.45958,16.2713 -6.86177,24.73634 -0.60772,3.66879 -1.32313,8.0098 -0.91155,11.65735 0.16221,1.43748 -0.27664,1.81496 -0.0807,3.12758 0.2191,1.46797 0.84161,2.29047 1.26959,3.98056 1.39657,5.51516 4.54639,10.45834 8.06511,14.78494 2.90856,3.57637 6.18783,7.12557 7.67393,11.65735 2.14485,6.54067 0.0302,12.80743 -0.8872,19.33415 -0.42345,3.01267 -0.0603,6.29206 -0.0371,9.09842 -3.30518,-0.48629 -8.20298,-3.50548 -11.65735,-4.62029 -1.61367,-0.52075 -2.86278,-0.18114 -4.26489,0.35541 -1.81091,-2.88697 -3.81559,-5.61724 -5.37147,-8.8141 -2.64334,-5.43125 -4.63872,-11.3736 -5.63605,-17.34387 -0.72812,-4.35866 -1.30711,-8.93738 -0.8859,-13.3633 0.23301,-2.44844 0.80571,-5.4827 1.08905,-7.6768 -2.58134,0.21084 -5.43756,1.137 -8.24545,1.1373"
       id="path217" /><path
       style="fill:none;stroke:#ffffff;stroke-width:2;stroke-linecap:round;stroke-linejoin:round;stroke-dasharray:none;stroke-opacity:1"
       d="m 374.32248,277.59845 c -1.21234,2.36312 -0.0607,8.36046 0.49166,12.226 1.15217,8.06403 3.59381,15.7583 7.25556,23.03038 1.38681,2.75415 4.39285,7.42145 5.90042,9.38275"
       id="path216" /><path
       style="fill:none;stroke:#ffffff;stroke-width:2;stroke-linecap:round;stroke-linejoin:round;stroke-dasharray:none;stroke-opacity:1"
       d="m 363.51811,283.85361 c 1.35171,-0.9541 3.01874,-1.55933 4.54921,-2.58438 3.33989,-2.23691 3.89653,-3.77495 5.68651,-5.09241"
       id="path215" /><path
       style="fill:none;stroke:#ffffff;stroke-width:2;stroke-linecap:round;stroke-linejoin:round;stroke-dasharray:none;stroke-opacity:1"
       d="m 428.9056,208.21849 c 2.06372,2.10556 2.00761,2.02576 4.2723,4.5425 10.07331,11.19444 20.62667,20.82094 31.09905,28.54466 3.40745,2.51311 6.39134,4.50735 9.55953,7.11673 1.14372,0.94201 1.64792,1.74051 2.92443,2.53786 0.75861,0.47386 2.34722,0.15197 3.33073,0.27819 2.49897,0.32074 4.5978,1.55106 6.82382,2.19233 1.2924,-2.30028 3.06551,-2.23103 1.99028,-5.40219"
       id="path214" /><path
       style="fill:none;stroke:#ffffff;stroke-width:2;stroke-linecap:round;stroke-linejoin:round;stroke-dasharray:none;stroke-opacity:1"
       d="m 415.52769,203.56107 c 1.0099,1.03617 3.3296,3.41968 4.85555,4.94623 1.57638,1.57698 3.09798,2.94526 4.54922,4.29012 1.37645,1.27556 3.20684,3.19039 4.6554,4.54942 0.42529,1.83149 0.42686,3.52478 0.45828,4.8081 0.10699,4.36722 -0.16264,8.73603 -0.276,13.07898 -0.0793,3.03809 -0.84834,5.62862 -0.85712,8.81409"
       id="path213" /><path
       style="fill:none;stroke:#ffffff;stroke-width:2;stroke-linecap:round;stroke-linejoin:round;stroke-dasharray:none;stroke-opacity:1"
       d="m 268.269,200.54618 c -1.25355,1.87563 -1.70355,5.05706 -2.15395,7.96112 -0.60137,3.87746 -0.70777,7.79361 -1.43172,11.65736 -0.67419,3.5982 -1.96876,7.10501 -1.80533,10.80437 0.15739,3.56296 2.97349,8.53755 3.11639,11.65736 -1.49595,-0.12235 -2.82802,-0.58695 -4.26488,-1.42163"
       id="path212" /><path
       style="fill:none;stroke:#ffffff;stroke-width:2;stroke-linecap:round;stroke-linejoin:round;stroke-dasharray:none;stroke-opacity:1"
       d="m 373.75383,195.42832 c 1.00678,0.42382 1.36571,0.70793 2.27461,1.42163"
       id="path211" /><path
       style="fill:none;stroke:#ffffff;stroke-width:2;stroke-linecap:round;stroke-linejoin:round;stroke-dasharray:none;stroke-opacity:1"
       d="m 361.81215,263.66649 c 1.2678,-1.77011 3.07259,-4.33343 4.30416,-6.53949 2.47719,-4.43734 4.56406,-9.08671 6.11805,-13.93196 3.16689,-9.87416 4.36273,-20.1023 4.36273,-30.42285 0,-3.41378 0.0347,-6.84397 -0.36551,-10.23573 -0.1527,-1.29418 -0.83337,-3.84143 -0.30472,-5.0233 0.35647,-0.7969 1.67604,-0.48171 2.37618,-0.65795 1.67838,-0.42248 3.33283,-1.16408 4.83354,-1.71122"
       id="path210" /><path
       style="fill:none;stroke:#ffffff;stroke-width:2;stroke-linecap:round;stroke-linejoin:round;stroke-dasharray:none;stroke-opacity:1"
       d="m 382.56789,189.45749 c 1.55346,1.02794 5.09337,3.30737 6.53949,4.59856 0.72881,0.65074 1.26652,1.21628 1.99028,1.94093 0.86483,0.86589 1.59751,1.60355 2.38407,2.55893 5.90061,7.16704 8.52883,15.80276 8.41921,25.02066 -0.1721,14.47195 -11.20195,26.74433 -10.20919,41.22723 0.53672,7.82998 4.52115,14.19799 8.78866,20.47145"
       id="path209" /><path
       style="fill:none;stroke:#ffffff;stroke-width:2;stroke-linecap:round;stroke-linejoin:round;stroke-dasharray:none;stroke-opacity:1"
       d="m 381.14626,189.17316 0.28432,0.85298"
       id="path208" /><path
       style="fill:none;stroke:#ffffff;stroke-width:2;stroke-linecap:round;stroke-linejoin:round;stroke-dasharray:none;stroke-opacity:1"
       d="m 380.00896,180.92772 c 0,2.79179 -0.27223,7.30159 2.2746,8.52977 -1.20009,2.21803 1.26404,3.23981 1.26126,5.40219 -0.006,4.93719 2.95264,10.5873 3.73594,15.63791 0.41681,2.68751 0.87636,5.56092 0.97364,7.39247 0.53233,-1.47072 1.42527,-3.11231 1.6579,-5.40219 0.36436,-3.58654 0.3517,-7.01283 -0.64237,-10.52005 -0.80648,-2.84543 -3.41911,-6.80639 -5.28041,-7.67679"
       id="path207" /><path
       style="fill:none;stroke:#ffffff;stroke-width:2;stroke-linecap:round;stroke-linejoin:round;stroke-dasharray:none;stroke-opacity:1"
       d="m 380.57765,178.6531 c -0.15462,0.68092 -0.49238,1.7284 0.37493,2.07759 1.10089,0.44324 3.22374,-0.0893 4.4586,-0.0873 2.4777,0.004 5.02402,0.41221 7.39247,1.14456 4.09348,1.26574 8.17265,3.50045 11.37303,6.17793 0.72732,0.60847 1.28736,1.08723 1.98919,1.7801 0.90904,0.89746 1.51112,1.60811 2.29829,2.55477 2.02652,2.43709 3.84313,5.12492 5.3061,7.96112 0.74002,1.43466 1.44122,2.66744 2.06553,3.98056 0.45533,0.95767 0.50994,1.78377 0.85145,2.84325 2.67654,8.30353 3.498,17.15351 3.11616,25.87364 -0.27775,6.34303 -1.70816,12.70594 -0.71696,19.04982 0.80906,5.17815 3.08068,9.2964 5.61983,13.64742 0.90882,1.55733 1.72613,2.56633 2.74519,3.98099 2.97988,4.13671 5.85027,8.31994 8.32487,12.79444 2.83495,5.12607 4.61511,11.25876 5.31859,17.05955 0.40619,3.34941 1.22282,7.99025 1.20958,9.59842 1.19755,-1.13901 1.34782,-3.92578 1.79427,-6.75517 0.58343,-3.69739 0.58673,-7.38303 0.0875,-11.0887 -0.5614,-4.16748 -1.831,-8.558 -3.86077,-12.226 -3.24311,-5.86066 -8.13613,-11.30238 -9.94768,-17.91252 -0.94999,-3.4665 -1.4473,-7.2126 -1.46462,-10.80438 -0.0119,-2.47258 0.50278,-4.55284 -2.2e-4,-6.25517 -1.2702,1.22974 -1.12077,2.68335 -1.60659,4.83354 -0.80721,3.57265 -1.47466,7.1747 -1.96876,10.80438 -0.2786,2.04658 -0.39348,3.98481 -0.40521,5.40219"
       id="path206" /><path
       style="fill:none;stroke:#ffffff;stroke-width:2;stroke-linecap:round;stroke-linejoin:round;stroke-dasharray:none;stroke-opacity:1"
       d="m 287.31882,249.73453 c -1.30775,-0.37934 -3.84074,-1.65399 -4.86864,-3.98056 -1.7521,-3.96578 -1.78861,-8.46955 -3.32393,-12.51033 -1.75402,-4.61642 -5.38568,-8.01609 -7.32359,-12.51033 -2.39496,-5.55421 -2.75979,-12.35156 -2.97028,-18.19685 -0.1223,-3.39645 -6.24849,-4.25243 -2.01525,-14.18196 2.63387,-5.7661 5.19389,-9.03705 8.75467,-13.31926 0.76351,-0.91819 1.38746,-1.68648 2.25574,-2.55476 0.8943,-0.89432 1.63033,-1.48518 2.55476,-2.27855 2.31614,-1.98775 6.284,-5.37344 8.9268,-6.95923 7.45685,-4.47447 15.4469,-7.70622 23.88336,-9.78819 4.45193,-1.09865 9.37455,-1.81235 13.93196,-1.81235 h 3.12758 2.55893 c 6.33876,0 14.11036,1.48374 20.18712,3.71137 5.31886,1.94979 10.46227,4.61356 14.78494,8.20772 0.94053,0.78201 1.66667,1.40712 2.55784,2.29829 1.59563,1.59564 3.09732,3.43575 4.35153,5.4011 0.59847,0.93778 0.77312,2.22618 1.70641,2.74059 0.9492,0.52318 1.88487,-0.15079 2.75725,-0.43636 1.63938,-0.53666 3.32113,-0.46325 4.54921,0.82335 -1.47299,1.20299 -2.51746,2.1819 -2.84326,3.98056 3.32919,-0.93593 7.96345,-1.53483 11.65736,-1.05503 6.70046,0.87031 12.57726,4.37395 17.2956,8.89549 1.21311,1.1625 2.05541,2.05459 3.09357,3.24824 2.09057,2.4037 4.04087,5.17136 6.05332,7.67679 2.66934,3.32323 7.5579,8.71168 10.27524,11.34939 -0.25862,-2.00487 -2.66777,-7.23687 -3.62253,-9.64343 -0.96105,-2.42246 -2.13841,-4.88673 -3.46851,-7.10814 -0.4705,-0.78577 -0.88387,-1.50679 -1.40627,-2.27461 -1.37518,-2.02122 -2.95889,-3.73969 -4.62139,-5.40219 -0.97373,-0.97372 -1.78465,-1.8001 -2.84326,-2.66819 -8.37469,-6.86748 -19.091,-9.03107 -29.56987,-6.99888"
       id="path205" /><path
       style="fill:none;stroke:#ffffff;stroke-width:2;stroke-linecap:round;stroke-linejoin:round;stroke-dasharray:none;stroke-opacity:1"
       d="m 370.62621,179.22177 c -0.0886,1.12208 -0.23602,1.71813 -0.28433,2.84325"
       id="path204" /><path
       style="fill:none;stroke:#ffffff;stroke-width:2;stroke-linecap:round;stroke-linejoin:round;stroke-dasharray:none;stroke-opacity:1"
       d="m 303.24106,186.89855 c 15.88348,-8.35722 33.44158,-11.18457 51.17862,-8.26827 3.73945,0.61483 7.41333,1.41455 11.08871,2.33341 1.24548,0.31136 3.17353,0.43861 4.12622,1.34112 0.58698,0.55605 0.44923,1.57427 0.54453,2.31913 0.26835,2.09717 0.4582,4.28415 1.16386,6.25517 0.49831,1.39186 1.70408,2.45814 2.04336,3.98056 0.2541,1.14018 -0.19297,2.78614 -0.36594,3.98056 -0.51138,3.53141 -1.10249,7.02483 -1.82641,10.52005 -2.25268,10.87636 -7.18182,21.65449 -14.34022,30.13852 -0.70622,0.83699 -1.38816,1.48477 -2.10152,2.27461 -0.81277,0.89989 -1.42765,1.64485 -2.32287,2.55893"
       id="path203" /><path
       style="fill:none;stroke:#ffffff;stroke-width:2;stroke-linecap:round;stroke-linejoin:round;stroke-dasharray:none;stroke-opacity:1"
       d="m 371.1949,191.16343 c -1.7636,2.29438 -3.38053,4.95195 -5.16087,7.39247 -1.94471,2.66585 -4.18311,5.50305 -6.23498,7.96112 -1.10587,1.3248 -2.28701,2.70915 -3.43735,3.98056 -0.65544,0.72442 -1.24066,1.26822 -1.93082,1.99028 -0.8786,0.9192 -1.40383,1.66339 -2.297,2.53349 -0.79664,0.77607 -1.40712,1.20846 -2.26341,2.02692 -1.54159,1.4735 -3.14774,2.99848 -4.83353,4.4134 -6.90348,5.79422 -16.89271,13.5995 -26.15797,15.19388"
       id="path202" /><path
       style="fill:none;stroke:#ffffff;stroke-width:2;stroke-linecap:round;stroke-linejoin:round;stroke-dasharray:none;stroke-opacity:1"
       d="m 376.88141,174.38822 c -0.89827,2.37333 -2.50683,4.58633 -2.50803,7.67679 -0.002,4.18558 1.79085,7.84848 3.64534,11.37303"
       id="path201" /><path
       style="fill:none;stroke:#ffffff;stroke-width:2;stroke-linecap:round;stroke-linejoin:round;stroke-dasharray:none;stroke-opacity:1"
       d="m 332.81093,166.4271 c 9.05113,0.025 18.23667,2.29135 26.44229,6.0586 3.46401,1.59034 8.68165,4.80841 11.37303,6.73606 1.13534,-2.12082 2.51299,-4.42862 4.83353,-5.11787"
       id="path200" /><path
       id="path219"
       style="fill:none;stroke:#ffffff;stroke-width:2;stroke-linecap:round;stroke-linejoin:round;stroke-dasharray:none;stroke-opacity:1"
       d="m 497.43551,237.2242 c 2.0362,-0.55579 4.09673,-1.72262 6.25516,-1.66932 3.09207,0.0763 6.5453,1.67524 9.38275,2.80662 5.01656,2.00024 10.00869,4.06994 15.06926,5.95658 4.0252,1.50065 9.38335,2.39351 12.78323,5.02199 2.32462,1.79719 3.21109,5.03527 3.99199,7.78693 m -28.7169,1.1373 c 1.46741,1.99713 6.09743,6.13797 6.08864,8.8141 -0.005,1.44859 -1.5026,2.14075 -2.3924,2.92443 -0.61724,0.54363 -1.0938,1.02558 -1.70596,1.57672 -0.92149,0.82967 -1.98251,2.69041 -3.43735,2.82287 -1.13776,0.10359 -2.68969,-1.05422 -3.67079,-1.57542 -3.4431,-1.82917 -7.14814,-4.96654 -9.9514,-7.50283 -1.63083,-1.47555 -1.72838,-1.6801 -3.12758,-3.07931 m 29.00122,0.28432 -3.98056,4.54922 m -26.15796,-30.42285 -0.28433,0.85297 c 0.5326,-3.09314 7.04917,-6.5818 10.80438,-5.78063 9.34007,1.99268 17.82082,8.71466 26.72661,12.09043 3.88136,1.47125 9.35722,2.42439 12.09303,5.64308 2.53311,2.98018 3.42982,7.62439 4.44085,11.36183 2.27481,8.40894 3.91497,16.97425 6.50376,25.30499 6.13756,19.75081 17.06795,37.46204 27.68598,55.15918 M 496.29821,237.2242 c -4.06356,3.09836 -9.98976,4.64351 -15.06927,7.51313 -2.14921,1.21418 -4.78252,2.7937 -6.53949,4.14422 m 27.29522,-3.98056 c 0.15885,2.01251 0.52796,3.53683 -1.70615,4.17055 -0.76959,0.21829 -1.4887,0.17606 -2.27441,0.34773 -2.6291,0.57444 -5.5002,1.39588 -8.24545,1.45256 m 12.51039,-2.55893 c 3.11589,2.47275 6.43542,4.55346 10.23572,5.873 1.01507,0.35245 2.56894,1.20598 3.60389,0.81084 0.99417,-0.37955 1.90174,-1.9374 2.65128,-2.70328 m -18.7655,-2.84326 c -1.25146,2.68365 -5.87067,5.28169 -7.96112,7.6768 1.94436,1.69865 3.88938,3.32569 5.68651,5.11786 l 3.95665,-3.98056 2.32419,-2.29391 3.95489,1.0502 8.24544,1.24371 v -2.84326 m -11.60617,12.19882 c 0,0 2.70613,-3.24921 3.95665,-3.98056 1.5317,-0.18834 12.02908,0.25629 12.02908,0.25629 M 471.87105,250.8001 c -0.99781,0.8908 -1.47941,1.09209 -1.39297,2.63045 0.10002,1.77966 2.04888,2.58516 3.03575,3.17493 0,0 0.0729,-1.95218 0.51819,-2.62808 0.54794,-0.83167 2.2764,-2.4337 2.2764,-2.4337 m 0.37131,-0.38754 -0.56865,0.56865 m -1.67644,1.79434 c 2.10944,-1.80725 9.0835,1.35855 9.04082,4.74515 -0.0259,2.06247 -1.5771,3.20408 -2.81517,4.54921 m 6.25517,-9.38275 c 1.35174,1.03904 3.4928,2.57697 4.83353,3.41191 m -18.19684,-0.56865 c 0.27841,0.93943 1.26477,2.44915 2.22655,3.69514 0.44404,0.57526 0.69754,1.02109 1.25908,1.57519 0.8366,0.82554 1.65054,1.33496 2.48521,2.13333 1.14009,1.09049 1.53229,1.713 2.47642,2.70262 0.56615,0.59343 1.20662,1.01719 1.78847,1.56643 0.8482,0.80066 1.48969,1.33391 1.85161,2.25925 0.69438,1.77525 -1.48333,6.9556 1.28845,8.3988 1.58068,0.82301 5.59726,-0.29107 4.78184,-2.41383 -0.37983,-0.98885 -1.49339,-1.8745 -2.23539,-2.58426 -1.27864,-1.22304 -3.11524,-2.809 -4.16321,-4.13579 m -8.91577,-7.79469 c -0.37816,0.922 -1.46488,2.24377 -0.79068,3.69184 1.07677,2.3127 4.72137,2.04312 6.19287,1.14169 m 33.83475,8.52978 c 1.62103,0.62443 3.97462,1.43692 5.97084,1.70595 m -31.27582,2.27461 c 0,1.52153 -0.32678,3.51229 1.19806,4.62226 2.10899,1.53517 3.8796,-0.62983 5.0571,-1.77901 m -5.19575,-6.2697 c 1.48917,1.32147 10.21228,9.91618 11.76814,11.95622 3.85389,5.05309 7.03231,11.29519 11.07972,16.20656 1.22282,1.48383 2.34014,2.64882 3.67232,3.98056 0.81038,0.81015 1.44699,1.46481 2.2746,2.19343 3.06927,2.7022 6.6611,4.94312 9.9514,7.44491 1.27572,0.96997 2.35996,1.97872 3.49286,3.18176 0.88806,0.94309 1.66498,1.79965 2.47687,2.81781 6.89035,8.6412 11.49,18.9739 16.01027,29.00123 2.37139,5.26049 5.75475,11.35562 6.7369,17.05954" /></g></svg>
