<?xml version="1.0" encoding="UTF-8" standalone="no"?>
<!-- Created with Inkscape (http://www.inkscape.org/) -->

<svg
   width="399.26047"
   height="264.04599"
   viewBox="0 0 399.26047 264.04599"
   version="1.1"
   id="svg1"
   xml:space="preserve"
   xmlns="http://www.w3.org/2000/svg"
   xmlns:svg="http://www.w3.org/2000/svg"><defs
     id="defs1" /><g
     id="layer1"
     transform="translate(-460.30679,-348.82425)"><path
       style="fill:none;stroke:#ffffff;stroke-width:2;stroke-linecap:round;stroke-linejoin:round;stroke-dasharray:none;stroke-opacity:1"
       d="m 661.04418,543.0002 v 22.58672"
       id="path200" /><path
       style="fill:none;stroke:#ffffff;stroke-width:2;stroke-linecap:round;stroke-linejoin:round;stroke-dasharray:none;stroke-opacity:1"
       d="m 603.02733,529.27102 c 4e-4,3.56597 1.40856,9.9996 1.90239,14.61493 0.57647,5.38767 -0.63726,11.34713 -0.57206,16.82933 0.0652,5.48116 1.38255,10.88594 1.45544,16.38643 0.0504,3.80236 -1.4553,8.73568 -1.45714,11.5148"
       id="path199" /><path
       style="fill:none;stroke:#ffffff;stroke-width:2;stroke-linecap:round;stroke-linejoin:round;stroke-dasharray:none;stroke-opacity:1"
       d="m 722.16117,516.87047 c 0,5.92885 0.80648,11.82436 0.80648,17.71507 0,4.17282 -1.4917,8.25535 -1.67478,12.40056 -0.40023,9.05964 0.44355,18.37325 0.42543,27.45836 -0.01,4.72954 -0.73672,9.41393 -0.40324,14.17205 0.23986,3.42262 1.60954,6.49405 1.73186,9.30041"
       id="path198" /><path
       style="fill:none;stroke:#ffffff;stroke-width:2;stroke-linecap:round;stroke-linejoin:round;stroke-dasharray:none;stroke-opacity:1"
       d="m 725.26131,514.21322 c 3.06984,0.83761 6.0431,2.10125 9.30041,2.01243 3.62096,-0.0988 6.57274,-1.73904 9.30042,-2.01243"
       id="path197" /><path
       style="fill:none;stroke:#ffffff;stroke-width:2;stroke-linecap:round;stroke-linejoin:round;stroke-dasharray:none;stroke-opacity:1"
       d="m 703.1175,513.77034 c 0.34213,4.18806 3.1469,14.28946 3.53207,19.92945 0.67605,9.89943 -0.64416,19.82839 0.58062,29.67274 1.14302,9.1876 4.63811,17.89996 5.94052,27.01548 0.19088,1.33593 0.17892,3.17469 0.12438,4.42843 -0.0484,1.11319 -0.1089,1.89419 -1.01799,2.8951 -1.63595,1.80121 -4.94791,3.16138 -4.64578,6.40565 0.50177,5.38755 9.87066,8.96875 14.06754,6.83248 3.30504,-1.68236 1.94909,-5.97911 1.80839,-9.04685 -0.0649,-1.41449 0.19766,-3.03866 -1.04399,-3.84512 -3.46972,-2.25368 -5.6485,0.60757 -8.71675,2.0736 l -0.88575,-2.21438"
       id="path196" /><path
       style="fill:none;stroke:#ffffff;stroke-width:2;stroke-linecap:round;stroke-linejoin:round;stroke-dasharray:none;stroke-opacity:1"
       d="m 599.92722,509.78445 c -0.43555,0.81597 -0.75047,1.52724 -0.91754,3.10081 -0.14316,1.34844 -0.40864,3.78431 -0.41109,5.31385 -0.007,4.48383 1.76845,12.00754 -3.10014,13.72918"
       id="path195" /><path
       style="fill:none;stroke:#ffffff;stroke-width:2;stroke-linecap:round;stroke-linejoin:round;stroke-dasharray:none;stroke-opacity:1"
       d="m 461.30679,566.0298 c 18.39566,-12.41001 37.27669,-24.10373 55.80247,-36.31724 10.83928,-7.14606 21.93623,-16.15416 33.65863,-21.69961"
       id="path194" /><path
       style="fill:none;stroke:#ffffff;stroke-width:2;stroke-linecap:round;stroke-linejoin:round;stroke-dasharray:none;stroke-opacity:1"
       d="m 768.66326,507.57006 c 2.39529,1.33357 5.32524,3.46945 7.97178,5.12657 5.81191,3.63916 11.44873,7.55685 17.2722,11.17478 21.68439,13.47182 44.01499,27.14851 64.66001,42.15839"
       id="path193" /><path
       style="fill:none;stroke:#ffffff;stroke-width:2;stroke-linecap:round;stroke-linejoin:round;stroke-dasharray:none;stroke-opacity:1"
       d="m 660.15846,503.14129 0.44287,12.84343"
       id="path192" /><path
       style="fill:none;stroke:#ffffff;stroke-width:2;stroke-linecap:round;stroke-linejoin:round;stroke-dasharray:none;stroke-opacity:1"
       d="m 634.4716,501.81266 1.32864,1.32863"
       id="path191" /><path
       style="fill:none;stroke:#ffffff;stroke-width:2;stroke-linecap:round;stroke-linejoin:round;stroke-dasharray:none;stroke-opacity:1"
       d="m 599.48434,500.48404 c 0,1.9744 0.0504,3.54051 0.31642,5.75739 0.0975,0.81258 0.0851,1.7412 0.24093,2.65727 0.34073,2.00328 0.7975,2.28986 1.08566,4.42877 0.45901,3.40739 0.42783,8.89165 0.57992,12.40054 0.0673,1.55325 0.43487,2.64369 1.78894,3.5051 4.7993,3.05303 9.7991,1.59469 15.03183,1.36654"
       id="path190" /><path
       style="fill:none;stroke:#ffffff;stroke-width:2;stroke-linecap:round;stroke-linejoin:round;stroke-dasharray:none;stroke-opacity:1"
       d="m 636.68599,489.855 1.47217,5.31452 1.72262,4.42227 -4.08054,5.32102"
       id="path187" /><path
       style="fill:none;stroke:#ffffff;stroke-width:2;stroke-linecap:round;stroke-linejoin:round;stroke-dasharray:none;stroke-opacity:1"
       d="m 573.35461,488.96924 c 0,10.24751 1.20562,20.36112 1.32693,30.5585 0.034,2.85151 -1.11027,9.97943 0.45687,12.17295 0.9169,1.28337 3.37073,1.25175 4.85936,1.42978 4.91578,0.58792 10.52199,-0.66567 15.05781,-0.7593 0,3.87398 -1.77152,10.99098 -1.77152,15.50068 0,9.21451 -2.6997,18.77202 -2.14672,27.90123 0.11889,1.963 0.16362,3.6593 0.49824,5.31452 0.35124,1.73742 1.10441,3.59697 1.64643,5.31452 0.33223,1.05278 0.45617,1.56243 0.61923,2.65727 0.19186,1.28832 0.36354,2.50994 0.1517,3.98589 -0.395,2.75225 -2.0262,5.58821 -2.08726,8.41466 -0.0503,2.32829 1.57556,5.42724 0.48183,7.52071 -0.80612,1.54294 -2.41761,2.16462 -4.03509,2.47478 -2.99228,0.57373 -8.43807,0.94143 -10.41785,-1.65055 -1.34136,-1.75612 -0.54702,-4.72075 0.40596,-6.07109 0.79955,-1.13295 1.17744,-4.05345 -0.17428,-2.27385 v 0.44288 0.44287 0.44288"
       id="path186" /><path
       style="fill:none;stroke:#ffffff;stroke-width:2;stroke-linecap:round;stroke-linejoin:round;stroke-dasharray:none;stroke-opacity:1"
       d="M 580.44062,589.94514 578.6691,600.1313"
       id="path185" /><path
       style="fill:none;stroke:#ffffff;stroke-width:2;stroke-linecap:round;stroke-linejoin:round;stroke-dasharray:none;stroke-opacity:1"
       d="m 579.99774,601.45994 4.97109,-11.8343 5.21507,-1.35905 3.54302,0.7928"
       id="path184" /><path
       style="fill:none;stroke:#ffffff;stroke-width:2;stroke-linecap:round;stroke-linejoin:round;stroke-dasharray:none;stroke-opacity:1"
       d="m 578.6691,536.35706 c -0.0482,5.82429 -1.56998,11.36202 -1.31119,17.27218 0.27953,6.38385 2.07466,12.8777 3.4726,19.0437 1.17306,5.17419 0.35881,8.49746 1.38161,11.95768 2.33394,-1.82414 4.81139,-4.73663 8.85754,-3.98589"
       id="path183" /><path
       style="fill:none;stroke:#ffffff;stroke-width:2;stroke-linecap:round;stroke-linejoin:round;stroke-dasharray:none;stroke-opacity:1"
       d="m 625.17119,488.52636 c 0,7.60197 -1.42277,15.02055 -1.75407,22.58672 -0.19933,4.552 0.42739,10.24687 -0.0656,14.61323 -0.33607,2.97663 -3.64142,2.76508 -4.30131,5.3405 -1.60329,6.25723 0.65037,15.85144 0.34616,22.56243 -0.41509,9.15759 -3.87157,17.94365 -4.77868,27.01549 -0.22826,2.28257 -0.50893,4.94242 0.95101,6.47024 1.91506,2.00413 6.76578,2.99032 6.16542,6.80957 -0.30472,1.93856 -2.24128,2.93141 -3.64894,4.12359 -3.47328,2.94157 -8.5812,6.49541 -13.22071,3.37218 -2.32485,-1.5651 -1.27811,-6.23225 -1.02652,-8.81791 0.12163,-1.24978 -0.12671,-3.04737 1.10169,-3.65168 3.49983,-1.72182 4.60977,1.72923 7.80673,1.7288 1.84375,-2.7e-4 1.95386,-1.86231 2.23867,-2.94876"
       id="path182" /><path
       style="fill:none;stroke:#ffffff;stroke-width:2;stroke-linecap:round;stroke-linejoin:round;stroke-dasharray:none;stroke-opacity:1"
       d="m 660.15846,483.65472 v 4.87164"
       id="path181" /><path
       style="fill:none;stroke:#ffffff;stroke-width:2;stroke-linecap:round;stroke-linejoin:round;stroke-dasharray:none;stroke-opacity:1"
       d="m 660.15854,470.8113 v 2.65727"
       id="path178" /><path
       style="fill:none;stroke:#ffffff;stroke-width:2;stroke-linecap:round;stroke-linejoin:round;stroke-dasharray:none;stroke-opacity:1"
       d="m 704.44621,459.73939 c 3.10682,0 7.17682,-0.005 10.62905,0 6.50492,0.011 12.97597,1.32613 19.48657,1.32862 3.78988,10e-4 7.3166,-0.52118 10.18617,-0.88575"
       id="path177" /><path
       style="fill:none;stroke:#ffffff;stroke-width:2;stroke-linecap:round;stroke-linejoin:round;stroke-dasharray:none;stroke-opacity:1"
       d="m 666.35881,449.11035 c 3.84892,2.14286 10.85089,6.90522 15.05781,9.74329"
       id="path176" /><path
       style="fill:none;stroke:#ffffff;stroke-width:2;stroke-linecap:round;stroke-linejoin:round;stroke-dasharray:none;stroke-opacity:1"
       d="m 653.07251,449.11035 c -2.8159,2.14863 -6.96342,4.8852 -9.74329,6.20027"
       id="path175" /><path
       style="fill:none;stroke:#ffffff;stroke-width:2;stroke-linecap:round;stroke-linejoin:round;stroke-dasharray:none;stroke-opacity:1"
       d="m 623.84264,442.91007 c 0.59877,7.58614 2.4906,15.15315 5.12693,22.14384 2.17924,5.77864 4.95198,11.92748 5.81171,18.15794 0.80982,5.86893 -3.80877,13.63959 -2.0811,19.48658 2.34442,-1.1719 2.76136,-3.24364 3.10014,-5.7574"
       id="path174" /><path
       style="fill:none;stroke:#ffffff;stroke-width:2;stroke-linecap:round;stroke-linejoin:round;stroke-dasharray:none;stroke-opacity:1"
       d="m 634.02881,438.03842 c 0.88146,6.54604 3.72596,12.54615 4.95844,19.04371 1.57764,8.31726 1.65348,16.86089 2.69657,25.24397 0.59044,4.74523 3.09188,12.91667 2.0302,17.2722 -0.37617,1.54315 -0.63632,2.25677 -1.27569,3.543 -0.55576,1.11807 -3.70423,7.2594 -7.37615,5.59953 -3.58024,-1.61843 2.91036,-3.72018 3.39472,-3.83246 1.68161,-0.38976 2.46519,-0.40939 3.10082,-0.43843"
       id="path173" /><path
       style="fill:none;stroke:#ffffff;stroke-width:2;stroke-linecap:round;stroke-linejoin:round;stroke-dasharray:none;stroke-opacity:1"
       d="m 703.11758,436.7098 c 1.41025,2.64207 1.85866,5.16251 1.139,10.18616 -0.41422,2.89132 -1.55084,5.94116 -1.55588,8.85753 -0.004,1.52145 0.83411,2.52186 1.0354,3.9859 0.46737,3.39982 -2.85868,8.50801 -3.76989,11.95768 -2.4043,9.10174 -2.68184,18.16404 -3.56693,27.45836 -0.2927,3.07326 -2.1147,8.58882 -0.9688,11.39144 0.65205,1.59481 3.42853,1.82228 5.02985,2.27553 2.94818,0.83448 3.23845,0.74679 6.20027,1.30403 4.14391,0.77966 12.19054,2.6649 15.75184,-0.29149 1.1819,-0.98111 1.37428,-3.00991 1.48071,-4.49335 0.30864,-4.30044 0.83461,-8.56139 0.0399,-12.84343"
       id="path172" /><path
       style="fill:none;stroke:#ffffff;stroke-width:2;stroke-linecap:round;stroke-linejoin:round;stroke-dasharray:none;stroke-opacity:1"
       d="m 561.8399,435.82405 c -1.42671,6.89392 -4.10748,13.13728 -4.79645,20.37232 -1.02498,10.76332 -0.0268,21.54144 -1.33514,32.33 -0.51254,4.22639 -0.98427,8.78598 2.60771,11.72326 1.38906,1.13587 3.75664,2.87615 5.68358,2.65658 1.30496,-0.1487 1.42174,-1.38361 0.99647,-2.42421 -1.56063,-3.81873 -2.78893,-5.60298 -1.82754,-8.85548 h 0.88575 c 0.69198,1.80393 0.79869,3.53226 3.10014,4.87164 2.01286,-4.20681 0.011,-9.89024 -2.01994,-13.72918 -1.18249,-2.23482 -1.13636,-4.53586 -1.07371,-7.08602 0.28055,-11.41969 5.65083,-23.77391 7.9653,-34.98727"
       id="path171" /><path
       style="fill:none;stroke:#ffffff;stroke-width:2;stroke-linecap:round;stroke-linejoin:round;stroke-dasharray:none;stroke-opacity:1"
       d="m 561.83982,486.31198 -2.65726,7.97179"
       id="path170" /><path
       style="fill:none;stroke:#ffffff;stroke-width:2;stroke-linecap:round;stroke-linejoin:round;stroke-dasharray:none;stroke-opacity:1"
       d="m 746.5195,429.1809 c -0.13328,3.10314 -0.44288,5.45509 -0.44288,8.41465"
       id="path169" /><path
       style="fill:none;stroke:#ffffff;stroke-width:2;stroke-linecap:round;stroke-linejoin:round;stroke-dasharray:none;stroke-opacity:1"
       d="m 692.4885,426.08076 c -0.21772,5.07123 -2.13046,17.74964 -4.13217,23.91534 -0.67269,2.07214 -1.20989,4.3918 -1.58936,6.64315 -1.5815,9.38407 -1.53807,18.9536 -2.88277,28.34412 -0.76742,5.35904 -3.35333,11.718 -0.88575,16.82931 1.38456,2.86799 4.42948,4.33981 6.83279,5.75739 1.23,-2.56828 -0.62264,-3.5533 -1.69392,-5.75739 -1.30338,-2.68151 -0.90878,-4.51887 0.80816,-6.20027 0.27229,0.72575 0.4781,1.43032 0.80135,2.65725 0.19836,0.75284 0.80537,2.89573 1.98953,1.88155 1.15294,-0.98744 0.75161,-3.12063 0.75214,-4.5388 0,-4.73879 -2.20035,-9.02297 -1.69463,-13.72918 0.56454,-5.25388 2.87884,-10.62081 4.49951,-15.50068 1.05293,-3.17039 2.25632,-6.41505 3.20606,-9.7433 1.29989,-4.55509 2.31443,-12.52415 3.10838,-16.82931 0.26506,-1.43743 0.44854,-1.82491 0.94004,-3.10014 1.10818,-2.87516 0.52381,-3.94483 0.12685,-7.08602"
       id="path168" /><path
       style="fill:none;stroke:#ffffff;stroke-width:2;stroke-linecap:round;stroke-linejoin:round;stroke-dasharray:none;stroke-opacity:1"
       d="m 756.70559,425.63788 c 0.0266,3.22899 0.84274,13.39705 1.77182,18.15795 2.81656,14.43275 4.5173,28.24157 4.87779,42.95904 0.13219,5.394 2.77959,10.53168 -0.44694,15.48292 -0.68987,1.05863 -7.64677,6.25057 -7.69428,3.05058 -0.024,-1.6247 2.11682,-3.67688 2.50416,-5.24719 0.46148,-1.87107 -0.16271,-2.76839 -0.56967,-3.54302 h -0.44288 c -0.81525,1.40515 -0.33225,2.93908 -3.10014,4.42877 -1.24745,-4.22177 -0.32658,-9.3759 1.43044,-13.28631 0.85432,-1.90133 1.29551,-3.6239 1.20906,-5.75739 -0.28119,-6.94122 -3.58823,-15.28516 -5.58857,-21.70097 -1.44759,-4.64282 -1.7669,-9.29218 -2.48574,-14.17205 -0.23193,-1.57439 -0.66422,-4.41465 -0.97083,-5.75534 -0.32294,-1.41206 -0.73912,-1.99309 -1.12327,-2.65932 -0.35615,0.66738 -0.76139,1.22168 -0.86183,2.65932 -0.0826,1.18198 -0.024,3.50017 -0.024,4.86959 0,3.63499 1.29095,7.5484 1.11986,11.07191 -0.0701,1.44287 -0.82534,2.59494 -0.97906,3.98589 -0.23916,2.16351 1.07876,4.37551 1.75441,6.64316 1.55445,5.21691 2.83623,10.9272 2.96997,16.38643 0.16494,6.73432 -1.05439,13.25208 -1.68987,19.92945 -0.23465,2.46558 0.8089,5.72795 -0.25559,7.87712 -0.60634,1.22417 -3.03738,2.05598 -3.73816,3.25359 -2.07589,3.54795 -2.43971,8.97271 -3.25389,13.22753 -1.42412,7.44213 0.84,14.66123 0.51188,22.14384 -0.32206,7.34506 -3.16445,14.41576 -3.89294,21.70095 -0.16771,1.67752 -0.0626,4.21571 -0.0597,5.75739 0,1.05922 -0.15013,1.82768 -0.16847,3.10014 -0.0341,2.3608 0.96401,4.37049 1.79888,7.08604 0.47941,1.5595 1.30949,4.36499 1.65529,5.75739 0.29859,1.20241 0.1881,2.06298 0.57101,3.54302 0.37515,1.44998 1.30586,3.01959 1.19196,4.42877 -0.38996,4.82402 -8.4734,6.32115 -12.12442,3.67457 -3.19797,-2.31817 -0.84262,-6.45808 -1.84533,-9.87485 -0.53584,-1.82576 -1.51119,-3.43029 -1.67621,-5.31452 -0.10246,-1.17009 0.0195,-1.94821 0.0195,-3.10015 0,-1.56969 -0.15191,-2.65022 0.12753,-4.42876 0.3171,-2.01852 1.03629,-3.84295 1.34776,-5.31452 0.29943,-1.4145 0.22685,-1.93915 0.22933,-3.54301 0.007,-4.90251 -1.08993,-10.98085 -1.77152,-15.94357 -0.71143,-5.18025 -0.22041,-10.30118 -0.3147,-15.50068 -0.0573,-3.1549 -1.20091,-6.16027 -1.41716,-9.30041 -0.33774,-4.90437 0.4,-9.73648 0.40324,-14.61493"
       id="path167" /><path
       style="fill:none;stroke:#ffffff;stroke-width:2;stroke-linecap:round;stroke-linejoin:round;stroke-dasharray:none;stroke-opacity:1"
       d="m 739.43337,594.81678 0.88575,0.44288"
       id="path166" /><path
       style="fill:none;stroke:#ffffff;stroke-width:2;stroke-linecap:round;stroke-linejoin:round;stroke-dasharray:none;stroke-opacity:1"
       d="m 727.91857,586.40212 c 2.29875,-1.10624 4.55348,-1.75198 7.06659,0.19206 2.11385,1.63522 2.91244,7.85174 5.77683,6.4511"
       id="path165" /><path
       style="fill:none;stroke:#ffffff;stroke-width:2;stroke-linecap:round;stroke-linejoin:round;stroke-dasharray:none;stroke-opacity:1"
       d="m 728.80433,576.65883 c 2.76918,-0.34812 5.02435,1.38611 8.41465,3.10015"
       id="path164" /><path
       style="fill:none;stroke:#ffffff;stroke-width:2;stroke-linecap:round;stroke-linejoin:round;stroke-dasharray:none;stroke-opacity:1"
       d="m 573.35461,422.53773 c 2.77166,14.71091 2.14048,28.64151 0.3742,43.40191 -0.55943,4.67503 -1.23691,9.46272 -1.25962,14.17207 -0.007,1.50775 -0.41362,3.84169 0.45485,5.12418 1.56437,2.31016 7.62113,2.19691 10.17386,2.52945 10.186,1.32696 20.3876,1.59223 30.5585,-0.0892 2.75827,-0.45599 10.58238,-1.62628 11.69045,-4.12089 1.76406,-3.97149 -0.68249,-13.66312 -1.39527,-18.0585 -2.07599,-12.80162 -5.40081,-26.9326 -2.3234,-39.8589"
       id="path163" /><path
       style="fill:none;stroke:#ffffff;stroke-width:2;stroke-linecap:round;stroke-linejoin:round;stroke-dasharray:none;stroke-opacity:1"
       d="m 744.74791,403.05115 c 2.612,0.39151 5.05336,1.31482 7.44552,3.99273 2.62537,2.939 3.7745,7.44563 5.2209,11.06508 0.52335,1.30952 1.53005,2.96667 1.15639,4.38913 -0.98102,3.73489 -8.82127,5.82243 -11.60841,6.23991 0.10739,-2.50255 0.64769,-4.07449 0.88575,-7.08602"
       id="path162" /><path
       style="fill:none;stroke:#ffffff;stroke-width:2;stroke-linecap:round;stroke-linejoin:round;stroke-dasharray:none;stroke-opacity:1"
       d="m 701.346,422.09485 c 0.22794,1.76526 1.83222,5.50715 0.543,6.73678 -0.78592,0.74959 -2.324,-0.0138 -3.20027,-0.36155 -2.54574,-1.01019 -7.6603,-2.3924 -8.57117,-5.08657 -0.51179,-1.51385 0.56809,-3.42341 1.13075,-4.83168 1.56987,-3.92888 2.64969,-8.84577 5.71537,-11.9112 2.44699,-2.44677 6.00076,-3.7448 8.81109,-4.03235"
       id="path161" /><path
       style="fill:none;stroke:#ffffff;stroke-width:2;stroke-linecap:round;stroke-linejoin:round;stroke-dasharray:none;stroke-opacity:1"
       d="m 732.79025,399.50814 c 1.30953,6.95035 0.19078,13.18085 -4.42877,18.60082"
       id="path160" /><path
       style="fill:none;stroke:#ffffff;stroke-width:2;stroke-linecap:round;stroke-linejoin:round;stroke-dasharray:none;stroke-opacity:1"
       d="m 715.51805,399.50814 c 0.0504,6.01311 4.32031,11.23186 1.7715,17.27219"
       id="path159" /><path
       style="fill:none;stroke:#ffffff;stroke-width:2;stroke-linecap:round;stroke-linejoin:round;stroke-dasharray:none;stroke-opacity:1"
       d="m 609.22763,396.85088 c 3.22315,0.16759 12.92347,4.94324 16.38609,7.43526 6.06684,4.36631 7.48541,14.13415 9.74363,20.90885 0.67841,2.0352 2.91481,5.88309 1.80295,7.87233 -1.95258,3.49335 -10.35581,4.11065 -13.76061,5.41398"
       id="path158" /><path
       style="fill:none;stroke:#ffffff;stroke-width:2;stroke-linecap:round;stroke-linejoin:round;stroke-dasharray:none;stroke-opacity:1"
       d="m 590.62681,385.33608 c 0.1424,3.31695 -0.18448,7.46576 -0.44288,10.62904"
       id="path157" /><path
       style="fill:none;stroke:#ffffff;stroke-width:2;stroke-linecap:round;stroke-linejoin:round;stroke-dasharray:none;stroke-opacity:1"
       d="m 603.02736,384.8932 -1.77151,2.21438"
       id="path156" /><path
       style="fill:none;stroke:#ffffff;stroke-width:2;stroke-linecap:round;stroke-linejoin:round;stroke-dasharray:none;stroke-opacity:1"
       d="m 588.41242,382.67881 c 2.38123,2.63757 6.0759,2.9012 9.30041,4.42877"
       id="path155" /><path
       style="fill:none;stroke:#ffffff;stroke-width:2;stroke-linecap:round;stroke-linejoin:round;stroke-dasharray:none;stroke-opacity:1"
       d="m 731.46161,375.59279 c 2.81285,1.04846 5.52856,0.99039 7.97179,0.88575"
       id="path154" /><path
       style="fill:none;stroke:#ffffff;stroke-width:2;stroke-linecap:round;stroke-linejoin:round;stroke-dasharray:none;stroke-opacity:1"
       d="m 723.48984,375.14992 c -2.25243,3.85038 -3.85911,12.25566 -2.3268,17.71507 0.89315,3.18229 2.80173,6.48677 3.77876,9.74329 1.92071,6.40203 0.57578,11.69131 -1.89485,17.71507"
       id="path153" /><path
       style="fill:none;stroke:#ffffff;stroke-width:2;stroke-linecap:round;stroke-linejoin:round;stroke-dasharray:none;stroke-opacity:1"
       d="m 615.4279,373.3784 c 1.30368,2.54166 0.40952,5.4559 -1.06994,7.92565 -1.00225,1.67311 -2.41755,2.67519 -3.15036,4.47662 -0.67159,1.65089 -1.98783,2.85406 -2.60534,4.50223 -0.88278,2.3563 0.73417,4.70505 -0.91924,6.30075 -1.32209,1.27595 -3.75027,0.71011 -5.54142,0.71011 -3.02385,0 -6.35118,-0.0251 -9.30042,-0.50713 -1.15992,-0.18961 -1.98096,-0.50208 -3.10012,-0.6773 -1.11804,-0.17505 -2.0764,-0.15086 -3.10015,0.13806 -1.5688,0.44274 -2.95913,1.33868 -4.42876,1.99364 -3.88107,1.72966 -8.78259,3.16596 -11.93853,6.18521 -4.66954,4.46729 -6.49576,13.18231 -8.68907,18.99724 -0.71751,1.90227 -2.87957,5.858 -2.117,7.87747 0.4509,1.19408 1.64877,1.62763 2.81548,2.17166 3.26678,1.5233 7.00747,2.9414 10.6287,3.23717"
       id="path152" /><path
       style="fill:none;stroke:#ffffff;stroke-width:2;stroke-linecap:round;stroke-linejoin:round;stroke-dasharray:none;stroke-opacity:1"
       d="m 583.98365,360.97786 c -0.85793,2.70648 -0.77879,6.20086 -0.31847,9.30041 0.18583,1.25138 0.33691,2.16097 -0.20128,3.35506 -1.77708,3.9429 1.13212,10.5167 4.94852,8.60261 -1.48814,-2.83776 -2.64785,-6.04809 -4.42877,-8.85754"
       id="path151" /><path
       style="fill:none;stroke:#ffffff;stroke-width:2;stroke-linecap:round;stroke-linejoin:round;stroke-dasharray:none;stroke-opacity:1"
       d="m 583.54077,358.3206 3.54302,-2.65726"
       id="path150" /><path
       style="fill:none;stroke:#ffffff;stroke-width:2;stroke-linecap:round;stroke-linejoin:round;stroke-dasharray:none;stroke-opacity:1"
       d="m 709.76066,413.23732 c -1.54871,-2.34833 -2.71795,-4.57363 -3.27167,-7.52891 -0.23791,-1.26973 -0.34341,-2.26528 -0.33251,-3.54301 0.0456,-5.37161 1.46689,-9.90634 2.44605,-15.50069 0.35732,-2.04157 0.20731,-3.28165 -0.73983,-4.74519 -0.59522,-0.91971 -1.0233,-1.18491 -1.11131,-2.35827 -0.0992,-1.32298 0.40094,-1.66555 0.72176,-3.08271 0.27865,-1.23086 0.10602,-1.5855 0.0793,-3.10014 -0.12451,-7.04277 2.34946,-15.37233 10.18001,-17.81483 6.87301,-2.14383 14.54873,-0.38766 18.61584,5.85717 4.69454,7.2082 2.40323,14.65845 3.16029,22.58671 0.50647,5.30387 3.18078,10.04896 4.14962,15.05781 0.26338,1.36169 0.53848,2.66654 0.63216,3.98589 0.0896,1.26206 -0.15797,2.22326 -0.42955,3.54302 -0.47902,2.32782 -1.15795,4.13534 -2.21302,6.20027"
       id="path149" /><path
       style="fill:none;stroke:#ffffff;stroke-width:2;stroke-linecap:round;stroke-linejoin:round;stroke-dasharray:none;stroke-opacity:1"
       d="m 735.4475,396.40799 c 1.40087,6.0552 3.3354,10.5189 0,16.38645"
       id="path148" /><path
       style="fill:none;stroke:#ffffff;stroke-width:2;stroke-linecap:round;stroke-linejoin:round;stroke-dasharray:none;stroke-opacity:1"
       d="m 707.98914,377.36429 h 0.44288"
       id="path147" /><path
       style="fill:none;stroke:#ffffff;stroke-width:2;stroke-linecap:round;stroke-linejoin:round;stroke-dasharray:none;stroke-opacity:1"
       d="m 719.94682,376.03567 c -4.10875,2.89976 -8.65089,2.12745 -11.07193,1.7715 -0.0204,1.85793 -0.0952,2.506 -0.88575,3.98589"
       id="path146" /><path
       style="fill:none;stroke:#ffffff;stroke-width:2;stroke-linecap:round;stroke-linejoin:round;stroke-dasharray:none;stroke-opacity:1"
       d="m 732.34736,387.99335 c -0.16784,-3.85107 -1.54449,-8.8632 -3.89739,-11.93171 -1.73205,-2.2589 -3.22486,-1.83302 -5.40302,-0.91172 -0.95161,-3.61378 2.69287,-4.68 5.75741,-2.65727"
       id="path145" /><path
       style="fill:none;stroke:#ffffff;stroke-width:2;stroke-linecap:round;stroke-linejoin:round;stroke-dasharray:none;stroke-opacity:1"
       d="m 711.53216,368.50676 c 2.34778,2.6661 4.93391,4.14409 8.41466,4.42877"
       id="path144" /><path
       style="fill:none;stroke:#ffffff;stroke-width:2;stroke-linecap:round;stroke-linejoin:round;stroke-dasharray:none;stroke-opacity:1"
       d="m 611.44201,354.77758 c 2.21103,2.22972 5.21015,5.03356 4.86686,8.41466 -0.36354,3.58051 -1.00296,6.73252 -0.88097,10.18616 -4.51947,1.28011 -6.86872,9.97341 -10.62904,13.28631"
       id="path143" /><path
       style="fill:none;stroke:#ffffff;stroke-width:2;stroke-linecap:round;stroke-linejoin:round;stroke-dasharray:none;stroke-opacity:1"
       d="m 591.06968,350.7917 -1.32862,3.10013"
       id="path142" /><path
       style="fill:none;stroke:#ffffff;stroke-width:2;stroke-linecap:round;stroke-linejoin:round;stroke-dasharray:none;stroke-opacity:1"
       d="m 593.28406,352.5632 c 6.29846,-5.64995 11.16504,-1.03275 18.15795,0"
       id="path141" /></g></svg>
