<?xml version="1.0" encoding="UTF-8" standalone="no"?>
<!-- Created with Inkscape (http://www.inkscape.org/) -->

<svg
   width="401.89548"
   height="214.93701"
   viewBox="0 0 401.89548 214.93701"
   version="1.1"
   id="svg1"
   xml:space="preserve"
   xmlns="http://www.w3.org/2000/svg"
   xmlns:svg="http://www.w3.org/2000/svg"><defs
     id="defs1" /><g
     id="layer1"
     transform="translate(-412.83615,-397.28314)"><path
       style="fill:none;stroke:#ffffff;stroke-width:2;stroke-linecap:round;stroke-linejoin:round;stroke-dasharray:none;stroke-opacity:1"
       d="m 749.42285,599.72153 5.96224,-0.008 2.55524,-0.30758 5.53636,-0.71963 10.22098,-2.79776"
       id="path87" /><path
       style="fill:none;stroke:#ffffff;stroke-width:2;stroke-linecap:round;stroke-linejoin:round;stroke-dasharray:none;stroke-opacity:1"
       d="m 489.21384,595.88866 0.17547,2.98112 0.22674,1.7035 0.19914,2.12937 0.24448,2.12937 0.43179,6.38811"
       id="path86" /><path
       style="fill:none;stroke:#ffffff;stroke-width:2;stroke-linecap:round;stroke-linejoin:round;stroke-dasharray:none;stroke-opacity:1"
       d="m 664.67593,595.03692 0.0572,4.25874 0.36672,3.40699 v 8.51748"
       id="path85" /><path
       style="fill:none;stroke:#ffffff;stroke-width:2;stroke-linecap:round;stroke-linejoin:round;stroke-dasharray:none;stroke-opacity:1"
       d="m 648.91858,590.77818 -0.85175,6.38811 -0.67627,4.68461 -0.49093,3.40699 -0.5363,4.68462"
       id="path84" /><path
       style="fill:none;stroke:#ffffff;stroke-width:2;stroke-linecap:round;stroke-linejoin:round;stroke-dasharray:none;stroke-opacity:1"
       d="m 564.59553,580.98308 v 22.14544 l -0.36869,4.25874 -0.0572,3.83287"
       id="path83" /><path
       style="fill:none;stroke:#ffffff;stroke-width:2;stroke-linecap:round;stroke-linejoin:round;stroke-dasharray:none;stroke-opacity:1"
       d="m 746.01786,577.15021 c 0.0622,1.99516 0.23619,1.72479 0.42588,4.25874 0.0723,0.96566 0.37498,3.2296 0.43179,4.25874 0.0611,1.10685 0.36676,2.81247 0.41208,3.83287 0.0422,0.94607 0.0349,1.53317 0.18333,2.55524 0.11997,0.82711 0.19923,1.30971 0.24446,2.12937 0.0447,0.8101 0.28827,2.54279 0.37464,3.40699 0.11328,1.13385 0.0734,1.88336 0.23265,2.98112 0.11984,0.8263 0.19531,1.23868 0.24445,2.12937 0.0459,0.83194 0.0617,1.30395 0.18143,2.12937 0.13453,0.92754 0.218,1.64288 0.25041,2.55524 0.0422,1.19213 0.28176,2.61937 0.42587,3.83287"
       id="path82" /><path
       style="fill:none;stroke:#ffffff;stroke-width:2;stroke-linecap:round;stroke-linejoin:round;stroke-dasharray:none;stroke-opacity:1"
       d="m 467.49626,564.79987 c 2.41224,0.85426 5.95402,3.75001 8.03443,5.97012 4.82882,5.15308 7.65642,11.08747 11.1299,17.02707"
       id="path81" /><path
       style="fill:none;stroke:#ffffff;stroke-width:2;stroke-linecap:round;stroke-linejoin:round;stroke-dasharray:none;stroke-opacity:1"
       d="m 586.3151,571.61385 c 2.95657,-1.10721 5.12202,-1.63431 8.09161,-2.56116 9.29246,-2.90032 18.8444,-5.98636 28.10768,-8.81322 1.56979,-0.47905 3.18088,-0.91439 4.68461,-1.42549 2.61755,-0.88971 5.13461,-1.64668 7.66573,-2.40738 2.99007,-0.89863 7.6228,-2.53247 10.22098,-3.10533"
       id="path80" /><path
       style="fill:none;stroke:#ffffff;stroke-width:2;stroke-linecap:round;stroke-linejoin:round;stroke-dasharray:none;stroke-opacity:1"
       d="m 413.83614,549.04253 2.98112,-0.17548 5.96224,-0.99173 2.55524,-0.22083 3.83287,-0.63289 4.68461,-0.58953 4.25874,-0.68612 3.40699,-0.36278 17.46084,-2.47836 3.40699,-0.56782 8.51748,-0.96019"
       id="path79" /><path
       style="fill:none;stroke:#ffffff;stroke-width:2;stroke-linecap:round;stroke-linejoin:round;stroke-dasharray:none;stroke-opacity:1"
       d="m 481.97598,540.95092 c -2.17409,1.9086 -4.7121,3.4955 -7.23986,5.56988 -2.7915,2.29083 -4.98308,4.94951 -6.81201,8.05809 -3.95458,6.72147 -5.8139,15.05996 -7.3266,22.57132 -0.21105,1.04794 -0.39291,1.95976 -0.59741,2.98112 -0.21483,1.07288 -0.37554,1.84308 -0.5639,2.98112 -0.18052,1.09078 -0.30921,1.78294 -0.54219,2.98111 -0.21619,1.11185 -0.33228,1.90706 -0.5146,2.98112 -0.19774,1.16484 -0.32134,1.90075 -0.50474,2.98112 -0.18779,1.10626 -0.37931,2.25447 -0.56784,3.40699 -0.85185,5.20757 -1.71457,10.72345 -2.58678,15.33146"
       id="path78" /><path
       style="fill:none;stroke:#ffffff;stroke-width:2;stroke-linecap:round;stroke-linejoin:round;stroke-dasharray:none;stroke-opacity:1"
       d="m 787.75351,535.84044 c 3.24763,1.94111 5.81927,5.09947 6.81398,8.0916"
       id="path77" /><path
       style="fill:none;stroke:#ffffff;stroke-width:2;stroke-linecap:round;stroke-linejoin:round;stroke-dasharray:none;stroke-opacity:1"
       d="m 547.98645,534.98869 c -5.14547,5.08262 -11.82422,7.92145 -18.73846,9.18587 -1.54645,0.28279 -2.49503,0.12344 -3.83287,0.29377 -1.75882,0.22392 -2.59917,0.31546 -4.68461,0.31546"
       id="path76" /><path
       style="fill:none;stroke:#ffffff;stroke-width:2;stroke-linecap:round;stroke-linejoin:round;stroke-dasharray:none;stroke-opacity:1"
       d="m 535.6361,527.74883 c 0.20577,1.73303 0.25051,2.73451 0.85175,5.11049"
       id="path75" /><path
       style="fill:none;stroke:#ffffff;stroke-width:2;stroke-linecap:round;stroke-linejoin:round;stroke-dasharray:none;stroke-opacity:1"
       d="m 687.24725,526.04533 c 0.73975,2.06901 0.86649,3.96381 2.09782,5.96224 3.06833,4.98004 9.50282,6.78673 14.93714,6.81398 2.4527,0.0123 4.90769,-0.36289 7.23986,-0.97202 7.69861,-2.01079 13.84929,-6.0633 19.5902,-11.8042"
       id="path74" /><path
       style="fill:none;stroke:#ffffff;stroke-width:2;stroke-linecap:round;stroke-linejoin:round;stroke-dasharray:none;stroke-opacity:1"
       d="m 784.34652,525.61946 c 4.04793,2.49634 7.57438,5.27979 10.13026,9.36923 1.73919,2.78267 2.78543,6.35842 3.92358,8.51748"
       id="path73" /><path
       style="fill:none;stroke:#ffffff;stroke-width:2;stroke-linecap:round;stroke-linejoin:round;stroke-dasharray:none;stroke-opacity:1"
       d="m 691.08012,523.49009 c -4.25009,2.03855 -11.05995,4.80942 -15.75734,6.87904 -4.93664,2.17503 -10.74331,4.10016 -14.90363,7.71305 -8.22984,7.14695 -9.70909,20.31339 -12.654,30.12468 l -4.08126,13.62796 c -0.50138,1.67042 -1.61574,3.87392 -0.20703,5.33526 1.9026,1.97367 5.06151,3.24609 7.57109,4.20945 3.28942,1.26271 6.76262,2.28918 10.22097,2.75635 0.861,0.1163 2.36166,0.59383 3.02841,-0.17943 1.28542,-1.49071 0.3786,-5.88068 0.3786,-7.86289 0,-2.63777 -0.14662,-3.27049 -0.36872,-5.53636 -0.19905,-2.03146 -0.0572,-2.95466 -0.0572,-4.68461 0,-3.30184 -0.62224,-7.86189 -0.85177,-9.7951"
       id="path72" /><path
       style="fill:none;stroke:#ffffff;stroke-width:2;stroke-linecap:round;stroke-linejoin:round;stroke-dasharray:none;stroke-opacity:1"
       d="m 413.83614,528.1747 3.83287,-0.44362 2.55524,-0.35094 2.12937,-0.0651 4.25874,-0.42389 4.25874,-0.44362 2.12937,-0.2918 3.407,-0.1676 5.11048,-0.68415 2.12937,-0.11831 4.25874,-0.42389 4.25874,-0.44361 2.12937,-0.29181 2.55525,-0.13605 3.83286,-0.42389 2.12937,-0.29181 3.83287,-0.53629"
       id="path71" /><path
       style="fill:none;stroke:#ffffff;stroke-width:2;stroke-linecap:round;stroke-linejoin:round;stroke-dasharray:none;stroke-opacity:1"
       d="m 536.06197,521.36072 c -0.0434,1.3909 -1.00266,4.39177 0.20308,5.81831 0.72923,0.86277 2.17227,1.28253 3.20392,1.7311 3.08936,1.34326 6.24685,2.40631 9.36922,3.60613 7.77379,2.98715 16.01339,5.49594 21.53622,12.26753 7.02271,8.61061 8.67547,20.9967 10.8302,31.51467 0.48453,2.36514 0.96291,4.58488 1.45311,6.81399 0.22874,1.04017 0.45917,1.92139 0.67626,2.98111 0.21592,1.05398 0.38757,1.94299 0.59544,2.98112 0.98951,4.94182 2.00623,9.84207 3.1842,14.90559 0.4758,2.04523 0.66995,3.13089 0.90498,5.11049"
       id="path70" /><path
       style="fill:none;stroke:#ffffff;stroke-width:2;stroke-linecap:round;stroke-linejoin:round;stroke-dasharray:none;stroke-opacity:1"
       d="m 572.68714,555.43064 -7.23986,18.31258"
       id="path69" /><path
       style="fill:none;stroke:#ffffff;stroke-width:2;stroke-linecap:round;stroke-linejoin:round;stroke-dasharray:none;stroke-opacity:1"
       d="m 692.78362,517.52785 v 3.83287 l -0.42588,5.11049"
       id="path68" /><path
       style="fill:none;stroke:#ffffff;stroke-width:2;stroke-linecap:round;stroke-linejoin:round;stroke-dasharray:none;stroke-opacity:1"
       d="m 447.90606,515.39849 3.40699,-0.0256 2.12937,-0.28983 2.98112,-0.1124 2.98112,-0.31348 8.51748,-0.53629"
       id="path67" /><path
       style="fill:none;stroke:#ffffff;stroke-width:2;stroke-linecap:round;stroke-linejoin:round;stroke-dasharray:none;stroke-opacity:1"
       d="m 670.2123,512.84325 c -2.3378,0.76922 -3.68513,0.65204 -5.96224,0.96216 -1.47384,0.20073 -3.04284,0.5551 -4.68464,0.72358 -3.73783,0.3836 -7.43015,0.91574 -11.07272,1.47086 -4.58948,0.6994 -9.00708,1.35131 -13.62797,1.95389 -1.47751,0.19266 -2.93658,0.35622 -4.25873,0.53629 -0.74658,0.10166 -1.40216,0.22833 -2.12937,0.347 -2.12886,0.34741 -4.24554,0.56894 -6.38811,0.92272 -1.16913,0.19305 -2.21331,0.31692 -3.407,0.49884 -3.03468,0.46244 -7.23139,1.01622 -10.22097,1.41759 -0.72508,0.0974 -1.38749,0.1198 -2.12937,0.22084 -1.35187,0.18411 -2.74468,0.5103 -4.25874,0.68612 -1.54067,0.17891 -3.27307,0.38205 -4.68461,0.58953 -0.95349,0.14015 -1.61823,0.2656 -2.55525,0.41995 -1.22764,0.20225 -2.23048,0.27353 -3.40699,0.43377 -1.01657,0.13844 -1.96898,0.32379 -2.98112,0.48896 -5.62416,0.91784 -11.35351,1.56308 -17.03496,2.33245 -2.73333,0.37015 -4.29221,0.50576 -6.38811,0.90104"
       id="path66" /><path
       style="fill:none;stroke:#ffffff;stroke-width:2;stroke-linecap:round;stroke-linejoin:round;stroke-dasharray:none;stroke-opacity:1"
       d="m 556.50392,509.01038 c 0.29545,2.47433 1.35722,5.81026 1.87109,8.51748 0.16848,0.88757 0.29329,1.70453 0.43179,2.55525 0.17698,1.08709 0.24431,1.82181 0.25237,2.98111 0.0245,3.52921 -0.67988,6.83004 -2.98112,9.79511"
       id="path65" /><path
       style="fill:none;stroke:#ffffff;stroke-width:2;stroke-linecap:round;stroke-linejoin:round;stroke-dasharray:none;stroke-opacity:1"
       d="m 794.14162,505.17752 -22.57132,7.18662 -10.22098,3.28475 -14.47971,4.55844 -5.53636,1.57927"
       id="path64" /><path
       style="fill:none;stroke:#ffffff;stroke-width:2;stroke-linecap:round;stroke-linejoin:round;stroke-dasharray:none;stroke-opacity:1"
       d="m 562.89203,510.28801 c 2.21257,0 3.31073,0.0724 5.53637,-0.2504 1.16158,-0.16849 2.2114,-0.13817 3.40699,-0.18337 0.91871,-0.0348 1.62496,-0.18913 2.55524,-0.30757 0.97029,-0.12353 1.57492,-0.0931 2.55524,-0.11239 1.25543,-0.0247 1.84277,-0.16855 2.98112,-0.31348 1.07857,-0.13731 1.81652,-0.0913 2.98112,-0.11239 1.37419,-0.0249 4.23385,-0.38053 5.53636,-0.43179 1.01143,-0.0398 1.59081,-0.18479 2.55525,-0.30757 1.0716,-0.13642 1.57297,-0.0797 2.55524,-0.11831 1.29175,-0.0508 1.78057,-0.24315 2.98112,-0.3608 0.98263,-0.0963 1.68383,-0.0552 2.55524,-0.0572 1.36048,-0.003 2.5016,-0.14597 3.83287,-0.31546 0.87182,-0.11099 1.65069,-0.0827 2.55524,-0.1183 1.16276,-0.0458 1.83565,-0.24855 2.98112,-0.3608 1.20581,-0.11817 2.09221,-0.0358 3.40699,-0.0592 3.43431,-0.061 7.30916,-0.76933 10.64685,-0.85175 1.36145,-0.0336 2.15269,-0.2438 3.40699,-0.36672 1.27523,-0.12496 1.93541,-0.01 3.40699,-0.0651 1.55906,-0.0583 4.07479,-0.34775 5.53636,-0.44361 0.75553,-0.0496 1.32358,-0.18725 2.12937,-0.28983 1.04977,-0.13364 1.62552,-0.0941 2.55525,-0.11239 1.281,-0.0252 1.83029,-0.16697 2.98112,-0.31348 0.93467,-0.119 1.62993,-0.10221 2.55524,-0.11042 1.21672,-0.0108 2.22295,-0.16471 3.40699,-0.31546 0.87816,-0.11179 1.65008,-0.0753 2.55525,-0.13604 0.98065,-0.0658 1.52859,-0.24246 2.55524,-0.34307 1.20565,-0.11815 1.93777,-0.0406 2.98112,-0.0591 1.21755,-0.0216 3.66297,-0.41105 5.11048,-0.4239 2.66199,-0.0236 3.11896,-0.2921 5.11051,-0.42588"
       id="path63" /><path
       style="fill:none;stroke:#ffffff;stroke-width:2;stroke-linecap:round;stroke-linejoin:round;stroke-dasharray:none;stroke-opacity:1"
       d="m 507.95429,501.34465 0.42785,9.36923 0.59938,5.96224 0.42588,2.55524 2.09781,8.51748 4.59984,8.51748 5.90308,5.53636 c -1.9694,1.46571 -4.31658,3.56191 -7.23985,4.66489 -2.04864,0.77298 -4.2229,1.27198 -6.38811,1.29537 -1.97782,0.0214 -4.0801,-0.37773 -5.96224,-0.99567 -7.925,-2.60191 -15.15287,-10.45121 -15.75734,-19.01843"
       id="path61" /><path
       style="fill:none;stroke:#ffffff;stroke-width:2;stroke-linecap:round;stroke-linejoin:round;stroke-dasharray:none;stroke-opacity:1"
       d="m 794.14162,496.23416 c -1.26778,0.41284 -2.20943,0.37954 -3.40699,0.53629 -1.29687,0.16974 -2.78666,0.51517 -4.25874,0.68613 -1.57812,0.18326 -3.22353,0.37475 -4.68461,0.58953 -1.24219,0.18258 -2.47152,0.44748 -3.83287,0.63288 -4.81395,0.65559 -9.7592,1.34494 -14.47972,2.06431 -1.94181,0.2959 -4.13046,0.44053 -5.96223,0.7098 -1.28469,0.18884 -1.96469,0.34802 -3.40699,0.56782 -1.17857,0.1796 -1.87483,0.14078 -2.98112,0.2859 -1.25428,0.16452 -2.91162,0.50909 -4.25874,0.69203 -4.57188,0.62089 -10.7741,1.74021 -14.47971,1.75279"
       id="path60" /><path
       style="fill:none;stroke:#ffffff;stroke-width:2;stroke-linecap:round;stroke-linejoin:round;stroke-dasharray:none;stroke-opacity:1"
       d="m 723.87242,495.80829 c -0.0634,0.53373 -0.19097,1.17782 -0.31549,2.13331 -0.12942,0.99304 -0.059,1.40436 -0.13603,2.5513 -0.0665,0.9906 -0.23461,1.44866 -0.34308,2.55525 -0.13837,1.41213 -0.0597,2.08439 -0.0571,3.40699 0,0.84487 -0.0264,1.27498 0.0571,2.12937 0.12508,1.27608 0.29607,1.77245 0.36276,2.98112 0.0454,0.82209 0.0541,1.33686 0.18338,2.12937 0.35258,2.16035 1.12678,5.05058 2.8313,6.78835 2.98622,3.04449 8.47442,5.00724 12.32274,6.66413 9.99723,4.30436 22.79687,9.42354 28.40542,19.33981 5.45289,9.64112 6.59802,21.84174 9.22919,32.36642 0.75585,3.02331 1.49704,6.01791 2.14713,8.94336 0.25267,1.13703 1.01725,2.60964 0.78076,3.83089 -0.54065,2.79227 -4.49263,2.42344 -5.43777,4.75165 -0.33921,0.83563 -0.066,2.13284 0.0473,2.91606 0.25514,1.76369 0.17469,2.60531 0.1755,4.68461 0,1.22163 0.009,2.25941 0.17546,3.40699 0.1833,1.2627 0.24552,1.96756 0.25042,3.40699"
       id="path58" /><path
       style="fill:none;stroke:#ffffff;stroke-width:2;stroke-linecap:round;stroke-linejoin:round;stroke-dasharray:none;stroke-opacity:1"
       d="m 735.79689,497.51178 6.81398,-0.43377 2.98112,-0.3608 3.40699,-0.0592 8.51748,-0.67429 2.55524,-0.18337 2.55525,-0.30757 3.40699,-0.11239 5.96223,-0.44952 2.12937,-0.28983 2.98112,-0.1124 2.98112,-0.31348 3.40699,-0.11239 5.53636,-0.44953 2.55525,-0.34306 2.98111,-0.0572"
       id="path55" /><path
       style="fill:none;stroke:#ffffff;stroke-width:2;stroke-linecap:round;stroke-linejoin:round;stroke-dasharray:none;stroke-opacity:1"
       d="m 647.64095,490.69779 7.23986,0.4101 6.38811,-0.4101"
       id="path52" /><path
       style="fill:none;stroke:#ffffff;stroke-width:2;stroke-linecap:round;stroke-linejoin:round;stroke-dasharray:none;stroke-opacity:1"
       d="m 567.15077,489.42017 2.98112,-0.76893 2.55525,0.40418 5.08485,1.5221 6.41374,-3.17236 5.96224,1.26382 3.40699,-0.85175 4.25874,1.40776 4.68461,-0.34899 5.96224,0.8064 5.53636,-0.32729 2.12937,0.17547 2.12937,-0.29376 4.25874,1.33085 2.98112,0.24842 2.55524,-0.23068 4.68461,-0.73543 3.83287,0.71176 4.68461,0.56193"
       id="path50" /><path
       style="fill:none;stroke:#ffffff;stroke-width:2;stroke-linecap:round;stroke-linejoin:round;stroke-dasharray:none;stroke-opacity:1"
       d="m 445.35082,488.56842 c 1.83419,0.0573 2.5604,0.0411 4.68461,0.98187 1.10423,0.48907 2.15921,1.34184 3.40699,1.28551 2.19187,-0.0989 3.37158,-1.2065 5.53637,-1.1948 1.34186,0.007 2.77226,1.01719 4.20156,0.54219 1.86254,-0.61899 2.93564,-2.76978 5.16766,-2.77409 0.99023,-0.002 2.04999,0.43592 2.98112,0.73345"
       id="path49" /><path
       style="fill:none;stroke:#ffffff;stroke-width:2;stroke-linecap:round;stroke-linejoin:round;stroke-dasharray:none;stroke-opacity:1"
       d="m 557.78155,485.58731 c 0.13861,2.06364 0.44869,6.08402 0.42587,9.36922 -0.0105,1.50917 -0.12418,2.34621 -0.42587,3.83287 -0.28005,1.37998 -0.53474,2.53237 -0.93061,3.83287 -0.92621,3.04269 -2.34665,6.13947 -3.87625,8.94335 -2.66865,4.89186 -6.78971,9.72978 -12.65398,9.79312 -1.51365,0.0164 -2.7982,-0.12806 -4.25874,-0.43572 -7.47135,-1.57383 -13.80269,-5.69926 -19.16432,-11.0609"
       id="path48" /><path
       style="fill:none;stroke:#ffffff;stroke-width:2;stroke-linecap:round;stroke-linejoin:round;stroke-dasharray:none;stroke-opacity:1"
       d="m 550.11581,503.47402 c -0.98448,1.77061 -2.25786,3.53584 -4.68461,4.34943 -2.06739,0.69311 -3.55596,0.39732 -5.53636,-0.3056 -2.34058,-0.83076 -3.5915,-2.01787 -4.68461,-3.61795 l 8.0916,-0.42588 3.40699,-0.0572 3.40699,0.0572"
       id="path46" /><path
       style="fill:none;stroke:#ffffff;stroke-width:2;stroke-linecap:round;stroke-linejoin:round;stroke-dasharray:none;stroke-opacity:1"
       d="m 509.65779,500.06702 c -1.98637,0.53903 -4.45205,0.80996 -6.81399,-0.6112 -3.01805,-1.81596 -5.49338,-5.27624 -5.90308,-8.75803 -0.23276,-1.97807 -0.30495,-4.63603 0.76302,-6.38613 1.00737,-1.65079 2.42683,-2.53785 4.28832,-2.54144 2.05296,-0.004 3.60045,1.15031 5.11048,2.53946"
       id="path45" /><path
       style="fill:none;stroke:#ffffff;stroke-width:2;stroke-linecap:round;stroke-linejoin:round;stroke-dasharray:none;stroke-opacity:1"
       d="m 500.28856,486.43905 c 2.80542,-0.8165 4.53751,1.14926 5.96224,3.407"
       id="path44" /><path
       style="fill:none;stroke:#ffffff;stroke-width:2;stroke-linecap:round;stroke-linejoin:round;stroke-dasharray:none;stroke-opacity:1"
       d="m 670.63817,480.47682 c -0.0273,0.8756 -0.1936,2.02626 -0.31549,2.98112 -0.20987,1.64462 -0.11426,2.25506 -0.11038,4.25874 0,0.89018 -0.017,1.55793 0.11038,2.55524 0.12087,0.94644 0.22959,1.60588 0.36476,2.55524 0.31336,2.20102 1.16362,5.06948 1.94403,7.23986 2.49848,6.94862 7.27048,16.90075 15.46753,17.43521 1.94863,0.12705 2.61585,-0.0533 4.25874,-0.30363 1.66547,-0.25381 3.82639,-0.98221 5.53636,-1.58915 5.79985,-2.05861 10.99752,-6.10094 15.33147,-10.43194"
       id="path43" /><path
       style="fill:none;stroke:#ffffff;stroke-width:2;stroke-linecap:round;stroke-linejoin:round;stroke-dasharray:none;stroke-opacity:1"
       d="m 692.35774,500.4929 c -1.57054,2.16304 -4.22739,3.36972 -6.81398,3.35574 -2.10212,-0.0114 -5.33071,-1.48993 -5.30571,-4.172 0.0149,-1.58125 2.03972,-1.31048 3.17634,-1.31311 3.35691,-0.008 6.08041,0.0453 8.94335,2.12937"
       id="path41" /><path
       style="fill:none;stroke:#ffffff;stroke-width:2;stroke-linecap:round;stroke-linejoin:round;stroke-dasharray:none;stroke-opacity:1"
       d="m 546.28295,480.47682 c 0,2.22236 0.0857,4.32972 0.97991,6.38811 0.97306,2.23997 3.46893,4.82348 1.73306,7.12156 -0.99251,1.31397 -2.52239,1.84924 -3.99059,2.24767"
       id="path40" /><path
       style="fill:none;stroke:#ffffff;stroke-width:2;stroke-linecap:round;stroke-linejoin:round;stroke-dasharray:none;stroke-opacity:1"
       d="m 682.13677,475.79221 c -0.30016,1.56328 -0.29867,2.51858 -1.21455,4.68461 -1.69153,4.00038 -4.51163,9.20791 2.06629,10.22097"
       id="path39" /><path
       style="fill:none;stroke:#ffffff;stroke-width:2;stroke-linecap:round;stroke-linejoin:round;stroke-dasharray:none;stroke-opacity:1"
       d="m 524.1375,476.64395 c 2.17595,-1.18099 4.40884,-2.64055 7.23986,-2.97914 2.10463,-0.25172 4.17075,-0.0294 5.96224,0.4239"
       id="path38" /><path
       style="fill:none;stroke:#ffffff;stroke-width:2;stroke-linecap:round;stroke-linejoin:round;stroke-dasharray:none;stroke-opacity:1"
       d="m 550.54169,472.81109 c 3.45379,-0.87166 4.61116,-0.41546 6.81398,0"
       id="path37" /><path
       style="fill:none;stroke:#ffffff;stroke-width:2;stroke-linecap:round;stroke-linejoin:round;stroke-dasharray:none;stroke-opacity:1"
       d="m 670.63817,466.42298 c 1.71448,-0.90263 3.73853,-1.21689 6.81398,-0.85175"
       id="path35" /><path
       style="fill:none;stroke:#ffffff;stroke-width:2;stroke-linecap:round;stroke-linejoin:round;stroke-dasharray:none;stroke-opacity:1"
       d="m 691.50599,465.14536 3.407,-0.41603 3.83286,0.59347 5.53636,2.80367"
       id="path34" /><path
       style="fill:none;stroke:#ffffff;stroke-width:2;stroke-linecap:round;stroke-linejoin:round;stroke-dasharray:none;stroke-opacity:1"
       d="m 688.09879,455.77613 h 0.85175"
       id="path32" /><path
       style="fill:none;stroke:#ffffff;stroke-width:2;stroke-linecap:round;stroke-linejoin:round;stroke-dasharray:none;stroke-opacity:1"
       d="m 671.91558,454.07263 c -0.66816,2.35609 -1.44597,5.68488 -1.67986,8.51748 -0.12925,1.56554 -0.29496,2.00647 -0.27013,3.40699 0.0209,1.18361 0.17865,1.63156 0.22677,2.55525 0.11022,2.11628 0.0628,1.80334 0.4456,3.83286"
       id="path31" /><path
       style="fill:none;stroke:#ffffff;stroke-width:2;stroke-linecap:round;stroke-linejoin:round;stroke-dasharray:none;stroke-opacity:1"
       d="m 708.54074,450.66564 c -0.33542,2.82513 -0.76278,6.49419 0.91878,9.36923 2.02375,3.4602 6.30511,5.15982 7.83923,8.94335 1.04633,2.58058 -0.54797,7.89754 2.32455,8.84674 2.43528,0.80471 3.24261,-1.79203 4.73393,-3.24532 1.3194,-1.28574 2.89454,-1.80211 4.62546,-1.7587 1.71189,0.0429 3.26581,0.656 4.34941,2.14712 1.09935,1.51278 1.17916,3.10914 1.18695,4.65701 0.007,1.39498 0.0432,2.00989 -0.27801,3.40699 -0.55329,2.40615 -2.07158,4.97139 -3.98861,6.7568 -2.55639,2.38083 -5.35072,3.81101 -8.5096,2.18656"
       id="path29" /><path
       style="fill:none;stroke:#ffffff;stroke-width:2;stroke-linecap:round;stroke-linejoin:round;stroke-dasharray:none;stroke-opacity:1"
       d="m 724.72416,481.75444 c 1.26212,-3.10591 2.60141,-4.64128 5.96224,-4.68461"
       id="path28" /><path
       style="fill:none;stroke:#ffffff;stroke-width:2;stroke-linecap:round;stroke-linejoin:round;stroke-dasharray:none;stroke-opacity:1"
       d="m 546.28274,450.66564 c 5.08978,5.08978 9.27271,10.33878 11.01751,17.46083 0.48645,1.98565 0.44327,2.53701 0.41602,4.25874 -0.0363,2.29407 0.0651,4.84229 0.0651,5.96224"
       id="path27" /><path
       style="fill:none;stroke:#ffffff;stroke-width:2;stroke-linecap:round;stroke-linejoin:round;stroke-dasharray:none;stroke-opacity:1"
       d="m 789.03092,448.96215 c 3.8921,7.17127 7.05724,14.04779 9.81282,21.71957 0.46863,1.3046 0.80004,2.57338 1.00753,3.83286 0.18159,1.10248 0.24415,1.7985 0.25237,2.98112 0.0577,8.31097 0,17.57967 0,25.97831 0,9.49374 0.0652,19.99274 0,29.38531 -0.009,1.23845 -0.0892,1.86972 -0.25041,2.98112 -0.15553,1.07206 -0.15314,1.56973 -0.17746,2.55524 -0.0358,1.44068 -0.63545,3.91498 -0.93258,5.53636 -0.20199,1.10222 -0.0209,1.96309 -0.2011,2.98112 -0.50905,2.87472 -1.60635,6.65752 -2.27131,8.51748 2.13154,0.95156 6.09438,-1.63758 8.94335,-1.69365 3.25743,-0.0641 5.80066,1.86905 8.51748,2.97127"
       id="path26" /><path
       style="fill:none;stroke:#ffffff;stroke-width:2;stroke-linecap:round;stroke-linejoin:round;stroke-dasharray:none;stroke-opacity:1"
       d="m 707.26312,448.1104 c -2.5202,3.51776 -5.56268,6.43219 -9.7951,7.6046 -3.60473,0.99852 -5.76885,1.6499 -8.51748,0.0611 1.95276,-1.95411 4.54565,-4.43871 4.25874,-7.23986 -1.48477,0.57517 -2.90076,1.73829 -4.68462,2.32259 -2.67133,0.87498 -5.55169,0.95571 -8.0916,2.27329 -2.63867,1.36881 -3.44916,3.54623 -4.68462,5.6251 -2.29026,-2.20591 -2.09598,-5.8816 -0.42587,-8.94336"
       id="path25" /><path
       style="fill:none;stroke:#ffffff;stroke-width:2;stroke-linecap:round;stroke-linejoin:round;stroke-dasharray:none;stroke-opacity:1"
       d="m 544.57924,448.1104 c -0.40067,11.58011 -13.68579,19.3618 -23.42307,22.97945 -5.25293,1.9516 -9.96075,3.60428 -14.05384,7.68347"
       id="path24" /><path
       style="fill:none;stroke:#ffffff;stroke-width:2;stroke-linecap:round;stroke-linejoin:round;stroke-dasharray:none;stroke-opacity:1"
       d="m 667.23096,442.99991 c -1.44367,1.49542 -2.86945,3.17014 -3.55685,5.53636 -0.24005,0.82638 -0.46945,1.66315 -0.47909,2.55525 -0.01,0.90924 0.17574,1.65519 0.37854,2.55524 0.51616,2.29084 1.63254,4.22414 3.23153,5.96223"
       id="path22" /><path
       style="fill:none;stroke:#ffffff;stroke-width:2;stroke-linecap:round;stroke-linejoin:round;stroke-dasharray:none;stroke-opacity:1"
       d="m 538.617,436.18593 c 9.31932,0.11382 18.27348,7.88991 20.80671,17.03496 0.66449,2.39885 1.42734,5.643 1.31114,8.0916 -0.11788,2.484 -0.81969,5.52277 -1.25002,7.66573"
       id="path20" /><path
       style="fill:none;stroke:#ffffff;stroke-width:2;stroke-linecap:round;stroke-linejoin:round;stroke-dasharray:none;stroke-opacity:1"
       d="m 733.6673,435.76005 c 4.62981,2.42801 7.78694,5.2875 9.7931,10.22098 0.69375,1.70599 1.31983,3.73882 1.59307,5.53636 0.11635,0.76516 0.12342,1.38889 0.22282,2.12937 0.21732,1.61878 0.3194,3.05705 0.31549,5.11049 -0.004,1.49705 -0.0622,2.11283 -0.25042,3.40699 -0.14284,0.98217 -0.14237,1.92741 -0.28589,2.98112 -0.50815,3.73121 -1.63463,7.56369 -3.05207,11.07272 -3.6755,9.09913 -10.67121,17.1649 -17.27945,24.27482"
       id="path19" /><path
       style="fill:none;stroke:#ffffff;stroke-width:2;stroke-linecap:round;stroke-linejoin:round;stroke-dasharray:none;stroke-opacity:1"
       d="m 491.77087,544.35791 c -3.39782,-0.68232 -7.30295,-1.62286 -10.22098,-3.64555 -3.9581,-2.74365 -7.19076,-7.32048 -8.31834,-12.11178 -0.21036,-0.89384 -0.32043,-1.70592 -0.44953,-2.55525 -0.17146,-1.1279 -0.17548,-1.7378 -0.17548,-2.98111 0,-1.05997 -0.0166,-1.57262 0.11042,-2.55525 0.11534,-0.89245 0.26329,-1.6967 0.41995,-2.55524 0.33911,-1.85825 0.97879,-4.1229 1.599,-5.96224 1.85715,-5.50769 4.70652,-10.64058 6.11997,-16.18321 0.37237,-1.46021 0.75791,-2.71356 1.00947,-4.25874 0.21521,-1.32183 0.5277,-3.87244 0.53629,-5.11049 0.0157,-2.26547 0,-2.81324 0,-5.53636 0,-1.95603 0,-2.80167 0,-4.68461 0,-1.79495 -0.0882,-2.69879 0.11042,-4.25874 0.1048,-0.82318 0.20951,-1.26988 0.29771,-2.12937 0.0629,-0.61297 0.0982,-1.09978 0.19322,-1.7035 1.41442,-8.98572 4.83345,-18.12921 11.3803,-25.11867 4.60015,-4.91113 11.36573,-8.16015 17.82953,-9.4619 1.31623,-0.26508 2.68634,-0.59521 3.83286,-0.70978 1.46694,-0.14658 2.11511,-0.0572 3.83287,-0.0572 1.17685,0 2.7203,-0.008 3.83287,0 0.74478,0.005 1.30667,0.004 2.12937,0.11042 1.19166,0.15401 2.50818,0.38979 3.83286,0.65655 2.23036,0.44917 4.12994,1.19656 5.96224,1.78828"
       id="path18" /><path
       style="fill:none;stroke:#ffffff;stroke-width:2;stroke-linecap:round;stroke-linejoin:round;stroke-dasharray:none;stroke-opacity:1"
       d="m 496.88157,505.17752 c 0,9.55693 0.0539,19.15117 5.11246,27.68181 2.17322,3.66492 5.12997,7.28711 9.36725,8.51748"
       id="path17" /><path
       style="fill:none;stroke:#ffffff;stroke-width:2;stroke-linecap:round;stroke-linejoin:round;stroke-dasharray:none;stroke-opacity:1"
       d="m 516.89765,474.08871 -7.23986,9.36923"
       id="path16" /><path
       style="fill:none;stroke:#ffffff;stroke-width:2;stroke-linecap:round;stroke-linejoin:round;stroke-dasharray:none;stroke-opacity:1"
       d="m 668.93446,441.72229 -1.7035,1.27762 c -0.42612,-0.82859 -0.80826,-1.68201 -0.84191,-2.98112 -0.0426,-1.63734 0.46391,-3.65003 1.51028,-5.10851 1.75192,-2.44185 4.27569,-2.94985 6.99737,-2.98309"
       id="path15" /><path
       style="fill:none;stroke:#ffffff;stroke-width:2;stroke-linecap:round;stroke-linejoin:round;stroke-dasharray:none;stroke-opacity:1"
       d="m 726.42745,424.26146 c 2.88338,2.31935 3.22991,5.47244 4.25874,8.51747 2.53437,-0.85455 6.22887,-0.47371 8.94335,1.27763"
       id="path14" /><path
       style="fill:none;stroke:#ffffff;stroke-width:2;stroke-linecap:round;stroke-linejoin:round;stroke-dasharray:none;stroke-opacity:1"
       d="m 676.60019,431.07544 c -1.2605,-1.77789 -1.71921,-2.95353 -1.27762,-4.68461 0.86912,0.41334 2.13231,1.12731 3.40699,1.46886 1.12806,0.30226 1.73267,0.25288 2.98112,0.23265 6.46907,-0.10482 13.3155,-5.54366 20.01608,-6.63456 1.39486,-0.22709 2.32557,-0.17744 3.83286,-0.17744 1.43277,0 2.13521,-0.0603 3.40699,0.11041 1.38469,0.18591 2.85221,0.54744 4.25874,0.89906 5.09691,1.27423 8.98058,3.71493 12.77622,7.50801"
       id="path13" /><path
       style="fill:none;stroke:#ffffff;stroke-width:2;stroke-linecap:round;stroke-linejoin:round;stroke-dasharray:none;stroke-opacity:1"
       d="m 463.23731,399.98664 -9.97649,22.99719 -7.40745,19.59021 -2.35808,8.51748 -0.53037,2.55524 -0.48502,2.55524 -0.36081,2.98112 -0.19914,2.12937 -0.2918,2.12937 -0.11041,2.98112 v 16.60908 16.18321 l 0.0256,3.83287 0.39827,3.83287 0.17745,2.98111 0.26814,2.12937 1.25988,7.23986"
       id="path11" /><path
       style="fill:none;stroke:#ffffff;stroke-width:2;stroke-linecap:round;stroke-linejoin:round;stroke-dasharray:none;stroke-opacity:1"
       d="m 453.44221,447.25865 c -1.03094,-3.54222 4.16147,-10.55885 8.41693,-9.10898 1.86479,0.63535 -0.67464,4.06328 -1.31311,4.84826 -0.69599,0.85569 -1.51622,1.60697 -2.41921,2.23979 -1.43909,1.00853 -3.08173,1.38586 -4.68461,2.02093"
       id="path10" /><path
       style="fill:none;stroke:#ffffff;stroke-width:2;stroke-linecap:round;stroke-linejoin:round;stroke-dasharray:none;stroke-opacity:1"
       d="m 797.54793,399.13489 c 0.55756,1.71218 0.3783,4.44943 0.42783,7.23986 0.0128,0.72242 0.0562,1.32085 0.1735,2.12937 0.11755,0.81023 0.21537,1.404 0.24254,2.12937 0.0422,1.12799 0.008,3.06605 0.008,4.25874 0,1.58818 -0.0721,2.33378 0.0255,3.83286 0.10025,1.53721 0.37328,2.42403 0.39828,3.83287 0.0379,2.14745 -0.11673,5.02628 0.0277,7.23986 0.22908,3.51257 0.40028,8.08096 0.40028,11.49859 0,1.26265 -0.0708,2.10091 0.0571,3.407 0.11776,1.20147 0.32162,1.93321 0.36085,2.98111 0.0597,1.59472 0.008,4.24991 0.008,5.96224 0,2.00084 -0.11294,3.37476 0.0571,5.11049 0.16217,1.65485 0.36251,2.43564 0.36872,4.25874"
       id="path9" /><path
       style="fill:none;stroke:#ffffff;stroke-width:2;stroke-linecap:round;stroke-linejoin:round;stroke-dasharray:none;stroke-opacity:1"
       d="m 444.49839,399.13489 c -0.005,1.50093 -0.15035,2.53598 -0.31546,3.83287 -0.11469,0.90084 -0.0929,1.3396 -0.11239,2.12937 -0.0267,1.07954 -0.10469,1.56436 -0.24842,2.55524 -0.18162,1.25197 -0.16499,1.97628 -0.17548,3.40699 -0.01,1.30232 -0.16086,2.1927 -0.31546,3.40699 -0.16718,1.31314 -0.0996,1.84897 -0.11041,3.407 -0.0124,1.78004 -0.28587,2.50468 -0.40024,4.25874 -0.11132,1.70731 -0.0256,2.4345 -0.0256,3.83286 0,2.73427 -0.18191,4.94757 0.42587,6.81398 1.95817,-2.67749 3.75488,-6.82963 5.51074,-10.22097 3.92209,-7.57531 7.20367,-15.49858 10.2466,-23.42307"
       id="path8" /><path
       style="fill:none;stroke:#ffffff;stroke-width:2;stroke-linecap:round;stroke-linejoin:round;stroke-dasharray:none;stroke-opacity:1"
       d="m 432.99979,399.13489 c 0,1.82358 0.0682,5.20801 -0.008,7.23986 -0.0486,1.29765 -0.29585,1.92687 -0.39235,3.40699 -0.14904,2.28585 -0.0256,3.33461 -0.0256,5.53636 0,1.78933 -0.002,3.39606 -0.2504,5.11049 -0.24621,1.69732 -0.14621,3.35064 -0.17745,5.11049 -0.0214,1.20831 -0.24249,2.13928 -0.36672,3.40699 -0.11551,1.17873 -0.0485,1.72745 -0.0572,2.98112 -0.0105,1.51791 -0.14379,2.05862 -0.31546,3.40699 -0.1389,1.09103 -0.10957,1.89544 -0.11041,2.98112 -10e-4,1.55861 -0.40338,4.76864 -0.42588,6.38811 -0.0211,1.51945 -0.22943,2.41175 -0.36869,3.83286 -0.10122,1.03295 -0.0498,1.55298 -0.0572,2.55525 -0.009,1.27743 -0.084,1.8339 -0.2504,2.98111 -0.16458,1.13454 -0.15287,1.73196 -0.17745,2.98112 -0.0195,0.99197 -0.10667,1.57809 -0.24842,2.55524 -0.14275,0.98406 -0.1369,1.50799 -0.18336,2.55525 -0.0452,1.01903 -0.17286,1.49706 -0.30758,2.55524 -0.14674,1.15256 -0.0734,1.79437 -0.1183,2.98112 -0.0355,0.93983 -0.38704,3.8093 -0.42587,4.68461 -0.0339,0.7651 -0.12175,1.29688 -0.24251,2.12937 -0.1198,0.82581 -0.13546,1.29682 -0.18139,2.12937 -0.0461,0.83541 -0.12458,1.30277 -0.24449,2.12937 -0.1684,1.1609 -0.11992,2.10733 -0.28589,3.407 -0.26091,2.04316 -0.31952,3.41684 -0.56586,5.11048 -0.26,1.7876 -0.45724,3.93976 -0.625,5.96224 -0.14283,1.7219 -0.43017,3.60109 -0.65262,5.11049 -0.11458,0.77745 -0.14253,1.36771 -0.23068,2.12937 -0.29068,2.51143 -1.01595,6.41301 -1.47281,8.94335 -0.69763,3.86377 -1.71025,7.72529 -3.1566,11.4986"
       id="path7" /><path
       style="fill:none;stroke:#ffffff;stroke-width:2;stroke-linecap:round;stroke-linejoin:round;stroke-dasharray:none;stroke-opacity:1"
       d="m 790.26076,439.75064 c 0.90613,1.14479 4.08217,1.10156 5.58368,1.1199"
       id="path89" /><path
       id="path88"
       style="fill:none;stroke:#ffffff;stroke-width:2;stroke-linecap:round;stroke-linejoin:round;stroke-dasharray:none;stroke-opacity:1"
       d="m 789.66106,433.99312 c -0.30796,-1.38585 -1.54275,-4.59009 -3.18585,-5.8988 -1.68902,2.38237 -2.47345,6.32262 -2.53524,8.69971 -0.0464,1.94326 0.87644,6.38781 2.68061,7.69423 2.10399,-1.40366 2.97663,-4.5307 3.10124,-5.51023 0.0872,-0.68562 0.37781,-3.01127 -0.0608,-4.98491 z" /><path
       style="fill:none;stroke:#ffffff;stroke-width:2;stroke-linecap:round;stroke-linejoin:round;stroke-dasharray:none;stroke-opacity:1"
       d="m 752.83116,398.70902 c 0.005,1.37548 -0.0302,2.5541 0.46135,3.83286 2.00979,5.23034 8.10703,3.92587 11.34282,7.3069 1.43276,1.49703 1.38362,3.09607 1.39793,5.04345 0.0145,1.94715 0.25697,3.74974 1.27958,5.53636 2.68249,4.68669 7.82479,3.0509 11.00369,6.42163 1.70988,1.81304 1.3665,4.1126 2.228,6.35459 0.78067,2.0318 1.73837,3.11931 3.37543,3.83286"
       id="path6" /><path
       style="fill:none;stroke:#ffffff;stroke-width:2;stroke-linecap:round;stroke-linejoin:round;stroke-dasharray:none;stroke-opacity:1"
       d="m 488.78928,398.28314 c -1.2826,2.67406 -2.78262,5.23248 -5.53636,6.65822 -2.11039,1.09266 -4.92665,0.80183 -6.74695,2.43104 -1.54109,1.37932 -1.40535,3.66619 -2.39947,5.38848 -1.16133,2.01197 -3.58311,3.63429 -5.75917,4.07539 -1.23897,0.25114 -2.06786,0.18442 -3.40699,0.18533"
       id="path1" /><path
       style="display:inline;fill:none;fill-rule:evenodd;stroke:#ffffff;stroke-width:3;stroke-linecap:round;stroke-linejoin:round;stroke-dasharray:none;stroke-opacity:1"
       d="m 532.89508,481.74757 -10e-4,1.87132"
       id="path2" /><path
       style="fill:none;fill-rule:evenodd;stroke:#ffffff;stroke-width:3;stroke-linecap:round;stroke-linejoin:round;stroke-dasharray:none;stroke-opacity:1"
       d="m 553.89499,480.73048 0.0598,1.85469"
       id="path3" /><path
       style="fill:none;fill-rule:evenodd;stroke:#ffffff;stroke-width:3;stroke-linecap:round;stroke-linejoin:round;stroke-dasharray:none;stroke-opacity:1"
       d="m 674.68938,475.22623 v 1.6752"
       id="path4" /><path
       style="fill:none;fill-rule:evenodd;stroke:#ffffff;stroke-width:3;stroke-linecap:round;stroke-linejoin:round;stroke-dasharray:none;stroke-opacity:1"
       d="m 696.04828,475.88434 -0.0598,2.33333"
       id="path5" /></g></svg>
