<?xml version="1.0" encoding="UTF-8" standalone="no"?>
<!-- Created with Inkscape (http://www.inkscape.org/) -->

<svg
   width="400.80597"
   height="314.05969"
   viewBox="0 0 400.80597 314.05969"
   version="1.1"
   id="svg1"
   xml:space="preserve"
   xmlns="http://www.w3.org/2000/svg"
   xmlns:svg="http://www.w3.org/2000/svg"><defs
     id="defs1" /><g
     id="layer1"
     transform="translate(-342.09701,-192.5)"><path
       style="fill:none;stroke:#ffffff;stroke-width:2;stroke-linecap:round;stroke-linejoin:round;stroke-dasharray:none;stroke-opacity:1"
       d="m 696.92783,474.63102 c 1.67092,-1.25754 3.16243,-0.83441 5.57217,-0.86236 2.38248,-0.0276 3.75223,0 5.97015,0 2.42436,0 9.43881,-0.59185 11.80763,0.39801 3.6621,1.53026 2.52073,5.16464 2.52073,9.15423 0,5.36949 1.95326,9.60372 -1.59201,12.27196 -2.90106,2.18338 -14.69673,0.9089 -18.7065,0.86236 -1.68454,-0.0196 -4.26332,0.12269 -5.57217,-0.86236 -2.31769,-1.74429 -1.5845,-4.25709 -1.59201,-7.49585 -0.006,-2.38674 -0.0861,-6.19468 0,-8.3582 0.0627,-1.57376 -0.22399,-3.74104 1.59201,-5.10779"
       id="path368" /><path
       style="fill:none;stroke:#ffffff;stroke-width:2;stroke-linecap:round;stroke-linejoin:round;stroke-dasharray:none;stroke-opacity:1"
       d="m 696.92783,365.9743 c 1.64563,-1.23851 3.59962,-0.83947 5.57217,-0.86236 2.59081,-0.0301 6.83612,0 9.55224,0 3.23158,0 6.88229,-0.84755 9.15426,0.86236 2.39053,1.79913 1.59201,5.47057 1.59201,8.68988 0,5.3695 1.95326,9.60372 -1.59201,12.27196 -2.90106,2.18338 -14.69673,0.90889 -18.7065,0.86237 -1.68447,-0.0196 -4.26332,0.12272 -5.57217,-0.86237 -2.31769,-1.74433 -1.5845,-4.25705 -1.59201,-7.49584 -0.006,-2.38675 -0.0861,-6.19469 0,-8.35821 0.0623,-1.56724 -0.2191,-3.74472 1.59201,-5.10779"
       id="path363" /><path
       style="fill:none;stroke:#ffffff;stroke-width:2;stroke-linecap:round;stroke-linejoin:round;stroke-dasharray:none;stroke-opacity:1"
       d="m 363.79354,365.9743 c 4.1446,-3.11928 9.61916,-0.86236 16.3184,-0.86236 2.78794,0 5.98408,-0.62491 7.9602,0.86236 1.43363,1.07895 1.48418,2.51223 1.55887,3.91376 0.13237,2.48389 0.0332,5.66855 0.0332,8.35821 0,3.82886 1.02782,6.71815 -1.59203,8.68987 -1.32858,0.99992 -3.84467,0.84233 -5.57215,0.86237 -5.26422,0.0611 -12.78589,1.03074 -17.77778,-0.39801 -1.68554,-0.48243 -2.07622,-1.78651 -2.38805,-3.21724 -0.52896,-2.42689 -0.1327,-3.81672 -0.1327,-5.93699 0,-2.78254 -0.62493,-10.60345 1.59205,-12.27197"
       id="path362" /><path
       style="fill:none;stroke:#ffffff;stroke-width:2;stroke-linecap:round;stroke-linejoin:round;stroke-dasharray:none;stroke-opacity:1"
       d="m 364.23216,475.27035 c 4.14459,-3.11928 9.61916,-0.86236 16.3184,-0.86236 2.78794,0 5.98408,-0.62491 7.9602,0.86236 1.43362,1.07895 1.48418,2.51223 1.55886,3.91376 0.13237,2.48389 0.0332,5.66855 0.0332,8.35821 0,3.82886 1.02782,6.71815 -1.59204,8.68987 -1.32857,0.99992 -3.84467,0.84233 -5.57214,0.86237 -5.26423,0.0611 -12.7859,1.03074 -17.77778,-0.39801 -1.68554,-0.48244 -2.07623,-1.78651 -2.38806,-3.21724 -0.52896,-2.42689 -0.13269,-3.81672 -0.13269,-5.93699 0,-2.78255 -0.62493,-10.60345 1.59205,-12.27197"
       id="path362-1" /><path
       style="fill:none;stroke:#ffffff;stroke-width:2;stroke-linecap:round;stroke-linejoin:round;stroke-dasharray:none;stroke-opacity:1"
       d="m 363.79354,312.24296 c 4.1446,-3.11928 9.61915,-0.86236 16.3184,-0.86236 2.78796,0 5.98404,-0.62493 7.9602,0.86236 2.11624,1.59271 1.5855,4.66939 1.59204,7.49585 0.006,2.69733 0.098,5.86457 -0.0332,8.3582 -0.0823,1.56231 -0.17408,2.99332 -1.55887,4.37811 -2.37385,2.37386 -6.48703,1.59204 -10.34824,1.59204 -6.11694,0 -10.2875,2.05079 -13.93034,-1.59204 -2.26684,-2.26683 -2.56665,-18.30046 0,-20.23216"
       id="path360" /><path
       style="fill:none;stroke:#ffffff;stroke-width:2;stroke-linecap:round;stroke-linejoin:round;stroke-dasharray:none;stroke-opacity:1"
       d="m 404.17667,278.22491 c 3.95029,-1.81866 10.47629,-0.57423 16.37304,-0.57423 h 245.09708 c 6.09604,0 11.14252,-1.42859 15.14424,0.57423 1.91871,0.96033 1.58812,3.27162 1.5941,4.99137 v 144.70549 c -0.006,1.80015 0.18962,4.11438 -1.5941,5.30056 -1.29966,0.86428 -3.02826,0.9932 -5.57948,1.06012 -4.33381,0.11367 -5.41031,0 -10.76036,0 H 419.35412 c -4.28742,0 -11.77991,1.10959 -15.14422,-0.57423 -2.27789,-1.14008 -1.5879,-3.20509 -1.59412,-4.99137 -0.0124,-3.56378 -0.0297,-11.7154 0,-15.10662 0.0896,-10.21918 -0.54995,-111.98114 -0.46498,-125.62344 0.0158,-2.53837 -1.30429,-8.22868 2.02587,-9.76188"
       id="path357" /><path
       style="fill:none;stroke:#ffffff;stroke-width:2;stroke-linecap:round;stroke-linejoin:round;stroke-dasharray:none;stroke-opacity:1"
       d="m 405.06676,459.40142 c 3.94512,-2.73121 10.46257,-0.86236 16.35159,-0.86236 h 244.77612 c 6.08806,0 11.12793,-2.14541 15.12441,0.86236 1.9162,1.44217 1.58604,4.91318 1.59201,7.49585 v 34.8297 m -279.83913,0.001 c -0.0321,-13.35121 -0.046,-23.39105 -0.0282,-27.66683 0.0158,-3.81203 -1.30258,-12.35754 2.02323,-14.66003"
       id="path357-3" /><path
       style="fill:none;stroke:#ffffff;stroke-width:2;stroke-linecap:round;stroke-linejoin:round;stroke-dasharray:none;stroke-opacity:1"
       d="m 495.5597,370.27612 15.89552,0.14925"
       id="path356" /><path
       style="fill:none;stroke:#ffffff;stroke-width:2;stroke-linecap:round;stroke-linejoin:round;stroke-dasharray:none;stroke-opacity:1"
       d="m 402.68657,358.52239 c 22.88932,4.28623 43.18838,6.6096 64.88806,9.08375 10.34636,1.17967 24.66506,2.42025 31.1194,2.74461 -4.48544,0.10304 -15.29115,1.01329 -18.95522,1.56716 -32.01311,4.83903 -76.91668,11.9403 -76.9403,11.9403"
       id="path355" /><path
       style="fill:none;stroke:#ffffff;stroke-width:2;stroke-linecap:round;stroke-linejoin:round;stroke-dasharray:none;stroke-opacity:1"
       d="m 572.35075,363.26119 c 7.29078,-1.37849 101.40269,-12.01492 109.90671,-13.20895"
       id="path354" /><path
       style="fill:none;stroke:#ffffff;stroke-width:2;stroke-linecap:round;stroke-linejoin:round;stroke-dasharray:none;stroke-opacity:1"
       d="m 530.5597,419.3806 c 0.43057,-9.59004 -0.5706,-19.10583 -1.22719,-28.65672 -0.38488,-3.91288 -2.09613,-4.19282 -4.34494,-6.69983 -1.46109,-1.62886 -1.51029,-3.18708 -1.59205,-5.24047 -0.3416,-9.22573 1.25385,-18.3429 2.38806,-27.46268 1.47698,-12.93372 9.50195,-15.72304 16.71642,-15.48923 6.74802,0.21868 12.79022,3.5157 15.48923,10.71311 1.0622,2.83255 4.48941,25.30919 3.51578,32.2388 -0.65717,4.67689 -5.27653,6.42485 -5.83749,10.74627 -1.70824,9.43905 -1.22715,19.10431 -1.22715,28.65672"
       id="path353" /><path
       style="fill:none;stroke:#ffffff;stroke-width:2;stroke-linecap:round;stroke-linejoin:round;stroke-dasharray:none;stroke-opacity:1"
       d="m 540.11194,307.8383 c 5.74321,-1.48034 10.70369,5.53365 10.34826,10.04976 -0.28256,3.59023 -2.91613,7.97807 -6.76617,9.15422 -6.07537,1.85595 -9.33882,-4.57329 -9.51908,-9.15422 -0.14736,-3.74479 1.41812,-8.88499 5.93699,-10.04976"
       id="path352" /><path
       style="fill:none;stroke:#ffffff;stroke-width:2;stroke-linecap:round;stroke-linejoin:round;stroke-dasharray:none;stroke-opacity:1"
       d="m 696.92781,257.58624 c 1.64566,-1.23851 3.59955,-0.83947 5.57217,-0.86236 2.5908,-0.0301 6.83612,0 9.55223,0 3.23166,0 6.88233,-0.84753 9.15426,0.86236 2.3906,1.7992 1.59201,5.47054 1.59201,8.68988 0,5.58205 1.66439,9.66684 -2.52072,12.27196 -3.33232,2.07427 -13.55721,0.91132 -17.77778,0.86237 -1.72747,-0.0201 -4.24361,0.13754 -5.57217,-0.86237 -1.98088,-1.49084 -1.5618,-3.69934 -1.59201,-6.30181 -0.0285,-2.45825 -0.0911,-7.26282 0,-9.55224 0.0623,-1.56731 -0.21904,-3.74475 1.59201,-5.10779"
       id="path351" /><path
       style="fill:none;stroke:#ffffff;stroke-width:2;stroke-linecap:round;stroke-linejoin:round;stroke-dasharray:none;stroke-opacity:1"
       d="m 363.79352,257.58624 c 1.60254,-1.20608 3.44234,-0.83765 5.57213,-0.86236 2.88358,-0.0334 7.71917,0 10.74627,0 2.78796,0 5.98403,-0.62493 7.9602,0.86236 2.44665,1.84137 1.59204,6.27463 1.59204,9.88391 0,5.10584 1.40197,8.63614 -2.52073,11.07793 -3.60452,2.24373 -21.5825,2.35317 -24.07961,-1.65836 -1.77605,-2.85319 -2.75189,-16.68319 0.7297,-19.30348"
       id="path350" /><path
       style="fill:none;stroke:#ffffff;stroke-width:2;stroke-linecap:round;stroke-linejoin:round;stroke-dasharray:none;stroke-opacity:1"
       d="m 696.92781,202.66087 c 1.32856,-0.99988 3.84474,-0.84233 5.57217,-0.86236 4.22057,-0.049 14.44546,-1.21192 17.77778,0.86236 3.89738,2.42603 2.52072,5.95641 2.52072,11.07794 0,3.9542 0.89181,7.76064 -1.59201,10.14925 -2.17074,2.08755 -5.05207,1.76412 -7.96023,1.79104 -3.0464,0.0282 -9.00507,0.1169 -11.94029,0 -1.80621,-0.0719 -3.83528,0.0987 -5.10779,-1.59201 -1.05829,-1.40618 -0.84072,-2.98056 -0.86236,-4.37813 -0.0387,-2.49972 0,-5.65692 0,-8.35821 0,-3.82882 -1.02787,-6.71813 1.59201,-8.68988"
       id="path349" /><path
       style="fill:none;stroke:#ffffff;stroke-width:2;stroke-linecap:round;stroke-linejoin:round;stroke-dasharray:none;stroke-opacity:1"
       d="m 697.12714,312.61307 c 1.64566,-1.23851 3.59955,-0.83947 5.57217,-0.86236 2.5908,-0.0301 6.83612,0 9.55224,0 3.23165,0 6.88232,-0.84753 9.15425,0.86236 2.39061,1.7992 1.59201,5.47054 1.59201,8.68988 0,5.58205 1.66439,9.66684 -2.52072,12.27196 -3.33231,2.07427 -13.55721,0.91132 -17.77778,0.86237 -1.72747,-0.0201 -4.24361,0.13754 -5.57217,-0.86237 -1.98088,-1.49084 -1.5618,-3.69934 -1.59201,-6.30181 -0.0285,-2.45825 -0.0911,-7.26282 0,-9.55224 0.0623,-1.56731 -0.21903,-3.74475 1.59201,-5.10779"
       id="path351-5" /><path
       style="fill:none;stroke:#ffffff;stroke-width:2;stroke-linecap:round;stroke-linejoin:round;stroke-dasharray:none;stroke-opacity:1"
       d="m 364.72222,202.66087 c 3.54973,-2.20962 18.81995,-1.96923 22.42123,-0.46438 3.30931,1.38287 2.5128,4.53755 2.52073,7.96023 0.006,2.67097 0.20561,7.12461 -0.0332,9.55224 -0.19074,1.93905 -0.21159,3.69104 -2.48756,5.10778 -1.47431,0.91772 -2.8143,0.83413 -4.64345,0.86236 -3.2568,0.0503 -8.64239,0.0381 -11.9403,0 -3.44772,-0.0399 -5.78475,0.22815 -7.49586,-2.52072 -1.9694,-3.16381 -2.26556,-18.05494 1.65838,-20.49751"
       id="path348" /><path
       id="path345"
       style="fill:none;stroke:#ffffff;stroke-width:2;stroke-linecap:round;stroke-linejoin:round;stroke-dasharray:none;stroke-opacity:1"
       d="M 343.09701,193.5 V 505.5597 M 741.90299,193.5 v 312.0597" /><path
       style="fill:none;stroke:#ffffff;stroke-width:2;stroke-linecap:round;stroke-linejoin:round;stroke-dasharray:none;stroke-opacity:1"
       d="m 364.52457,420.46968 c 3.54978,-2.20966 18.81994,-1.96921 22.42123,-0.46434 3.30929,1.38286 2.5128,4.53748 2.52073,7.96019 0.006,2.67097 0.20561,7.12462 -0.0332,9.55224 -0.19074,1.93913 -0.2116,3.69104 -2.48756,5.10778 -1.47427,0.9177 -2.81432,0.83414 -4.64345,0.86237 -3.2568,0.0503 -8.64239,0.0382 -11.9403,0 -3.4477,-0.0399 -5.78475,0.22813 -7.49586,-2.52073 -1.96942,-3.16383 -2.26554,-18.05495 1.65838,-20.49751"
       id="path358-7" /><path
       style="fill:none;stroke:#ffffff;stroke-width:2;stroke-linecap:round;stroke-linejoin:round;stroke-dasharray:none;stroke-opacity:1"
       d="m 696.82863,420.37427 c 1.32856,-0.99988 3.84474,-0.84233 5.57217,-0.86237 4.22057,-0.049 14.44547,-1.21191 17.77778,0.86237 3.89738,2.42603 2.52073,5.9564 2.52073,11.07793 0,3.95421 0.89181,7.76065 -1.59201,10.14926 -2.17075,2.08754 -5.05208,1.76412 -7.96023,1.79104 -3.0464,0.0282 -9.00508,0.1169 -11.9403,0 -1.80621,-0.0719 -3.83527,0.0987 -5.10778,-1.59201 -1.0583,-1.40619 -0.84072,-2.98056 -0.86237,-4.37814 -0.0387,-2.49971 0,-5.65692 0,-8.35821 0,-3.82881 -1.02787,-6.71812 1.59201,-8.68987"
       id="path349-9" /><path
       style="fill:none;stroke:#ffffff;stroke-width:2;stroke-linecap:round;stroke-linejoin:round;stroke-dasharray:none;stroke-opacity:1"
       d="m 681.71686,197.88931 v 43.72437 c -0.006,2.70341 0.18937,6.17883 -1.59201,7.96019 -1.29796,1.29795 -3.02429,1.49155 -5.57217,1.59205 -4.32814,0.17071 -5.40324,0 -10.74627,0 H 419.03029 c -4.28179,0 -11.76448,1.66635 -15.12438,-0.86236 -2.2749,-1.71212 -1.58583,-4.81329 -1.59204,-7.49585 -0.0124,-5.35196 -0.0297,-17.59376 0,-22.68656 0.0178,-3.04693 0.007,-11.51279 -0.0214,-23.28608"
       id="path357-8" /></g></svg>
